<svg viewBox="0 0 150.1 150.1" version="1.1" xmlns="http://www.w3.org/2000/svg" id="ICONS">
  
  <defs>
    <style>
      .st0, .st1, .st2, .st3, .st4 {
        fill: none;
      }

      .st1 {
        stroke-width: .7px;
      }

      .st1, .st2 {
        stroke-linecap: round;
      }

      .st1, .st2, .st4 {
        stroke: #221f20;
      }

      .st1, .st3, .st4 {
        stroke-miterlimit: 10;
      }

      .st2 {
        stroke-dasharray: 0 0 0 0 0 3;
        stroke-linejoin: round;
      }

      .st5 {
        fill: #221f20;
      }

      .st6 {
        fill: #fff;
      }

      .st3 {
        stroke: #9b9b9b;
      }

      .st3, .st4 {
        stroke-width: 1px;
      }
    </style>
  </defs>
  <g>
    <rect height="149.6" width="149.6" y=".2" x=".2" class="st0"></rect>
    <rect transform="translate(150.1 0) rotate(90)" height="129.6" width="129.6" y="10.2" x="10.2" class="st0"></rect>
    <circle r=".4" cy="45.7" cx="44.7" class="st5"></circle>
    <g>
      <g>
        <line y2="62.9" x2="21.7" y1="62.9" x1="19.3" class="st1"></line>
        <line y2="62.9" x2="16.9" y1="62.9" x1="14.4" class="st1"></line>
      </g>
      <g>
        <line y2="59.3" x2="18.1" y1="61.7" x1="18.1" class="st1"></line>
        <line y2="64" x2="18.1" y1="66.4" x1="18.1" class="st1"></line>
      </g>
    </g>
    <path d="M88.7,32.6v2.1c-1.5.4-6.7,1.9-8.3,2.4,0,0-1.1-.8-1.1-.8.3-1.2-1-2.1,1.5-2.5,1.9-.3,6.1-.9,7.9-1.2Z" class="st4"></path>
    <path d="M41,110.4c-4.6-.1-22.1-13.1-26.7-17.9-.9-.9-2-2.4-1.5-4.1l6.5,4.5" class="st3"></path>
    <polyline points="73.9 36.1 77.8 32.2 84.5 35.3 80.8 39.4" class="st4"></polyline>
    <path d="M57.1,121.2c3.2-6.6-34.8-24.7-38.2-27.7,5.4,4.8,37.1,29.6,39.2,27.5.6-.2,3-2.9,3-2.9,1-1,47.5-57.2,48.6-58,4.2-3.1-45.4-31.6-46.6-27.6-4.8,5.1-47.4,49.6-50.4,55.9l6.2,5.1" class="st3"></path>
    <path d="M60.5,35.1c3.6,1.9,43,18,45.9,29" class="st4"></path>
    <path d="M16.5,83.4c8.6,7.2,43.3,22.5,45.8,33.4" class="st3"></path>
    <path d="M29.6,68c6.1,2.9,47.4,24.4,46.3,32.2" class="st3"></path>
    <path d="M46.8,49.9c6-.3,31.1,16.1,41.8,22.9,2.1,1.7,4,3.1,3.8,7.8" class="st3"></path>
    <path d="M53.9,42.1c3.8-.8-3.9,5.4-3.8,6,0,0-1.6-.2-1.6-.2" class="st6"></path>
    <path d="M56.6,42.8l-5.2,5.7,1.7.7,5.2-5.7s-1.4-.7-1.7-.7Z" class="st6"></path>
    <polygon points="54.5 49.8 59.6 44.1 61.4 44.8 56.2 50.7 54.5 49.8" class="st6"></polygon>
    <polygon points="57.6 51.5 62.7 45.8 64.5 46.5 59.3 52.4 57.6 51.5" class="st6"></polygon>
    <path d="M65.9,47.4l-5.1,5.8,1.6,1,5.2-5.8s-1.3-1-1.7-1Z" class="st6"></path>
    <polygon points="64 55.2 69.1 49.5 70.9 50.2 65.7 56.1 64 55.2" class="st6"></polygon>
    <path d="M72.3,51.1l-5.1,5.8,1.6,1,5.2-5.8s-1.3-1-1.7-1Z" class="st6"></path>
    <path d="M79.6,55.1c-1.2,1.2-4.4,4.8-5.6,6.1,0,0,1.7,1.2,1.7,1.2l5.8-6.3-1.9-1Z" class="st6"></path>
    <path d="M75.9,53c-1.2,1.2-4.4,4.8-5.6,6.1,0,0,1.7,1.2,1.7,1.2l5.8-6.3-1.9-1Z" class="st6"></path>
    <polygon points="83.1 57.1 77.3 63.3 79 64.5 85 58 83.1 57.1" class="st6"></polygon>
    <polygon points="86.3 59.1 80.5 65.4 82.3 66.6 87.8 60.3 86.3 59.1" class="st6"></polygon>
    <path d="M133.2,53.3c-3.8,6.1-17.1-5.5-27.6-11.1,3.5,2.8,24.7,5.6,27.6,11.1Z" class="st3"></path>
    <path d="M86.4,31c2.6-5.6,14.1,2.1,19.7,3.7,0,0,18.7,6.9,20.8,7.4,8.7,1.4,15.2,2.7,6,11.6-2.8-5.4-8.2-.4-26.5-10.8-5-2.9-20.1-11.1-17.1-4.5-1.3-1-1.7-1.7-2.1-2.2s-.7-1.2-.8-1.9v-.5c-.4-.9-.4-2,0-2.9Z" class="st3"></path>
    <path d="M97.4,38.5c-4.4,4-12.3-1.1-7.2-2,0,0,1.4-.6,7.2,2Z" class="st3"></path>
    <polyline points="73.8 36.1 77.5 32.9 83.9 35.4 80.3 38.8" class="st4"></polyline>
    <path d="M57.1,121.2c3.2-6.6-34.8-24.7-38.2-27.7,5.4,4.8,37.1,29.6,39.2,27.5.6-.2,3-2.9,3-2.9,1-1,47.5-57.2,48.6-58,4.2-3.1-45.4-31.6-46.6-27.6-4.8,5.1-47.4,49.6-50.4,55.9l6.2,5.1" class="st4"></path>
    <path d="M16.5,83.4c8.6,7.2,43.3,22.5,45.8,33.4" class="st4"></path>
    <path d="M29.6,68c6.1,2.9,47.4,24.4,46.3,32.2" class="st4"></path>
    <path d="M46.8,49.9c6-.3,31.1,16.1,41.8,22.9,2.1,1.7,4,3.1,3.8,7.8" class="st4"></path>
    <path d="M53.9,42.1c3.8-.8-3.9,5.4-3.8,6,0,0-1.6-.2-1.6-.2" class="st5"></path>
    <path d="M56.6,42.8l-5.2,5.7,1.7.7,5.2-5.7s-1.4-.7-1.7-.7Z" class="st5"></path>
    <polygon points="54.5 49.8 59.6 44.1 61.4 44.8 56.2 50.7 54.5 49.8" class="st5"></polygon>
    <polygon points="57.6 51.5 62.7 45.8 64.5 46.5 59.3 52.4 57.6 51.5" class="st5"></polygon>
    <path d="M65.9,47.4l-5.1,5.8,1.6,1,5.2-5.8s-1.3-1-1.7-1Z" class="st5"></path>
    <polygon points="64 55.2 69.1 49.5 70.9 50.2 65.7 56.1 64 55.2" class="st5"></polygon>
    <path d="M72.3,51.1l-5.1,5.8,1.6,1,5.2-5.8s-1.3-1-1.7-1Z" class="st5"></path>
    <path d="M79.6,55.1c-1.2,1.2-4.4,4.8-5.6,6.1,0,0,1.7,1.2,1.7,1.2l5.8-6.3-1.9-1Z" class="st5"></path>
    <path d="M75.9,53c-1.2,1.2-4.4,4.8-5.6,6.1,0,0,1.7,1.2,1.7,1.2l5.8-6.3-1.9-1Z" class="st5"></path>
    <polygon points="83.1 57.1 77.3 63.3 79 64.5 85 58 83.1 57.1" class="st5"></polygon>
    <polygon points="86.3 59.1 80.5 65.4 82.3 66.6 87.8 60.3 86.3 59.1" class="st5"></polygon>
    <path d="M133.2,53.3c-3.8,6.1-17.1-5.5-27.6-11.1,3.5,2.8,24.7,5.6,27.6,11.1Z" class="st4"></path>
    <path d="M86.4,31c2.6-5.6,14.1,2.1,19.7,3.7,0,0,18.7,6.9,20.8,7.4,8.7,1.4,15.2,2.7,6,11.6-2.8-5.4-8.2-.4-26.5-10.8-5-2.9-20.1-11.1-17.1-4.5-1.3-1-1.7-1.7-2.1-2.2s-.7-1.2-.8-1.9v-.5c-.4-.9-.4-2,0-2.9Z" class="st4"></path>
    <path d="M97.4,38.3c-4.4,3.8-12-.9-7-1.8,0,0,1.3-.6,7,1.8Z" class="st4"></path>
    <path d="M72.8,30.2s-5.7-3-9.8-2.8l-17.4,17.3" class="st1"></path>
    <polyline points="46.9 123.2 58.3 130.6 70.9 116.2" class="st2"></polyline>
  </g>
  <path d="M90.5,29.3c4.6,0,12,4.5,16.1,5.7h0s18.7,6.9,20.8,7.4c8.7,1.4,15.2,2.7,6,11.6,0,0,0,0,0,0-.7.9-1.8,1.3-3,1.3-4.6,0-12.1-5.4-19.3-9.9-1.3-.7-2.7-1.4-4.2-2.2-3.6-2.1-12.6-7-16.1-7s-1.5.3-1.4,1.2c.2-.3.7-.5,1.5-.7,0,0,.1,0,.5,0,.8,0,2.6.3,6.4,1.9-1.2,1.1-2.7,1.5-4.1,1.5s-3.3-.6-4-1.3c0,0,0,0,0,0-1.3-1-1.7-1.7-2.1-2.2-.2-.3-.4-.7-.5-1-1.2.3-2.6.7-3.8,1.1l-2.6,2.5c14.6,7.6,32.2,19.3,29.4,21.3-1,.8-47.5,57-48.6,58,0,0-2.4,2.7-3,2.9,0,0-.2.1-.4.1s-.3,0-.5,0c0,0,0,.2,0,.2l-.7-.5c-7.1-2.9-32.7-22.9-37.4-27.2.2.2.5.4,1,.7l-1-.7-6.2-5.1c3-6.3,45.6-50.8,50.4-55.9,0-.3.4-.4.8-.4,1.6,0,5.4,1.5,10.1,3.8l3.4-3,2.6,1c.2,0,.4,0,.7-.1,1.2-.2,3.4-.5,5.3-.8,0-.7,0-1.3.3-1.9.7-1.4,1.9-2,3.6-2M19.5,93.7h0M90.5,27.3h0c-3.2,0-4.7,1.7-5.4,3.2-.2.3-.3.7-.4,1-1.5.2-2.9.4-3.8.6,0,0-.1,0-.2,0l-2.1-.8c-.2,0-.5-.1-.7-.1-.5,0-.9.2-1.3.5l-2.4,2.1c-7.2-3.4-9.1-3.4-9.7-3.4-1.4,0-2.1.6-2.4,1.2-.4.4-.9,1-1.7,1.7C29.4,65.8,13.4,83.6,11.5,87.7c-.4.8-.2,1.8.5,2.4l6.1,5.1c4.8,4.3,30,24.1,37.8,27.4l.5.4c.3.3.8.4,1.2.4s.3,0,.5,0c.1,0,.2,0,.3-.1.5,0,.9-.2,1.2-.4.5-.3,1.4-.9,3.5-3.2h0c.8-.8,5.3-6.3,19.2-23,11.7-14.1,27.7-33.3,29.2-34.8.7-.5,1-1.4,1-2.3,0-1-.2-3.2-10.7-10.4-5.1-3.4-11.5-7.3-17.6-10.6l.3-.3,1-.3.8-.2c.4.6,1,1.4,2.3,2.4,0,0,0,0,0,0,1.2,1,3.3,1.7,5.2,1.7s3.1-.4,4.3-1.2c2.1,1,4.7,2.4,7.8,4.1,1.4.8,2.8,1.5,4.2,2.3,1.3.8,2.6,1.6,3.8,2.4,6.2,4,12.1,7.7,16.4,7.7s3.6-1,4.4-1.9c0,0,0,0,0,0,4.2-4.1,5.7-7,4.9-9.6-1.1-3.6-6.3-4.5-11.9-5.4-1.3-.3-9-3.1-20.2-7.2-.2,0-.3-.1-.4-.1h0c-1.4-.4-3.3-1.2-5.3-2.1-3.8-1.7-8.1-3.6-11.4-3.6h0Z" class="st5"></path>
</svg>