<svg viewBox="0 0 150.1 150.1" version="1.1" xmlns="http://www.w3.org/2000/svg" id="ICONS">
  
  <defs>
    <style>
      .st0, .st1, .st2, .st3, .st4, .st5 {
        fill: none;
      }

      .st1 {
        stroke-width: 1.1px;
      }

      .st1, .st2, .st3, .st5 {
        stroke-linecap: round;
      }

      .st1, .st2, .st4, .st5 {
        stroke: #221f20;
      }

      .st1, .st4, .st6 {
        stroke-miterlimit: 10;
      }

      .st7 {
        fill: #221f20;
      }

      .st8 {
        fill: #fff;
      }

      .st2 {
        stroke-dasharray: 0 0 0 0 0 4.5;
        stroke-width: 1.5px;
      }

      .st2, .st3, .st5 {
        stroke-linejoin: round;
      }

      .st3 {
        stroke: #000;
        stroke-width: .9px;
      }

      .st6 {
        stroke: #9b9b9b;
      }
    </style>
  </defs>
  <rect height="149.6" width="149.6" y="-1.1" x=".2" class="st0"></rect>
  <g>
    <g>
      <path d="M21.3,88.5c2.4,0,4,2,3.9,3.8-.2,1.5-1,3.1-1.9,4.3l-.4.5c-.5.7-1.6,2.2-2.1,3l-.2.4c0,.1-.2.5-.1.5h0c0,.5.5.5.8.5,1.7,0,3.2-2,4.4-3.7.8-1.2,1.7-3.1,2.8-4.8h0s.2-.3.2-.3c.5-.8.8-1.1,1.3-1.1.7,0,.8.6.8,1-.2.7-1,1.9-1.3,2.5-.5.8-1,1.9-1.4,2.5h0c0,.1-.4.5-.5.8h0c-.1.2-.2.4-.3.6h0c-.4.7-1.1,1.9-1.1,2.7s0,.8.5.8c1.2,0,1.2-1.5,2.2-1.5s.7.6.7,1c-.2,1.1-1.7,2.2-2.9,2.2s-2.1-.5-2.1-1.5,0-.7,0-1c-1,1-2.2,1.5-3.6,1.5h-.4c-1.1-.3-1.9-1.2-1.9-2.2s0-.5.1-.8c0-.2.5-1.1.6-1.3.7-.9,1.5-2,1.7-2.6.8-1,2.2-2.8,2.2-4s-.9-2.1-2.3-2.1c-2.1,0-5.1,1.2-5.1,3.3s.6,1.3,1.3,1.3c1.4,0,1.9-1.1,1.9-1.9.2-.4.5-.5.8-.5.7,0,.8.6.8,1.2,0,1.8-1.7,3.2-3.5,3.2s-1,0-1.4-.3c-.8-.5-1.6-1.7-1.6-2.7s0-1.1.3-1.5c1-2.4,3.6-3.7,6.4-3.7h.4M21.3,86.5h-.4c-3.8,0-6.9,1.9-8.2,5-.3.8-.4,1.7-.4,2.2,0,1.9,1.3,3.6,2.5,4.4.8.5,1.8.6,2.5.6s0,0,.1,0c0,.1-.1.2-.1.3-.1.2-.2.4-.2.5-.2.6-.3,1.1-.3,1.5,0,2,1.4,3.7,3.4,4.2.1,0,.3,0,.4,0h.4c.8,0,1.6-.1,2.4-.4.8.9,2.2,1.4,3.3,1.4,2.1,0,4.5-1.8,4.9-3.8,0-.2,0-.3,0-.5,0-1.5-.9-2.6-2.1-2.9,0,0,0-.2.1-.2,0,0,0,0,0,0,.3-.4.5-.9.8-1.4.2-.4.5-.9.7-1.2,0,0,0-.2.1-.3,0-.2.3-.5.4-.8.4-.6.7-1.3.9-1.9,0-.2,0-.4,0-.6,0-1.8-1.2-3-2.8-3s-2.4,1.1-2.8,1.9c-.1-1-.6-2.1-1.4-2.9-1.1-1.2-2.7-2-4.4-2,0,0,0,0,0,0h0Z" class="st7"></path>
      <path d="M44.3,87.3c1,0,1.4,1.5,1.4,2.6,0,1.4-.9,3.2-1.8,4.5-.8,1.2-2.7,2.6-4,3.1-.1,0-.3.8-.5,1.5,0,.4-.1.7-.1,1s0,.3,0,.4c0,.3.6.8,1.2.8.9-.1,2-.8,2.1-1.8-.3-.2-.8-.7-.8-1.3s.2-1.3.6-1.8c.3-.3.9-.6,1.4-.6s.2,0,.2,0c.2,0,.7.3.7.7,0,.1,0,.3,0,.6,0,.4,0,.9,0,1.2,0,0,.3.3.7.3s.8,0,1.5-.4c.3-.6.7-1.1,1.1-1.5.9-.9,2.3-1.6,3.7-1.6s.9.1,1.1.4c0,.1.3.4.3.5.3-.6.7-.5.9-.6.4,0,.5.6.5.9,0,.4-.8,1.6-.9,1.7,0,.2-.4.6-.5.7-.4.6-.8,1.3-.8,2s.1.8.3.9c0,0,.1,0,.2,0,.7,0,1.5-.8,1.8-1,.1-.1.3-.4.6-.6,0,0,0,0,0-.1,0,0,.6-1,.9-1.4.3-.4.5-.8.9-1.4.6-1,1.7-2,2.8-2s1,.7,1,1.3c0,0-.3,1.3-.2,1.3l.4-.5,1-1.1c.5-.3,1-.9,1.6-.9s1.4.6,1.3,1.4v.5c-.4,1-.9,2.2-1.4,3.6-.1.3-.1,1,.2,1.1.4,0,1.6-1.2,1.8-1.7,0,0,.8-1.4,1.3-1.5.4,0,.6.2.6.4s0,.2,0,.3v.4c-.4.9-1.3,1.9-1.9,2.6-.5.4-1.4,1.3-2.2,1.3s-1.3-.9-1.3-1.3,0-.3,0-.3v-.5c0-.3,0-.7,0-1l.2-.5c.2-.5.3-.7.5-1.3.3-.6.4-1.4.1-1.4s0,0,0,0c-.3,0-.9.7-1,.9-.3.4-.4.3-1.5,2.1l-.3.7c0,.1-.2.1-.9,1.4-.3.2-.5,1.2-1.1,1.2s-.7-.4-.8-.8c0-.6.5-1.1.7-1.6.3-.4.4-1.1.6-1.4.4-.8,1.3-2.9.7-3-.3,0-1.1,1-1.3,1.4-.3.5-1,1.6-1.5,2.1-.3.6-.8,1.2-1.2,1.7-.5.4-1.7,1.3-2.7,1.3s-1.4-1-1.4-1.5,0-.5,0-.6c-.2.2-.4.4-.4.4,0,0-.2.2-.2.2-.8.7-1.5,1.4-2.9,1.4s-1.6-1.2-1.5-2.4c0-.2,0-.4.1-.7-.3,0-.5.1-.8.1-.5,0-.9,0-1.2-.3-.6,1.6-2.2,3.2-4,3.2s-2-.6-2.4-1.5c0,0,0,0,0,0-.4.3-.7.7-1.1.9-.7.5-1.5.8-2.4.8s-.2,0-.3,0c-.5,0-1-.9-1-.9,0-.7.2-.8.3-1.6.5-1,1.4-2.5,2.3-3.5h0c-.2-.1-.6,0-.8,0,0,0,0,0,0,0-.3,0-.7-.2-.9-.3,0,0,0,0,0,0-.1,0-1.4,2.1-1.6,2.4-.3.5-1,1.3-1.6,1.4,0,0-.2,0-.3,0-.3,0-.7,0-.7-.4.6-.6,1.3-1.7,1.9-2.6.1-.2,1-1.5,1-1.8,0-.2-.2-.3-.2-.5,0-.8.5-1.6.9-2,.3-.3.9-.6,1.4-.6.4,0,1,.2,1.1.6,0,.5-.4,1.3-.7,1.8l-.3.4c0,0,.4.3.5.3.6,0,1.3-.3,1.6-.7h0c.3-.4.5-.5.9-.5.6,0,.8.4.8.7,0,0,0,.2-.2.4v.2c0,0-1.5,1.9-1.5,1.9,0,0-.2.3-.3.4h0c-.4.5-1,1.5-1.3,2.2l-.4.7c-.2.4-.2.6,0,.7,0,0,.1,0,.2,0,.4,0,1.1-.5,1.8-1.2.3-.3.6-.6.9-1,.1-1.2.5-2.6.9-3.7.7-1.6,1.5-3.4,2-4.4.7-1.7,2.2-4.2,3.7-4.2M40.5,95.5c.8-.4,1.4-.8,2.2-2.1.5-.8,1.5-2.8,1.6-3.7,0-.4,0-.5-.3-.6h-.1s0,0,0,0c-.8,0-2.1,3.3-2.2,3.5-.3.6-1,2.3-1.2,3M48.2,101.4c.7-.1,1.4-1,1.9-1.4.4-.3,1.4-1.7,2.1-2.6,0-.2,0-.4,0-.6s-.2-.6-.5-.6c-.9,0-2,.6-2.6,1.4-.9,1-1.5,2-1.5,2.9s.1.8.5.9M44.3,85.3c-2.7,0-4.6,3.3-5.5,5.3-.2.5-.5,1.2-.9,1.9,0,0,0,0-.1,0s0,0,0,0c0,0,0,0-.1,0-.4-1.2-1.7-1.9-3-1.9s0,0,0,0c-1.1,0-2.2.6-2.9,1.3-.6.8-1.5,2-1.4,3.5,0,.1,0,.2,0,.3-.1.2-.2.3-.3.4-.1.2-.2.3-.3.4h0c-.6,1-1.2,1.9-1.6,2.2-.4.4-.6.9-.6,1.4,0,1.2.9,2.4,2.7,2.4s.5,0,.8,0h0c.2,1.1,1.4,2.4,2.6,2.7,0,0,.1,0,.2,0,.1,0,.3,0,.4,0,1.2,0,2.3-.3,3.3-1,.7.5,1.6.8,2.5.8,1.7,0,3.2-.8,4.4-2,.2.4.4.7.7,1,.6.6,1.5,1,2.4,1s2.1-.3,2.8-.8c.6.5,1.3.9,2.1.9,1.2,0,2.3-.5,3.2-1.2.5.9,1.4,1.4,2.4,1.4,1.5,0,2.2-1.2,2.5-1.7.6.9,1.6,1.6,2.8,1.6s2.7-1.1,3.4-1.6h.1c0-.2.1-.3.2-.3h0c.9-1.1,1.8-2.2,2.1-3.4v-.4c.2-.2.3-.4.3-.8,0-1.2-.9-2.4-2.6-2.4,0-.8-.3-1.6-.9-2.2-.6-.7-1.5-1.1-2.4-1.1s-1.4.3-1.9.6c-.5-.5-1.2-.7-1.9-.7-1.4,0-2.6.8-3.5,1.7-.4-.8-1.1-1.3-2-1.3,0,0,0,0,0,0,0,0-.2,0-.2,0-.1,0-.2,0-.3,0-.6-.3-1.2-.4-1.7-.4-1.9,0-3.9.8-5.2,2.2,0,0-.1.1-.2.2-.1-.2-.3-.5-.5-.7.8-1.4,1.5-3.1,1.6-4.6,0,0,0,0,0,0,0-2.7-1.4-4.6-3.4-4.6h0ZM52.5,101.6h0s0,0,0,0h0Z" class="st7"></path>
      <path d="M116.1,87.3c.4,0,.9.6,1.1.9.3.6.2.9.2,1.7,0,1.4-.8,2.9-1.4,3.9-.8,1.2-2.6,2.8-4,3.5-.2.4-.4.8-.4.8.9-.6,2.1-1.1,3.1-1.6.2-.2,1.8-1,2.2-1s0,0,0,0c.3,0,1.1.2,1.2.9,0,.6-.2,1-.6,1.1,0,0,0,0,0,0-.2,0-.3-.1-.5-.1s0,0-.1,0c-1,.3-3.1,1.3-3.5,1.7,0,.9.2,1.7.4,2.7,0,.1.4.3.5.3.6,0,1.5-.6,2.3-1.3.7-.6,1.3-1.3,1.6-1.7,0,0,0,0,0-.1.3-1.2.9-2.2,2.1-3.4.8-.8,2.1-1.3,3.4-1.3s0,0,.1,0c.9,0,1.2,1.4,1.1,1.9-.1.9-.4,1.5-1,2.3-.5.7-2.5,2.1-3.9,2.1h-.5c-.2.3,0,1.2.6,1.3.1,0,.2,0,.3,0,.5,0,1.1-.1,1.9-.6.8-.5,1.7-1.5,2.4-1.9.2-.5.5-1.1.6-1.2.2-.4,1-1.8,1.3-2.3.4-.4.9-1.1,1.1-1.2.4-.3,1-.4,1.5-.4s1.1.5,1.1.8h0c0,.5,0,1.2-.2,1.9-.4,1.2-.9,2.5-.9,3.8s.2.4.5.4c.6,0,2.8-1.9,3.2-2.9.3-.4.9-1.6,1-2.1.1-.6.3-1.3,1-1.3h.3c.2.2.6.5.6.7s-.6,1.6-.7,1.7c-.1.3-.6,1.5-.7,1.8-.2.7-.6,2-.7,2.6h0c-.3.9-.7,1.6-1,2.4,0,.1-.4.9-.6,1.4,1,.2,2.8,2,3.1,2,0,.5.1,1.1-.5,1.1-1,0-2.2-1.6-3.2-1.7l-.3.5c-1.2,1.5-2.6,3.2-4.4,3.5,0,0-.2,0-.2,0s-.2-.2-.3-.2h-.4c-.6-.5-1.1-1.2-1.1-2,0-1.2,1-2.2,2-2.9.7-.5,2-.8,3-.8.2,0,.4,0,.5,0,.4-.3.6-.9.8-1.3.2-.3.9-1.8,1.3-2.8,0,0,0-.1,0-.2,0,0,0,0,0,0s0,0,0,0c0,0,0,.2,0,.2l-1.9,1.7c-.2.2-1,.6-1.4.6s-.7-.3-.9-.5c-.7-.8-.6-1.1-.7-2.1,0-.3.7-2.4.8-2.8.1-.4.4-1.1.4-1.4h0c0-.2-.2-.3-.3-.3-.6,0-1.5,1.6-2.4,3.2-.2.4-.5.5-.7.6-.4.8-1.6,1.9-2.9,2.6-1,.6-2,.6-2.8.6-.5,0-1.5-.8-1.7-1.8-.6.6-1.2,1.1-1.7,1.4-.3.2-1.3.7-1.7.7-.9,0-2-.4-2.2-1.3-.3-.5-.5-1.5-.3-2.2,0,0,0,0-.1,0s0,0,0,0c0,0-.2,0-.2.1-.4.3-.9.8-1.4,1.6-.1.2,0,0-.2.4,0,.4-.2.9-.4,1.2,0,0-.3,0-.3,0,0,0-.1,0-.2,0-.4,0-1-.1-1-.4,0-.2,0-.4,0-.7-.5.4-1.2,1-1.9,1s-1.3-.9-1.3-1.3,0-.3,0-.3v-.5c0-.3,0-.7,0-1l.2-.5c.2-.5.3-.7.5-1.3.3-.6.4-1.4.1-1.4s0,0,0,0c-.3,0-.9.7-1,.9-.3.4-.4.3-1.5,2.1l-.3.7c0,.1-.2.1-.9,1.4-.3.2-.5,1.2-1.1,1.2s-.7-.4-.8-.8c0-.6.5-1.1.7-1.6.3-.4.4-1.1.6-1.4.4-.8,1.3-2.9.7-3-.3,0-1.1,1-1.3,1.4-.2.3-.4.7-.7,1.1-.2.9-1.2,1.7-2.1,2-.7.3-1.8.3-2.2.3-1.1,1.2-1.8,2.3-4,2.3s0,0,0,0h-.4c-.4-.3-.8-.5-1-.8-.4,1.2-1.8,2-2.8,2.6,0,0,0,0,0,0-.2,0-.4.1-.7.1,0,0,0,0-.1,0-.5,0-.7-.3-1.1-.4-.3-.4-.4-.5-.5-1,0-.3-.1-.8,0-1.1.2-1.5.5-2.9,1.2-4.3,0-.1,1.2-2.1,1.1-2.2.2-.4.8-1.3.8-1.8h0c-1.5,1.9-3.3,3.6-5,5.4-.4.4-.3.6-.8.6,0,0-.3,0-.4,0-.5-.9-.5-1.6-.4-2.6,0-.2,0-1.2.1-1.6,0,0,0,0,0-.2h-.2c0,.1-3.9,4.9-3.9,4.9-.6.4-1,1.1-1.7,1.2,0,0-.1,0-.2,0-.5,0-1,0-1.3-.5-.5-.4-.4-2.9-.4-2.9,0,0,0,0,0,0-.1-.6.2-1.2.8-1.3,0,0,0,0,0,0,.3,0,.6.3.6.6,0,.6-.2,1.2-.1,1.8,0,0,0,.3,0,.4,0,0,0,.1.1.1.4,0,.6-.3.9-.6.3-.3,1.3-1.4,1.5-1.7,0,0,.2-.4.3-.4l4.5-5.7c0-.3.1-.2.3-.4.4-.5.5-1.1,1.2-1.1,0,0,0,0,0,0,.4,0,.7.1.7.5,0,.7-.3,1.2-.6,1.8-.7,1.4-1,3-1.2,4.5,0,0,0,.2,0,.2,0,0,0,0,.1,0s0,0,0,0h0c2.4-2.6,2.4-2.6,2.8-2.9l2.6-3c.8-.7,1.2-1.2,2-1.8,0,0,.2,0,.2,0,0,0,.1,0,.2,0,.4,0,.4.2.6.5,0,0,.1.2.1.2h0c0,.6-.2.7-.4,1.2-.8,1.7-1.6,3.5-2.5,5.2,0,0,0,.2-.1.2-.6,1.8-2.3,4-2.1,5.9,0,.2.2.3.4.3s0,0,0,0c1.5-.1,2.3-2.2,3-2.4,0-1,.6-2.2,1-3,0,0,.5-.6.5-.7,0,0,.2-.3.2-.3l1.2-.7s0,0,.1-.1c.1-.1.6-.7,1-1.1.2-.2,1.1-.6,1.7-.6,0,0,0,0,0,0,.3,0,.4,0,.7.3.5.4.9,1.3.9,2,0,.6-.1,1.2-.2,1.7,0,0-.5.9-.5,1,.5,0,1.2-.1,1.6-.3,0,0,.2,0,.3-.1.2-.3.6-.8.8-1.1.3-.4.5-.8.9-1.4.6-1,1.7-2,2.8-2s1,.7,1,1.3c0,0-.3,1.3-.2,1.3l.4-.5,1-1.1c.5-.3,1-.9,1.6-.9s1.4.6,1.3,1.4v.5c-.4,1-.9,2.2-1.4,3.6-.1.3-.1,1,.2,1.1.4,0,1.6-1.2,1.8-1.7,0,0,.6-1.1,1.1-1.4.9-2.6,2-5.4,2.7-6.7.7-1.7,2.3-4.4,3.7-4.4M112.6,95.1s0,0,0,0,0,0,0,.2c.8-.4,1.5-.9,2.3-2.2.5-.8,1.3-2.4,1.4-3.3,0-.4,0-.5-.3-.6h-.1s0,0,0,0c-.3,0-.5.3-.7.8-.5.5-1.5,2.7-1.5,2.7-.4.8-.6,1.3-.9,2.1,0,0,0,.3,0,.3,0,.1,0,.2,0,.2M119.7,99.2h0c1.1-.2,2.7-1.2,3.1-1.9.3-.4.6-1.2.2-1.5,0,0-.2,0-.3,0-.7,0-1.7.7-2.1,1.3-.4.6-.9,1.4-1,2.1M94.7,99.9c0,0,.1,0,.1,0,.8-.3.9-2,.9-2.6,0-.2-.1-.5-.4-.5-.5,0-1.2.5-1.5.9-.3.4-.6,1.2-.4,1.7.1.3.8.5,1.2.5M91.8,102.2c.9,0,1.6-.6,2.1-1,0-.1-.3-.1-.4-.2-.9-.3-1.3-.8-1.3-1.5,0-.2.2-.4.1-.6h0c-.6.3-1.2,2-1,2.9,0,.2.4.4.6.4M126.8,109.3c.7,0,1.4-.7,1.8-1.1.2-.2.4-.6.6-.8.1-.2.5-.6.5-.7h0c0-.1-.1-.2-.3-.2-.5,0-1.4.3-1.6.4-.5,0-1.4,1.2-1.4,1.8s0,.5.3.5M116.1,85.3c-2,0-3.9,1.9-5.5,5.6-.4.8-.9,2-1.4,3.3,0,0,0,0-.1-.1-.6-.7-1.5-1.1-2.4-1.1s-1.4.3-1.9.6c-.5-.5-1.2-.7-1.9-.7-1.7,0-3.1,1.1-4.1,2.3-.3-.6-.6-1.1-1.1-1.5-.8-.8-1.6-.8-2-.8,0,0,0,0-.1,0-1.1,0-2.5.5-3.1,1.2,0,0,0,0,0,0,.1-.2.2-.5.3-.7l.2-.4s0,0,0,0c0,0,0-.1,0-.2.3-.5.5-1,.5-2,0-.2,0-.5-.2-.7,0-.1,0-.2-.1-.3-.5-1.1-1.3-1.6-2.4-1.6s-.2,0-.3,0c-.3,0-.5,0-.7.1-.2,0-.4.2-.6.3-.6.5-1.1.9-1.6,1.3-.2.2-.4.3-.6.5,0,0-.1.1-.2.2l-.2.2c-.2-1.2-1.3-2.1-2.6-2.1s-.1,0-.2,0c0,0,0,0,0,0-1.6.1-2.3,1.3-2.6,1.8,0,0,0,0,0,.1-.2.2-.3.4-.4.6l-4.3,5.3c-.5-.5-1.2-.8-1.9-.8s-.2,0-.3,0c0,0,0,0,0,0-.8.1-1.5.5-2,1.2-.4.6-.6,1.4-.6,2.2,0,1.1,0,2.9.8,3.9.4.6,1.2,1.3,2.9,1.3s.3,0,.4,0c1.3-.1,2-.8,2.5-1.3,0,0,.2-.2.3-.2.2-.1.3-.2.4-.4l.9-1.1c0,.1.1.2.2.3.3.6,1,1.1,1.8,1.1s.5,0,.7,0c.2,0,.4,0,.5-.1,0,0,0,0,0,0,0,.5,0,1.1,0,1.6,0,.1,0,.3,0,.4.2.7.4,1,.7,1.4v.2c.4.4.8.7,1.2.8,0,0,0,0,0,0,.3.2.8.4,1.6.4s.2,0,.3,0c.3,0,.5,0,.7-.1.4,0,.7-.1,1-.3l.3-.2c.5-.3,1.2-.8,1.8-1.4.2,0,.4,0,.6,0h.4c2.7,0,4-1.3,5-2.4.5,0,1-.1,1.5-.3.3,1.4,1.4,2.3,2.7,2.3s2.2-1.2,2.5-1.7c.6.9,1.6,1.6,2.8,1.6s.8,0,1.2-.2c.5.2,1,.4,1.7.4s.2,0,.3,0c.1,0,.3,0,.6,0,.5,0,1-.4,1.3-.8,0,0,0,0,0,0,.8.7,1.9,1.2,3.2,1.2s0,0,0,0c1.1,0,2.7-1,2.7-1,0,0,.2,0,.2-.1.6.5,1.4.9,2.1.9,0,0,0,0,0,0,1.4,0,2.7-.3,3.8-.9.9-.5,1.7-1.1,2.4-1.8.1.4.4.8.7,1.2-.2.1-.4.2-.6.4-1.8,1.2-2.9,2.8-2.9,4.6s1,2.8,1.9,3.5c.2.2.5.3.8.4.3.2.7.3,1,.3s.6,0,.8-.2c1.9-.4,3.4-1.8,4.6-3.2.7.5,1.5,1.1,2.6,1.1s1.3-.3,1.8-.7c.8-.8.7-1.8.7-2.3h0c0-1-.5-1.7-1.2-2-.1,0-.3-.2-.5-.4-.3-.2-.6-.5-.9-.7,0-.2.2-.4.3-.6.2-.4.4-1,.6-1.6,0-.1.1-.3.1-.5,0-.4.4-1.5.6-2.3,0-.1.1-.4.2-.6.1-.4.3-.8.4-1,.5-.9.8-2.2.8-2.5,0-1-.7-1.8-1.3-2.3-.3-.3-.7-.4-1.2-.5h-.3s0,0-.1,0c-.5,0-1.9.1-2.6,1.7-.3-1.5-2.1-2.3-3.1-2.3s-1.8,0-2.8.9c0,0-.2.2-.3.2,0,0,0,0,0,0-.6-.7-1.3-1.1-2.2-1.1h-.2c-1.8,0-3.6.7-4.8,1.9,0,0,0,0,0,0-.2-.1-.4-.2-.6-.3.6-1,1.1-2.5,1.2-3.9h0c0-.9,0-1.6-.4-2.5,0-.1-.1-.3-.2-.4-.4-.5-1.3-1.7-2.8-1.7h0Z" class="st7"></path>
    </g>
    <g>
      <g>
        <line y2="37" x2="47.8" y1="37" x1="44.1" class="st1"></line>
        <line y2="37" x2="40.5" y1="37" x1="36.7" class="st1"></line>
      </g>
      <g>
        <line y2="31.5" x2="42.3" y1="35.2" x1="42.3" class="st1"></line>
        <line y2="38.7" x2="42.3" y1="42.4" x1="42.3" class="st1"></line>
      </g>
    </g>
    <path d="M97.3,34.6h11.4s3.9.3,4,2.9v17.7" class="st2"></path>
    <path d="M105.2,112.3h14.8s4.8,8,12.7,5.9" class="st1"></path>
    <circle r=".6" cy="112.3" cx="102.2" class="st7"></circle>
    <g>
      <g>
        <g>
          <g>
            <polygon points="83.2 65.7 83.1 80.1 77.6 77.8 77.7 63.4 83.2 65.7 83.2 65.7" class="st3"></polygon>
            <polygon points="78.1 70.1 83.2 65.7 77.7 63.4 72.6 67.9 78.1 70.1 78.1 70.1" class="st3"></polygon>
            <polygon points="73.1 65.8 78.1 70.1 72.6 67.9 67.6 63.6 73.1 65.8 73.1 65.8" class="st3"></polygon>
            <polygon points="73 80.3 73.1 65.8 67.6 63.6 67.5 78 73 80.3 73 80.3" class="st3"></polygon>
            <polygon points="56.8 44.9 56.6 80.5 51 78.2 51.3 42.6 56.8 44.9 56.8 44.9" class="st3"></polygon>
            <polygon points="56.6 80.5 73 80.3 67.5 78 51 78.2 56.6 80.5 56.6 80.5" class="st3"></polygon>
            <polygon points="72.8 44.7 56.8 44.9 51.3 42.6 67.3 42.4 72.8 44.7 72.8 44.7" class="st3"></polygon>
            <polygon points="78.3 50.5 72.8 44.7 67.3 42.4 72.7 48.2 78.3 50.5 78.3 50.5" class="st3"></polygon>
            <polygon points="83.8 44.5 78.3 50.5 72.7 48.2 78.3 42.2 83.8 44.5 83.8 44.5" class="st3"></polygon>
            <polygon points="99.8 44.3 83.8 44.5 78.3 42.2 94.3 42 99.8 44.3 99.8 44.3" class="st3"></polygon>
            <polygon points="83.1 80.1 99.5 79.9 94 77.6 77.6 77.8 83.1 80.1 83.1 80.1" class="st3"></polygon>
            <polygon points="99.5 79.9 99.8 44.3 94.3 42 94 77.6 99.5 79.9 99.5 79.9" class="st3"></polygon>
          </g>
          <g>
            <polygon points="83.2 65.7 83.1 80.1 77.6 77.8 77.7 63.4 83.2 65.7 83.2 65.7" class="st5"></polygon>
            <polygon points="78.1 70.1 83.2 65.7 77.7 63.4 72.6 67.9 78.1 70.1 78.1 70.1" class="st5"></polygon>
            <polygon points="73.1 65.8 78.1 70.1 72.6 67.9 67.6 63.6 73.1 65.8 73.1 65.8" class="st5"></polygon>
            <polygon points="73 80.3 73.1 65.8 67.6 63.6 67.5 78 73 80.3 73 80.3" class="st5"></polygon>
            <polygon points="56.8 44.9 56.6 80.5 51 78.2 51.3 42.6 56.8 44.9 56.8 44.9" class="st5"></polygon>
            <polygon points="56.6 80.5 73 80.3 67.5 78 51 78.2 56.6 80.5 56.6 80.5" class="st5"></polygon>
            <polygon points="72.8 44.7 56.8 44.9 51.3 42.6 67.3 42.4 72.8 44.7 72.8 44.7" class="st5"></polygon>
            <polygon points="78.3 50.5 72.8 44.7 67.3 42.4 72.7 48.2 78.3 50.5 78.3 50.5" class="st5"></polygon>
            <polygon points="83.8 44.5 78.3 50.5 72.7 48.2 78.3 42.2 83.8 44.5 83.8 44.5" class="st5"></polygon>
            <polygon points="99.8 44.3 83.8 44.5 78.3 42.2 94.3 42 99.8 44.3 99.8 44.3" class="st5"></polygon>
            <polygon points="83.1 80.1 99.5 79.9 94 77.6 77.6 77.8 83.1 80.1 83.1 80.1" class="st5"></polygon>
            <polygon points="99.5 79.9 99.8 44.3 94.3 42 94 77.6 99.5 79.9 99.5 79.9" class="st5"></polygon>
          </g>
        </g>
        <path d="M94.1,77.6l.3-35.6-16,.2-5.5,6-5.5-5.8-15.9.2-.3,35.6,16.4-.2v-14.4c.1,0,5.1,4.3,5.1,4.3l5.1-4.4v14.4c5.4,0,10.8-.2,16.3-.2Z" class="st5"></path>
      </g>
      <g>
        <g>
          <g>
            <path d="M91.5,71c-.9,0-1.8-.6-2.1-1.6-.1-.3-.2-.6-.3-.8-.3-.7-.6-1.4-1.1-3.7-.6-2.5-1.1-3.9-1.4-4.6,0-.1-.1-.3-.1-.4-.2-.6-.2-.7-.3-1v-.3c0,0-.4-1.1.6-2,.5-.4,1.2-.6,1.8-.6s1.2.2,1.4.6c.4.6.5,1.5.6,2.7v1c.1.9.1,1.5.3,1.8.2.3.3.4.3.4.2-.2.4-.4.6-1,.3-.6.8-1.5,1.3-2.4.2-.4.4-.8.7-1.3.3-.6.5-1.2.9-1.8.1-.2.3-.5.5-.8l1.2-1.6s0,0,0,0v-.2c.1,0,.2,0,.2,0h0c.5-.6.9-1.1,1.3-1.6.3-.3.6-.7.9-1.1,1-1.3,2-2.6,3.1-2.7.2,0,.3,0,.5,0,.8,0,1.6.3,2,.9.3.4.6,1,.5,1.9-.3,1.8-.7,2.2-2.1,2.8-1.1.5-2.3,1.7-3.2,3-.4.6-.8,1.3-1.2,1.9l-2.5,4.2v.3c-.5.7-.9,1.4-1.2,1.9-.6.9-.6,1.5-.8,2.5v.4c-.1.3-.1.6-.1.8,0,.6,0,1.1-.8,1.9-.4.5-1,.8-1.6.8h0Z" class="st4"></path>
            <path d="M102.4,48.3c1.2,0,2.3.8,2,2.3-.3,1.6-.5,1.9-1.8,2.5-1.3.6-2.6,1.9-3.4,3.2-.5.8-1,1.6-1.5,2.4,0,0,0,0,0,0l-2.2,3.6c-.4.8-.9,1.6-1.2,2.1-.7,1.1-.7,1.9-.9,3.1s.2,1.4-.7,2.4c-.3.4-.8.6-1.2.6-.7,0-1.4-.5-1.7-1.2-.4-1.2-.7-1.4-1.4-4.4-.7-3-1.3-4.4-1.6-5-.2-.7-.2-.8-.4-1.3,0,0-.3-.8.5-1.5.4-.4,1-.5,1.5-.5.5,0,.9.1,1,.4.4.5.4,1.5.5,2.8,0,1.3,0,2.2.4,2.7.2.4.4.6.7.6s.2,0,.2,0c.3-.2.6-.5.8-1.2.3-.6.8-1.5,1.3-2.3.5-.8.9-2.1,1.6-3.2.1-.2.3-.5.5-.8l1.3-1.7h0c0,0,0-.1.1-.2h0c0,0,0,0,0,0,.4-.6.9-1.1,1.3-1.6,1.2-1.4,2.4-3.4,3.7-3.7.1,0,.3,0,.4,0M102.4,47.3c-.2,0-.4,0-.6,0-1.3.2-2.4,1.6-3.4,2.9-.3.4-.6.7-.8,1.1-.4.5-.8,1-1.3,1.6,0,0,0,0,0,0h0c0,0,0,.1,0,.1h0c0,.1,0,.2,0,.2l-1.2,1.6c-.2.3-.4.6-.6.9-.4.6-.7,1.3-.9,1.9-.2.5-.4,1-.6,1.3-.5.8-1.1,1.8-1.3,2.4,0,.1-.1.2-.2.3,0-.3,0-.8-.1-1.3,0-.2,0-.5,0-.7v-.3c0-1.3-.2-2.2-.7-3-.4-.5-1-.8-1.8-.8s-1.6.3-2.1.7c-1,.8-1,1.9-.8,2.5v.2c.1.3.2.5.4,1.1,0,.1,0,.2.1.4.3.8.8,2.1,1.4,4.6.5,2.3.8,3,1.1,3.7,0,.2.2.5.3.8.4,1.1,1.4,1.9,2.6,1.9s1.4-.3,1.9-.9c.8-.9.9-1.5.9-2.2,0-.2,0-.4,0-.7v-.4c.2-.9.3-1.5.8-2.3.3-.5.7-1.2,1.1-1.9v-.2c.1,0,2.3-3.6,2.3-3.6h0c0,0,.3-.6.3-.6.4-.6.8-1.3,1.2-1.9.8-1.3,2-2.3,3-2.9,1.5-.7,2-1.2,2.3-3.2.2-.9,0-1.7-.6-2.3-.6-.7-1.4-1-2.4-1h0Z" class="st4"></path>
          </g>
          <g>
            <path d="M84.1,74.7c-1.2,0-2.1-.6-2.3-1.5,0-.4-.1-.8-.1-1.2,0-.5,0-1.1-.2-1.7-.3-1.1-.2-1.6,0-2.6v-.3c.2-.9.1-3.4,0-5,0-.4,0-.8,0-1.1,0-1.4-.2-2.6-.3-2.9,0,0,0,0,0,0,0,0,0,0-.2.1l-.3.2c-.8.5-1.7,1.1-2.2,1.5,0,0-.7.5-1.3.9-.4.3-.8.9-1.1,1.3-.3.5-.8.8-1.5.8s-.1,0-.2,0c-1,0-1.8-1.2-1.8-2.1,0-1,.6-1.9,1.6-2.1.8-.2,1.5-.6,2.1-1.1.5-.4,1.8-1.2,2.9-1.7.7-.4,1.3-.7,1.5-.8l.5-.2h-.5c0-.4-.2-1.4.6-2.1.4-.4.9-.6,1.4-.6s.5,0,.8.2c.3.1.4.2.5.2s.1,0,.2,0c.3,0,1-.4,1.2-.5.2,0,.3-.1.5-.2.3,0,.5-.1.8-.4.2-.1.4-.3.6-.5.5-.4.9-.9,1.5-1,.2,0,.3,0,.5,0,.7,0,1.3.3,1.7,1,.5.9,0,1.9-.8,2.4-.3.2-.8.5-1.3.7-.3.2-.6.3-.8.4-.5.3-1.6.8-2.1,1-.2,0-.3.1-.3.1,0,0,0,0,0,0,0,.3,0,2.9,0,4.5,0,.3,0,.7,0,1,0,1.3.2,2.7,0,4-.1,1.7-.1,3.1.1,4.2,0,.4.2.7.3,1,.2.5.4,1,.3,1.8-.2,1.4-.9,2.2-2.3,2.3,0,0-.2,0-.2,0Z" class="st6"></path>
            <path d="M89.3,50.7c.5,0,.9.2,1.2.7.4.7,0,1.5-.7,1.8s-1.5.8-2,1.1c-.5.3-1.5.8-2,.9-.5.2-.6.3-.6.6s0,3,0,4.6c.1,1.6.3,3.4.2,5-.1,1.6-.1,3.2.1,4.3.2,1.1.7,1.5.6,2.7-.1,1.1-.7,1.8-1.8,1.8,0,0-.1,0-.2,0-1,0-1.7-.4-1.8-1.1-.2-.8-.1-1.8-.4-2.9-.3-1.1-.2-1.5,0-2.7.2-1.2,0-4.7,0-6.2,0-1.4-.2-2.7-.3-3,0,0,0-.4-.4-.4-.1,0-.3,0-.5.2-.8.5-1.9,1.2-2.6,1.8,0,0-.7.5-1.2.9-.6.4-1,1.1-1.2,1.5-.2.3-.5.5-1.1.5s-.1,0-.2,0c-.7,0-1.4-.9-1.4-1.7,0-.7.4-1.4,1.3-1.7.9-.2,1.6-.7,2.3-1.1.7-.4,1.9-1.2,2.8-1.7.9-.5,1.4-.8,1.5-.9.2-.1.3-.3.2-.5s-.2-1.1.4-1.7c.4-.3.7-.5,1.1-.5s.4,0,.6.1c.3.1.4.2.7.2s.2,0,.3,0c.4,0,1.1-.4,1.4-.6s.8-.2,1.4-.6c.6-.4,1.2-1.3,1.9-1.4.1,0,.3,0,.4,0M89.3,49.7c-.2,0-.4,0-.6,0-.7.1-1.3.7-1.7,1.1-.2.2-.4.3-.5.5-.2.2-.4.2-.7.3-.2,0-.4.1-.6.2-.5.3-.9.5-1.1.5,0,0-.1,0-.2,0,0,0-.1,0-.2,0h0c-.3-.2-.7-.2-1-.2-.6,0-1.2.2-1.7.7-.9.8-.8,1.8-.7,2.3-.3.2-.9.5-1.3.7-1,.6-2.3,1.4-2.9,1.8-.6.4-1.3.8-2,1-1.2.3-2,1.3-2,2.6,0,1.1,1,2.5,2.3,2.6,0,0,.1,0,.2,0,1.1,0,1.7-.6,1.9-1,.2-.3.5-.9.9-1.2.5-.4,1.2-.8,1.2-.8,0,0,0,0,0,0,.5-.4,1.4-1,2.1-1.5,0,.5.2,1.3.2,2.2,0,.3,0,.7,0,1.1,0,1.5.1,4,0,4.9v.3c-.2,1-.3,1.6,0,2.8.1.6.2,1.1.2,1.7,0,.4,0,.9.2,1.2.2,1.2,1.3,1.9,2.7,1.9s.2,0,.3,0c.9,0,2.4-.5,2.7-2.7.1-.9-.1-1.5-.3-2.1-.1-.3-.2-.5-.3-.9-.2-1-.2-2.4,0-4,.1-1.4,0-2.8,0-4.1,0-.3,0-.7,0-1,0-1.4,0-3.6,0-4.2,0,0,0,0,0,0,.5-.2,1.6-.7,2.2-1,.2-.1.5-.3.8-.4.4-.2.9-.5,1.3-.7,1-.6,1.7-1.9,1-3.1-.4-.8-1.2-1.2-2.1-1.2h0Z" class="st6"></path>
          </g>
        </g>
        <g>
          <path d="M83,74.1c-1.2,0-2.1-.6-2.3-1.5,0-.4-.1-.8-.1-1.2,0-.5,0-1.1-.2-1.7-.3-1.1-.2-1.6,0-2.6v-.3c.2-.9.1-3.4,0-5,0-.4,0-.8,0-1.1,0-1.4-.2-2.6-.3-2.9,0,0,0,0,0,0,0,0,0,0-.2.1l-.3.2c-.7.5-1.7,1.1-2.2,1.5,0,0-.7.5-1.3.9-.4.3-.8.9-1.1,1.3-.3.5-.8.8-1.5.8s-.1,0-.2,0c-1,0-1.8-1.2-1.8-2.1,0-1,.6-1.9,1.6-2.1.8-.2,1.5-.6,2.1-1.1.5-.4,1.8-1.2,2.9-1.7.7-.4,1.3-.7,1.5-.8h0c0-.5-.2-1.5.6-2.2.4-.4.9-.6,1.4-.6s.5,0,.8.2c.3.1.4.2.5.2s.1,0,.2,0c.3,0,1-.4,1.2-.5.2,0,.3-.1.5-.2.3,0,.5-.1.8-.4.2-.1.4-.3.6-.5.5-.4.9-.9,1.5-1,.2,0,.3,0,.5,0,.7,0,1.3.3,1.7,1,.5.9,0,1.9-.8,2.4-.3.2-.8.5-1.3.7-.3.2-.6.3-.8.4-.5.3-1.6.8-2.1,1-.2,0-.3.1-.3.1,0,0,0,0,0,0,0,.3,0,2.9,0,4.5,0,.3,0,.7,0,1,0,1.3.2,2.7,0,4-.1,1.7-.1,3.1,0,4.2,0,.4.2.7.3,1,.2.5.4,1,.3,1.8-.2,1.4-.9,2.2-2.3,2.3,0,0-.2,0-.2,0Z" class="st8"></path>
          <path d="M88.2,50c.5,0,.9.2,1.2.7.4.7,0,1.5-.7,1.8s-1.5.8-2,1.1c-.5.3-1.5.8-2,.9-.5.2-.6.3-.6.6,0,.3,0,3,0,4.6.1,1.6.3,3.4.2,5-.1,1.6-.1,3.2.1,4.3.2,1.1.7,1.5.6,2.7-.1,1.1-.7,1.8-1.8,1.8,0,0-.1,0-.2,0-1,0-1.7-.4-1.8-1.1-.2-.8-.1-1.8-.4-2.9-.3-1.1-.2-1.5,0-2.7.2-1.2,0-4.7,0-6.2,0-1.4-.2-2.7-.3-3,0,0,0-.4-.4-.4-.1,0-.3,0-.5.2-.8.5-1.9,1.2-2.6,1.8,0,0-.7.5-1.2.9-.6.4-1,1.1-1.2,1.5-.2.3-.5.5-1.1.5s-.1,0-.2,0c-.7,0-1.4-.9-1.4-1.7,0-.7.4-1.4,1.3-1.7.9-.2,1.6-.7,2.3-1.1.7-.4,1.9-1.2,2.8-1.7.9-.5,1.4-.8,1.5-.9.2-.1.3-.3.2-.5,0-.3-.2-1.1.4-1.7.4-.3.7-.5,1.1-.5s.4,0,.6.1c.3.1.4.2.7.2s.2,0,.3,0c.4,0,1.1-.4,1.4-.6.3-.2.8-.2,1.4-.6.6-.4,1.2-1.3,1.9-1.4.1,0,.3,0,.4,0M88.2,49.1c-.2,0-.4,0-.6,0-.7.1-1.3.7-1.7,1.1-.2.2-.4.3-.5.5-.2.2-.4.2-.7.3-.2,0-.4.1-.6.2-.5.3-.9.5-1.1.5,0,0-.1,0-.2,0,0,0-.1,0-.2,0h0c-.3-.2-.7-.2-1-.2-.6,0-1.2.2-1.7.7-.9.8-.8,1.8-.7,2.3-.3.2-.9.5-1.3.7-1,.6-2.3,1.4-2.9,1.8-.6.4-1.3.8-2,1-1.2.3-2,1.3-2,2.6,0,1.1,1,2.5,2.3,2.6,0,0,.1,0,.2,0,1.1,0,1.7-.6,1.9-1,.2-.4.6-.9.9-1.2.5-.4,1.2-.8,1.2-.8,0,0,0,0,0,0,.5-.4,1.4-1,2.1-1.5,0,.5.2,1.3.2,2.2,0,.3,0,.7,0,1.1,0,1.5.1,4,0,4.9v.3c-.2,1-.3,1.6,0,2.8.1.6.2,1.1.2,1.7,0,.4,0,.9.2,1.2.2,1.2,1.3,1.9,2.7,1.9s.2,0,.3,0c.9,0,2.4-.5,2.7-2.7.1-.9-.1-1.5-.3-2.1-.1-.3-.2-.5-.3-.9-.2-1-.2-2.4,0-4,.1-1.4,0-2.8,0-4.1,0-.3,0-.7,0-1,0-1.4,0-3.6,0-4.2,0,0,0,0,0,0,.5-.2,1.6-.7,2.2-1,.2-.1.5-.3.8-.4.4-.2.9-.5,1.3-.7,1-.6,1.7-1.9,1-3.1-.4-.8-1.2-1.2-2.1-1.2h0Z" class="st4"></path>
        </g>
      </g>
    </g>
    <path d="M94.4,42h0c0,0,5.4,2.3,5.4,2.3v4.4c.6-.7,1.3-1.2,2-1.3.2,0,.4,0,.6,0,1,0,1.8.4,2.4,1,.5.6.7,1.4.6,2.3-.4,2-.8,2.4-2.3,3.2-1.1.5-2.2,1.6-3,2.9-.1.2-.2.4-.4.6l-.2,22.6-16.4.2-5.5-2.3v-7.9c0,0-4.5-1.9-4.5-1.9v12.2c0,0-16.5.2-16.5.2l-5.5-2.3.3-35.6,15.9-.2h0s.1,0,.1,0h0c0,0,5.3,2.3,5.3,2.3l1.6,1.7,3.9-4.2,16-.2h0s.1,0,.1,0M94.4,40s0,0,0,0h0s0,0,0,0,0,0,0,0l-16,.2c-.5,0-1.1.2-1.4.6l-2.4,2.6-.2-.2c-.2-.2-.4-.4-.7-.5l-5-2.1c-.3-.2-.7-.4-1.2-.4s0,0,0,0h0s0,0,0,0,0,0,0,0l-15.9.2c-1.1,0-2,.9-2,2l-.3,35.6c0,.8.5,1.6,1.2,1.9l5.5,2.3c.2.1.5.2.8.2s0,0,0,0l16.4-.2c1.1,0,2-.9,2-2v-9.2c0,0,.6.2.6.2v6.5c0,.8.4,1.6,1.2,1.9l5.5,2.3c.2.1.5.2.8.2s0,0,0,0l16.4-.2c1.1,0,2-.9,2-2l.2-22s0,0,0,0c.7-1.1,1.6-1.9,2.2-2.1,2.2-1.1,3-2.1,3.4-4.6.3-1.5,0-2.9-1-3.9-.9-1.1-2.4-1.8-3.9-1.8s-.4,0-.6,0v-1.1c0-.8-.5-1.6-1.2-1.9l-5-2.1c-.3-.2-.7-.4-1.2-.4h0ZM94.4,44h0,0Z" class="st7"></path>
    <g>
      <path d="M28.9,100.8c-1,0-1,1.5-2.2,1.5s-.5-.4-.5-.8c0-.8.6-2,1.1-2.7h0c0-.2.2-.4.3-.6h0c.2-.2.4-.6.5-.8h0c.4-.6,1-1.8,1.4-2.5.3-.6,1.1-1.8,1.3-2.5,0-.5-.2-1-.8-1s-.8.3-1.3,1.1l-.2.3h0c-1,1.7-2,3.6-2.8,4.8-1.3,1.7-2.7,3.7-4.4,3.7s-.8,0-.8-.5h0s0-.3.1-.5l.2-.4c.4-.7,1.5-2.3,2.1-3l.4-.5c.9-1.2,1.7-2.8,1.9-4.3.2-1.8-1.5-3.8-3.9-3.8h-.4c-2.8,0-5.3,1.3-6.4,3.7-.2.4-.3.9-.3,1.5,0,1.1.8,2.2,1.6,2.7.4.3,1,.3,1.4.3,1.7,0,3.5-1.3,3.5-3.2s0-1.2-.8-1.2-.7,0-.8.5c0,.8-.5,1.9-1.9,1.9s-1.3-.7-1.3-1.3c0-2.1,3-3.3,5.1-3.3s2.3.7,2.3,2.1-1.4,3-2.2,4c-.3.6-1.1,1.6-1.7,2.6,0,.3-.5,1.1-.6,1.3-.1.3-.1.6-.1.8,0,1.1.8,2,1.9,2.2h.4c1.4,0,2.6-.6,3.6-1.5,0,.4,0,.7,0,1,0,1,1.5,1.5,2.1,1.5,1.2,0,2.7-1.2,2.9-2.2,0-.4-.2-1-.7-1Z" class="st4"></path>
      <path d="M66.9,98.2c-.5.1-1.2,1.4-1.3,1.5-.3.5-1.4,1.7-1.8,1.7-.3,0-.3-.8-.2-1.1.5-1.4.9-2.5,1.3-3.6v-.5c.1-.8-.5-1.4-1.2-1.4s-1.2.6-1.6.9l-1,1.1-.4.5s.2-1.3.2-1.3c0-.7-.2-1.3-1-1.3-1.1,0-2.2,1-2.8,2-.3.5-.6,1-.9,1.4-.3.4-.9,1.3-.9,1.4,0,0,0,0,0,.1-.2.3-.4.5-.6.6-.2.3-1.3,1.2-1.9,1-.2,0-.3-.6-.3-.9,0-.7.4-1.4.8-2,0,0,.4-.5.5-.7,0,0,.9-1.3.9-1.7s-.1-.9-.5-.9c-.1,0-.6,0-.9.6,0-.1-.3-.4-.3-.5-.2-.2-.7-.4-1.1-.4-1.4,0-2.8.6-3.7,1.6-.4.4-.8,1-1.1,1.5-.6.3-1.2.4-1.5.4-.4,0-.6-.3-.7-.3,0-.3,0-.8,0-1.2s0-.4,0-.6c0-.4-.6-.7-.7-.7,0,0-.2,0-.2,0-.5,0-1.2.3-1.4.6-.4.5-.6,1-.6,1.8s.4,1.2.8,1.3c0,1-1.2,1.7-2.1,1.8-.6,0-1.1-.5-1.2-.8,0-.1,0-.3,0-.4,0-.3,0-.7.1-1,.2-.7.4-1.4.5-1.5,1.3-.6,3.2-1.9,4-3.1.9-1.3,1.7-3.1,1.8-4.5,0-1-.4-2.6-1.4-2.6-1.5,0-2.9,2.5-3.7,4.2-.5,1-1.3,2.8-2,4.4-.5,1.1-.8,2.5-.9,3.7-.3.3-.6.7-.9,1-.9.9-1.8,1.5-2.1,1.1-.1-.1-.1-.4,0-.7l.4-.7c.4-.7.9-1.7,1.3-2.2h0c.1,0,.3-.3.3-.4l1.5-1.9v-.2c.1-.1.2-.3.2-.4,0-.3-.2-.7-.8-.7-.5,0-.7.1-.9.5h0c-.4.4-1.1.7-1.6.7-.1,0-.5-.3-.5-.3l.3-.4c.4-.5.8-1.3.7-1.8,0-.4-.6-.6-1.1-.6-.5,0-1.1.3-1.4.6-.4.5-1,1.2-.9,2,0,.3.2.4.2.5,0,.3-.9,1.5-1,1.8-.6,1-1.3,2-1.9,2.6,0,.5.7.5,1,.4.6-.1,1.4-.9,1.6-1.4.2-.3,1.5-2.4,1.6-2.4.2,0,.6.3.9.3.2,0,.6,0,.8-.1h0c-.9,1.2-1.8,2.7-2.3,3.7-.1.8-.3.9-.3,1.6s.5.9,1,.9c1,0,1.9-.2,2.7-.8.4-.3.8-.6,1.1-.9,0,0,0,0,0,0,.4.8,1.4,1.5,2.4,1.5,1.8,0,3.4-1.6,4-3.2.3.2.7.3,1.2.3s.5,0,.8-.1c0,.2-.1.4-.1.7,0,1.2.5,2.4,1.5,2.4s2.1-.7,2.9-1.4c0,0,.1-.2.2-.2,0,0,.3-.3.4-.4,0,0,0,.5,0,.6,0,.5.7,1.5,1.4,1.5,1,0,2.2-.9,2.7-1.3.4-.4.9-1,1.2-1.7.5-.5,1.2-1.6,1.5-2.1.2-.4,1-1.3,1.3-1.4.7.1-.3,2.2-.7,3-.2.3-.4,1-.6,1.4-.2.5-.6,1.1-.7,1.6,0,.4.3.8.8.8s.9-1,1.1-1.2c.7-1.3.8-1.3.9-1.4l.3-.7c1.1-1.8,1.2-1.7,1.5-2.1.2-.3.8-.9,1-.9.4,0,.2.7,0,1.4-.2.5-.4.8-.5,1.3l-.2.5c-.1.3-.1.7-.1,1v.5c0,0,0,.2,0,.3,0,.3.6,1.3,1.3,1.3s1.8-.9,2.2-1.3c.6-.7,1.5-1.7,1.8-2.6v-.4c.1,0,.2-.2.2-.3,0-.2-.2-.4-.6-.4ZM41.8,92.4c.2-.1,1.4-3.5,2.2-3.5h.1c.2.1.3.2.3.6,0,.9-1.1,2.9-1.6,3.7-.9,1.3-1.5,1.7-2.2,2.1.2-.7.9-2.4,1.2-3ZM52.3,97.2c-.6.9-1.7,2.2-2.1,2.6-.5.5-1.2,1.3-1.9,1.4-.4-.1-.5-.4-.5-.9,0-1,.7-1.9,1.5-2.9.6-.7,1.7-1.4,2.6-1.4s.5.4.5.6,0,.4,0,.6Z" class="st4"></path>
      <path d="M132.2,105.4c.2-.6.6-1.3.6-1.4.3-.9.7-1.5,1-2.4h0c.1-.6.5-1.9.7-2.6.1-.3.6-1.5.7-1.8.1,0,.7-1.6.7-1.7,0-.2-.4-.6-.6-.7h-.3c-.7,0-.9.7-1,1.2-.1.5-.7,1.7-1,2.1-.4,1-2.6,2.9-3.2,2.9s-.5-.2-.5-.4c0-1.3.5-2.6.9-3.8.2-.7.3-1.4.2-1.8h0c0-.4-.8-.9-1.1-.9-.6,0-1.2,0-1.5.4-.2.2-.8.8-1.1,1.2-.3.4-1.1,1.9-1.3,2.3,0,.2-.4.7-.6,1.2-.7.5-1.6,1.4-2.4,1.9-.9.6-1.5.6-2.2.6-.6-.1-.7-1-.6-1.3h.5c1.4,0,3.4-1.4,3.9-2.1.6-.8.9-1.4,1-2.3,0-.5-.2-1.9-1.1-1.9-1.3,0-2.7.5-3.5,1.3-1.1,1.2-1.7,2.2-2.1,3.4,0,0,0,0,0,.1-.3.4-.9,1.1-1.6,1.7-.8.7-1.6,1.2-2.3,1.3,0,0-.5-.2-.5-.3-.3-1-.4-1.8-.4-2.7.3-.4,2.5-1.3,3.5-1.7.3,0,.4.2.7.1.4-.1.6-.5.6-1.1-.1-.7-.9-.9-1.2-.9-.3,0-1.9.8-2.2,1-.9.5-2.2,1-3.1,1.6,0,0,.2-.4.4-.8,1.4-.7,3.3-2.3,4-3.5.6-1,1.4-2.5,1.4-3.9,0-.8,0-1.1-.2-1.7-.2-.3-.7-.9-1.1-.9-1.5,0-3,2.8-3.7,4.4-.7,1.3-1.8,4.1-2.7,6.7-.5.3-1.1,1.3-1.1,1.4-.3.5-1.4,1.7-1.8,1.7-.3,0-.3-.8-.2-1.1.5-1.4.9-2.5,1.3-3.6v-.5c.1-.8-.5-1.4-1.2-1.4s-1.2.6-1.6.9l-1,1.1-.4.5s.2-1.3.2-1.3c0-.7-.2-1.3-1-1.3-1.1,0-2.2,1-2.8,2-.3.5-.6,1-.9,1.4-.2.3-.6.8-.8,1.1,0,0-.2.1-.3.1-.4.2-1.1.3-1.6.3,0,0,.5-1,.5-1,.1-.5.3-1.1.2-1.7,0-.7-.4-1.6-.9-2-.2-.3-.4-.3-.7-.3-.6,0-1.5.4-1.8.6-.4.4-.9,1-1,1.1,0,0-.1,0-.1.1l-1.2.7s-.2.3-.2.3c0,0-.4.6-.5.7-.5.8-1,2-1,3-.7.2-1.5,2.3-3,2.4-.2,0-.4-.1-.4-.3-.2-1.9,1.5-4.1,2.1-5.9,0,0,0-.2.1-.2.8-1.7,1.6-3.5,2.5-5.2.2-.5.5-.6.4-1.2h0c0,0-.1-.2-.1-.2-.2-.4-.2-.6-.8-.5,0,0-.1,0-.2,0-.8.6-1.3,1.1-2,1.8l-2.6,3c-.3.4-.3.3-2.8,2.9h0c0,0-.2,0-.2,0s0-.2,0-.2c.2-1.5.6-3.2,1.2-4.5.3-.6.6-1.1.6-1.8,0-.4-.4-.5-.7-.5-.7,0-.9.6-1.2,1.1-.1.2-.2.2-.3.4l-4.5,5.7c0,0-.2.4-.3.4-.2.3-1.2,1.4-1.5,1.7-.3.3-.5.6-.9.6,0,0-.1,0-.1-.1,0,0,0-.3,0-.4,0-.6.2-1.2.1-1.8,0-.4-.4-.6-.7-.6-.7.1-.9.7-.8,1.3,0,0-.1,2.4.4,2.9.3.5,1,.5,1.5.5.8,0,1.2-.8,1.7-1.2l3.9-4.8h.2s0,0,0,.1c0,.4,0,1.5-.1,1.6-.1,1,0,1.7.4,2.6,0,0,.3,0,.4,0,.6,0,.5-.2.8-.6,1.8-1.8,3.6-3.4,5-5.5h0c0,.6-.6,1.4-.8,1.9,0,.1-1,2-1.1,2.2-.7,1.4-1.1,2.8-1.2,4.3,0,.3,0,.9,0,1.1.2.5.3.6.5,1,.5.1.6.4,1.3.4.2,0,.5-.2.7-.1.9-.6,2.4-1.4,2.8-2.6.3.3.6.6,1,.8h.4c2.3,0,3-1.1,4.1-2.3.5,0,1.5,0,2.2-.3.9-.3,1.9-1.1,2.1-2,.3-.4.6-.9.7-1.1.2-.4,1-1.3,1.3-1.4.7.1-.3,2.2-.7,3-.2.3-.4,1-.6,1.4-.2.5-.6,1.1-.7,1.6,0,.4.3.8.8.8s.9-1,1.1-1.2c.7-1.3.8-1.3.9-1.4l.3-.7c1.1-1.8,1.2-1.7,1.5-2.1.2-.3.8-.9,1-.9.4,0,.2.7,0,1.4-.2.5-.4.8-.5,1.3l-.2.5c-.1.3-.1.7-.1,1v.5c0,0,0,.2,0,.3,0,.3.6,1.3,1.3,1.3s1.4-.6,1.9-1c0,.2-.2.5,0,.7.1.4.8.5,1.2.4,0,0,.3,0,.3,0,.2-.3.4-.8.4-1.2.2-.3,0-.2.2-.4.5-.8,1-1.3,1.4-1.6,0,0,.2-.1.2-.1,0,0,.1,0,.1,0-.1.7,0,1.7.3,2.2.2,1,1.3,1.3,2.2,1.3.4,0,1.4-.5,1.7-.7.5-.3,1.1-.8,1.7-1.4.2,1.1,1.2,1.8,1.7,1.8.8,0,1.8,0,2.8-.6,1.3-.7,2.5-1.8,2.9-2.6.3,0,.5-.3.7-.6,1-1.9,2.1-3.9,2.7-3h0c0,.4-.3,1-.4,1.4-.2.3-.9,2.4-.8,2.8.1,1,0,1.4.7,2.1.2.2.6.5.9.5.5,0,1.2-.4,1.4-.6l1.9-1.7s0-.2,0-.2c0,0,0,0,0,0,0,0,0,.1,0,.2-.4,1-1.1,2.5-1.3,2.8-.2.4-.5,1-.8,1.3-.9-.1-2.7.2-3.5.8-1.1.7-2,1.7-2,2.9s.5,1.5,1.1,1.9h.4c0,.1.2.3.3.3,0,0,.2,0,.2,0,1.8-.3,3.2-1.9,4.4-3.5l.3-.5c1,.1,2.2,1.7,3.2,1.7s.5-.6.5-1.1c-.3,0-2.2-1.8-3.1-2ZM120.8,97c.5-.7,1.7-1.5,2.3-1.3.4.3.1,1.1-.2,1.5-.4.7-2,1.7-3.1,1.9h0c.1-.7.6-1.5,1-2.1ZM112.7,94.8s0-.3,0-.3c.3-.8.5-1.3.9-2.1,0,0,.9-2.2,1.5-2.7.3-.5.5-.8.8-.8h.1c.2.1.3.2.3.6,0,.9-.8,2.5-1.4,3.3-.9,1.3-1.6,1.8-2.3,2.2.2-.5,0,.2.1-.3ZM91.9,102.1c-.2,0-.6-.2-.6-.4-.2-.9.4-2.6,1-2.9h0c0,.3-.2.5-.1.6,0,.8.5,1.2,1.3,1.5.1,0,.4,0,.4.2-.5.5-1.2,1-2.1,1ZM94.9,99.7c-.3,0-1.2-.1-1.3-.5-.2-.5.1-1.3.4-1.7.3-.4,1-.9,1.5-.9.3,0,.4.3.4.5,0,.5-.1,2.3-.9,2.6ZM129.8,106.6s-.3.5-.5.7c-.2.2-.4.6-.6.8-.5.4-1.1,1.1-1.8,1.1s-.3-.2-.3-.5c0-.6.9-1.8,1.4-1.8.2-.2,1.5-.6,1.8-.4h0Z" class="st4"></path>
    </g>
  </g>
</svg>