<svg viewBox="0 0 150.1 150.1" version="1.1" xmlns="http://www.w3.org/2000/svg" id="ICONS">
  
  <defs>
    <style>
      .st0, .st1, .st2, .st3 {
        fill: none;
      }

      .st1 {
        stroke-width: .7px;
      }

      .st1, .st4, .st2 {
        stroke-miterlimit: 10;
      }

      .st1, .st2, .st3 {
        stroke: #000;
      }

      .st1, .st3 {
        stroke-linecap: round;
      }

      .st5 {
        fill: #020202;
      }

      .st4 {
        stroke: #020202;
      }

      .st3 {
        stroke-dasharray: 0 0 0 0 0 3;
        stroke-linejoin: round;
      }
    </style>
  </defs>
  <path d="M132.2,112.4c4.7,0,8,3.4,8,8.1s-1.4,5.6-3.7,7l3.7,6.1h-9.2l-2.9-5h-4.6v5h-7.7v-5h-2.9v5h-7.7v-5h-4.6l-2.9,5h-9.2l3.7-6.1c-2.3-1.4-3.7-3.9-3.7-7,0-4.7,3.2-8.1,8-8.1h35.6M132.2,110.4h-35.6c-5.8,0-10,4.2-10,10.1s1.1,5.6,3.1,7.5l-2.8,4.5c-.4.6-.4,1.4,0,2,.4.6,1,1,1.7,1h9.2c.7,0,1.4-.4,1.7-1l2.3-4h1.4v3c0,1.1.9,2,2,2h7.7c.6,0,1.1-.2,1.4-.6.4.4.9.6,1.4.6h7.7c1.1,0,2-.9,2-2v-3h1.4l2.3,4c.4.6,1,1,1.7,1h9.2c.7,0,1.4-.4,1.7-1,.4-.6.3-1.4,0-2l-2.8-4.5c1.9-1.8,3.1-4.5,3.1-7.5,0-5.9-4.2-10.1-10-10.1h0Z"></path>
  <g>
    <g>
      <path d="M25.4,101h-14.8c0-.5,0-.9,0-1.3,0-15.2,0-30.4,0-45.5,0-1.2.4-1.4,1.4-1.4,4,0,8.1,0,12.1,0,.4,0,.9,0,1.3,0v6.8h-8v34.5h1.3v-32.9h6.7v39.8Z" class="st2"></path>
      <path d="M82.7,94.2h1.3v-33h6.7v39.7h-14.8v-48h14.8v6.7h-8v34.5Z" class="st2"></path>
      <path d="M116.6,101v-41.2h-1.3v41.2h-6.7v-48h14.8v48.1h-6.7Z" class="st2"></path>
      <path d="M98.9,101h-6.7v-48.1h14.7v48.1h-6.6v-16.4c-.5,0-.9,0-1.4,0v16.5ZM100.2,77.6v-17.9c-.5,0-.8,0-1.3,0v17.8h1.3Z" class="st2"></path>
      <path d="M35,52.9h6.7v48.1c-.3,0-.5,0-.6,0-4.4,0-8.8,0-13.2,0-.7,0-1-.2-1-1,0-15.6,0-31.2,0-46.7,0-.1,0-.2,0-.4h6.6c0,.5,0,.9,0,1.4,0,12.7,0,25.4,0,38.2,0,.4,0,.8,0,1.1,0,.3.5.6.6.6.3,0,.6-.4.7-.6.1-.3,0-.6,0-1,0-12.8,0-25.5,0-38.3,0-.4,0-.9,0-1.4Z" class="st2"></path>
      <path d="M124.8,101v-48h14.8v6.7h-8v34.4h1.3v-32.9h6.7v39.8h-14.8Z" class="st2"></path>
      <path d="M74.3,101h-14.7v-6.8h8v-9.7h-8v-31.6h6.7v24.7h1.4v-24.7h6.7v48.1Z" class="st2"></path>
      <path d="M58.1,94.2c0,2.2,0,4.1,0,6,0,.3-.4.8-.6.8-4.7,0-9.4,0-14.2,0v-48.1h6.7c0,.4,0,.9,0,1.4,0,12.8,0,25.7,0,38.5,0,1.1.2,1.5,1.4,1.4,2.2,0,4.4,0,6.8,0Z" class="st2"></path>
      <path d="M51.4,52.9h6.6v33h8.1v6.8h-14.7v-39.8Z" class="st2"></path>
    </g>
    <g>
      <path d="M12.3,53.3s0,0,0,0c2,0,4.1,0,6.1,0s3.6,0,5.4,0,.4,0,.6,0c.2,0,.3,0,.5,0,.3,0,.6,0,.9,0v6.8h-8v34.5h1.3v-32.9h6.7v39.8h-14.8c0-.5,0-.9,0-1.3,0-15.2,0-30.4,0-45.5,0-1.1.3-1.4,1.3-1.4M12.3,51.3c-.4,0-1.6,0-2.4.9-.8.8-.9,1.8-.9,2.5,0,11.4,0,23,0,34.2v11.3c0,.4,0,.7,0,1,0,.1,0,.3,0,.4,0,1.1.9,1.9,2,1.9h14.8c1.1,0,2-.9,2-2v-39.8c0-.3,0-.5-.1-.7.1-.2.2-.5.2-.8v-6.8c0-1.1-.9-2-2-2h-.5s-.4,0-.4,0h-.5s-.6,0-.6,0h-2.7s-2.7,0-2.7,0c-1.7,0-3.9,0-6.1,0h-.1s0,0,0,0h0Z" class="st5"></path>
      <path d="M91.1,53.4v6.7h-8v34.5h1.3v-33h6.7v39.7h-14.8v-48h14.8M91.1,51.4h-14.8c-1.1,0-2,.9-2,2v48c0,1.1.9,2,2,2h14.8c1.1,0,2-.9,2-2v-39.7c0-.3,0-.5-.1-.8.1-.2.2-.5.2-.8v-6.7c0-1.1-.9-2-2-2h0Z" class="st5"></path>
      <path d="M123.7,53.4v48.1h-6.7v-41.2h-1.3v41.2h-6.7v-48h14.8M123.7,51.4h-14.8c-1.1,0-2,.9-2,2v48c0,1.1.9,2,2,2h6.7c.2,0,.4,0,.6-.1.2,0,.5.1.7.1h6.7c1.1,0,2-.9,2-2v-48.1c0-1.1-.9-2-2-2h0Z" class="st5"></path>
      <path d="M107.3,53.4v48.1h-6.6v-16.4c-.5,0-.9,0-1.4,0v16.5h-6.7v-48.1h14.7M99.3,78.1h1.3v-17.9c-.5,0-.8,0-1.3,0v17.8M107.3,51.4h-14.7c-1.1,0-2,.9-2,2v48.1c0,1.1.9,2,2,2h6.7c.3,0,.5,0,.7-.1.2,0,.4.1.7.1h6.6c1.1,0,2-.9,2-2v-48.1c0-1.1-.9-2-2-2h0Z" class="st5"></path>
      <path d="M42.1,53.4v48.1c-.3,0-.5,0-.6,0-.9,0-1.9,0-2.8,0s-1.7,0-2.6,0c-2.6,0-5.2,0-7.8,0,0,0,0,0,0,0-.7,0-1-.2-.9-1,0-15.6,0-31.2,0-46.7,0-.1,0-.2,0-.4h6.6c0,.5,0,.9,0,1.4,0,12.7,0,25.4,0,38.2,0,.4,0,.8,0,1.1,0,.2.4.6.6.6s0,0,0,0c.3,0,.6-.4.7-.6.1-.3,0-.6,0-1,0-12.8,0-25.5,0-38.3v-1.4h6.7M42.1,51.4h-6.7c-.3,0-.5,0-.7.1-.2,0-.4-.1-.7-.1h-6.6c-1,0-1.8.7-2,1.7h0c0,.3,0,.5,0,.8v11.5c0,11.7,0,23.5,0,35.2,0,.3,0,1.4.8,2.2.8.8,1.8.8,2.2.8,2.6,0,5.3,0,7.9,0h1.3s1.3,0,1.3,0h2.8c.3,0,.5,0,.7,0,0,0,.1,0,.2,0,1-.1,1.8-1,1.8-2v-48.1c0-1.1-.9-2-2-2h0Z" class="st5"></path>
      <path d="M140,53.4v6.7h-8v34.4h1.3v-32.9h6.7v39.8h-14.8v-48h14.8M140,51.4h-14.8c-1.1,0-2,.9-2,2v48c0,1.1.9,2,2,2h14.8c1.1,0,2-.9,2-2v-39.8c0-.3,0-.5-.2-.8,0-.2.2-.5.2-.8v-6.7c0-1.1-.9-2-2-2h0Z" class="st5"></path>
      <path d="M66.7,53.4v24.7h1.4v-24.7h6.7v48.1h-14.7v-6.8h8v-9.7h-8v-31.6h6.7M66.7,51.4h-6.7c-1.1,0-2,.9-2,2v31.6c0,1.1.9,2,2,2h6v5.7h-6c-1.1,0-2,.9-2,2v6.8c0,1.1.9,2,2,2h14.7c1.1,0,2-.9,2-2v-48.1c0-1.1-.9-2-2-2h-6.7c-.2,0-.5,0-.7.1-.2,0-.4-.1-.7-.1h0Z" class="st5"></path>
      <path d="M50.4,53.4c0,.4,0,.9,0,1.4,0,12.8,0,25.7,0,38.5,0,1,.2,1.4,1.2,1.4s.1,0,.2,0c.9,0,1.8,0,2.8,0s2.6,0,4,0c0,2.2,0,4.1,0,6,0,.3-.4.8-.6.8-3.2,0-6.5,0-9.7,0s-3,0-4.5,0v-48.1h6.7M50.4,51.4h-6.7c-1.1,0-2,.9-2,2v48.1c0,1.1.9,2,2,2h2.2s2.2,0,2.2,0c3.1,0,6.5,0,9.8,0,1.5,0,2.5-1.6,2.6-2.7,0-1.5,0-2.9,0-4.5v-1.6c0-1.1-.9-2-2-2s-1.4,0-2,0c-.7,0-1.3,0-2,0s-1.5,0-2.1,0c0-10,0-20.1,0-29.9v-8s0-.9,0-.9v-.4c0-1.1-.9-2-2-2h0Z" class="st5"></path>
      <path d="M58.5,53.4v33h8.1v6.8h-14.7v-39.8h6.6M58.5,51.4h-6.6c-1.1,0-2,.9-2,2v39.8c0,1.1.9,2,2,2h14.7c1.1,0,2-.9,2-2v-6.8c0-1.1-.9-2-2-2h-6.1v-31c0-1.1-.9-2-2-2h0Z" class="st5"></path>
    </g>
    <g>
      <path d="M42.6,16.6h0s-1.5,3.4-1.5,3.4l-1.5,3.4-1.5,3.4-.5,1.1h-4.9l.5-1.1,1.5-3.4.7-1.5h-11.5l-.7,1.5-1.5,3.4-1.5,3.4-1.5,3.4-1.5,3.4-1.5,3.4h-4.9l1.5-3.4,1.5-3.4,1.5-3.4,1.5-3.4,1.5-3.4,1.5-3.4,1.5-3.4h21.2" class="st4"></path>
      <path d="M18.8,16.6l-1.5,3.4-.2.4-.2-.4-1.5-3.4h3.5" class="st4"></path>
    </g>
    <g>
      <path d="M42.6,16.6h0s-1.5,3.4-1.5,3.4l-1.5,3.4-1.5,3.4-.5,1.1h-4.9l.5-1.1,1.5-3.4.7-1.5h-11.5l-.7,1.5-1.5,3.4-1.5,3.4-1.5,3.4-1.5,3.4-1.5,3.4h-4.9l1.5-3.4,1.5-3.4,1.5-3.4,1.5-3.4,1.5-3.4,1.5-3.4,1.5-3.4h21.2" class="st2"></path>
      <path d="M18.8,16.6l-1.5,3.4-.2.4-.2-.4-1.5-3.4h3.5" class="st2"></path>
    </g>
    <path d="M24.9,26.9l1.5,3.4,1.5,3.4,1,2.3,1-2.3,1.5-3.4.3-.8h4.9l-.3.8-1.5,3.4-1.5,3.4-1.5,3.4h-5.6l-1.5-3.4-1.5-3.4-.7-1.5.9-2,1.6-3.4"></path>
    <path d="M24.9,26.9l1.5,3.4,1.5,3.4,1,2.3,1-2.3,1.5-3.4.3-.8h4.9l-.3.8-1.5,3.4-1.5,3.4-1.5,3.4h-5.6l-1.5-3.4-1.5-3.4-.7-1.5.9-2,1.6-3.4" class="st2"></path>
    <g>
      <g>
        <line y2="12.8" x2="55.5" y1="12.8" x1="53.1" class="st1"></line>
        <line y2="12.8" x2="50.7" y1="12.8" x1="48.2" class="st1"></line>
      </g>
      <g>
        <line y2="9.2" x2="51.9" y1="11.6" x1="51.9" class="st1"></line>
        <line y2="14" x2="51.9" y1="16.4" x1="51.9" class="st1"></line>
      </g>
    </g>
    <g>
      <g>
        <line y2="137.7" x2="83.9" y1="137.7" x1="81.4" class="st1"></line>
        <line y2="137.7" x2="79" y1="137.7" x1="76.6" class="st1"></line>
      </g>
      <g>
        <line y2="134.1" x2="80.2" y1="136.5" x1="80.2" class="st1"></line>
        <line y2="138.9" x2="80.2" y1="141.3" x1="80.2" class="st1"></line>
      </g>
    </g>
    <rect height="149.6" width="149.6" y=".2" x=".2" class="st0"></rect>
    <rect transform="translate(150.1 0) rotate(90)" height="129.6" width="129.6" y="10.2" x="10.2" class="st0"></rect>
    <polyline points="43.1 36.6 38.2 46.1 71.8 46.1" class="st1"></polyline>
    <path d="M65.8,109.1h18s-9.3,11.8.2,19" class="st3"></path>
    <circle r=".4" cy="46.1" cx="73.1"></circle>
  </g>
  <path d="M131.2,112.4c4.7,0,8,3.4,8,8.1s-1.4,5.6-3.7,7l3.7,6.1h-9.2l-2.9-5h-4.6v5h-7.7v-5h-2.9v5h-7.7v-5h-4.6l-2.9,5h-9.2l3.7-6.1c-2.3-1.4-3.7-3.9-3.7-7,0-4.7,3.2-8.1,8-8.1h35.6M131.2,111.4h-35.6c-5.2,0-9,3.8-9,9.1s1.2,5.6,3.3,7.3l-3.2,5.3c-.2.3-.2.7,0,1,.2.3.5.5.9.5h9.2c.4,0,.7-.2.9-.5l2.6-4.5h3v4c0,.6.4,1,1,1h7.7c.6,0,1-.4,1-1v-4h.9v4c0,.6.4,1,1,1h7.7c.6,0,1-.4,1-1v-4h3l2.6,4.5c.2.3.5.5.9.5h9.2c.4,0,.7-.2.9-.5.2-.3.2-.7,0-1l-3.2-5.3c2.1-1.6,3.3-4.2,3.3-7.3,0-5.3-3.8-9.1-9-9.1h0Z"></path>
  <path d="M104.2,117.5c.8,0,1.5.7,1.5,1.5v2.9c0,.8-.7,1.5-1.5,1.5h-7.1c-1.5,0-3.2-.5-3.2-2.9s1.7-2.9,3.2-2.9h7.1M104.2,116.5h-7.1c-2.6,0-4.2,1.5-4.2,3.9s1.6,3.9,4.2,3.9h7.1c1.4,0,2.5-1.1,2.5-2.5v-2.9c0-1.4-1.1-2.5-2.5-2.5h0Z"></path>
  <path d="M114.8,117.5c.8,0,1.5.7,1.5,1.5v2.9c0,.8-.7,1.5-1.5,1.5h-2.9c-.8,0-1.5-.7-1.5-1.5v-2.9c0-.8.7-1.5,1.5-1.5h2.9M114.8,116.5h-2.9c-1.4,0-2.5,1.1-2.5,2.5v2.9c0,1.4,1.1,2.5,2.5,2.5h2.9c1.4,0,2.5-1.1,2.5-2.5v-2.9c0-1.4-1.1-2.5-2.5-2.5h0Z"></path>
  <path d="M114.3,120.3v1.9h-1.8v-1.9h1.8M114.8,118.3h-2.9c-.8,0-1.5.7-1.5,1.5v2.9c0,.8.7,1.5,1.5,1.5h2.9c.8,0,1.5-.7,1.5-1.5v-2.9c0-.8-.7-1.5-1.5-1.5h0Z"></path>
  <path d="M129.7,117.5c1.5,0,3.2.5,3.2,2.9s-1.7,2.9-3.2,2.9h-7.1c-.8,0-1.5-.7-1.5-1.5v-2.9c0-.8.7-1.5,1.5-1.5h7.1M129.7,116.5h-7.1c-1.4,0-2.5,1.1-2.5,2.5v2.9c0,1.4,1.1,2.5,2.5,2.5h7.1c2.6,0,4.2-1.5,4.2-3.9s-1.6-3.9-4.2-3.9h0Z"></path>
  <path d="M129.7,120.5c1.2,0,1.2.3,1.2.9s0,.9-1.2.9h-6.6v-1.9h6.6M129.7,118.5h-7.1c-.8,0-1.5.7-1.5,1.5v2.9c0,.8.7,1.5,1.5,1.5h7.1c1.5,0,3.2-.5,3.2-2.9s-1.7-2.9-3.2-2.9h0Z"></path>
  <path d="M103.7,120.3v1.9h-6.6c-1.2,0-1.2-.3-1.2-.9s0-.9,1.2-.9h6.6M104.2,118.3h-7.1c-1.5,0-3.2.5-3.2,2.9s1.7,2.9,3.2,2.9h7.1c.8,0,1.5-.7,1.5-1.5v-2.9c0-.8-.7-1.5-1.5-1.5h0Z"></path>
</svg>