<svg viewBox="0 0 150.1 150.1" version="1.1" xmlns="http://www.w3.org/2000/svg" id="ICONS">
  
  <defs>
    <style>
      .st0, .st1, .st2, .st3, .st4, .st5, .st6 {
        fill: none;
      }

      .st1 {
        stroke-width: .7px;
      }

      .st1, .st3, .st4, .st6 {
        stroke-linecap: round;
      }

      .st1, .st3, .st5, .st6 {
        stroke: #000;
      }

      .st1, .st5 {
        stroke-miterlimit: 10;
      }

      .st2 {
        stroke-width: .7px;
      }

      .st2, .st4 {
        stroke: #221f20;
      }

      .st3, .st4 {
        stroke-width: 2px;
      }

      .st3, .st6 {
        stroke-linejoin: round;
      }

      .st5 {
        stroke-width: .8px;
      }

      .st6 {
        stroke-dasharray: 0 0 0 0 0 3;
      }
    </style>
  </defs>
  <rect height="149.6" width="149.6" y=".2" x=".2" class="st0"></rect>
  <rect transform="translate(150.1 0) rotate(90)" height="129.6" width="129.6" y="10.2" x="10.2" class="st0"></rect>
  <g>
    <g>
      <line y2="27.8" x2="41.6" y1="27.8" x1="39.1" class="st1"></line>
      <line y2="27.8" x2="36.7" y1="27.8" x1="34.3" class="st1"></line>
    </g>
    <g>
      <line y2="24.2" x2="37.9" y1="26.7" x1="37.9" class="st1"></line>
      <line y2="29" x2="37.9" y1="31.4" x1="37.9" class="st1"></line>
    </g>
  </g>
  <g>
    <g>
      <line y2="106.1" x2="106.8" y1="106.1" x1="104.3" class="st1"></line>
      <line y2="106.1" x2="101.9" y1="106.1" x1="99.5" class="st1"></line>
    </g>
    <g>
      <line y2="102.5" x2="103.1" y1="105" x1="103.1" class="st1"></line>
      <line y2="107.3" x2="103.1" y1="109.7" x1="103.1" class="st1"></line>
    </g>
  </g>
  <circle r=".4" cy="72.5" cx="98.4"></circle>
  <circle r=".4" cy="39.8" cx="49.2"></circle>
  <path d="M91.2,37.5l.2,3.1c3.5-.5,6.1-2.5,6.1-2.5v-4.5c-.2-3.2-.6-5.7-1.2-7.7-1.7-5.9-4.9-7.4-4.9-7.4-1.6-1.1-7-3.3-7.2-3.4h0c-.1-.1-.3-.3-.5-.4,0,0,0,0,0,0-.2-.5-.9-1.2-2.3-1.9-1.9-1-4.3-1.3-4.3-1.3,0,0-3.8-.6-6.3.3,0,0-.6.2-.9.7h0c0,0-.3.1-.5.3h0c-.3.1-9.3,3.4-10.4,4.5,0,0-1.4,1.3-2.6,3.8-.9,1.9-1.7,4.5-1.6,7.6,0,0-.6,8.5-1.7,10.8,0,0,.5,1.9,9.4,2.6.4,2.5.7,5.4.9,8.4-5.2.7-9.6,1.8-9.6,1.8,0,0-.8.9-1.5,4-.1,0-.2,0-.2,0h.2c-1,4-1.8,11.8-.9,26.2l5.6,40.9s-1.7,3.6.5,3.9v1.3c.1,0-.1,0-.1,0,0,0,0,0,.3.1l.3,3.3s1,1.2,5.3.6l1.1-4.2c.1,0,.2,0,.4-.1h-.3s.3-1.3.3-1.3c0,0,2-1.8.5-3.9,0,0,1.8-7.6,1.3-13.1,1.2,4.9,3,18.4,3,18.4-1.6,1.4.3,3.1.3,3.1v1.4c0,0,0,0,0,0,0,0,0,0,0,0l.2,3.2c2.7,1.6,5.9.5,5.9.5l.6-3.4c.2,0,.4-.2.5-.3h-.5s.3-1.4.3-1.4c1.5-.5.5-2.9.5-2.9,1.1-5.5,1.1-25.8,1.1-25.8-.1-3-.2-12.2-.2-20.9,7.9-1.4,13.9-6.2,13.9-6.2-.6-5.2-1.2-35-1.3-38.2Z" class="st2"></path>
  <g>
    <g>
      <path d="M73.2,17.6s4,2,8.7.8c0,0,4.2-1.1,2.2-3.2h0c-.1-.1-.3-.3-.5-.4-.4-.3-1-.7-1.7-1.1-2.2-1.1-4.9-1.5-4.9-1.5,0,0-4.3-.7-7.2.4,0,0,0,0,0,0h0c0,0-.3.1-.5.3h0c-.9.7-2,2.3,3.9,4.7Z" class="st5"></path>
      <path d="M81.4,12.9c5.4,2.7,0,4.2,0,4.2-4.2,1-7.7-.7-7.7-.7-6.8-2.8-3-4.4-3-4.4,2.5-.9,6.3-.3,6.3-.3,0,0,2.4.3,4.3,1.3Z" class="st5"></path>
      <path d="M84.2,15.2h0" class="st5"></path>
      <path d="M78.6,82c7.9-1.4,13.9-6.2,13.9-6.2-.6-5.2-1.2-35-1.3-38.2,0,0,0,0,0-.1,0,0,0-.1,0-.1" class="st5"></path>
      <path d="M96.2,26c-1.7-5.9-4.9-7.4-4.9-7.4-1.6-1.1-7-3.3-7.2-3.4,2,2.1-2.2,3.2-2.2,3.2-4.7,1.2-8.7-.8-8.7-.8-5.9-2.4-4.8-4.1-3.9-4.7-.3.1-9.3,3.4-10.4,4.5,0,0-1.4,1.3-2.6,3.8,6.1,4.3,7.7,10.2,7.7,10.2,1,3.8-.4,10.9-.4,10.9-.4,0-.8,0-1.2,0,.2,1.4.4,2.9.6,4.5s.1,1.3.2,1.9" class="st5"></path>
      <path d="M53,39.6s.5,1.9,9.4,2.6c.4,0,.8,0,1.2,0,0,0,1.5-7.1.4-10.9,0,0-1.6-5.9-7.7-10.2-.9,1.9-1.7,4.5-1.6,7.6,0,0-.6,8.5-1.7,10.8Z" class="st5"></path>
      <path d="M69.4,12.9h0" class="st5"></path>
      <path d="M91.2,37.2s0,0,0,.1c0,0,0,0,0,.1l.2,3.1c3.5-.5,6.1-2.5,6.1-2.5v-4.5c-.2-3.2-.6-5.7-1.2-7.7-.2.2-1,1.4-1.9,2.9-.6,1-1.3,2.3-1.8,3.5-1,2.6-1.3,4.9-1.3,4.9Z" class="st5"></path>
    </g>
    <path d="M59.4,75.4c4,11.5,7.3,34.7,7.3,34.7.5,5.5-1.3,13.1-1.3,13.1,1.5,2.2-.5,3.9-.5,3.9l-1.5,5.7c-4.3.6-5.3-.6-5.3-.6l-.5-4.8c-2.2-.4-.5-3.9-.5-3.9l-5.6-40.9c-1.7-25.3,2.3-30.2,2.3-30.2,0,0,17.8-4.3,23.7-1.7,0,0,1.6,1.7,1.1,12.5,0,0,0,33.3.2,39.7,0,0,0,20.3-1.1,25.8,0,0,1,2.3-.5,2.9l-1,5.1s-3.2,1.1-5.9-.5l-.3-4.6s-1.9-1.7-.3-3.1c0,0-1.9-13.4-3-18.4" class="st5"></path>
    <path d="M52.1,56.4s20-4,26.6-2.5" class="st5"></path>
    <path d="M57.5,128.7s2.5,1.5,7.4-.3" class="st5"></path>
    <path d="M70.1,133s3.6,2.2,7.3,0" class="st5"></path>
    <path d="M73.3,56.4s.2,10.7,2,13.3" class="st5"></path>
    <g>
      <path d="M58.7,53.8s-.9,10-.1,14.4" class="st5"></path>
      <path d="M57.1,53.8s-.9,10-.1,14.4" class="st5"></path>
    </g>
  </g>
  <path d="M49.6,38.3s1.7-6.4,2.1-12.5c0,0,0-8.3,4.5-10.8" class="st1"></path>
  <path d="M98.5,74s0,5.8.6,7c0,0-8,5.1-12.5,6.3" class="st1"></path>
  <path d="M49.7,106.7l2.4,13.6s-2.7,5.4.5,8.7" class="st6"></path>
  <path d="M92.1,12.8s9.8,4.5,10.4,13.3" class="st6"></path>
  <path d="M77.7,133.1l.3-1.7c1.5-.5.5-2.9.5-2.9,1.1-5.5,1.1-25.8,1.1-25.8-.1-3-.2-12.2-.2-20.9,7.9-1.4,13.9-6.2,13.9-6.2-.6-5.2-1.1-31.9-1.1-35.1h0c3.5-.5,6.1-2.5,6.1-2.5v-4.5c-.2-3.2-.6-5.7-1.2-7.7-1.7-5.9-4.9-7.4-4.9-7.4-1.6-1.1-7-3.3-7.2-3.4h0c-.1-.1-.3-.3-.5-.4,0,0,0,0,0,0-.2-.5-.9-1.2-2.3-1.9-1.9-1-4.3-1.3-4.3-1.3,0,0-3.8-.6-6.3.3,0,0-.6.2-.9.7h0c0,0-.3.1-.5.3h0c-.3.1-9.3,3.4-10.4,4.5,0,0-1.4,1.3-2.6,3.8-.9,1.9-1.7,4.5-1.6,7.6,0,0-.6,8.5-1.7,10.8,0,0,.5,1.9,9.4,2.6.4,2.5.7,5.4.9,8.4-5.2.7-9.6,1.8-9.6,1.8,0,0-.8.9-1.5,4-.1,0-.2,0-.2,0h.2c-1,4-1.8,11.8-.9,26.2l5.6,40.9s-1.7,3.6.5,3.9l.2,1.5" class="st4"></path>
  <path d="M54.6,52.2s-4.1,4.9-2.3,30.2l5.6,40.9s-1.7,3.6.5,3.9l.5,4.8s1,1.2,5.3.6l1.5-5.7s2-1.8.5-3.9c0,0,1.8-7.6,1.3-13.1,1.2,4.9,3,18.4,3,18.4-1.6,1.4.3,3.1.3,3.1l.3,4.6c2.7,1.6,5.9.5,5.9.5l1-5.1c1.5-.5.5-2.9.5-2.9,1.1-5.5,1.1-25.8,1.1-25.8-.2-3.8-.2-10.7-.2-20.9" class="st3"></path>
</svg>