<svg viewBox="0 0 150.1 150.1" version="1.1" xmlns="http://www.w3.org/2000/svg" id="ICONS">
  
  <defs>
    <style>
      .st0, .st1, .st2, .st3 {
        fill: none;
      }

      .st1 {
        stroke-width: .7px;
      }

      .st1, .st4, .st2 {
        stroke-miterlimit: 10;
      }

      .st1, .st4, .st2, .st3 {
        stroke: #000;
      }

      .st1, .st3 {
        stroke-linecap: round;
      }

      .st4, .st2 {
        stroke-width: .9px;
      }

      .st3 {
        stroke-dasharray: 0 0 0 0 0 3;
        stroke-linejoin: round;
      }
    </style>
  </defs>
  <g>
    <g>
      <line y2="40.4" x2="13.8" y1="40.4" x1="11.4" class="st1"></line>
      <line y2="40.4" x2="9" y1="40.4" x1="6.5" class="st1"></line>
    </g>
    <g>
      <line y2="36.8" x2="10.2" y1="39.2" x1="10.2" class="st1"></line>
      <line y2="41.6" x2="10.2" y1="44" x1="10.2" class="st1"></line>
    </g>
  </g>
  <g>
    <g>
      <line y2="108.2" x2="143.3" y1="108.2" x1="140.8" class="st1"></line>
      <line y2="108.2" x2="138.4" y1="108.2" x1="136" class="st1"></line>
    </g>
    <g>
      <line y2="104.6" x2="139.6" y1="107" x1="139.6" class="st1"></line>
      <line y2="109.3" x2="139.6" y1="111.8" x1="139.6" class="st1"></line>
    </g>
  </g>
  <rect height="149.6" width="149.6" y=".2" x=".2" class="st0"></rect>
  <rect transform="translate(150.7 -.6) rotate(90)" height="129.6" width="129.6" y="10.2" x="10.8" class="st0"></rect>
  <g>
    <path d="M14.3,46.5l12-4s0,0,0,0l10.2-2.8s0,0,0,0l3.3-.6s2.5-.6,4.9.9c0,0,6.5,4.3,10.7,9,.1.1.2.3.2.5,0,.3,0,.7,0,1.1-.2.7-1.1.9-1.6.4-1.8-1.8-8-7.6-11.6-9.2,0,0-.1,0-.2,0-.2,0-.7,0-1.6.1s0,0,0,0l-18.6,5.8s12.8,1.9,17.8,4.3c0,0,4.1,1.9,6.3,2.5,0,0,3.2,1.1,9.7.2,0,0,14.8-2,35.3,3.8.6.2,1.3.1,1.8-.1l11.5-5.3s6.7-3.3,7.6-3.9h0c.8-.6,1.9,0,1.9.8,0,1,0,2.5-.5,4.9l-.5,2.5c0,.2-.2.5-.4.6s-.5.1-.8-.2-.2-.4-.2-.6l.2-4.1c0-.3-.4-.6-.7-.4-3.3,1.8-17.6,9.3-22.5,11.7s-.8.7-.9,1.1c-.4,2-1.4,7.1-2.7,9.3,0,0-2.2,4.7-7.6,4.9,0,0-12.8.6-19.4-5.2,0,0-4.6-3.6-5.6-11.6,0,0,0,0,0,0,0-.2-.2-2.5-.2-3.8s-.4-.8-.8-.8c-1.2-.1-3.4-.4-4.7-.5-.5,0-1,.3-1.1.8-.1,1.9-.5,6.1-1,7.6,0,0-1.5,5.4-5.1,6.9,0,0-2.8,1.4-8,.4,0,0,0,0,0,0-.5,0-6.8-.8-9.8-4.5,0,0,0,0,0,0-.3-.3-3.8-4-5.7-11.3l-.8-3.6c0-.1,0-.2-.1-.3l-1.3-2c-.4-.7-.7-1.4-.7-2.2s0-.7,0-1.1c0-.9.7-1.7,1.6-2Z" class="st2"></path>
    <path d="M41.2,39c.9,0,2.3.2,3.6,1,0,0,6.5,4.3,10.7,9,.1.1.2.3.2.5,0,.3,0,.7,0,1.1-.1.4-.5.7-.9.7s-.5,0-.7-.3c-1.8-1.8-8-7.6-11.6-9.2,0,0-.1,0-.2,0,0,0-.3,0-.5,0s-.7,0-1.2.2c0,0,0,0,0,0l-18.6,5.8s12.8,1.9,17.8,4.3c0,0,4.1,1.9,6.3,2.5,0,0,1.6.6,4.9.6s2.9,0,4.7-.3c0,0,2.5-.3,6.8-.3,6.3,0,16.4.7,28.5,4.1.2,0,.5,0,.7,0,.4,0,.8,0,1.1-.2l11.5-5.3s6.7-3.3,7.6-3.9c.2-.2.5-.3.7-.3.6,0,1.2.4,1.2,1.1,0,1,0,2.5-.5,4.9l-.5,2.5c0,.2-.2.5-.4.6,0,0-.2,0-.3,0-.2,0-.3,0-.5-.3-.1-.2-.2-.4-.2-.6l.2-4.1c0-.3-.2-.4-.5-.4s-.1,0-.2,0c-3.3,1.8-17.6,9.3-22.5,11.7-.5.2-.8.7-.9,1.1-.4,2-1.4,7.1-2.7,9.3,0,0-2.2,4.7-7.6,4.9,0,0-.4,0-1.1,0-3.3,0-12.8-.4-18.3-5.2,0,0-4.6-3.6-5.6-11.6,0,0,0,0,0,0,0-.2-.2-2.5-.2-3.8,0-.4-.4-.8-.8-.8-1.2-.1-3.4-.4-4.7-.5,0,0,0,0-.1,0-.5,0-.9.4-.9.8-.1,1.9-.5,6.1-1,7.6,0,0-1.5,5.4-5.1,6.9,0,0-1.5.7-4.3.7s-2.3-.1-3.7-.4c0,0,0,0,0,0-.5,0-6.8-.8-9.8-4.5,0,0,0,0,0,0-.3-.3-3.8-4-5.7-11.3l-.8-3.6c0-.1,0-.2-.1-.3l-1.3-2c-.4-.7-.7-1.4-.7-2.2,0-.3,0-.7,0-1.1,0-.9.7-1.7,1.6-2l12-4s0,0,0,0l10.2-2.8s0,0,0,0l3.3-.6s.5-.1,1.3-.1M41.2,37h0c-.8,0-1.5.1-1.7.2l-3.2.6c0,0-.1,0-.2,0l-10.2,2.8s-.1,0-.2,0l-12,4c-1.7.6-2.8,2-3,3.7,0,.5,0,.9,0,1.4,0,1.1.4,2.2,1.1,3.2l1.2,1.8.8,3.4s0,0,0,0c1.9,7.5,5.5,11.5,6.1,12.1,3.4,4.1,10.1,5,11.1,5.2,1.4.3,2.7.4,4,.4,3,0,4.8-.7,5.2-.9,4.2-1.8,5.9-7.4,6.2-8.2.4-1.4.8-4.3,1-6.9.9.1,1.9.2,2.8.3,0,1.3.2,2.7.2,2.9,0,0,0,.1,0,.2,1,8.3,5.7,12.4,6.3,12.9,5.9,5.1,15.7,5.6,19.6,5.6s1.2,0,1.2,0c6.1-.2,8.8-5.2,9.2-6,1.4-2.3,2.4-7,2.9-9.7,4.3-2.1,14.9-7.7,20.1-10.4v1.4c0,.7.1,1.4.6,1.9.5.7,1.3,1,2.1,1s.9-.1,1.2-.3c.7-.4,1.3-1.1,1.4-1.9l.5-2.5s0,0,0,0c.3-2.2.5-4,.5-5.2,0-1.7-1.4-3.1-3.2-3.1s-1.4.2-1.9.6c-.6.4-4.1,2.2-7.3,3.7l-11.4,5.3c0,0-.2,0-.3,0s-.1,0-.2,0c-12.3-3.5-22.6-4.2-29-4.2s-4.8.1-5.9.2c.5-.4.8-.9,1-1.5.2-.7.2-1.3.1-1.8,0-.6-.3-1.2-.7-1.6-4.3-4.8-10.8-9.2-11.1-9.3-1.8-1.1-3.5-1.3-4.7-1.3h0ZM41.1,43.8c.4,0,.6,0,.7,0,2.6,1.2,7.3,5.3,10.8,8.7.2.2.5.4.7.5-.8,0-1.6,0-2.4,0-2.9,0-4.3-.4-4.3-.5,0,0,0,0-.1,0-1.7-.4-4.9-1.9-6-2.4-2.4-1.2-6.5-2.2-10.3-3l10.8-3.4h0Z"></path>
    <path d="M28.6,50.8s0,0,0,0c.5.1,7.4,1.6,10.2,4.5,0,0,.3.3.8.8,2,2.4,2.9,5.3,2.7,8.3s-.3,2.6-.8,3.4c0,0-2.2,4.1-5.8,4.5-3.7.4-8-.6-9.9-1.8,0,0-3.9-2.1-5.3-6.1,0-.2-.2-.4-.3-.7-.4-1-1.5-4.1-1.7-7.6v-3c0-.6.1-1.2.3-1.7s.9-1.5,1.9-1.4c0,0,5.1,0,7.8.8Z" class="st2"></path>
    <path d="M56.2,65.5c0-.5-1-7.4,4.6-8.5s.6,0,.9,0c2.1,0,12.2-.1,16.8,1.5,0,0,0,0,0,0,.5.1,5.3,1.5,5.8,6,0,0,0,0,0,.1v3.8c0,2.1-.6,4.2-1.7,6.1-.8,1.5-2.1,2.9-3.9,3.5,0,0,0,0,0,0-.5.1-4.1,1-9.9-.3-2.9-.6-5.6-1.9-7.8-3.7-1-.8-1.9-1.7-2.5-2.8,0,0-1.7-2.8-2.3-5.7s0,0,0,0Z" class="st2"></path>
    <path d="M135.8,77.9l-12-4s0,0,0,0l-10.2-2.8s0,0,0,0l-3.3-.6s-2.5-.6-4.9.9c0,0-6.5,4.3-10.7,9-.1.1-.2.3-.2.5,0,.3,0,.7,0,1.1.2.7,1.1.9,1.6.4,1.8-1.8,8-7.6,11.6-9.2,0,0,.1,0,.2,0,.2,0,.7,0,1.6.1s0,0,0,0l18.6,5.8s-12.8,1.9-17.8,4.3c0,0-4.1,1.9-6.3,2.5,0,0-3.2,1.1-9.7.2,0,0-14.8-2-35.3,3.8-.6.2-1.3.1-1.8-.1l-11.5-5.3s-6.7-3.3-7.6-3.9h0c-.8-.6-1.9,0-1.9.8,0,1,0,2.5.5,4.9l.5,2.5c0,.2.2.5.4.6s.5.1.8-.2.2-.4.2-.6l-.2-4.1c0-.3.4-.6.7-.4,3.3,1.8,17.6,9.3,22.5,11.7s.8.7.9,1.1c.4,2,1.4,7.1,2.7,9.3,0,0,2.2,4.7,7.6,4.9,0,0,12.8.6,19.4-5.2,0,0,4.6-3.6,5.6-11.6,0,0,0,0,0,0,0-.2.2-2.5.2-3.8,0-.4.4-.8.8-.8,1.2-.1,3.4-.4,4.7-.5s1,.3,1.1.8c.1,1.9.5,6.1,1,7.6,0,0,1.5,5.4,5.1,6.9,0,0,2.8,1.4,8,.4,0,0,0,0,0,0,.5,0,6.8-.8,9.8-4.5,0,0,0,0,0,0,.3-.3,3.8-4,5.7-11.3l.8-3.6c0-.1,0-.2.1-.3l1.3-2c.4-.7.7-1.4.7-2.2s0-.7,0-1.1c0-.9-.7-1.7-1.6-2Z" class="st2"></path>
    <path d="M108.9,70.3c.8,0,1.3.1,1.3.1l3.3.6s0,0,0,0l10.2,2.8s0,0,0,0l12,4c.9.3,1.5,1.1,1.6,2,0,.4,0,.8,0,1.1,0,.8-.3,1.5-.7,2.2l-1.3,2c0,0,0,.2-.1.3l-.8,3.6c-1.9,7.3-5.4,11-5.7,11.3,0,0,0,0,0,0-3,3.7-9.3,4.4-9.8,4.5,0,0,0,0,0,0-1.4.3-2.6.4-3.7.4-2.8,0-4.3-.7-4.3-.7-3.6-1.5-5.1-6.9-5.1-6.9-.5-1.5-.8-5.7-1-7.6,0-.5-.5-.8-.9-.8s0,0-.1,0c-1.3.2-3.5.4-4.7.5-.5,0-.8.4-.8.8,0,1.3-.2,3.6-.2,3.8,0,0,0,0,0,0-1,8-5.6,11.6-5.6,11.6-5.5,4.7-15,5.2-18.3,5.2s-1.1,0-1.1,0c-5.4-.2-7.6-4.9-7.6-4.9-1.3-2.2-2.4-7.3-2.7-9.3,0-.5-.4-.9-.9-1.1-5-2.5-19.2-10-22.5-11.7,0,0-.1,0-.2,0-.2,0-.5.2-.5.4l.2,4.1c0,.2,0,.4-.2.6-.2.2-.4.3-.5.3s-.2,0-.3,0c-.2-.1-.4-.3-.4-.6l-.5-2.5c-.4-2.4-.5-3.9-.5-4.9,0-.7.6-1.1,1.2-1.1.3,0,.5,0,.7.3.8.6,7.6,3.9,7.6,3.9l11.5,5.3c.3.2.7.2,1.1.2s.5,0,.7,0c12.1-3.4,22.2-4.1,28.5-4.1s6.8.3,6.8.3c1.8.2,3.4.3,4.7.3,3.3,0,4.9-.6,4.9-.6,2.3-.6,6.3-2.5,6.3-2.5,4.9-2.4,17.8-4.3,17.8-4.3l-18.6-5.8s0,0,0,0c-.5-.1-.9-.2-1.2-.2s-.4,0-.5,0c0,0-.1,0-.2,0-3.5,1.6-9.7,7.4-11.6,9.2-.2.2-.4.3-.7.3-.4,0-.8-.2-.9-.7-.1-.4,0-.8,0-1.1,0-.2,0-.4.2-.5,4.2-4.7,10.7-9,10.7-9,1.3-.8,2.7-1,3.6-1M108.9,68.3c-1.2,0-2.9.2-4.7,1.3-.3.2-6.8,4.6-11.1,9.4-.4.5-.7,1-.7,1.6,0,.4,0,1.1.1,1.8.2.6.5,1.1,1,1.5-1.2-.1-3.2-.2-5.9-.2-6.5,0-16.8.7-29,4.2,0,0-.1,0-.2,0,0,0-.2,0-.3,0l-11.4-5.3c-3.1-1.6-6.7-3.4-7.3-3.7-.6-.4-1.2-.6-1.9-.6-1.8,0-3.2,1.3-3.2,3.1,0,1.3.1,3,.5,5.2,0,0,0,0,0,0l.5,2.5c.2.8.7,1.5,1.4,1.9.4.2.8.3,1.2.3.8,0,1.5-.4,2.1-1,.4-.5.7-1.2.6-1.9v-1.4c5.4,2.9,15.7,8.3,20,10.4.5,2.7,1.5,7.3,2.9,9.7.4.8,3.1,5.8,9.3,6h0s.4,0,1.2,0c3.9,0,13.7-.6,19.6-5.6.6-.5,5.3-4.6,6.3-12.9,0,0,0-.1,0-.2,0-.2.1-1.6.2-2.9.8,0,1.9-.2,2.8-.3.2,2.6.5,5.5,1,6.9.2.8,1.9,6.3,6.2,8.2.4.2,2.2.9,5.2.9s2.6-.1,4-.4c1-.1,7.6-1,11.1-5.2.6-.6,4.2-4.6,6.1-12.1,0,0,0,0,0,0l.8-3.4,1.2-1.8c.6-1,1-2.1,1.1-3.2,0-.4,0-.9,0-1.4-.1-1.7-1.3-3.1-3-3.7l-12-4s-.1,0-.2,0l-10.2-2.8c0,0-.2,0-.2,0l-3.2-.6c-.2,0-.8-.2-1.7-.2h0ZM96.7,84.3c.3-.1.5-.3.7-.5,3.6-3.4,8.2-7.5,10.8-8.7.1,0,.3,0,.7,0l10.8,3.4c-3.7.8-7.9,1.8-10.3,3-1.1.5-4.3,1.9-5.9,2.4,0,0-.1,0-.2,0h0s-1.4.4-4.3.4-1.6,0-2.4,0h0Z"></path>
    <path d="M28.6,50.8s0,0,0,0c.5.1,7.4,1.6,10.2,4.5,0,0,.3.3.8.8,2,2.4,2.9,5.3,2.7,8.3s-.3,2.6-.8,3.4c0,0-2.2,4.1-5.8,4.5-3.7.4-8-.6-9.9-1.8,0,0-3.9-2.1-5.3-6.1,0-.2-.2-.4-.3-.7-.4-1-1.5-4.1-1.7-7.6v-3c0-.6.1-1.2.3-1.7s.9-1.5,1.9-1.4c0,0,5.1,0,7.8.8Z" class="st2"></path>
    <path d="M56.2,65.5c0-.5-1-7.4,4.6-8.5s.6,0,.9,0c2.1,0,12.2-.1,16.8,1.5,0,0,0,0,0,0,.5.1,5.3,1.5,5.8,6,0,0,0,0,0,.1v3.8c0,2.1-.6,4.2-1.7,6.1-.8,1.5-2.1,2.9-3.9,3.5,0,0,0,0,0,0-.5.1-4.1,1-9.9-.3-2.9-.6-5.6-1.9-7.8-3.7-1-.8-1.9-1.7-2.5-2.8,0,0-1.7-2.8-2.3-5.7s0,0,0,0Z" class="st2"></path>
  </g>
  <path d="M30.2,83.2l2.9,14.1s2.7,8.8,7.3,2.2" class="st3"></path>
  <polyline points="99.6 50.2 120.1 40.4 119.1 53.1" class="st1"></polyline>
  <circle r=".4" cy="54.3" cx="119"></circle>
  <path d="M93.9,96.8c0-.5,1-7.4-4.6-8.5-.3,0-.6,0-.9,0-2.1,0-12.2-.1-16.8,1.5,0,0,0,0,0,0-.5.1-5.3,1.5-5.8,6,0,0,0,0,0,.1v3.8c0,2.1.6,4.2,1.7,6.1.8,1.5,2.1,2.9,3.9,3.5s0,0,0,0c.5.1,4.1,1,9.9-.3s5.6-1.9,7.8-3.7c1-.8,1.9-1.7,2.5-2.8,0,0,1.7-2.8,2.3-5.7s0,0,0,0Z" class="st4"></path>
  <path d="M121.5,82.2s0,0,0,0c-.5.1-7.4,1.6-10.2,4.5,0,0-.3.3-.8.8-2,2.4-2.9,5.3-2.7,8.3s.3,2.6.8,3.4c0,0,2.2,4.1,5.8,4.5,3.7.4,8-.6,9.9-1.8,0,0,3.9-2.1,5.3-6.1,0-.2.2-.4.3-.7.4-1,1.5-4.1,1.7-7.6v-3c0-.6-.1-1.2-.3-1.7s-.9-1.5-1.9-1.4c0,0-5.1,0-7.8.8Z" class="st4"></path>
</svg>