<svg viewBox="0 0 150.1 150.1" version="1.1" xmlns="http://www.w3.org/2000/svg" id="ICONS">
  
  <defs>
    <style>
      .st0, .st1, .st2, .st3, .st4, .st5, .st6, .st7, .st8 {
        fill: none;
      }

      .st1, .st2, .st3, .st8 {
        stroke: #221f20;
      }

      .st1, .st3, .st6 {
        stroke-linecap: round;
      }

      .st1, .st4, .st5, .st6, .st7, .st8 {
        stroke-miterlimit: 10;
      }

      .st1, .st6 {
        stroke-width: .7px;
      }

      .st2 {
        stroke-width: .7px;
      }

      .st3 {
        stroke-dasharray: 0 0 0 0 0 3;
        stroke-linejoin: round;
      }

      .st9 {
        fill: #221f20;
      }

      .st4, .st5 {
        stroke: #fff;
      }

      .st4, .st8 {
        stroke-width: .3px;
      }

      .st5 {
        stroke-width: .2px;
      }

      .st6 {
        stroke: #000201;
      }

      .st7 {
        stroke: #000;
      }
    </style>
  </defs>
  <g>
    <rect height="149.6" width="149.6" y=".2" x=".2" class="st0"></rect>
    <rect transform="translate(150.1 0) rotate(90)" height="129.6" width="129.6" y="10.2" x="10.2" class="st0"></rect>
    <circle r=".4" cy="67" cx="139.9" class="st9"></circle>
    <g>
      <g>
        <line y2="39.5" x2="24.7" y1="39.5" x1="22.2" class="st6"></line>
        <line y2="39.5" x2="19.9" y1="39.5" x1="17.4" class="st6"></line>
      </g>
      <g>
        <line y2="35.9" x2="21" y1="38.3" x1="21" class="st6"></line>
        <line y2="40.7" x2="21" y1="43.1" x1="21" class="st6"></line>
      </g>
    </g>
    <path d="M134.3,47.4l10,4.9c1.2.6,1.7,2,1.1,3.2l-5,10.4" class="st1"></path>
    <path d="M17.9,104.4l2.6,3.8c1.4,2.1,3.6,3.6,6.1,4.1l11.7,2.6" class="st3"></path>
  </g>
  <g>
    <g>
      <g>
        <path d="M111.3,66.9c-.1.4-.3,1-.9,1.8,0,0-3,5.9-3.4,10.2,0,0-.6,5.8-.5,9.3l-1.8,3.9v.8c0,0-4.3,4-10.4,7.1l-4.8,4.7s-6.5,4-8.7,4.5c0,0-5.5,4.1-8.4,4.6,0,0-1.7.6-1.9,1.1,0,0-2.5.2-2.8.7l-4.5-.7-2.6-.4s-1.4-.1-4.1-2.7c0,0-3.4-2.1-4.9-2.2,0,0-2.2.3-5-.7,0,0-1.8.2-3.1-.4l-4-.4-4.7-6.1h0c0,0-.9-1.2-.9-1.2l-.2-.2s1.4-1.6,3.8-1.9c0,0,2.4-2,5.8-4,0,0,4.3-2.5,6.1-3.2,0,0,1.9-1,2.4-1.3,0,0,4.7-2.6,6.7-3.5l7.7-4s6.9-3.4,8.6-4.8c0,0,4.6-2.7,7-3.9l6.2-3.2s2.6-2,4.5-3.3l3.4-2s2.5-1.7,4-2.9c0,0,2.6-1.8,4.1-2.3,0,0,0,0,.1,0,.5-.3,2.2-1.3,3.3-2.3h.9s0,0,0,0h0c.3.7,1.9,4.4,3,8.1,0,0,0,.2,0,.7Z" class="st4"></path>
        <path d="M39.2,107.8c-.8,1-9.7-1-9.9-1s0,0,0,0c-2.2-.3-4.1-1-4.1-1-1.8-.9-3.4-4.8-3.4-4.8-2-3.5-5.2-11.9-5.2-11.9,0,0,.6-.2.2-1l-.8-1.6,8.3-4.5s.7,0,2,3.1l7.1,16.3.7-.6,5.3,7Z" class="st4"></path>
        <path d="M16.5,89.1s-1.5-.9-1.1-3.3c0,0,.4-2.7-.5-3.6,0,0-.6-.9-2.4-.3,0,0-1.5-1.4-2-2.7,0,0,5.7-3.6,9.9-5.2,0,0,.6-.4,1.3,1.3l.6,1.4s-2.1,1.1-1.3,2.4c0,0,1.2,2,3.6,2.4,0,0,.9-.1,1.4,1.7,0,0,.2.8-.2,1" class="st4"></path>
        <path d="M111.3,66.9s0,0,0,0" class="st4"></path>
        <path d="M29.2,48.4c2.1-.4,4.1,2.1,4.1,2.1" class="st4"></path>
        <path d="M115.4,56.1h0" class="st4"></path>
        <path d="M33.7,52.7l-1.6-.9-1.2,2s-3.6-2-3.2-4c0,0,1.3-3.9,4.7,1.6,0,0,.2.4,1.3,1.3Z" class="st4"></path>
        <path d="M30.9,53.8c-.5.4-.5,1.5-.5,1.5l-.3,3,1.1.4,1.9-2.8h0" class="st4"></path>
        <path d="M119.7,52.6c-.3,1.4-1.7,2.4-1.7,2.4-.6.3-1.6.7-2.6,1.1-.2-.3-3.5-4.5-3.9-4.9-.4-.4-3.9-3.5-4.5-3.5-.7,0-3.8-2.6-4.9-3.6,0,0-2.8-2.8-4-6.3l-2.6-.8s-5.5,1.6-8.4,4.6l-4.9,4.8s-6.8,7-10.1,9c0,0-2.8,1.8-3.7,2.2l-2.7,1.6s-4.7,2.9-8.2,3.9c0,0-7.5,1.8-13-1.8,0,0-5.5-3.9-7.1-4.3l-2.7-.8-1.5-.2,1.6-2.6c1,.6,2.5,1.4,4.7,2.2,0,0,2.5,1.8,3.7,3.8,0,0,3.5,3.3,8.1,3.1.1,0,.2,0,.3,0h0c.6,0,5.6-.3,7.7-1.9,0,0,.7,0,4.2-2.5,0,0,1.5-1.2,3.3-1.1,0,0,4.7-2.2,6.1-4l4.8-4.8,3.4-3.9s3.1-4.5,6.6-6.3c0,0,2.1-1.2,6-2.1l.7-1,5.7,2-.6.4c3.6,5.5,7.1,6.6,8,6.7.9,0,5.4,1.4,5.4,1.4,3.8,1.5,6,4.5,6,4.5.9,1,1,1.9.8,2.7Z" class="st8"></path>
        <path d="M94.4,34.9l.3-.5s3.3,0,6,2l-.7.5" class="st4"></path>
        <path d="M119.7,52.6c0,.4,0,.9-.2,1.5-.6,3.5-2.8,8.5-2.8,8.5-1.2,2.8-5,4.2-5.3,4.3.1-.5,0-.7,0-.7-1.1-3.8-2.7-7.5-3-8.1h0c.4-.1,4.1-1.1,6.9-2,1-.4,2-.7,2.6-1.1,0,0,1.4-1,1.7-2.4Z" class="st8"></path>
        <path d="M108.4,58.1h0" class="st4"></path>
        <path d="M34.7,53.3c-.4-.2-.7-.4-.9-.6" class="st4"></path>
        <path d="M100.7,36.4l-.3,1.3s2.7,3.6,8.5,4.6c0,0,5.5,1,7.8,2.3,0,0,2.6,1.3,4,1.2,0,0,3.2,1,5.2,2.4,0,0,6,3,11.9,4.8,0,0,2.2.6,1.9,1.4l-4.1,8.4s-2.6-.7-3-1.5l-13-7" class="st4"></path>
        <line y2="61.1" x2="132.5" y1="52.8" x1="137.7" class="st4"></line>
        <path d="M51.1,62.4c-4.6.2-8.1-3.1-8.1-3.1-1.3-2-3.7-3.8-3.7-3.8-2.2-.9-3.6-1.6-4.7-2.2h0s-1-.6-1-.6h0c-1.1-.8-1.3-1.3-1.3-1.3l.9-.9s2.2,3.1,5.8,4.3c0,0,3.3,1.7,4.7,4.3,0,0,3.3,3.3,7.3,3.3Z" class="st4"></path>
        <path d="M51.6,62.4h-.1" class="st4"></path>
        <path d="M31.2,58.7c.6.1.7.9.7.9l-1.2,2.3c-2,1.4-2-.9-2-.9l.7-2.9h.6" class="st4"></path>
        <path d="M34.6,56.3l-.9,2.2s0,2.5-1.6,3.2l-.6,1.6-2.6-1.3" class="st4"></path>
        <polygon points="34.7 53.3 34.7 53.3 33.1 55.9 33.1 55.9 33.1 55.9 30.6 54.4 30.9 53.8 32.2 51.7 33.7 52.7 33.7 52.7 34.7 53.3" class="st5"></polygon>
        <line y2="36.9" x2="100.1" y1="36.9" x1="100.1" class="st4"></line>
        <path d="M34.8,102.1s3.5-1.7,4.3-2.4l2.8-2.1s2.2-1.8,3.8-2.4l5.2-2.5,7.2-3.8,16-9,15.7-8.8,2.8-1.7s2.9-2.3,4.2-2.8c0,0,6.1-4.2,7.2-4.5l1.4-.6-1.2-1.1" class="st4"></path>
        <path d="M51.1,92.6l3.6,7.9s1.8,4,3,5.3c0,0,.9.6,1.9,2.7l1.5,2.7s.7,1.6,1.5,2.3l.7,1.6" class="st4"></path>
        <polyline points="92.9 69.1 98.6 78.4 101.7 84.2 105.5 90.4" class="st4"></polyline>
        <polyline points="55.4 101.7 65.3 95.9 85 84.4 97.9 77.2" class="st4"></polyline>
        <path d="M51.9,94.3s3-1.2,5.2-2.9l11.1-6.4s9.8-5.8,10.7-6.1l8.3-4.4s5.7-3,6.5-3.8" class="st4"></path>
      </g>
      <g>
        <path d="M111.3,66.9c-.1.4-.3,1-.9,1.8,0,0-3,5.9-3.4,10.2,0,0-.6,5.8-.5,9.3l-1.8,3.9v.8c0,0-4.3,4-10.4,7.1l-4.8,4.7s-6.5,4-8.7,4.5c0,0-5.5,4.1-8.4,4.6,0,0-1.7.6-1.9,1.1,0,0-2.5.2-2.8.7l-4.5-.7-2.6-.4s-1.4-.1-4.1-2.7c0,0-3.4-2.1-4.9-2.2,0,0-2.2.3-5-.7,0,0-1.8.2-3.1-.4l-4-.4-4.7-6.1h0c0,0-.9-1.2-.9-1.2l-.2-.2s1.4-1.6,3.8-1.9c0,0,2.4-2,5.8-4,0,0,4.3-2.5,6.1-3.2,0,0,1.9-1,2.4-1.3,0,0,4.7-2.6,6.7-3.5l7.7-4s6.9-3.4,8.6-4.8c0,0,4.6-2.7,7-3.9l6.2-3.2s2.6-2,4.5-3.3l3.4-2s2.5-1.7,4-2.9c0,0,2.6-1.8,4.1-2.3,0,0,0,0,.1,0,.5-.3,2.2-1.3,3.3-2.3h.9s0,0,0,0h0c.3.7,1.9,4.4,3,8.1,0,0,0,.2,0,.7Z" class="st2"></path>
        <path d="M39.2,107.8c-.8,1-9.7-1-9.9-1s0,0,0,0c-2.2-.3-4.1-1-4.1-1-1.8-.9-3.4-4.8-3.4-4.8-2-3.5-5.2-11.9-5.2-11.9,0,0,.6-.2.2-1l-.8-1.6,8.3-4.5s.7,0,2,3.1l7.1,16.3.7-.6,5.3,7Z" class="st2"></path>
        <path d="M16.5,89.1s-1.5-.9-1.1-3.3c0,0,.4-2.7-.5-3.6,0,0-.6-.9-2.4-.3,0,0-1.5-1.4-2-2.7,0,0,5.7-3.6,9.9-5.2,0,0,.6-.4,1.3,1.3l.6,1.4s-2.1,1.1-1.3,2.4c0,0,1.2,2,3.6,2.4,0,0,.9-.1,1.4,1.7,0,0,.2.8-.2,1" class="st2"></path>
        <path d="M111.3,66.9s0,0,0,0" class="st2"></path>
        <path d="M29.2,48.4c2.1-.4,4.1,2.1,4.1,2.1" class="st2"></path>
        <path d="M115.4,56.1h0" class="st2"></path>
        <path d="M33.7,52.7l-1.6-.9-1.2,2s-3.6-2-3.2-4c0,0,1.3-3.9,4.7,1.6,0,0,.2.4,1.3,1.3Z" class="st2"></path>
        <path d="M30.9,53.8c-.5.4-.5,1.5-.5,1.5l-.3,3,1.1.4,1.9-2.8h0" class="st2"></path>
        <path d="M119.7,52.6c-.3,1.4-1.7,2.4-1.7,2.4-.6.3-1.6.7-2.6,1.1-.2-.3-3.5-4.5-3.9-4.9-.4-.4-3.9-3.5-4.5-3.5-.7,0-3.8-2.6-4.9-3.6,0,0-2.8-2.8-4-6.3l-2.6-.8s-5.5,1.6-8.4,4.6l-4.9,4.8s-6.8,7-10.1,9c0,0-2.8,1.8-3.7,2.2l-2.7,1.6s-4.7,2.9-8.2,3.9c0,0-7.5,1.8-13-1.8,0,0-5.5-3.9-7.1-4.3l-2.7-.8-1.5-.2,1.6-2.6c1,.6,2.5,1.4,4.7,2.2,0,0,2.5,1.8,3.7,3.8,0,0,3.5,3.3,8.1,3.1.1,0,.2,0,.3,0h0c.6,0,5.6-.3,7.7-1.9,0,0,.7,0,4.2-2.5,0,0,1.5-1.2,3.3-1.1,0,0,4.7-2.2,6.1-4l4.8-4.8,3.4-3.9s3.1-4.5,6.6-6.3c0,0,2.1-1.2,6-2.1l.7-1,5.7,2-.6.4c3.6,5.5,7.1,6.6,8,6.7.9,0,5.4,1.4,5.4,1.4,3.8,1.5,6,4.5,6,4.5.9,1,1,1.9.8,2.7Z" class="st2"></path>
        <path d="M94.4,34.9l.3-.5s3.3,0,6,2l-.7.5" class="st2"></path>
        <path d="M119.7,52.6c0,.4,0,.9-.2,1.5-.6,3.5-2.8,8.5-2.8,8.5-1.2,2.8-5,4.2-5.3,4.3.1-.5,0-.7,0-.7-1.1-3.8-2.7-7.5-3-8.1h0c.4-.1,4.1-1.1,6.9-2,1-.4,2-.7,2.6-1.1,0,0,1.4-1,1.7-2.4Z" class="st2"></path>
        <path d="M108.4,58.1h0" class="st2"></path>
        <path d="M34.7,53.3c-.4-.2-.7-.4-.9-.6" class="st2"></path>
        <path d="M100.7,36.4l-.3,1.3s2.7,3.6,8.5,4.6c0,0,5.5,1,7.8,2.3,0,0,2.6,1.3,4,1.2,0,0,3.2,1,5.2,2.4,0,0,6,3,11.9,4.8,0,0,2.2.6,1.9,1.4l-4.1,8.4s-2.6-.7-3-1.5l-13-7" class="st2"></path>
        <line y2="61.1" x2="132.5" y1="52.8" x1="137.7" class="st2"></line>
        <path d="M51.1,62.4c-4.6.2-8.1-3.1-8.1-3.1-1.3-2-3.7-3.8-3.7-3.8-2.2-.9-3.6-1.6-4.7-2.2h0s-1-.6-1-.6h0c-1.1-.8-1.3-1.3-1.3-1.3l.9-.9s2.2,3.1,5.8,4.3c0,0,3.3,1.7,4.7,4.3,0,0,3.3,3.3,7.3,3.3Z" class="st2"></path>
        <path d="M51.6,62.4h-.1" class="st2"></path>
        <path d="M31.2,58.7c.6.1.7.9.7.9l-1.2,2.3c-2,1.4-2-.9-2-.9l.7-2.9h.6" class="st2"></path>
        <path d="M34.6,56.3l-.9,2.2s0,2.5-1.6,3.2l-.6,1.6-2.6-1.3" class="st2"></path>
        <polygon points="34.7 53.3 34.7 53.3 33.1 55.9 33.1 55.9 33.1 55.9 30.6 54.4 30.9 53.8 32.2 51.7 33.7 52.7 33.7 52.7 34.7 53.3" class="st2"></polygon>
        <line y2="36.9" x2="100.1" y1="36.9" x1="100.1" class="st2"></line>
        <path d="M34.8,102.1s3.5-1.7,4.3-2.4l2.8-2.1s2.2-1.8,3.8-2.4l5.2-2.5,7.2-3.8,16-9,15.7-8.8,2.8-1.7s2.9-2.3,4.2-2.8c0,0,6.1-4.2,7.2-4.5l1.4-.6-1.2-1.1" class="st2"></path>
        <path d="M51.1,92.6l3.6,7.9s1.8,4,3,5.3c0,0,.9.6,1.9,2.7l1.5,2.7s.7,1.6,1.5,2.3l.7,1.6" class="st2"></path>
        <polyline points="92.9 69.1 98.6 78.4 101.7 84.2 105.5 90.4" class="st2"></polyline>
        <polyline points="55.4 101.7 65.3 95.9 85 84.4 97.9 77.2" class="st2"></polyline>
        <path d="M51.9,94.3s3-1.2,5.2-2.9l11.1-6.4s9.8-5.8,10.7-6.1l8.3-4.4s5.7-3,6.5-3.8" class="st2"></path>
      </g>
    </g>
    <g>
      <polygon points="97.5 77.3 55.7 101.4 65 95.9 84.8 84.4 97.5 77.3" class="st7"></polygon>
      <path d="M97.5,77.3l-12.7,7.1-19.8,11.5-9.4,5.5-3.9-7.2c.6-.3,3.2-1.4,5.1-2.8l4.6-2.7,21.2-12,4.2-2.2s5.6-2.9,6.6-3.9l4,6.7Z" class="st7"></path>
      <path d="M51.7,94.3h0s0,0,0,0h0Z" class="st7"></path>
      <path d="M51.8,94.2l9.7-5.5-4.6,2.7c-1.9,1.5-4.4,2.6-5.1,2.8,0,0,0,0-.1,0h0Z" class="st7"></path>
      <path d="M78.7,78.8l4.1-2.2-21.2,12,6.5-3.8s9.8-5.8,10.7-6.1Z" class="st7"></path>
      <path d="M93.6,70.5s0,0,0,0t0,0c-1,.9-6.6,3.9-6.6,3.9l-4.2,2.2,10.8-6.1h0s0,0,0,0Z" class="st7"></path>
    </g>
  </g>
  <g>
    <path d="M100.7,36.4l5.4,5.1c-3.9-1.4-5.7-3.8-5.7-3.8l.3-1.3M100.7,34.4c-.2,0-.4,0-.6,0-.7.2-1.2.7-1.4,1.4l-.3,1.3c-.2.6,0,1.2.3,1.7,0,.1,2.2,2.9,6.6,4.5.2,0,.5.1.7.1.7,0,1.3-.3,1.7-.9.5-.8.4-1.9-.3-2.5l-5.4-5.1c-.4-.4-.9-.5-1.4-.5h0Z" class="st9"></path>
    <path d="M94.7,34.4s3.3,0,6,2l-.7.5h0s-.6.4-.6.4c3.6,5.5,7.1,6.6,8,6.7.3,0,1,.2,1.7.4l-3.1-3c.8.3,1.8.6,2.8.7,0,0,5.5,1,7.8,2.3,0,0,2.5,1.2,3.9,1.2s0,0,0,0c0,0,3.2,1,5.2,2.4,0,0,6,3,11.9,4.8,0,0,2.2.6,1.9,1.4l-4.1,8.4s-2.6-.7-3-1.5l-13-7s0,0,0,0c-.6,3.5-2.8,8.5-2.8,8.5-1.2,2.8-5,4.2-5.3,4.3-.1.4-.3,1-.9,1.8,0,0-3,5.9-3.4,10.2,0,0-.6,5.8-.5,9.3l-1.8,3.9v.8c0,0-4.3,4-10.4,7.1l-4.8,4.7s-6.5,4-8.7,4.5c0,0-5.5,4.1-8.4,4.6,0,0-1.7.6-1.9,1.1,0,0-2.5.2-2.8.7l-4.5-.7h0s0,0,0,0h0c0,0-2.6-.5-2.6-.5,0,0-1.4-.1-4.1-2.7,0,0-3.4-2.1-4.9-2.2,0,0-.4,0-1,0-.9,0-2.4-.1-4-.8,0,0-.2,0-.6,0-.6,0-1.7,0-2.5-.4l-4-.4-4.2-5.4,3.9,5.1c-.2.2-.6.3-1.3.3-2.7,0-8.5-1.3-8.7-1.3,0,0,0,0,0,0-2.2-.3-4.1-1-4.1-1-1.8-.9-3.4-4.8-3.4-4.8-2-3.5-5.2-11.9-5.2-11.9,0,0,.1,0,.2-.2h-.2c0,0-1.5-.8-1.1-3.2,0,0,.4-2.7-.5-3.6,0,0-.3-.5-1.2-.5s-.7,0-1.2.2c0,0-1.5-1.4-2-2.7,0,0,5.7-3.6,9.9-5.2,0,0,0,0,.2,0,.2,0,.7.2,1.1,1.3l.6,1.4s-2.1,1.1-1.3,2.4c0,0,1.2,2,3.6,2.4,0,0,0,0,0,0,.2,0,.9,0,1.3,1.7,0,0,.2.8-.2,1h0c.1.3.3.6.4,1l7.1,16.3.7-.6-.2-.2s1.4-1.6,3.8-1.9c0,0,2.4-2,5.8-4,0,0,4.3-2.5,6.1-3.2,0,0,1.9-1,2.4-1.3,0,0,4.7-2.6,6.7-3.5l7.7-4s2.4-1.2,4.7-2.4l28.2-17c.3-.2.6-.5.9-.7,0,0,2.4-1.6,3.9-2.2l.3-.2h0s0,0,0,0c.5-.3,2.2-1.3,3.3-2.3h.9s0,0,0,0c.4-.1,4.1-1,6.9-2-.2-.3-3.5-4.5-3.9-4.9-.4-.4-3.9-3.5-4.5-3.5-.7,0-3.8-2.6-4.9-3.6,0,0-2.8-2.8-4-6.3l-2.6-.8s-5.5,1.6-8.4,4.6l-4.9,4.8s-6.8,7-10.1,9c0,0-2.8,1.8-3.7,2.2l-2.7,1.6s-4.7,2.9-8.2,3.9c0,0-1.9.4-4.4.4s-5.8-.5-8.6-2.3c0,0-5.5-3.9-7.1-4.3l-2.7-.8-1.5-.2h0s0,0,0,0h0l-1.9,2.8h0c.3,0,.5.3.6.5l2.8-2.9-.9,2.2s0,2.5-1.6,3.2l-.6,1.6-2-1c-.1,0-.2,0-.3-.2h-.3c0-.1,0-.2,0-.2-.2-.4-.2-.9-.2-.9l.7-2.9h.6s.5.2.5.2l-.5-.2.3-3s0-1.1.5-1.5h0s-3.6-2-3.2-4c0,0,.4-1.3,1.5-1.3,0,0,.1,0,.2,0h-.1c.1,0,.3-.1.4-.1,2,0,3.6,2.1,3.6,2.1l-2.7-1.4c.5.5,1.2,1.2,1.9,2.3l.9-.9s2.2,3.1,5.8,4.3c0,0,3.3,1.7,4.7,4.3,0,0,3.3,3.3,7.3,3.3.1,0,.2,0,.3,0h0c.6,0,5.6-.3,7.7-1.9,0,0,.7,0,4.2-2.5,0,0,1.4-1.1,3.1-1.1,0,0,.2,0,.2,0,0,0,4.7-2.2,6.1-4l4.8-4.8,3.4-3.9s3.1-4.5,6.6-6.3c0,0,2.1-1.2,6-2.1l.7-1,.3-.5M94.7,32.4c-.7,0-1.3.3-1.7.9l-.3.5-.2.3c-3.4.8-5.4,1.8-5.8,2.1-3.6,1.8-6.7,6.1-7.2,6.8l-3.2,3.8-4.8,4.8c0,0-.1.1-.2.2-.7.9-3.2,2.4-5,3.3-2.1,0-3.7,1.2-4.1,1.5-2.3,1.6-3.2,2-3.4,2.1-.3,0-.5.2-.8.3-1.1.8-4.2,1.4-6.6,1.5,0,0-.1,0-.2,0,0,0,0,0,0,0s0,0,0,0c-2.6,0-5.1-2-5.8-2.6-1.7-2.8-4.9-4.6-5.3-4.8,0,0-.2,0-.3-.1-3-1-4.8-3.5-4.8-3.5,0,0,0,0,0,0,0,0,0,0,0,0-.2-.3-2.3-2.9-5.2-2.9-.3,0-.5,0-.8,0-.1,0-.3,0-.4,0-1.4.3-2.3,1.5-2.7,2.6,0,0,0,.2,0,.3-.4,2.2,1.3,4,2.7,5.1,0,.2,0,.4,0,.6l-.2,1.5c-.3.3-.6.6-.7,1.1l-.7,2.9c0,.2,0,.3,0,.5,0,.1,0,.5.1,1,0,.1,0,.3,0,.4.1.6.5,1.2,1.1,1.5h.1c.2.2.4.3.6.4l1.9.9c.3.1.6.2.9.2s.5,0,.8-.2c.5-.2.9-.6,1.1-1.2l.3-.9c1.4-1.1,1.9-2.9,2-4.2v-.3c.1,0,1.1.3,1.1.3,0,0,0,0,0,0,.8.2,4,2.2,6.5,4,0,0,0,0,0,0,2.6,1.7,5.9,2.6,9.7,2.6s4.8-.5,4.9-.5c0,0,0,0,0,0,3.7-1,8.5-4,8.7-4.1l2.6-1.5c1.1-.5,3.3-2,3.8-2.3,3.4-2.1,9.9-8.8,10.4-9.3l4.9-4.7c2-2,5.7-3.4,7-3.9l1.1.3c1.4,3.4,4,6,4.1,6.1,0,0,3.7,3.4,5.6,4.1.7.4,3.1,2.5,3.8,3.1.2.3,1.1,1.3,1.9,2.4-1.4.4-2.6.7-3.5,1,0,0,0,0-.1,0s0,0,0,0h-.9c-.5,0-1,.3-1.3.6-.7.7-1.9,1.5-2.5,1.8-.1,0-.3.1-.4.2h-.2c-1.6.8-3.8,2.2-4.1,2.4,0,0,0,0-.1.1-.2.2-.5.4-.7.6l-28.1,16.9c-2.2,1.2-4.6,2.4-4.6,2.4l-7.7,4c-2,.9-6.5,3.5-6.7,3.6,0,0,0,0,0,0-.3.2-1.5.8-2.2,1.2-1.9.8-6.1,3.2-6.3,3.3-2.7,1.5-4.8,3.1-5.6,3.8-1.2.2-2.1.7-2.8,1.1l-5.9-13.6s0,0,0-.1c.1-.5,0-1.1,0-1.5,0,0,0,0,0,0-.7-2.6-2.3-3.1-3.1-3.2-.8-.2-1.3-.6-1.7-1,0,0,0,0,.1,0,.9-.5,1.3-1.6.9-2.5l-.6-1.4c-.9-2.1-2.1-2.5-3-2.5s-.7,0-1,.2c-4.3,1.7-9.9,5.2-10.1,5.4-.8.5-1.1,1.6-.8,2.4.6,1.6,2.2,3.1,2.5,3.4.4.4.9.6,1.4.6s.4,0,.6,0c.1,0,.2,0,.3,0,0,.4,0,1.1,0,1.7-.3,2.2.5,3.8,1.3,4.6.6,1.4,3.4,8.5,5.2,11.8.4,1,2,4.5,4.3,5.7,0,0,.1,0,.2,0,0,0,2.1.7,4.5,1.1.9.2,6.3,1.3,9,1.3s.6,0,.8,0c.2,0,.4.1.6.2l3.7.3c1,.4,2.2.5,2.9.5s.2,0,.3,0c1.7.6,3.3.7,4.3.7s.7,0,.9,0c.7.2,2.3,1,3.7,1.8,2.6,2.5,4.4,3,5.1,3.1l2.2.3c.2,0,.5.1.7.1s0,0,.1,0l4.1.6c.1,0,.2,0,.3,0,.5,0,.9-.2,1.3-.5.3,0,1-.2,1.6-.2.6,0,1.1-.3,1.4-.7.2-.1.6-.3.9-.4,3-.6,7.5-3.8,8.8-4.7,2.6-.8,7.8-4,8.8-4.6.1,0,.2-.2.4-.3l4.6-4.5c6.2-3.2,10.5-7.1,10.7-7.3.4-.4.7-1,.6-1.6v-.3s1.6-3.5,1.6-3.5c.1-.3.2-.6.2-.9,0-3.4.5-9,.5-9,.3-3.6,2.7-8.6,3.1-9.4.3-.4.5-.8.7-1.3,1.5-.7,4.4-2.3,5.6-5.1,0-.1,1.4-3.2,2.3-6.3l10.4,5.6c.5.5,1.5,1.2,3.7,1.8.2,0,.4,0,.6,0,.7,0,1.5-.4,1.8-1.1l4.1-8.4c.3-.7.3-1.5,0-2.1-.6-1.2-2-1.8-3.1-2.1-5.2-1.7-10.6-4.2-11.4-4.7-2.2-1.5-5.5-2.5-5.6-2.5-.2,0-.4,0-.6,0s0,0,0,0c-.5,0-2-.5-3-1-2.6-1.4-7.8-2.4-8.4-2.5-.8-.1-1.6-.4-2.4-.6-.2,0-.5-.1-.7-.1-.6,0-1.2.3-1.6.8-.7-.6-1.5-1.4-2.3-2.5.3-.4.5-.9.5-1.4,0-.6-.3-1.2-.8-1.6-3.2-2.2-7-2.3-7.2-2.3,0,0,0,0,0,0h0Z" class="st9"></path>
  </g>
</svg>