<svg viewBox="0 0 150.1 150.1" version="1.1" xmlns="http://www.w3.org/2000/svg" id="ICONS">
  
  <defs>
    <style>
      .st0, .st1, .st2, .st3, .st4, .st5, .st6, .st7, .st8 {
        fill: none;
      }

      .st1 {
        stroke-miterlimit: 10;
        stroke-width: .7px;
      }

      .st1, .st2, .st3, .st4, .st5, .st6, .st7, .st8 {
        stroke: #221f20;
      }

      .st1, .st3, .st4, .st5, .st6, .st7, .st8 {
        stroke-linecap: round;
      }

      .st3 {
        stroke-width: 2px;
      }

      .st3, .st4, .st5, .st6, .st7, .st8 {
        stroke-linejoin: round;
      }

      .st4 {
        stroke-dasharray: 0 0 0 0 0 3;
      }

      .st5 {
        stroke-width: .9px;
      }

      .st6, .st8 {
        stroke-width: .9px;
      }

      .st7 {
        stroke-width: .9px;
      }

      .st8 {
        stroke-dasharray: 57.5 0 0 0 0 52.6;
      }
    </style>
  </defs>
  <rect height="149.6" width="149.6" y=".2" x=".2" class="st0"></rect>
  <rect transform="translate(150.1 0) rotate(90)" height="129.6" width="129.6" y="10.2" x="10.2" class="st0"></rect>
  <path d="M85.2,135.1l2.1-1.4c4.9-3.6,6.4-10.7,6.4-10.7,1.3-6.8.9-30.7.9-30.7.3-18.2-11.8-19.6-11.8-19.6l-38.9-1.4c-10.9.4-11.9,11.1-11.9,11.1l-1.1,31.6c-.5,17.4,7.5,17.3,7.5,17.3,13.2,3.7,37.9,3.9,46.1,3.8.2,0,.4,0,.6,0s.4,0,.6,0c1,0,1.5,0,1.5,0,3.8-.2,15.1-3.6,15.1-3.6,5.1-1.5,5.2-10.3,5.2-10.3v-16.7c.3-21.8-3.1-42.4-3.1-42.4-1.7-16.6-10-24-10-24-7.2-7.1-21.3-6.3-21.3-6.3-25.6-.2-29.8,34.7-29.8,34.7l-.6,5" class="st5"></path>
  <path d="M42.9,71.4h0s.1-1,.1-1l.4-4s3.3-27,21.4-33.4c2.5-.9,5.3-1.4,8.4-1.3,0,0,14.1-.8,21.3,6.4,0,0,8.3,7.5,10,24,0,0,3.4,20.6,3,42.4v16.7s0,5-2.3,8.1c-.7,1-1.7,1.8-2.9,2.2,0,0-11.4,3.4-15.1,3.6,0,0-.5,0-1.5,0-.2,0-.3,0-.5,0l2.1-1.4c.7-.5,1.3-1,1.8-1.6,3.4-3.8,4.6-9.1,4.6-9.1,1.3-6.8.9-30.7.9-30.7.3-18.2-11.8-19.6-11.8-19.6l-38.9-1.4c-.4,0-.7,0-1,0-.5,0-.9.1-1.4.2" class="st5"></path>
  <g>
    <path d="M85.2,28.7c3.5-.8,7-.6,10.1,0,7.7,1.5,14.2,6.7,17.4,14,1.5,3.5,2.8,7.9,3.4,13.4,0,0,3.4,20.6,3,42.4v16.7s-.1,8.8-5.2,10.3c0,0-1.2.3-2.9.8" class="st6"></path>
    <path d="M64.9,33c3.8-2.7,8.4-4.4,14.2-4.4,0,0,14.1-.8,21.3,6.3,0,0,8.3,7.5,10,24,0,0,3.4,20.6,3,42.4v16.7s-.1,8.8-5.2,10.3c0,0-1.2.3-2.9.8" class="st8"></path>
  </g>
  <path d="M41.6,71.6c.4-.4.9-.8,1.5-1.2" class="st5"></path>
  <path d="M85.2,65.9s14.8-2.3,15.3,16.2" class="st8"></path>
  <path d="M98.9,29.8c.7-20.1-9-19.1-9-19.1h-6.9c-9.7-.5-13.3,16.5-13.3,16.5l-.8,3.5" class="st7"></path>
  <path d="M91.6,28.3s.9-10.2-6.3-9.8c0,0-8.4-.8-8.8,10.2" class="st7"></path>
  <path d="M40.9,84.6s17.6,3.9,38.9,2.9" class="st7"></path>
  <path d="M74.6,94.9c.4,0,.8-.3.8-.8v-6.3h-1.5v6.3c0,.4.3.8.8.8Z" class="st2"></path>
  <path d="M64.5,15.3s-2.8,5.2-3.1,11.3c0,0-12.5,5.1-16.2,15.7" class="st1"></path>
  <path d="M128.4,113.8l-.3,11.1s-1.7,6.8-8,6.9" class="st4"></path>
  <g>
    <g>
      <line y2="69.3" x2="31.5" y1="69.3" x1="29.1" class="st1"></line>
      <line y2="69.3" x2="26.7" y1="69.3" x1="24.2" class="st1"></line>
    </g>
    <g>
      <line y2="65.7" x2="27.9" y1="68.1" x1="27.9" class="st1"></line>
      <line y2="70.4" x2="27.9" y1="72.9" x1="27.9" class="st1"></line>
    </g>
  </g>
  <path d="M85.9,133.9c.2,0,.3,0,.5,0,1,0,1.5,0,1.5,0,3.8-.2,15.1-3.6,15.1-3.6,1.2-.4,2.2-1.2,2.9-2.2,1.7-.5,2.9-.8,2.9-.8,1.2-.4,2.1-1.1,2.9-2.1h0c1.7-.4,2.9-.8,2.9-.8,5.1-1.5,5.2-10.3,5.2-10.3v-16.7c.3-21.8-3-42.4-3-42.4-.6-5.5-1.9-9.9-3.4-13.4-3.2-7.3-6.8-9.1-13.8-13,.7-20.1-9-19.1-9-19.1h-6.9c-9.7-.5-13.3,16.5-13.3,16.5l-.8,3.5c-.7,0-1.4.5-4.1,2.4-18.2,6.4-21.4,33.4-21.4,33.4l-.4,4v1c-.1,0-.1,0-.1,0l.6-5-.6,5c-10.9.4-10.8,11-10.8,11l-1.1,31.6c-.5,17.4,7.5,17.3,7.5,17.3,13.2,3.7,37.9,3.9,46.1,3.8.2,0,.4,0,.6,0s.4,0,.6,0c1,0,1.5,0,1.5,0,3.8-.2,15.1-3.6,15.1-3.6" class="st3"></path>
</svg>