<svg viewBox="0 0 150.1 150.1" version="1.1" xmlns="http://www.w3.org/2000/svg" id="ICONS">
  
  <defs>
    <style>
      .st0, .st1, .st2, .st3, .st4, .st5, .st6, .st7, .st8, .st9 {
        fill: none;
      }

      .st1, .st2, .st3, .st4, .st7, .st8 {
        stroke: #221f20;
      }

      .st1, .st3, .st4, .st5 {
        stroke-linecap: round;
      }

      .st1, .st3, .st5, .st6, .st7, .st8, .st9 {
        stroke-miterlimit: 10;
      }

      .st1, .st5 {
        stroke-width: .7px;
      }

      .st3 {
        stroke-dasharray: 8.7 0 0 0 0 3.7;
        stroke-width: .9px;
      }

      .st4 {
        stroke-dasharray: 0 0 0 0 0 3;
        stroke-linejoin: round;
      }

      .st10 {
        fill: #221f20;
      }

      .st5 {
        stroke: #000201;
      }

      .st6 {
        stroke: #000;
      }

      .st7 {
        stroke-width: 1.3px;
      }

      .st9 {
        stroke: #ff0049;
        stroke-width: .1px;
      }
    </style>
  </defs>
  <g>
    <rect height="149.6" width="149.6" y=".2" x=".2" class="st0"></rect>
    <rect transform="translate(150.1 0) rotate(90)" height="129.6" width="129.6" y="10.2" x="10.2" class="st0"></rect>
    <circle r=".4" cy="31.3" cx="96" class="st10"></circle>
    <g>
      <g>
        <line y2="34.1" x2="34.5" y1="34.1" x1="32" class="st5"></line>
        <line y2="34.1" x2="29.7" y1="34.1" x1="27.2" class="st5"></line>
      </g>
      <g>
        <line y2="30.5" x2="30.9" y1="32.9" x1="30.9" class="st5"></line>
        <line y2="35.3" x2="30.9" y1="37.7" x1="30.9" class="st5"></line>
      </g>
    </g>
    <path d="M98,31.1h10.3c0,0,21.2.6,20.7,16.4" class="st1"></path>
    <path d="M11.7,112.7s6.6,10.4,31.3,11.6" class="st4"></path>
  </g>
  <g>
    <g>
      <g>
        <path d="M31.2,91.4s-4.2-3.2-3.1-11.5c0,0,0-.8.6-1.5l2.7-26.4s-.4-1.1-.2-2.8c0,0,1.2-11.4,12.6-10.6l58-2.3s14.4-3.1,12.9,14.6l-1.9,32.2s-1.1,18-16.3,13.5l-57.4-3.2s-5.2.7-7.9-2.1Z" class="st9"></path>
        <path d="M123.5,59.9s3.3,8.2,6.9,13.6c0,0,6.3,9.8,6.6,13.1l-2.7,4.7s-1.8,11.2-.6,17.5c0,0-9.4,6.1-51.2,9.1,0,0-36,1.7-50-2.2,0,0-13.5-2-17.8-9l-3-10.9s.3-6.9,4.2-10.8c0,0,5.2-2.7,11.9-1.3" class="st9"></path>
        <g>
          <path d="M105.9,36.2s15.5-.3,17.7,14.8c0,1.5,0,5.3,0,5.3l-.2,3.6h0s-1.6,26.6-1.6,26.6v2c-.1,0-.4,4.9-2.8,8.9-2.2,3.7-6.3,6.7-13.5,4.6l-17.4-1" class="st8"></path>
          <path d="M88.1,101c-43.9,4.5-67.7-2.2-67.7-2.2l15.5-4.4h0l3.5,1.8.8.5c2.6,2.8,7.9,2.1,7.9,2.1l40.1,2.2Z" class="st6"></path>
          <path d="M88.5,101c-.1,0-.3,0-.4,0" class="st9"></path>
        </g>
        <path d="M11.7,95.9s3.8,3,8.7,3" class="st9"></path>
        <path d="M118.8,97.5s12.5-.3,18.2-10.8" class="st9"></path>
        <line y2="95.7" x2="126.4" y1="86.5" x1="121.8" class="st9"></line>
      </g>
      <g>
        <path d="M31.2,91.4s-4.2-3.2-3.1-11.5c0,0,0-.8.6-1.5l2.7-26.4s-.4-1.1-.2-2.8c0,0,1.2-11.4,12.6-10.6l58-2.3s14.4-3.1,12.9,14.6l-1.9,32.2s-1.1,18-16.3,13.5l-57.4-3.2s-5.2.7-7.9-2.1Z" class="st2"></path>
        <path d="M123.5,59.9s3.3,8.2,6.9,13.6c0,0,6.3,9.8,6.6,13.1l-2.7,4.7s-1.8,11.2-.6,17.5c0,0-9.4,6.1-51.2,9.1,0,0-36,1.7-50-2.2,0,0-13.5-2-17.8-9l-3-10.9s.3-6.9,4.2-10.8c0,0,5.2-2.7,11.9-1.3" class="st2"></path>
        <g>
          <path d="M105.9,36.2s15.5-.3,17.7,14.8c0,1.5,0,5.3,0,5.3l-.2,3.6h0s-1.6,26.6-1.6,26.6v2c-.1,0-.4,4.9-2.8,8.9-2.2,3.7-6.3,6.7-13.5,4.6l-17.4-1" class="st2"></path>
          <path d="M88.1,101c-43.9,4.5-67.7-2.2-67.7-2.2l15.5-4.4h0l3.5,1.8.8.5c2.6,2.8,7.9,2.1,7.9,2.1l40.1,2.2Z" class="st2"></path>
          <path d="M88.5,101c-.1,0-.3,0-.4,0" class="st2"></path>
        </g>
        <path d="M11.7,95.9s3.8,3,8.7,3" class="st2"></path>
        <path d="M118.8,97.5s12.5-.3,18.2-10.8" class="st2"></path>
        <line y2="95.7" x2="126.4" y1="86.5" x1="121.8" class="st2"></line>
      </g>
    </g>
    <path d="M88.1,101c-43.9,4.5-67.7-2.2-67.7-2.2l15.5-4.4h0l3.5,1.8.8.5c2.6,2.8,7.9,2.1,7.9,2.1l40.1,2.2Z" class="st6"></path>
    <g>
      <rect transform="translate(-1.4 2.4) rotate(-1.8)" height="1.3" width="82.2" y="43.4" x="31.8" class="st10"></rect>
      <g>
        <line y2="50.6" x2="114.8" y1="51.9" x1="45.8" class="st7"></line>
        <line y2="52.1" x2="34.9" y1="52.2" x1="31.9" class="st7"></line>
        <line y2="60.3" x2="113.9" y1="60.4" x1="30.8" class="st7"></line>
        <line y2="70" x2="113.4" y1="68.6" x1="29.8" class="st7"></line>
        <line y2="79.7" x2="112.9" y1="76.8" x1="28.7" class="st7"></line>
        <line y2="89.5" x2="111.4" y1="88.9" x1="100.2" class="st7"></line>
        <line y2="87.6" x2="76.9" y1="85" x1="27.7" class="st7"></line>
      </g>
    </g>
    <rect transform="translate(4.9 -4.7) rotate(3.1)" ry="4.5" rx="4.5" height="8.9" width="23.5" y="83.6" x="76.9" class="st8"></rect>
    <path d="M45.8,51.5c-.2,3.2-2.8,5.7-5.8,5.7-3,0-5.2-2.6-4.9-5.8.2-3.1,2.8-5.7,5.7-5.7s5.2,2.6,5,5.7Z" class="st8"></path>
    <path d="M110.2,37.2s10,4.2,9.5,12.1l-2.6,38.8s-1,11.4-10.4,11.2l-67.3-3" class="st3"></path>
  </g>
  <path d="M104.1,35.6c.5,0,1.1,0,1.8.1h0c0,0,0,0,0,0,1.1,0,15.5.3,17.7,14.8,0,1.5,0,5.3,0,5.3l-.2,3.6h0c.1.3,3.3,8.3,6.9,13.6,0,0,6.3,9.8,6.6,13.1l-2.7,4.7s-1.8,11.2-.6,17.5c0,0-9.4,6.1-51.2,9.1,0,0-7.8.4-17.5.4s-25-.5-32.5-2.6c0,0-13.5-2-17.8-9l-3-10.9s.3-6.9,4.2-10.8c0,0,3.3-1.7,8-1.7,1.2,0,2.5.1,3.9.4h.1c0-1.2,0-2.4.1-3.8,0,0,0-.8.6-1.5l2.7-26.4s-.4-1.1-.2-2.8c0,0,.2-1.5.9-3.4h-.3s0-1.2,0-1.2h.9c1.5-2.9,4.4-6,10-6,.4,0,.7,0,1.1,0l58-2.3s1-.2,2.4-.2M104.1,33.6s0,0,0,0c-1.2,0-2.2.1-2.6.2l-57.8,2.3c-.4,0-.8,0-1.2,0-6,0-9.4,3.1-11.2,6.1-.4,0-.8.3-1.1.6-.4.4-.6.9-.5,1.4v1.2c0,0,0,.2,0,.2-.5,1.5-.6,2.6-.6,2.8-.2,1.5,0,2.6.1,3.2l-2.6,25.4c-.6.9-.7,1.7-.7,2.2,0,.6-.1,1.1-.1,1.7-.7,0-1.3,0-2,0-5.1,0-8.8,1.8-8.9,1.9-.2,0-.3.2-.5.4-4.4,4.4-4.8,11.8-4.8,12.1,0,.2,0,.4,0,.6l3,10.9c0,.2.1.4.2.5,4.5,7.4,17.5,9.6,19.1,9.9,6.3,1.8,17.4,2.7,32.9,2.7s17.6-.4,17.6-.4c41.8-2.9,51.8-9.1,52.2-9.4.7-.4,1-1.3.9-2-1-5.3.3-14.6.6-16.5l2.5-4.4c.2-.3.3-.7.2-1.1-.3-3.7-5.8-12.4-6.9-14.1-3.1-4.6-5.9-11.2-6.6-12.9l.2-3.1s0,0,0,0c0-.2,0-3.9,0-5.4,0,0,0-.1,0-.2-2-13-13.3-16.5-19.7-16.5h0c0,0-.2,0-.2,0-.5,0-1,0-1.5,0h0Z" class="st10"></path>
  <path d="M119,97.4s2.3-3.8,2.8-10.1l4.4,8.5s-5.4,1.8-7.2,1.5Z" class="st6"></path>
</svg>