<svg viewBox="0 0 150.1 150.1" version="1.1" xmlns="http://www.w3.org/2000/svg" id="ICONS">
  
  <defs>
    <style>
      .st0, .st1, .st2, .st3, .st4, .st5, .st6 {
        fill: none;
      }

      .st1 {
        stroke-width: .7px;
      }

      .st1, .st2, .st3, .st4, .st5, .st6 {
        stroke: #221f20;
      }

      .st1, .st3, .st5 {
        stroke-miterlimit: 10;
      }

      .st1, .st4, .st6 {
        stroke-linecap: round;
      }

      .st2 {
        stroke-width: .7px;
      }

      .st3 {
        stroke-width: 2px;
      }

      .st4 {
        stroke-dasharray: 0 0 0 0 0 3;
      }

      .st4, .st6 {
        stroke-linejoin: round;
      }

      .st7 {
        fill: #221f20;
      }
    </style>
  </defs>
  <rect height="149.6" width="149.6" y=".2" x=".2" class="st0"></rect>
  <rect transform="translate(150.1 0) rotate(90)" height="129.6" width="129.6" y="10.2" x="10.2" class="st0"></rect>
  <circle r=".4" cy="49.9" cx="62.8" class="st7"></circle>
  <g>
    <g>
      <line y2="59.7" x2="142.1" y1="59.7" x1="139.7" class="st1"></line>
      <line y2="59.7" x2="137.3" y1="59.7" x1="134.8" class="st1"></line>
    </g>
    <g>
      <line y2="56.1" x2="138.5" y1="58.5" x1="138.5" class="st1"></line>
      <line y2="60.9" x2="138.5" y1="63.3" x1="138.5" class="st1"></line>
    </g>
  </g>
  <path d="M90.9,34.5s-5.7-3-9.8-2.8l-17.4,17.3" class="st1"></path>
  <path d="M67.2,129.3l.9.7c5.5,4.6,13.5,4.4,18.8-.5l4.9-4.5" class="st4"></path>
  <g>
    <g>
      <path d="M80.8,123.4c5.2-1.6,11.1-9.3,14-12.3,2.9-3,8.3-12.1,8.3-12.1,2.1-.6,11.4-11,11.4-11,5.2-5.8,14.9-14.4,14.9-14.4,5.9-6.5,1-10.5,1-10.5l-45.2-25.9c-.9-.5-1.9-.3-2.6.4l-50.9,52.5c-3.2,3.4,2.2,6.2,2.2,6.2,3.4,1.4,6.4,4.3,6.4,4.3l30.3,22.6s3.4,2.3,10.1.2Z" class="st5"></path>
      <path d="M44.9,104s-2.9-3,2.8-8.5l17.1-17.7s13.8-15.2,18.4-18.8c0,0,8.1-6.4,14.8-14.5" class="st5"></path>
      <ellipse ry="3.5" rx="3.5" cy="75" cx="75.1" class="st5"></ellipse>
      <path d="M132,65.4s-4.7,9.4-9.3,10.3c0,0-2.5,2.9-6.6,6.3,0,0-4.2,4.8-5.3,5.1,0,0-2.7,3.7-4.8,4.4,0,0-2.4,3.9-5,4.3,0,0-.2,2.5-1.6,3.2s-.1,0-.2,0c0,0-.7,3.8-4.7,8.3,0,0-2,3.7-5.1,5.6,0,0-.7,2.2-2.3,2.6,0,0-1.8,5-7.3,5.8l-3.4.6c-2.4.4-4.8-.2-6.8-1.6l-25.5-19.3" class="st5"></path>
      <path d="M43.6,77.1l2.5-12.3s.1-1.8-2.7-2.6l-3.8-1.1s-2.5-.8-2.4,2.1l.3,14.7s.1,1.2.8,1.9l1.3,1.4" class="st5"></path>
      <path d="M39,64.6l-.2-1.3s0-.6.9-.3l5.4,1.9s.7.2.5,1l-.3.6-6.3-1.9Z" class="st5"></path>
      <path d="M42.1,77.7l-2.2,2.2s-1.7-2-.7-3.1l2.9.9Z" class="st6"></path>
      <path d="M44.5,75.5l35.5-37.2s2-3,4.7-1.4" class="st5"></path>
      <path d="M39.3,80.4l-10,10.1s-1.9,3.3,2.9,6.3c0,0,5.2,3.3,6.9,4.8l17.2,11.9,13.8,10.4,1.5.8c.9.5,1.9.7,2.9.6,2.5-.3,6.9-1.2,10.2-4" class="st5"></path>
    </g>
    <g>
      <path d="M80.8,123.4c5.2-1.6,11.1-9.3,14-12.3,2.9-3,8.3-12.1,8.3-12.1,2.1-.6,11.4-11,11.4-11,5.2-5.8,14.9-14.4,14.9-14.4,5.9-6.5,1-10.5,1-10.5l-45.2-25.9c-.9-.5-1.9-.3-2.6.4l-50.9,52.5c-3.2,3.4,2.2,6.2,2.2,6.2,3.4,1.4,6.4,4.3,6.4,4.3l30.3,22.6s3.4,2.3,10.1.2Z" class="st2"></path>
      <path d="M44.9,104s-2.9-3,2.8-8.5l17.1-17.7s13.8-15.2,18.4-18.8c0,0,8.1-6.4,14.8-14.5" class="st2"></path>
      <ellipse ry="3.5" rx="3.5" cy="75" cx="75.1" class="st2"></ellipse>
      <path d="M132,65.4s-4.7,9.4-9.3,10.3c0,0-2.5,2.9-6.6,6.3,0,0-4.2,4.8-5.3,5.1,0,0-2.7,3.7-4.8,4.4,0,0-2.4,3.9-5,4.3,0,0-.2,2.5-1.6,3.2s-.1,0-.2,0c0,0-.7,3.8-4.7,8.3,0,0-2,3.7-5.1,5.6,0,0-.7,2.2-2.3,2.6,0,0-1.8,5-7.3,5.8l-3.4.6c-2.4.4-4.8-.2-6.8-1.6l-25.5-19.3" class="st2"></path>
      <path d="M43.6,77.1l2.5-12.3s.1-1.8-2.7-2.6l-3.8-1.1s-2.5-.8-2.4,2.1l.3,14.7s.1,1.2.8,1.9l1.3,1.4" class="st2"></path>
      <path d="M39,64.6l-.2-1.3s0-.6.9-.3l5.4,1.9s.7.2.5,1l-.3.6-6.3-1.9Z" class="st2"></path>
      <path d="M42.1,77.7l-2.2,2.2s-1.7-2-.7-3.1l2.9.9Z" class="st2"></path>
      <path d="M44.5,75.5l35.5-37.2s2-3,4.7-1.4" class="st2"></path>
      <path d="M39.3,80.4l-10,10.1s-1.9,3.3,2.9,6.3c0,0,5.2,3.3,6.9,4.8l17.2,11.9,13.8,10.4,1.5.8c.9.5,1.9.7,2.9.6,2.5-.3,6.9-1.2,10.2-4" class="st2"></path>
    </g>
  </g>
  <path d="M40.2,80.1l-10,10.1s-1.9,3.3,2.9,6.3c0,0,5.2,3.3,6.9,4.8l17.2,11.9,13.8,10.4,1.5.8c.9.5,1.9.7,2.9.6,2.5-.3,6.9-1.2,10.2-4,3.6-2.9,7.3-7.2,10.2-10.3,2.9-3,8.3-12.1,8.3-12.1,2.1-.6,11.4-11,11.4-11,5.2-5.8,14.9-14.4,14.9-14.4,5.9-6.5,1-10.5,1-10.5l-45.8-26.1c-2.7-1.6-4.7,1.4-4.7,1.4l-36.4,38.8,2.5-12.3s.1-1.8-2.7-2.6l-3.8-1.1s-2.5-.8-2.4,2.1l.3,14.7s.1,1.2.8,1.9l.9,1" class="st3"></path>
</svg>