<svg viewBox="0 0 150.1 150.1" version="1.1" xmlns="http://www.w3.org/2000/svg" id="ICONS">
  
  <defs>
    <style>
      .st0, .st1, .st2, .st3, .st4 {
        fill: none;
      }

      .st1 {
        stroke-width: .7px;
      }

      .st1, .st2, .st4 {
        stroke: #221f20;
      }

      .st1, .st3, .st4, .st5 {
        stroke-linecap: round;
      }

      .st1, .st6 {
        stroke-miterlimit: 10;
      }

      .st2 {
        stroke-width: .7px;
      }

      .st3, .st4, .st5 {
        stroke-linejoin: round;
      }

      .st3, .st5 {
        stroke: #000201;
        stroke-width: 2px;
      }

      .st4 {
        stroke-dasharray: 0 0 0 0 0 3;
      }

      .st7 {
        fill: #221f20;
      }

      .st5 {
        fill: #fff;
      }

      .st8 {
        fill: #000201;
      }

      .st6 {
        stroke: #9b9b9b;
      }
    </style>
  </defs>
  <rect height="149.6" width="149.6" y=".2" x=".2" class="st0"></rect>
  <rect transform="translate(150.1 0) rotate(90)" height="129.6" width="129.6" y="10.2" x="10.2" class="st0"></rect>
  <circle r=".4" cy="68.5" cx="122.7" class="st7"></circle>
  <g>
    <g>
      <line y2="18.8" x2="28.4" y1="18.8" x1="26" class="st1"></line>
      <line y2="18.8" x2="23.6" y1="18.8" x1="21.1" class="st1"></line>
    </g>
    <g>
      <line y2="15.2" x2="24.8" y1="17.6" x1="24.8" class="st1"></line>
      <line y2="20" x2="24.8" y1="22.4" x1="24.8" class="st1"></line>
    </g>
  </g>
  <g>
    <g>
      <path d="M55.7,12.8c0,0,.1,0,.2,0,.7,0,1.4,0,2.1.1,0,0,.2,0,.2,0l40.4,4c.8,0,1.6.2,2.5.3.1,0,.2,0,.3,0,0,0,.2,0,.3,0,.7.1,1.4.3,2,.4,0,0,.1,0,.2,0,0,0,0,0,0,0,.7.2,1.4.4,2,.6,0,0,.1,0,.2,0,.2,0,.3.1.5.2.4.1.8.3,1.3.4.1,0,.2,0,.3.1.2,0,.3.1.4.2.3.1.7.3,1,.4.1,0,.3.1.4.2.1,0,.3.1.4.2.3.2.6.3.9.5.1,0,.3.1.4.2.2.1.5.3.7.4.3.2.6.4.9.6,0,0,0,0,0,0,.4.3.9.6,1.3.9,0,0,0,0,0,0,0,0,.2.1.2.2.3.2.6.5.9.7,0,0,.1,0,.2.1,0,0,.2.1.2.2.3.2.5.5.8.7,0,0,.2.1.2.2,0,0,.1.1.2.2.3.3.6.6.9.9,0,0,.1.1.2.2,0,0,0,0,0,0,.4.5.8,1,1.1,1.5,0,0,0,.1.1.2,0,.1.1.2.2.4.1.2.3.4.4.6.1.2.2.4.3.6.1.2.2.4.3.7.1.2.2.4.3.7,0,.2.2.5.3.7,0,.2.2.5.2.7,0,.2.1.5.2.8,0,.1,0,.2,0,.3,0,.1,0,.2,0,.3,0,.4.1.8.2,1.2,0,.1,0,.3,0,.4,0,0,0,.2,0,.3,0,.2,0,.5,0,.7,0,.2,0,.4,0,.6,0,.1,0,.3,0,.4,0,.2,0,.4,0,.6,0,.1,0,.3,0,.4,0,.3,0,.6,0,.8,0,.1,0,.3,0,.4,0,0,0,0,0,.1,0,.5-.1.9-.2,1.4,0,0,0,.2,0,.3l-17.2,76.5s0,0,0,.2c0,0,0,0,0,0,0,0,0,.1,0,.2,0,0,0,0,0,.1,0,0,0,.2,0,.3,0,0,0,0,0,.2,0,.1,0,.2-.1.4,0,0,0,0,0,.1,0,0,0,0,0,0,0,.3-.2.6-.3.9,0,0,0,0,0,.2-.1.3-.2.7-.3,1,0,0,0,0,0,0,0,0,0,0,0,.1,0,.3-.2.6-.3.9,0,0,0,0,0,0-.1.3-.3.7-.4,1,0,0,0,0,0,.1,0,0,0,0,0,0-.2.6-.5,1.2-.8,1.8,0,0,0,0,0,0,0,0,0,0,0,0-.3.6-.6,1.1-.9,1.7,0,0,0,0,0,0,0,0,0,0,0,0-.3.5-.6,1-.9,1.5,0,0,0,0,0,.1,0,0,0,0,0,0-.3.4-.6.9-.9,1.3,0,0,0,0,0,.1,0,0,0,0,0,0-.3.4-.6.8-1,1.2,0,0,0,0,0,0,0,0,0,0,0,0-.4.4-.8.8-1.2,1.2,0,0,0,0,0,0,0,0-.2.1-.2.2-.2.1-.3.3-.5.4-.1,0-.2.2-.4.3-.2.1-.3.2-.5.3-.1,0-.3.2-.4.3-.2.1-.3.2-.5.3-.1,0-.3.2-.4.2-.2,0-.4.2-.5.3-.1,0-.3.1-.4.2-.2,0-.4.2-.6.2-.1,0-.3.1-.4.2-.2,0-.4.1-.6.2-.1,0-.3,0-.4.1-.2,0-.5,0-.7.1-.1,0-.2,0-.4,0-.4,0-.8,0-1.2,0h-5.4c0,.1-31.7.5-31.7.5,0,0-.1,0-.2,0-10.4,0-18.9-9.3-19.1-20.8l-.2-13.6h0,0c-2.4,0-4.4-2.1-4.4-4.8v-3.3s0-3.6,0-3.6l-.4-30.9v-7c-.1-2.4,1.4-4.4,3.4-4.8-.5-6.6-1.3-30.3,15.1-34.8,1.4-.4,2.8-.5,4.2-.6-.1,0-.2,0-.4,0h2.7c.9,0,1.9-.1,2.7-.1.1,0,.2,0,.4,0,0,0,.1,0,.2,0M54,122.1h0c.3.2.7.5,1.1.6h0c.4.2.8.3,1.1.4,0,0,0,0,0,0,.4,0,.8.1,1.2.1s0,0,0,0l20.6-.2c4.4-.5,8-3.9,9.1-8.7l16.9-76.1c.7-3.3-1.4-6.6-4.5-6.9l-43.5-3.8c-.2,0-.4,0-.5.2,0,0-.2,0-.2,0-.4.2-.8.4-1.1.6,0,0,0,0,0,0-.4.2-.7.5-1,.8,0,0-.1,0-.2.1-.2.2-.3.3-.5.5,0,0-.1.1-.2.2,0,0-.1.1-.2.2-.1.2-.3.3-.4.5,0,0,0,.1-.1.2-.1.2-.2.3-.3.5,0,0,0,.1-.1.2-.1.2-.3.5-.4.7,0,0,0,0,0,0-.1.2-.2.5-.3.7,0,0,0,.1,0,.2,0,.3-.2.5-.2.8,0,0,0,.1,0,.2,0,.3-.1.5-.2.8,0,0,0,0,0,0,0,.3,0,.6-.1.8,0,0,0,.2,0,.2,0,.3,0,.6,0,.9l.2,11.2s0,0,0,0c0,0,.2,0,.3,0,0,0,.2,0,.3,0,0,0,.1,0,.2,0,0,0,0,0,0,0,0,0,0,0,0,0,0,0,.2,0,.2.1,0,0,.2,0,.2.1,0,0,.1,0,.2,0,0,0,0,0,0,0,0,0,0,0,0,0,0,0,.2.1.2.2,0,0,.2.1.3.2,0,0,0,0,0,0,0,0,0,0,0,0,0,0,.1,0,.2.1,0,0,.2.2.3.3,0,0,0,0,0,0,0,0,0,0,.1.1,0,0,.1.2.2.3,0,0,0,0,0,.1,0,.1.2.3.2.4,0,.1.1.2.2.3,0,.2.1.3.2.5,0,0,0,.2,0,.3,0,0,0,0,0,.1,0,0,0,.1,0,.2,0,0,0,.2,0,.3,0,.1,0,.3,0,.4,0,0,0,0,0,0v3.3s.6,38.2.6,38.2v3.3c0,.1,0,.2,0,.3,0,.1,0,.2,0,.3,0,0,0,.1,0,.2,0,0,0,0,0,0,0,0,0,0,0,0,0,0,0,.2,0,.3,0,0,0,.2,0,.3,0,0,0,0,0,.1,0,0,0,0,0,0,0,0,0,0,0,.1,0,0,0,.2-.1.3,0,0,0,.2-.1.3,0,0,0,0,0,0,0,0,0,0,0,0,0,0,0,.1,0,.2,0,0-.1.2-.2.3,0,0,0,.1-.1.2,0,0,0,0,0,0,0,0,0,0,0,0,0,.1-.2.2-.3.3,0,0,0,0-.1.1,0,0,0,0-.1.1,0,0,0,0,0,0,0,0,0,0-.1,0-.2.2-.4.3-.6.4,0,0-.2,0-.2.1-.3.1-.6.3-.9.3l.2,13.9c0,.4,0,.9.1,1.3,0,0,0,.1,0,.2,0,.2.1.5.2.7,0,.2.1.4.2.6,0,.2.2.4.3.6,0,.2.2.4.3.5.2.3.4.6.7.9,0,0,0,0,0,.1.3.3.6.6.9.8M45.5,102.6h0s0,0,0,0c0,0,0,0,0,0M55.7,10.8h-.2c-.1,0-.3,0-.4,0h-2.6c0,0,0,0,0,0h-2.7c0,0,0,0,0,0-1.6,0-3,.2-4.4.6-7.6,2.1-12.9,8.4-15.3,18.1-1.6,6.6-1.6,13.2-1.4,17.3-2.1,1.2-3.5,3.5-3.4,6.2v7c0,0,.5,30.9.5,30.9v3.6c0,0,0,3.3,0,3.3,0,3,1.9,5.5,4.4,6.4l.2,12c.2,12.6,9.6,22.8,21.1,22.8h.2s31.7-.3,31.7-.3h5.4c.4-.2.9-.2,1.4-.3.1,0,.2,0,.3,0h0c.3,0,.6-.1.9-.2.1,0,.3,0,.4,0h.1c.3-.1.5-.2.8-.2.1,0,.3,0,.4-.2h0c.2-.1.5-.2.7-.3.1,0,.3-.1.4-.2h0c.2-.1.4-.2.6-.3.2,0,.3-.2.5-.3.2-.1.4-.2.6-.4.2,0,.3-.2.5-.3.2-.1.4-.3.5-.4.2-.1.3-.2.4-.3.2-.1.3-.3.5-.4h0c0-.1.1-.2.2-.2,0,0,0,0,.1-.1.4-.4.9-.8,1.3-1.3,0,0,0,0,.1-.1,0,0,0,0,.1-.1.4-.4.7-.8,1-1.3,0,0,0,0,0-.1,0,0,0-.1.1-.2.3-.4.7-.9.9-1.4,0,0,0,0,0-.1,0,0,0,0,0-.1.3-.5.6-1,.9-1.5,0,0,0,0,0,0h0c.3-.7.6-1.3.9-1.9h0c0,0,0,0,0,0,0,0,0,0,0,0,.3-.6.6-1.3.9-1.9h0c0,0,0-.2,0-.2.2-.4.3-.7.4-1.1,0,0,0,0,0,0,.1-.3.2-.6.3-.9h0c0-.1,0-.2,0-.2.1-.4.3-.7.4-1.1h0c0,0,0-.1,0-.1.1-.3.2-.6.3-.9,0,0,0,0,0,0h0s0,0,0,0c0,0,0,0,0,0h0s0-.4,0-.4v-.2s.1-.3.1-.3h0c0-.1,0-.4,0-.4,0,0,0,0,0,0h0c0-.1,0-.2,0-.2l17.2-76.5s0,0,0,0c0-.1,0-.2,0-.3,0-.5.2-1,.2-1.5,0,0,0-.1,0-.2,0,0,0-.2,0-.3h0c0-.1,0-.3,0-.3,0-.3,0-.5,0-.7,0-.1,0-.2,0-.3h0c0-.3,0-.5,0-.7h0c0-.2,0-.4,0-.5,0-.2,0-.3,0-.4v-.2s0,0,0,0c0-.2,0-.5,0-.7h0c0-.1,0-.2,0-.3,0-.1,0-.3,0-.4h0c0-.6-.1-1-.2-1.4h0c0-.2,0-.3,0-.4,0-.1,0-.2,0-.3h0c0-.4-.2-.6-.2-.9,0-.3-.2-.5-.3-.8,0-.3-.2-.5-.3-.8-.1-.3-.2-.5-.3-.8-.1-.3-.2-.5-.4-.7-.1-.2-.2-.5-.4-.7-.1-.2-.3-.5-.4-.7h0c0-.2-.1-.3-.2-.4,0,0-.1-.2-.2-.2-.4-.6-.8-1.1-1.2-1.6,0,0,0,0-.1-.1,0,0-.1-.1-.2-.2,0,0,0,0,0,0-.3-.4-.6-.7-.9-1,0,0-.1-.1-.2-.2,0,0-.1-.1-.2-.2h0c-.3-.3-.5-.6-.8-.8h0c0-.1-.1-.2-.2-.2,0,0-.1,0-.2-.1-.3-.3-.7-.5-1-.8h0c0,0-.1-.1-.2-.2,0,0,0,0,0,0-.4-.3-.9-.6-1.4-.9h0c-.3-.3-.7-.5-1-.7-.2-.1-.5-.3-.8-.4-.1,0-.2-.1-.3-.2h-.1c-.3-.2-.7-.4-1-.6h-.1c0-.1-.2-.2-.3-.2,0,0-.2,0-.3-.1h-.1c-.4-.2-.7-.4-1.1-.5h-.2c-.1-.1-.2-.2-.3-.2,0,0-.2,0-.2,0h0c-.4-.2-.9-.3-1.3-.5,0,0-.1,0-.2,0-.1,0-.2,0-.3-.1,0,0-.1,0-.2,0-.8-.2-1.5-.4-2.2-.6,0,0,0,0,0,0,0,0,0,0-.2,0-.7-.2-1.4-.3-2.2-.4h0c0,0-.2,0-.2,0-.1,0-.2,0-.3,0h0c-.9-.2-1.8-.3-2.6-.3l-40.4-4h0s-.2,0-.2,0c-.8,0-1.6-.1-2.3-.1h-.2ZM55.3,30.1c.3-.2.5-.3.8-.4h0s0,0,0,0c0,0,0,0,0,0l43.1,3.8c.8,0,1.5.5,2.1,1.2.7.9.9,2.1.7,3.2l-16.9,76.1c-.8,3.8-3.8,6.7-7.3,7.2l-20.5.2h0c-.3,0-.5,0-.8,0,0,0,0,0,0,0-.2,0-.5-.1-.7-.2,0,0,0,0,0,0-.2-.1-.5-.3-.7-.4h0c-.2-.1-.4-.3-.6-.6h0c-.2-.3-.3-.5-.5-.7,0,0,0-.1,0-.2,0,0,0-.1-.1-.2v-.2c-.1,0-.2-.2-.2-.3,0,0,0-.1,0-.2,0,0,0-.2,0-.2v-.2c0-.1-.1-.2-.2-.3v-.2c0-.4-.1-.6-.1-.9l-.2-12.6s0,0,0,0c.3-.2.5-.3.8-.5,0,0,.2-.1.3-.2,0,0,0,0,.2-.2,0,0,0,0,.1-.1,0,0,.1-.1.2-.2.1-.1.3-.3.4-.4,0,0,0,0,0-.1,0,0,0,0,0,0,0,0,.1-.2.2-.2,0-.1.2-.3.2-.4,0,0,0-.2.1-.2h0c0,0,0-.1,0-.2,0-.1.1-.2.2-.4,0-.1,0-.2.1-.4,0,0,0-.1,0-.2h0c0-.1,0-.2,0-.2,0-.1,0-.2,0-.4,0-.1,0-.3,0-.4,0,0,0,0,0-.1h0c0-.2,0-.2,0-.3,0-.1,0-.3,0-.5,0-.1,0-.3,0-.4v-3.3s-.6-38.2-.6-38.2v-3.3s0-.1,0-.1c0-.2,0-.4,0-.6,0,0,0-.2,0-.3h0c0-.2,0-.2,0-.3,0,0,0-.1,0-.2,0-.1,0-.3-.1-.4,0-.2-.1-.4-.2-.7,0-.1-.1-.3-.2-.4,0-.2-.2-.4-.3-.6,0,0,0-.2-.1-.3,0-.1-.2-.2-.2-.3h0c0-.1,0-.2-.1-.2,0,0,0-.1-.1-.2,0-.1-.2-.3-.4-.4,0,0-.1-.1-.2-.2,0,0,0,0,0,0,0,0,0,0,0,0,0,0,0,0-.1,0-.1,0-.2-.2-.4-.3-.1,0-.2-.2-.4-.2,0,0,0,0,0,0,0,0,0,0,0,0,0,0-.1,0-.2-.1,0,0-.2,0-.3-.1v-9.8c-.1-.2-.1-.4-.1-.7v-.2c0-.3,0-.5,0-.7h0c0-.3,0-.5.1-.7h0c0,0,0-.1,0-.1,0-.2.1-.4.2-.6h0c0,0,0-.1,0-.1,0-.2.2-.4.2-.6,0,0,0,0,0,0,0-.2.2-.4.3-.5h0c0-.3.2-.4.3-.6h0c0,0,0-.2,0-.2,0-.1.2-.2.3-.4h0c0-.1,0-.2,0-.2,0,0,0,0,.1-.1.1-.1.3-.3.4-.4h.1c.3-.3.5-.5.8-.7,0,0,0,0,0,0h0Z" class="st8"></path>
      <path d="M36.4,65.6c.9,0,1.7.8,1.7,1.8l.2,13.6c0,1-.7,1.8-1.6,1.8s-1.7-.8-1.7-1.8l-.2-13.6c0-1,.7-1.8,1.6-1.8Z" class="st6"></path>
      <path d="M50.1,13c.9,0,1.8,0,2.8.1l40.4,4c4.8.5,9.6,1.8,13.9,4.3,6.1,3.5,11.7,9.8,9.9,20.2l-17.2,76.5c-.2.9-4.3,18.6-16.5,18.9l-31.7.3c-10.5.1-19.1-9.2-19.3-20.8l-.2-13.6h12.4c.3-.1.6-.2.9-.2l.2,13.9c0,3.8,2.9,6.9,6.4,6.9l25-.2c4.8,0,8.9-3.7,10.1-8.8l16.9-76.1c.7-3.3-1.4-6.6-4.5-6.9l-45.8-4c-.3,0-.5,0-.8,0-4.8,0-8.6,4.4-8.6,9.7l.2,11.1c-.2,0-.5,0-.7,0h-12.4c-.3.1-.5.2-.8.2-.5-6.6-1.3-30.3,15.1-34.8,1.4-.4,2.8-.5,4.3-.6Z" class="st3"></path>
      <path d="M45.1,48.2c.9,0,5.2,0,5.2,0" class="st5"></path>
      <line y2="102" x2="52" y1="102.6" x1="45.6" class="st5"></line>
      <polyline points="53.8 56.1 44.8 57.9 27.3 57.9" class="st3"></polyline>
      <polyline points="53.8 90.6 44.8 92.4 27.8 92.4" class="st3"></polyline>
    </g>
    <g>
      <path d="M55.7,12.8c0,0,.1,0,.2,0,.7,0,1.4,0,2.1.1,0,0,.2,0,.2,0l40.4,4c.8,0,1.6.2,2.5.3.1,0,.2,0,.3,0,0,0,.2,0,.3,0,.7.1,1.4.3,2,.4,0,0,.1,0,.2,0,0,0,0,0,0,0,.7.2,1.4.4,2,.6,0,0,.1,0,.2,0,.2,0,.3.1.5.2.4.1.8.3,1.3.4.1,0,.2,0,.3.1.2,0,.3.1.4.2.3.1.7.3,1,.4.1,0,.3.1.4.2.1,0,.3.1.4.2.3.2.6.3.9.5.1,0,.3.1.4.2.2.1.5.3.7.4.3.2.6.4.9.6,0,0,0,0,0,0,.4.3.9.6,1.3.9,0,0,0,0,0,0,0,0,.2.1.2.2.3.2.6.5.9.7,0,0,.1,0,.2.1,0,0,.2.1.2.2.3.2.5.5.8.7,0,0,.2.1.2.2,0,0,.1.1.2.2.3.3.6.6.9.9,0,0,.1.1.2.2,0,0,0,0,0,0,.4.5.8,1,1.1,1.5,0,0,0,.1.1.2,0,.1.1.2.2.4.1.2.3.4.4.6.1.2.2.4.3.6.1.2.2.4.3.7.1.2.2.4.3.7,0,.2.2.5.3.7,0,.2.2.5.2.7,0,.2.1.5.2.8,0,.1,0,.2,0,.3,0,.1,0,.2,0,.3,0,.4.1.8.2,1.2,0,.1,0,.3,0,.4,0,0,0,.2,0,.3,0,.2,0,.5,0,.7,0,.2,0,.4,0,.6,0,.1,0,.3,0,.4,0,.2,0,.4,0,.6,0,.1,0,.3,0,.4,0,.3,0,.6,0,.8,0,.1,0,.3,0,.4,0,0,0,0,0,.1,0,.5-.1.9-.2,1.4,0,0,0,.2,0,.3l-17.2,76.5s0,0,0,.2c0,0,0,0,0,0,0,0,0,.1,0,.2,0,0,0,0,0,.1,0,0,0,.2,0,.3,0,0,0,0,0,.2,0,.1,0,.2-.1.4,0,0,0,0,0,.1,0,0,0,0,0,0,0,.3-.2.6-.3.9,0,0,0,0,0,.2-.1.3-.2.7-.3,1,0,0,0,0,0,0,0,0,0,0,0,.1,0,.3-.2.6-.3.9,0,0,0,0,0,0-.1.3-.3.7-.4,1,0,0,0,0,0,.1,0,0,0,0,0,0-.2.6-.5,1.2-.8,1.8,0,0,0,0,0,0,0,0,0,0,0,0-.3.6-.6,1.1-.9,1.7,0,0,0,0,0,0,0,0,0,0,0,0-.3.5-.6,1-.9,1.5,0,0,0,0,0,.1,0,0,0,0,0,0-.3.4-.6.9-.9,1.3,0,0,0,0,0,.1,0,0,0,0,0,0-.3.4-.6.8-1,1.2,0,0,0,0,0,0,0,0,0,0,0,0-.4.4-.8.8-1.2,1.2,0,0,0,0,0,0,0,0-.2.1-.2.2-.2.1-.3.3-.5.4-.1,0-.2.2-.4.3-.2.1-.3.2-.5.3-.1,0-.3.2-.4.3-.2.1-.3.2-.5.3-.1,0-.3.2-.4.2-.2,0-.4.2-.5.3-.1,0-.3.1-.4.2-.2,0-.4.2-.6.2-.1,0-.3.1-.4.2-.2,0-.4.1-.6.2-.1,0-.3,0-.4.1-.2,0-.5,0-.7.1-.1,0-.2,0-.4,0-.4,0-.8,0-1.2,0h-5.4c0,.1-31.7.5-31.7.5,0,0-.1,0-.2,0-10.4,0-18.9-9.3-19.1-20.8l-.2-13.6h0,0c-2.4,0-4.4-2.1-4.4-4.8v-3.3s0-3.6,0-3.6l-.4-30.9v-7c-.1-2.4,1.4-4.4,3.4-4.8-.5-6.6-1.3-30.3,15.1-34.8,1.4-.4,2.8-.5,4.2-.6-.1,0-.2,0-.4,0h2.7c.9,0,1.9-.1,2.7-.1.1,0,.2,0,.4,0,0,0,.1,0,.2,0M54,122.1h0c.3.2.7.5,1.1.6h0c.4.2.8.3,1.1.4,0,0,0,0,0,0,.4,0,.8.1,1.2.1s0,0,0,0l20.6-.2c4.4-.5,8-3.9,9.1-8.7l16.9-76.1c.7-3.3-1.4-6.6-4.5-6.9l-43.5-3.8c-.2,0-.4,0-.5.2,0,0-.2,0-.2,0-.4.2-.8.4-1.1.6,0,0,0,0,0,0-.4.2-.7.5-1,.8,0,0-.1,0-.2.1-.2.2-.3.3-.5.5,0,0-.1.1-.2.2,0,0-.1.1-.2.2-.1.2-.3.3-.4.5,0,0,0,.1-.1.2-.1.2-.2.3-.3.5,0,0,0,.1-.1.2-.1.2-.3.5-.4.7,0,0,0,0,0,0-.1.2-.2.5-.3.7,0,0,0,.1,0,.2,0,.3-.2.5-.2.8,0,0,0,.1,0,.2,0,.3-.1.5-.2.8,0,0,0,0,0,0,0,.3,0,.6-.1.8,0,0,0,.2,0,.2,0,.3,0,.6,0,.9l.2,11.2s0,0,0,0c0,0,.2,0,.3,0,0,0,.2,0,.3,0,0,0,.1,0,.2,0,0,0,0,0,0,0,0,0,0,0,0,0,0,0,.2,0,.2.1,0,0,.2,0,.2.1,0,0,.1,0,.2,0,0,0,0,0,0,0,0,0,0,0,0,0,0,0,.2.1.2.2,0,0,.2.1.3.2,0,0,0,0,0,0,0,0,0,0,0,0,0,0,.1,0,.2.1,0,0,.2.2.3.3,0,0,0,0,0,0,0,0,0,0,.1.1,0,0,.1.2.2.3,0,0,0,0,0,.1,0,.1.2.3.2.4,0,.1.1.2.2.3,0,.2.1.3.2.5,0,0,0,.2,0,.3,0,0,0,0,0,.1,0,0,0,.1,0,.2,0,0,0,.2,0,.3,0,.1,0,.3,0,.4,0,0,0,0,0,0v3.3s.6,38.2.6,38.2v3.3c0,.1,0,.2,0,.3,0,.1,0,.2,0,.3,0,0,0,.1,0,.2,0,0,0,0,0,0,0,0,0,0,0,0,0,0,0,.2,0,.3,0,0,0,.2,0,.3,0,0,0,0,0,.1,0,0,0,0,0,0,0,0,0,0,0,.1,0,0,0,.2-.1.3,0,0,0,.2-.1.3,0,0,0,0,0,0,0,0,0,0,0,0,0,0,0,.1,0,.2,0,0-.1.2-.2.3,0,0,0,.1-.1.2,0,0,0,0,0,0,0,0,0,0,0,0,0,.1-.2.2-.3.3,0,0,0,0-.1.1,0,0,0,0-.1.1,0,0,0,0,0,0,0,0,0,0-.1,0-.2.2-.4.3-.6.4,0,0-.2,0-.2.1-.3.1-.6.3-.9.3l.2,13.9c0,.4,0,.9.1,1.3,0,0,0,.1,0,.2,0,.2.1.5.2.7,0,.2.1.4.2.6,0,.2.2.4.3.6,0,.2.2.4.3.5.2.3.4.6.7.9,0,0,0,0,0,.1.3.3.6.6.9.8M45.5,102.6h0s0,0,0,0c0,0,0,0,0,0M55.7,10.8h-.2c-.1,0-.3,0-.4,0h-2.6c0,0,0,0,0,0h-2.7c0,0,0,0,0,0-1.6,0-3,.2-4.4.6-7.6,2.1-12.9,8.4-15.3,18.1-1.6,6.6-1.6,13.2-1.4,17.3-2.1,1.2-3.5,3.5-3.4,6.2v7c0,0,.5,30.9.5,30.9v3.6c0,0,0,3.3,0,3.3,0,3,1.9,5.5,4.4,6.4l.2,12c.2,12.6,9.6,22.8,21.1,22.8h.2s31.7-.3,31.7-.3h5.4c.4-.2.9-.2,1.4-.3.1,0,.2,0,.3,0h0c.3,0,.6-.1.9-.2.1,0,.3,0,.4,0h.1c.3-.1.5-.2.8-.2.1,0,.3,0,.4-.2h0c.2-.1.5-.2.7-.3.1,0,.3-.1.4-.2h0c.2-.1.4-.2.6-.3.2,0,.3-.2.5-.3.2-.1.4-.2.6-.4.2,0,.3-.2.5-.3.2-.1.4-.3.5-.4.2-.1.3-.2.4-.3.2-.1.3-.3.5-.4h0c0-.1.1-.2.2-.2,0,0,0,0,.1-.1.4-.4.9-.8,1.3-1.3,0,0,0,0,.1-.1,0,0,0,0,.1-.1.4-.4.7-.8,1-1.3,0,0,0,0,0-.1,0,0,0-.1.1-.2.3-.4.7-.9.9-1.4,0,0,0,0,0-.1,0,0,0,0,0-.1.3-.5.6-1,.9-1.5,0,0,0,0,0,0h0c.3-.7.6-1.3.9-1.9h0c0,0,0,0,0,0,0,0,0,0,0,0,.3-.6.6-1.3.9-1.9h0c0,0,0-.2,0-.2.2-.4.3-.7.4-1.1,0,0,0,0,0,0,.1-.3.2-.6.3-.9h0c0-.1,0-.2,0-.2.1-.4.3-.7.4-1.1h0c0,0,0-.1,0-.1.1-.3.2-.6.3-.9,0,0,0,0,0,0h0s0,0,0,0c0,0,0,0,0,0h0s0-.4,0-.4v-.2s.1-.3.1-.3h0c0-.1,0-.4,0-.4,0,0,0,0,0,0h0c0-.1,0-.2,0-.2l17.2-76.5s0,0,0,0c0-.1,0-.2,0-.3,0-.5.2-1,.2-1.5,0,0,0-.1,0-.2,0,0,0-.2,0-.3h0c0-.1,0-.3,0-.3,0-.3,0-.5,0-.7,0-.1,0-.2,0-.3h0c0-.3,0-.5,0-.7h0c0-.2,0-.4,0-.5,0-.2,0-.3,0-.4v-.2s0,0,0,0c0-.2,0-.5,0-.7h0c0-.1,0-.2,0-.3,0-.1,0-.3,0-.4h0c0-.6-.1-1-.2-1.4h0c0-.2,0-.3,0-.4,0-.1,0-.2,0-.3h0c0-.4-.2-.6-.2-.9,0-.3-.2-.5-.3-.8,0-.3-.2-.5-.3-.8-.1-.3-.2-.5-.3-.8-.1-.3-.2-.5-.4-.7-.1-.2-.2-.5-.4-.7-.1-.2-.3-.5-.4-.7h0c0-.2-.1-.3-.2-.4,0,0-.1-.2-.2-.2-.4-.6-.8-1.1-1.2-1.6,0,0,0,0-.1-.1,0,0-.1-.1-.2-.2,0,0,0,0,0,0-.3-.4-.6-.7-.9-1,0,0-.1-.1-.2-.2,0,0-.1-.1-.2-.2h0c-.3-.3-.5-.6-.8-.8h0c0-.1-.1-.2-.2-.2,0,0-.1,0-.2-.1-.3-.3-.7-.5-1-.8h0c0,0-.1-.1-.2-.2,0,0,0,0,0,0-.4-.3-.9-.6-1.4-.9h0c-.3-.3-.7-.5-1-.7-.2-.1-.5-.3-.8-.4-.1,0-.2-.1-.3-.2h-.1c-.3-.2-.7-.4-1-.6h-.1c0-.1-.2-.2-.3-.2,0,0-.2,0-.3-.1h-.1c-.4-.2-.7-.4-1.1-.5h-.2c-.1-.1-.2-.2-.3-.2,0,0-.2,0-.2,0h0c-.4-.2-.9-.3-1.3-.5,0,0-.1,0-.2,0-.1,0-.2,0-.3-.1,0,0-.1,0-.2,0-.8-.2-1.5-.4-2.2-.6,0,0,0,0,0,0,0,0,0,0-.2,0-.7-.2-1.4-.3-2.2-.4h0c0,0-.2,0-.2,0-.1,0-.2,0-.3,0h0c-.9-.2-1.8-.3-2.6-.3l-40.4-4h0s-.2,0-.2,0c-.8,0-1.6-.1-2.3-.1h-.2ZM55.3,30.1c.3-.2.5-.3.8-.4h0s0,0,0,0c0,0,0,0,0,0l43.1,3.8c.8,0,1.5.5,2.1,1.2.7.9.9,2.1.7,3.2l-16.9,76.1c-.8,3.8-3.8,6.7-7.3,7.2l-20.5.2h0c-.3,0-.5,0-.8,0,0,0,0,0,0,0-.2,0-.5-.1-.7-.2,0,0,0,0,0,0-.2-.1-.5-.3-.7-.4h0c-.2-.1-.4-.3-.6-.6h0c-.2-.3-.3-.5-.5-.7,0,0,0-.1,0-.2,0,0,0-.1-.1-.2v-.2c-.1,0-.2-.2-.2-.3,0,0,0-.1,0-.2,0,0,0-.2,0-.2v-.2c0-.1-.1-.2-.2-.3v-.2c0-.4-.1-.6-.1-.9l-.2-12.6s0,0,0,0c.3-.2.5-.3.8-.5,0,0,.2-.1.3-.2,0,0,0,0,.2-.2,0,0,0,0,.1-.1,0,0,.1-.1.2-.2.1-.1.3-.3.4-.4,0,0,0,0,0-.1,0,0,0,0,0,0,0,0,.1-.2.2-.2,0-.1.2-.3.2-.4,0,0,0-.2.1-.2h0c0,0,0-.1,0-.2,0-.1.1-.2.2-.4,0-.1,0-.2.1-.4,0,0,0-.1,0-.2h0c0-.1,0-.2,0-.2,0-.1,0-.2,0-.4,0-.1,0-.3,0-.4,0,0,0,0,0-.1h0c0-.2,0-.2,0-.3,0-.1,0-.3,0-.5,0-.1,0-.3,0-.4v-3.3s-.6-38.2-.6-38.2v-3.3s0-.1,0-.1c0-.2,0-.4,0-.6,0,0,0-.2,0-.3h0c0-.2,0-.2,0-.3,0,0,0-.1,0-.2,0-.1,0-.3-.1-.4,0-.2-.1-.4-.2-.7,0-.1-.1-.3-.2-.4,0-.2-.2-.4-.3-.6,0,0,0-.2-.1-.3,0-.1-.2-.2-.2-.3h0c0-.1,0-.2-.1-.2,0,0,0-.1-.1-.2,0-.1-.2-.3-.4-.4,0,0-.1-.1-.2-.2,0,0,0,0,0,0,0,0,0,0,0,0,0,0,0,0-.1,0-.1,0-.2-.2-.4-.3-.1,0-.2-.2-.4-.2,0,0,0,0,0,0,0,0,0,0,0,0,0,0-.1,0-.2-.1,0,0-.2,0-.3-.1v-9.8c-.1-.2-.1-.4-.1-.7v-.2c0-.3,0-.5,0-.7h0c0-.3,0-.5.1-.7h0c0,0,0-.1,0-.1,0-.2.1-.4.2-.6h0c0,0,0-.1,0-.1,0-.2.2-.4.2-.6,0,0,0,0,0,0,0-.2.2-.4.3-.5h0c0-.3.2-.4.3-.6h0c0,0,0-.2,0-.2,0-.1.2-.2.3-.4h0c0-.1,0-.2,0-.2,0,0,0,0,.1-.1.1-.1.3-.3.4-.4h.1c.3-.3.5-.5.8-.7,0,0,0,0,0,0h0Z" class="st2"></path>
      <path d="M36.4,65.6c.9,0,1.7.8,1.7,1.8l.2,13.6c0,1-.7,1.8-1.6,1.8s-1.7-.8-1.7-1.8l-.2-13.6c0-1,.7-1.8,1.6-1.8Z" class="st2"></path>
      <path d="M50.1,13c.9,0,1.8,0,2.8.1l40.4,4c4.8.5,9.6,1.8,13.9,4.3,6.1,3.5,11.7,9.8,9.9,20.2l-17.2,76.5c-.2.9-4.3,18.6-16.5,18.9l-31.7.3c-10.5.1-19.1-9.2-19.3-20.8l-.2-13.6h12.4c.3-.1.6-.2.9-.2l.2,13.9c0,3.8,2.9,6.9,6.4,6.9l25-.2c4.8,0,8.9-3.7,10.1-8.8l16.9-76.1c.7-3.3-1.4-6.6-4.5-6.9l-45.8-4c-.3,0-.5,0-.8,0-4.8,0-8.6,4.4-8.6,9.7l.2,11.1c-.2,0-.5,0-.7,0h-12.4c-.3.1-.5.2-.8.2-.5-6.6-1.3-30.3,15.1-34.8,1.4-.4,2.8-.5,4.3-.6Z" class="st2"></path>
      <path d="M45.1,48.2c.9,0,5.2,0,5.2,0" class="st2"></path>
      <line y2="102" x2="52" y1="102.6" x1="45.6" class="st2"></line>
      <polyline points="53.8 56.1 44.8 57.9 27.3 57.9" class="st2"></polyline>
      <polyline points="53.8 90.6 44.8 92.4 27.8 92.4" class="st2"></polyline>
    </g>
  </g>
  <path d="M102.3,12.5s31.3,5.4,26.3,30.1l-5.6,24.6" class="st1"></path>
  <path d="M26.5,116.7s1.6,21.6,18.5,25.7l12.9.2" class="st4"></path>
</svg>