<svg viewBox="0 0 150.1 150.1" version="1.1" xmlns="http://www.w3.org/2000/svg" id="ICONS">
  
  <defs>
    <style>
      .st0, .st1, .st2, .st3, .st4, .st5, .st6, .st7, .st8, .st9 {
        fill: none;
      }

      .st1, .st2, .st3, .st4, .st6, .st7, .st8, .st9 {
        stroke: #221f20;
      }

      .st1, .st2, .st3, .st6, .st8 {
        stroke-width: .8px;
      }

      .st1, .st3, .st4, .st5, .st8, .st9 {
        stroke-linecap: round;
      }

      .st1, .st6, .st7 {
        stroke-miterlimit: 10;
      }

      .st3, .st4, .st5, .st8, .st9 {
        stroke-linejoin: round;
      }

      .st4, .st7 {
        stroke-width: .5px;
      }

      .st10 {
        fill: #221f20;
      }

      .st5 {
        stroke: #231f20;
      }

      .st8 {
        stroke-dasharray: 0 0 0 0 0 3;
      }
    </style>
  </defs>
  <rect height="149.6" width="149.6" y=".2" x=".2" class="st0"></rect>
  <g>
    <g>
      <g>
        <path d="M87.6,40.4l11,.5c.9,0,1.6.8,1.5,1.7l-1.9,38c1.5,2.2,1.8,5.2,1.8,5.2,1.7,11.2-7.2,12.5-10.4,12.6-1.2,0-2.3.4-3.3,1-5.9,3.5-12.8,13.7-19.2,15-7.3,1.6-12.1-9.2-12.1-9.2" class="st5"></path>
        <path d="M96.4,96.3s-8.4-3.9-7.7-11.2c0,0,6.9-2.2,11.3,1.4,0,0,1.1,7-3.6,9.8Z" class="st4"></path>
        <path d="M55.9,105.3c0,.6,0,1.3.3,1.9,0,0,1.5,4.1,5,6.3,0,0,3.3,2.3,7.6.4-1.1-6.6-5.4-10.1-8.4-11.8" class="st4"></path>
      </g>
      <g>
        <path d="M77.6,88.9c-1.2,0-2.3.4-3.3,1-5.9,3.5-12.8,13.7-19.2,15-7.3,1.6-10.7-6.7-10.7-6.7-2.7-5.4,5.5-11.5,5.5-11.5l13.7-12.2c3.6-3.1,3.3-4.3,3.3-4.3l1.9-38c0-.9.8-1.6,1.7-1.5l16,.8c.9,0,1.6.8,1.5,1.7l-1.9,38c1.5,2.2,1.8,5.2,1.8,5.2,1.7,11.2-7.2,12.5-10.4,12.6Z" class="st9"></path>
        <path d="M84.3,86.8s-8.4-3.9-7.7-11.2c0,0,6.9-2.2,11.3,1.4,0,0,1.1,7-3.6,9.8Z" class="st4"></path>
        <path d="M56.8,104.4c-1.7-10.3-11.3-13.1-11.3-13.1,0,0-2.5,3.5-1.3,6.4,0,0,1.5,4.1,5,6.3,0,0,3.3,2.3,7.6.4Z" class="st7"></path>
      </g>
    </g>
    <g>
      <g>
        <path d="M87.6,40.4l11,.5c.9,0,1.6.8,1.5,1.7l-1.9,38c1.5,2.2,1.8,5.2,1.8,5.2,1.7,11.2-7.2,12.5-10.4,12.6-1.2,0-2.3.4-3.3,1-5.9,3.5-12.8,13.7-19.2,15-7.3,1.6-12.1-9.2-12.1-9.2" class="st2"></path>
        <path d="M96.4,96.3s-8.4-3.9-7.7-11.2c0,0,6.9-2.2,11.3,1.4,0,0,1.1,7-3.6,9.8Z" class="st2"></path>
        <path d="M55.9,105.3c0,.6,0,1.3.3,1.9,0,0,1.5,4.1,5,6.3,0,0,3.3,2.3,7.6.4-1.1-6.6-5.4-10.1-8.4-11.8" class="st2"></path>
      </g>
      <g>
        <path d="M77.6,88.9c-1.2,0-2.3.4-3.3,1-5.9,3.5-12.8,13.7-19.2,15-7.3,1.6-10.7-6.7-10.7-6.7-2.7-5.4,5.5-11.5,5.5-11.5l13.7-12.2c3.6-3.1,3.3-4.3,3.3-4.3l1.9-38c0-.9.8-1.6,1.7-1.5l16,.8c.9,0,1.6.8,1.5,1.7l-1.9,38c1.5,2.2,1.8,5.2,1.8,5.2,1.7,11.2-7.2,12.5-10.4,12.6Z" class="st2"></path>
        <path d="M84.3,86.8s-8.4-3.9-7.7-11.2c0,0,6.9-2.2,11.3,1.4,0,0,1.1,7-3.6,9.8Z" class="st2"></path>
        <path d="M56.8,104.4c-1.7-10.3-11.3-13.1-11.3-13.1,0,0-2.5,3.5-1.3,6.4,0,0,1.5,4.1,5,6.3,0,0,3.3,2.3,7.6.4Z" class="st2"></path>
      </g>
    </g>
  </g>
  <path d="M77.6,88.9c-1.2,0-2.3.4-3.3,1-5.9,3.5-12.8,13.7-19.2,15-7.3,1.6-10.7-6.7-10.7-6.7-2.7-5.4,5.5-11.5,5.5-11.5l13.7-12.2c3.6-3.1,3.3-4.3,3.3-4.3l1.9-38c0-.9.8-1.6,1.7-1.5l16,.8c.9,0,1.6.8,1.5,1.7l-1.9,38c1.5,2.2,1.8,5.2,1.8,5.2,1.7,11.2-7.2,12.5-10.4,12.6Z" class="st3"></path>
  <path d="M70.5,30.7s0,0,0,0l16,.8c.9,0,1.6.8,1.5,1.7l-.4,7.3,10.9.5c.9,0,1.6.8,1.5,1.7l-1.9,38c1.5,2.2,1.8,5.2,1.8,5.2,1.7,11.2-7.2,12.5-10.4,12.6-1.2,0-2.3.4-3.3,1-5.9,3.5-12.8,13.7-19.2,15-.5.1-1,.2-1.4.2-6.5,0-10.6-9.4-10.6-9.4v-.3c.1,0,0,0,0,0-.6.1-1.2.2-1.8.2-6,0-8.9-6.9-8.9-6.9-2.7-5.4,5.5-11.5,5.5-11.5l13.7-12.2c3.6-3.1,3.3-4.3,3.3-4.3l1.9-38c0-.9.8-1.5,1.6-1.5M70.5,30c-1.3,0-2.3,1-2.4,2.2l-1.9,38s0,0,0,.1c0,.1-.3,1.2-3.1,3.6l-13.7,12.2c-.6.5-8.6,6.6-5.7,12.4.2.6,3.2,7.4,9.5,7.4s.8,0,1.2,0c.8,1.7,4.9,9.5,11.2,9.5s1.1,0,1.6-.2c4.1-.9,8.2-4.9,12.1-8.8,2.6-2.6,5.1-5,7.4-6.4.9-.5,1.9-.8,2.9-.9,2.3,0,6.5-.7,9.1-3.8,1.9-2.3,2.6-5.6,2-9.6,0,0-.3-3-1.8-5.3l1.9-37.7c0-.6-.2-1.2-.6-1.7-.4-.5-1-.7-1.6-.8l-10.1-.5.3-6.6c0-.6-.2-1.2-.6-1.7-.4-.5-1-.7-1.6-.8l-16-.8s0,0-.1,0h0Z" class="st10"></path>
  <path d="M84.3,86.8s-8.4-3.9-7.7-11.2c0,0,6.9-2.2,11.3,1.4,0,0,1.1,7-3.6,9.8Z" class="st3"></path>
  <path d="M56.8,104.4c-1.7-10.3-11.3-13.1-11.3-13.1,0,0-2.5,3.5-1.3,6.4,0,0,1.5,4.1,5,6.3,0,0,3.3,2.3,7.6.4Z" class="st6"></path>
  <g>
    <g>
      <line y2="26.2" x2="64.1" y1="26.2" x1="61.6" class="st1"></line>
      <line y2="26.2" x2="59.2" y1="26.2" x1="56.8" class="st1"></line>
    </g>
    <g>
      <line y2="22.6" x2="60.4" y1="25.1" x1="60.4" class="st1"></line>
      <line y2="27.4" x2="60.4" y1="29.8" x1="60.4" class="st1"></line>
    </g>
  </g>
  <polyline points="62.3 52.6 61.6 65.4 48.5 77.3" class="st8"></polyline>
  <path d="M106.4,65l-1,13.9s5.9,11.3-1.3,21.9c0,0-3.1,5.5-12.8,4.3" class="st1"></path>
  <circle r=".4" cy="62.4" cx="106.6" class="st10"></circle>
</svg>