<svg viewBox="0 0 150.1 150.1" version="1.1" xmlns="http://www.w3.org/2000/svg" id="ICONS">
  
  <defs>
    <style>
      .st0, .st1, .st2, .st3, .st4, .st5 {
        fill: none;
      }

      .st1, .st2, .st3, .st4 {
        stroke: #221f20;
      }

      .st1, .st2, .st4 {
        stroke-width: .8px;
      }

      .st1, .st3, .st5 {
        stroke-miterlimit: 10;
      }

      .st1, .st4 {
        stroke-linecap: round;
      }

      .st6 {
        fill: #221f20;
      }

      .st7 {
        fill: #000201;
      }

      .st3, .st5 {
        stroke-width: .3px;
      }

      .st4 {
        stroke-dasharray: 0 0 0 0 0 3;
        stroke-linejoin: round;
      }

      .st5 {
        stroke: #020403;
      }
    </style>
  </defs>
  <rect height="149.6" width="149.6" y=".2" x=".2" class="st0"></rect>
  <rect transform="translate(150.1 0) rotate(90)" height="129.6" width="129.6" y="10.2" x="10.2" class="st0"></rect>
  <g>
    <g>
      <line y2="15.5" x2="124.3" y1="15.5" x1="121.8" class="st1"></line>
      <line y2="15.5" x2="119.4" y1="15.5" x1="117" class="st1"></line>
    </g>
    <g>
      <line y2="11.9" x2="120.6" y1="14.3" x1="120.6" class="st1"></line>
      <line y2="16.6" x2="120.6" y1="19.1" x1="120.6" class="st1"></line>
    </g>
  </g>
  <g>
    <g>
      <path d="M31.6,22.7s.3,7.7-.5,10.3c0,0-4.5,14.2-6.5,27.6l-3.4,27.6s-1.2,12.3-.9,19.9c0,0,1.5,13.2.3,18.8v7.9s9.1,8.4,31,2.9l8.3-3s3.9-.1,6.7-2.7l.5-.6v5.7c0,0,3.4,3.1,19.4,1.2l12.9-1.2s4.8-.5,10.3-2.4l7.1-2.6s1.2-.1,2.1-1.5c0,0,.7-1.7,3.6-2.1,0,0,5.3-1.5,7-1.4,0,0-1-2.4-1.4-6.4s-3.4-21.8-3.4-21.8l-3-21.5s-2-8.8-1.8-15.7c0,0-1-14.9-2.1-17.4l-5.3-16.3s.5-2.7-1.4-3.8l-1.8-9.8s-.2-3.7-5.6-4.1l-23,2.6-29,3.5s-19.6,1.4-20.2,6.3Z" class="st3"></path>
      <path d="M103.9,10.4c5.4.4,5.6,4.1,5.6,4.1l1.8,9.8c1.8,1.2,1.4,3.8,1.4,3.8l5.3,16.3c1,2.5,2.1,17.4,2.1,17.4-.2,6.8,1.8,15.7,1.8,15.7l3,21.5s3,17.8,3.4,21.8c.4,4,1.4,6.4,1.4,6.4,0,0-.1,0-.2,0-1.9,0-6.8,1.4-6.8,1.4-3,.4-3.6,2.1-3.6,2.1-1,1.4-2.1,1.5-2.1,1.5l-7.1,2.6c-5.5,1.9-10.3,2.4-10.3,2.4l-12.9,1.2c-3.7.4-6.8.6-9.3.6-8.1,0-10.1-1.8-10.1-1.8v-5.7c0,0-.6.6-.6.6-2.8,2.6-6.7,2.7-6.7,2.7l-8.3,3c-5.4,1.3-10,1.9-13.9,1.9-11.9,0-17.1-4.8-17.1-4.8v-7.9c1.2-5.5-.3-18.8-.3-18.8-.3-7.6.9-19.9.9-19.9l3.4-27.6c2-13.4,6.5-27.6,6.5-27.6.8-2.5.5-10.3.5-10.3.6-4.9,20.2-6.3,20.2-6.3l29-3.5,23-2.6M103.9,8.4c0,0-.1,0-.2,0l-23,2.6-29,3.5c-.6,0-5.2.4-10.1,1.3-7.9,1.5-11.5,3.6-11.9,6.7,0,.1,0,.2,0,.3.1,2.9,0,8-.4,9.6,0,.2-4.5,14.5-6.5,27.9,0,0,0,0,0,0l-3.4,27.6s0,0,0,0c0,.5-1.2,12.5-.9,20.2,0,0,0,0,0,.1,0,.1,1.4,13,.3,18.1,0,.1,0,.3,0,.4v7.9c0,.6.2,1.1.6,1.5.2.2,5.9,5.3,18.5,5.3s9.3-.6,14.3-1.9c0,0,.1,0,.2,0l8-2.9c.8,0,2.8-.3,4.9-1.3v1.8c0,.5.3,1.1.6,1.4.6.6,3.2,2.4,11.4,2.4s6-.2,9.5-.6l12.9-1.2c.2,0,5.2-.5,10.8-2.5l6.9-2.5c.7-.1,2.1-.6,3.3-2.3.1-.2.1-.2.2-.3.1-.2.6-.7,2.1-1,0,0,.2,0,.2,0,1.8-.5,5.1-1.3,6.3-1.3h0s0,0,.1,0c.6,0,1.3-.3,1.6-.8.4-.6.5-1.3.2-1.9,0,0-.9-2.2-1.3-5.8-.4-4-3.3-21.2-3.4-21.9l-3-21.4c0,0,0-.1,0-.2,0,0-1.9-8.7-1.8-15.2,0,0,0-.1,0-.2-.2-2.5-1.1-15.1-2.2-18l-5.2-15.9c.1-1.3-.2-3.3-1.6-4.7l-1.6-8.9c-.2-1.9-1.9-5.4-7.4-5.8,0,0-.1,0-.2,0h0Z" class="st6"></path>
      <path d="M31.6,22.7s3.7,5,18.4,2.8l31.1-6s18.5-3.8,20.7-4.2c0,0,3.4-.3,5.9-3.2l.2-.3" class="st5"></path>
      <path d="M31,33.4s6.1,4.6,15.4,4.1l27.4-4.1s18.7-4.6,26.4-5.4c0,0,9.6-3.1,11-4.5" class="st5"></path>
      <path d="M50.5,37s-1.3,5.7-1.1,8.2c0,0-6.9,7.4-6,17.1,0,0-1.8,11.3,1.5,19.8l6.8,19.6s6.7,12.9,14.5,19.8c0,0,0,7.1.6,9l.3,1.1" class="st5"></path>
      <path d="M43.4,38s-2.9,6.8-3.1,9.5c0,0-4.1,12.9-4.2,16.3,0,0-.9,9.6,1.6,18.4l4.5,16.6s1.1,3.2,4.9,3.5l3.3.6,2.5,4.6s1.5,1.1,3.6,1.9" class="st5"></path>
      <path d="M44.7,38s-2.5,6.7-2.7,9.3c0,0-4.8,10.9-5.1,19.7,0,0-.1,8.8,2.2,14.7,0,0,.8,5.8,1.6,9l2.5,8s.6,3.3,8.1,2.2" class="st5"></path>
      <ellipse ry="1.5" rx=".9" cy="58.3" cx="40.2" class="st5"></ellipse>
      <ellipse transform="translate(-16.6 12.1) rotate(-14.7)" ry="1.5" rx=".9" cy="70.6" cx="38.9" class="st5"></ellipse>
      <ellipse transform="translate(-19.5 13.1) rotate(-14.7)" ry="1.5" rx=".9" cy="82.2" cx="41.1" class="st5"></ellipse>
      <path d="M62.6,118s-2.7-.8-6.5,2.3c0,0-1.8,3-12,4.6" class="st5"></path>
      <path d="M43.8,126.2s5.9.6,13.2-3.8c0,0,5-3.1,9.2-1" class="st5"></path>
      <path d="M20.8,130.3s9.6.7,15.2,2.6c0,0,10.3.9,16.8-2,0,0,3.2-2.1,7-2.4,0,0,4.6-2,6.6-1.6" class="st5"></path>
      <path d="M20.8,132.1s9.6.7,15.2,2.6c0,0,10.3.9,16.8-2,0,0,3.2-2.1,7-2.4,0,0,4.6-2,6.6-1.6" class="st5"></path>
      <path d="M67.2,131.3s4.2,2.2,12.5.4c0,0,7.9,0,13.3-1,0,0,8.1,0,13.1-1.6l9.7-3.6s3.4-2.8,8.2-4.1l4.3-.3" class="st5"></path>
      <path d="M67.2,133.2s4.2,2.2,12.5.4c0,0,7.9,0,13.3-1,0,0,8.1,0,13.1-1.6l9.7-3.6s3.4-2.8,8.2-4.1l4.3-.3" class="st5"></path>
      <path d="M41.2,26.1c.6-.2,3.4-2.3,17.9-2.3" class="st5"></path>
    </g>
    <g>
      <path d="M31.6,22.7s.3,7.7-.5,10.3c0,0-4.5,14.2-6.5,27.6l-3.4,27.6s-1.2,12.3-.9,19.9c0,0,1.5,13.2.3,18.8v7.9s9.1,8.4,31,2.9l8.3-3s3.9-.1,6.7-2.7l.5-.6v5.7c0,0,3.4,3.1,19.4,1.2l12.9-1.2s4.8-.5,10.3-2.4l7.1-2.6s1.2-.1,2.1-1.5c0,0,.7-1.7,3.6-2.1,0,0,5.3-1.5,7-1.4,0,0-1-2.4-1.4-6.4s-3.4-21.8-3.4-21.8l-3-21.5s-2-8.8-1.8-15.7c0,0-1-14.9-2.1-17.4l-5.3-16.3s.5-2.7-1.4-3.8l-1.8-9.8s-.2-3.7-5.6-4.1l-23,2.6-29,3.5s-19.6,1.4-20.2,6.3Z" class="st2"></path>
      <g>
        <path d="M37.8,140.7c-12.2,0-17.6-4.8-17.8-5-.2-.2-.3-.5-.3-.7v-7.9c0,0,0-.1,0-.2,1.1-5.3-.3-18.3-.3-18.4-.3-7.7.9-20,.9-20.1l3.4-27.7c2-13.4,6.4-27.7,6.5-27.8.6-1.9.6-7.8.5-9.9,0,0,0-.1,0-.2.3-2.5,3.9-4.5,11.1-5.8,5-1,9.9-1.3,10-1.3l29-3.5,23-2.6s0,0,.1,0,0,0,0,0c4.9.4,6.4,3.4,6.5,5l1.7,9.3c1.6,1.3,1.5,3.5,1.5,4.3l5.2,16.1c1,2.5,2,16.1,2.1,17.7-.2,6.7,1.8,15.4,1.8,15.5l3.1,21.5c.1.7,3,17.9,3.4,21.8.4,3.8,1.3,6.1,1.4,6.1.1.3,0,.7-.1,1-.2.3-.5.4-.8.4s-.2,0-.2,0c-1.4,0-5.2,1-6.5,1.3,0,0,0,0-.1,0-2.3.3-2.9,1.5-2.9,1.5,0,0,0,.1,0,.2-1,1.5-2.3,1.8-2.7,1.9l-7,2.5c-5.5,2-10.3,2.4-10.5,2.5l-12.9,1.2c-3.4.4-6.6.6-9.4.6-8.3,0-10.5-1.9-10.8-2.1-.2-.2-.3-.4-.3-.7v-3.5c-2.6,1.7-5.4,2-6.1,2.1l-8.1,2.9s0,0,0,0c-5,1.2-9.7,1.9-14.1,1.9h0Z" class="st2"></path>
        <path d="M103.9,10.4c5.4.4,5.6,4.1,5.6,4.1l1.8,9.8c1.8,1.2,1.4,3.8,1.4,3.8l5.3,16.3c1,2.5,2.1,17.4,2.1,17.4-.2,6.8,1.8,15.7,1.8,15.7l3,21.5s3,17.8,3.4,21.8c.4,4,1.4,6.4,1.4,6.4,0,0-.1,0-.2,0-1.9,0-6.8,1.4-6.8,1.4-3,.4-3.6,2.1-3.6,2.1-1,1.4-2.1,1.5-2.1,1.5l-7.1,2.6c-5.5,1.9-10.3,2.4-10.3,2.4l-12.9,1.2c-3.7.4-6.8.6-9.3.6-8.1,0-10.1-1.8-10.1-1.8v-5.7c0,0-.6.6-.6.6-2.8,2.6-6.7,2.7-6.7,2.7l-8.3,3c-5.4,1.3-10,1.9-13.9,1.9-11.9,0-17.1-4.8-17.1-4.8v-7.9c1.2-5.5-.3-18.8-.3-18.8-.3-7.6.9-19.9.9-19.9l3.4-27.6c2-13.4,6.5-27.6,6.5-27.6.8-2.5.5-10.3.5-10.3.6-4.9,20.2-6.3,20.2-6.3l29-3.5,23-2.6M103.9,8.4c0,0-.1,0-.2,0l-23,2.6-29,3.5c-.6,0-5.2.4-10.1,1.3-7.9,1.5-11.5,3.6-11.9,6.7,0,.1,0,.2,0,.3.1,2.9,0,8-.4,9.6,0,.2-4.5,14.5-6.5,27.9,0,0,0,0,0,0l-3.4,27.6s0,0,0,0c0,.5-1.2,12.5-.9,20.2,0,0,0,0,0,.1,0,.1,1.4,13,.3,18.1,0,.1,0,.3,0,.4v7.9c0,.6.2,1.1.6,1.5.2.2,5.9,5.3,18.5,5.3s9.3-.6,14.3-1.9c0,0,.1,0,.2,0l8-2.9c.8,0,2.8-.3,4.9-1.3v1.8c0,.5.3,1.1.6,1.4.6.6,3.2,2.4,11.4,2.4s6-.2,9.5-.6l12.9-1.2c.2,0,5.2-.5,10.8-2.5l6.9-2.5c.7-.1,2.1-.6,3.3-2.3.1-.2.1-.2.2-.3.1-.2.6-.7,2.1-1,0,0,.2,0,.2,0,1.8-.5,5.1-1.3,6.3-1.3h0s0,0,.1,0c.6,0,1.3-.3,1.6-.8.4-.6.5-1.3.2-1.9,0,0-.9-2.2-1.3-5.8-.4-4-3.3-21.2-3.4-21.9l-3-21.4c0,0,0-.1,0-.2,0,0-1.9-8.7-1.8-15.2,0,0,0-.1,0-.2-.2-2.5-1.1-15.1-2.2-18l-5.2-15.9c.1-1.3-.2-3.3-1.6-4.7l-1.6-8.9c-.2-1.9-1.9-5.4-7.4-5.8,0,0-.1,0-.2,0h0Z" class="st2"></path>
      </g>
      <path d="M31.6,22.7s3.7,5,18.4,2.8l31.1-6s18.5-3.8,20.7-4.2c0,0,3.4-.3,5.9-3.2l.2-.3" class="st2"></path>
      <path d="M31,33.4s6.1,4.6,15.4,4.1l27.4-4.1s18.7-4.6,26.4-5.4c0,0,9.6-3.1,11-4.5" class="st2"></path>
      <path d="M50.5,37s-1.3,5.7-1.1,8.2c0,0-6.9,7.4-6,17.1,0,0-1.8,11.3,1.5,19.8l6.8,19.6s6.7,12.9,14.5,19.8c0,0,0,7.1.6,9l.3,1.1" class="st2"></path>
      <path d="M43.4,38s-2.9,6.8-3.1,9.5c0,0-4.1,12.9-4.2,16.3,0,0-.9,9.6,1.6,18.4l4.5,16.6s1.1,3.2,4.9,3.5l3.3.6,2.5,4.6s1.5,1.1,3.6,1.9" class="st2"></path>
      <path d="M44.7,38s-2.5,6.7-2.7,9.3c0,0-4.8,10.9-5.1,19.7,0,0-.1,8.8,2.2,14.7,0,0,.8,5.8,1.6,9l2.5,8s.6,3.3,8.1,2.2" class="st2"></path>
      <ellipse ry="1.5" rx=".9" cy="58.3" cx="40.2" class="st2"></ellipse>
      <ellipse transform="translate(-16.6 12.1) rotate(-14.7)" ry="1.5" rx=".9" cy="70.6" cx="38.9" class="st2"></ellipse>
      <ellipse transform="translate(-19.5 13.1) rotate(-14.7)" ry="1.5" rx=".9" cy="82.2" cx="41.1" class="st2"></ellipse>
      <path d="M62.6,118s-2.7-.8-6.5,2.3c0,0-1.8,3-12,4.6" class="st2"></path>
      <path d="M43.8,126.2s5.9.6,13.2-3.8c0,0,5-3.1,9.2-1" class="st2"></path>
      <path d="M20.8,130.3s9.6.7,15.2,2.6c0,0,10.3.9,16.8-2,0,0,3.2-2.1,7-2.4,0,0,4.6-2,6.6-1.6" class="st2"></path>
      <path d="M20.8,132.1s9.6.7,15.2,2.6c0,0,10.3.9,16.8-2,0,0,3.2-2.1,7-2.4,0,0,4.6-2,6.6-1.6" class="st2"></path>
      <path d="M67.2,131.3s4.2,2.2,12.5.4c0,0,7.9,0,13.3-1,0,0,8.1,0,13.1-1.6l9.7-3.6s3.4-2.8,8.2-4.1l4.3-.3" class="st2"></path>
      <path d="M67.2,133.2s4.2,2.2,12.5.4c0,0,7.9,0,13.3-1,0,0,8.1,0,13.1-1.6l9.7-3.6s3.4-2.8,8.2-4.1l4.3-.3" class="st2"></path>
      <path d="M41.2,26.1c.6-.2,3.4-2.3,17.9-2.3" class="st2"></path>
    </g>
  </g>
  <path d="M26.4,20.1l-.4,11.9s-5.4,20.1-6.1,32.8" class="st1"></path>
  <path d="M19.4,66.2c0-.2.2-.4.4-.4s.4.2.4.4-.2.4-.4.4-.4-.2-.4-.4Z" class="st7"></path>
  <path d="M134.9,126.4l1.3,5.4s-6.6.6-10.6,4.3c0,0-12.7,6.3-17.4,6.3" class="st4"></path>
</svg>