<svg viewBox="0 0 150.1 150.1" version="1.1" xmlns="http://www.w3.org/2000/svg" id="ICONS">
  
  <defs>
    <style>
      .st0, .st1, .st2, .st3, .st4 {
        fill: none;
      }

      .st1, .st2, .st3, .st4 {
        stroke: #221f20;
      }

      .st1, .st3 {
        stroke-miterlimit: 10;
      }

      .st1, .st3, .st4 {
        stroke-width: .8px;
      }

      .st1, .st4 {
        stroke-linecap: round;
      }

      .st2 {
        stroke-width: .7px;
      }

      .st5 {
        fill: #221f20;
      }

      .st6 {
        fill: #000201;
      }

      .st4 {
        stroke-dasharray: 0 0 0 0 0 3;
        stroke-linejoin: round;
      }
    </style>
  </defs>
  <rect height="149.6" width="149.6" y=".2" x=".2" class="st0"></rect>
  <rect transform="translate(150.1 0) rotate(90)" height="129.6" width="129.6" y="10.2" x="10.2" class="st0"></rect>
  <g>
    <g>
      <line y2="11.8" x2="118.5" y1="11.8" x1="116" class="st1"></line>
      <line y2="11.8" x2="113.6" y1="11.8" x1="111.2" class="st1"></line>
    </g>
    <g>
      <line y2="8.2" x2="114.8" y1="10.6" x1="114.8" class="st1"></line>
      <line y2="12.9" x2="114.8" y1="15.4" x1="114.8" class="st1"></line>
    </g>
  </g>
  <polyline points="42.3 142.3 32.2 137.3 33.5 118.7" class="st1"></polyline>
  <circle r=".4" cy="117.1" cx="33.5" class="st6"></circle>
  <path d="M61.3,6.2h-2.7c-6.2,0-11.2,5-11.2,11.2v4.9" class="st4"></path>
  <g>
    <g>
      <g>
        <path d="M53.5,11.9s-1.1,4.9-.8,6.9c0,0-5.1,14-6.5,26.7,0,0-1.5,15.6-2,25.5l-3.5,45.7-1.7,16.1s2.4,3.5,20,7c0,0,.8.5,1.4-2.3l11.6-39.5,3.4-12.1s1.2-5.1.9-10.1c0,0,.2,5.8,3,16.5l3.1,12.5,3.2,19.3,3.7,15.1s17.4-1.8,20.4-2.7c0,0,1.5.1,1.4-1.9l-2.7-56.6s-.7-36.8-1.8-47.4c0,0-1.6-9.2-2.7-11.5,0,0,.3-4.5-.9-7,0,0-35.9-3.5-49.5,0Z" class="st3"></path>
        <path d="M53.5,11.9s23.8,6.6,49.5,0" class="st3"></path>
        <path d="M52.6,18.7s24.6,6.6,51.3,0" class="st3"></path>
        <g>
          <path d="M67.9,14.2s0,5.4-.4,6.9l-.3,2.7c-.1,1.2-.9,2.2-2,2.7-3.1,1.3-9.6,3.6-15.8,3.2" class="st3"></path>
          <path d="M69.5,14.4s0,5.4-.4,6.9l-.5,3.8c0,.7-.5,1.3-1,1.7-2,1.5-7.5,4.7-18.7,4.6" class="st3"></path>
        </g>
        <path d="M78.7,14.8s-.8,4.8-.4,6.8l-2,54.2" class="st3"></path>
        <circle r="1.3" cy="18.7" cx="80.5" class="st3"></circle>
        <path d="M83.2,21.6l.2,17.6c0,1.5-.4,2.9-1.3,4.1s-2.4,2.4-4.8,2.5" class="st3"></path>
        <path d="M82.3,21.7v17.8s-.1,4.1-4.9,5.4" class="st3"></path>
        <g>
          <path d="M89.7,14.2s0,5.4.4,6.9l.3,2.7c.1,1.2.9,2.2,2,2.7,3.1,1.3,7.7,3.5,14,3.1" class="st3"></path>
          <path d="M88.1,14.4s0,5.4.4,6.9l.5,3.8c0,.7.5,1.3,1,1.7,2,1.5,5.4,4.5,16.6,4.5" class="st3"></path>
        </g>
        <path d="M39,131.8s13.4,5.9,21.2,6.5" class="st3"></path>
        <path d="M111.1,133.9s-18.3,3.3-22.3,2.9" class="st3"></path>
      </g>
      <g>
        <path d="M53.5,11.9s-1.1,4.9-.8,6.9c0,0-5.1,14-6.5,26.7,0,0-1.5,15.6-2,25.5l-3.5,45.7-1.7,16.1s2.4,3.5,20,7c0,0,.8.5,1.4-2.3l11.6-39.5,3.4-12.1s1.2-5.1.9-10.1c0,0,.2,5.8,3,16.5l3.1,12.5,3.2,19.3,3.7,15.1s17.4-1.8,20.4-2.7c0,0,1.5.1,1.4-1.9l-2.7-56.6s-.7-36.8-1.8-47.4c0,0-1.6-9.2-2.7-11.5,0,0,.3-4.5-.9-7,0,0-35.9-3.5-49.5,0Z" class="st2"></path>
        <path d="M53.5,11.9s23.8,6.6,49.5,0" class="st2"></path>
        <path d="M52.6,18.7s24.6,6.6,51.3,0" class="st2"></path>
        <g>
          <path d="M67.9,14.2s0,5.4-.4,6.9l-.3,2.7c-.1,1.2-.9,2.2-2,2.7-3.1,1.3-9.6,3.6-15.8,3.2" class="st2"></path>
          <path d="M69.5,14.4s0,5.4-.4,6.9l-.5,3.8c0,.7-.5,1.3-1,1.7-2,1.5-7.5,4.7-18.7,4.6" class="st2"></path>
        </g>
        <path d="M78.7,14.8s-.8,4.8-.4,6.8l-2,54.2" class="st2"></path>
        <circle r="1.3" cy="18.7" cx="80.5" class="st2"></circle>
        <path d="M83.2,21.6l.2,17.6c0,1.5-.4,2.9-1.3,4.1s-2.4,2.4-4.8,2.5" class="st2"></path>
        <path d="M82.3,21.7v17.8s-.1,4.1-4.9,5.4" class="st2"></path>
        <g>
          <path d="M89.7,14.2s0,5.4.4,6.9l.3,2.7c.1,1.2.9,2.2,2,2.7,3.1,1.3,7.7,3.5,14,3.1" class="st2"></path>
          <path d="M88.1,14.4s0,5.4.4,6.9l.5,3.8c0,.7.5,1.3,1,1.7,2,1.5,5.4,4.5,16.6,4.5" class="st2"></path>
        </g>
        <path d="M39,131.8s13.4,5.9,21.2,6.5" class="st2"></path>
        <path d="M111.1,133.9s-18.3,3.3-22.3,2.9" class="st2"></path>
      </g>
    </g>
    <path d="M72.1,10.3c14.7,0,30.9,1.6,30.9,1.6,1.2,2.4.9,7,.9,7,1.1,2.4,2.7,11.5,2.7,11.5,1.1,10.6,1.8,47.4,1.8,47.4l2.7,56.6c.1,1.8-1.1,1.9-1.4,1.9s0,0,0,0c-3,.9-20.4,2.7-20.4,2.7l-3.7-15.1-3.2-19.3-3.1-12.5c-2.5-9.5-2.9-15.2-3-16.3,0,0,0-.1,0-.2,0,0,0,0,0,.2.2,4.9-.9,9.9-.9,9.9l-3.4,12.1-11.6,39.5c-.5,2.1-1,2.4-1.3,2.4s-.2,0-.2,0c-17.6-3.5-20-7-20-7l1.7-16.1,3.5-45.7c.5-9.9,2-25.5,2-25.5,1.4-12.7,6.5-26.7,6.5-26.7-.3-2,.8-6.9.8-6.9,4.5-1.1,11.4-1.5,18.6-1.5M72.1,8.3c-8.5,0-15,.5-19.1,1.6-.7.2-1.3.8-1.5,1.5-.2.8-1.1,4.7-.9,7.1-.9,2.5-5.2,15.1-6.4,26.8,0,.2-1.5,15.7-2,25.6l-3.5,45.7-1.7,16.1c0,.5,0,1,.3,1.3.7,1,4.2,4.4,21.1,7.7.2,0,.5.1.7.1,2.3,0,3-2.8,3.2-3.9l11.6-39.4,2.6-9.2c.3,1.1.5,2.3.9,3.5l3.1,12.4,3.2,19.2s0,0,0,.1l3.7,15.1c.2.9,1,1.5,1.9,1.5s.1,0,.2,0c1.8-.2,16.9-1.8,20.5-2.7.5,0,1.4-.3,2.1-1,.5-.5,1-1.5.9-3l-2.7-56.5c0-1.9-.7-37.1-1.8-47.6,0,0,0,0,0-.1-.2-.9-1.5-8.6-2.6-11.5,0-1.4,0-5.1-1.2-7.5-.3-.6-.9-1-1.6-1.1-.2,0-16.4-1.6-31.1-1.6h0Z" class="st5"></path>
    <g>
      <g>
        <polygon points="73.5 64.2 72.3 68.5 72 69.5 59.4 112.2 58 113.6 62.6 97.6 70.9 69.2 44.6 63.7 44.7 62.7 71.1 68.3 72.1 65 44.9 59.7 45 58.6 73.5 64.2" class="st5"></polygon>
        <polygon points="62.4 98.6 50.2 95.2 43.1 84.3 43.2 83 50.2 94 62.7 97.6 62.4 98.6" class="st5"></polygon>
      </g>
      <g>
        <polygon points="80.2 64.2 81.4 68.5 81.7 69.5 94.2 112.2 95.7 113.6 91 97.6 82.8 69.2 109.1 63.7 109 62.7 82.6 68.3 81.6 65 108.8 59.7 108.7 58.6 80.2 64.2" class="st5"></polygon>
        <polygon points="91.3 98.6 103.5 95.2 110.6 84.3 110.5 83 103.5 94 91 97.6 91.3 98.6" class="st5"></polygon>
      </g>
    </g>
  </g>
</svg>