<svg viewBox="0 0 150.1 150.1" version="1.1" xmlns="http://www.w3.org/2000/svg" id="ICONS">
  
  <defs>
    <style>
      .st0, .st1, .st2, .st3, .st4, .st5 {
        fill: none;
      }

      .st1 {
        stroke-miterlimit: 10;
      }

      .st1, .st2, .st4, .st5 {
        stroke: #221f20;
      }

      .st1, .st4, .st5 {
        stroke-linecap: round;
        stroke-width: .8px;
      }

      .st2 {
        stroke-width: .7px;
      }

      .st3 {
        stroke: #000;
        stroke-width: .4px;
      }

      .st4, .st5 {
        stroke-linejoin: round;
      }

      .st6 {
        fill: #000201;
      }

      .st5 {
        stroke-dasharray: 0 0 0 0 0 3;
      }
    </style>
  </defs>
  <rect height="149.6" width="149.6" y=".2" x=".2" class="st0"></rect>
  <rect transform="translate(150.1 0) rotate(90)" height="129.6" width="129.6" y="10.2" x="10.2" class="st0"></rect>
  <g>
    <g>
      <line y2="11.8" x2="118.5" y1="11.8" x1="116" class="st1"></line>
      <line y2="11.8" x2="113.6" y1="11.8" x1="111.2" class="st1"></line>
    </g>
    <g>
      <line y2="8.2" x2="114.8" y1="10.6" x1="114.8" class="st1"></line>
      <line y2="12.9" x2="114.8" y1="15.4" x1="114.8" class="st1"></line>
    </g>
  </g>
  <path d="M45.8,142.5l-6.3-.7c-6.1-.7-6.9-5.8-6.2-12l.6-4.9" class="st5"></path>
  <circle r=".4" cy="29.7" cx="42.6" class="st6"></circle>
  <path d="M60.3,6.6h-7.5c-.7-.1-1.4.3-1.6.9l-2,5.4c-.2.6-.6,1.2-1,1.6-1.2,1.2-4,7.9-5.1,13.4" class="st1"></path>
  <g>
    <g>
      <path d="M55,11.6l-1,4.1-.9,1.1s-4.8,17.9-6.3,35.8c-1.5,17.9-7.4,81.3-7.4,81.3l34.3,4.9,3.8-47.5,3.6,47.2,35.6-4.5-3.7-56.7s-1.5-43.4-9.2-60.9l-1.3-4.9h-47.4Z" class="st3"></path>
      <path d="M75.7,11.6s-.7,3.6,0,5.1c0,0-.5,26.1,2.3,32.3l-.9,52.6" class="st4"></path>
      <line y2="16.8" x2="63.8" y1="15.7" x1="54" class="st4"></line>
      <polyline points="65.9 17.1 75.7 17.6 86.5 17.4" class="st4"></polyline>
      <path d="M88.2,17.1s11.4.8,15-.9" class="st4"></path>
      <path d="M86.6,13.4h.8c.3,0,.5.2.5.5l.4,3.9c0,.3-.2.5-.4.5h-.6c-.3.2-.5,0-.6-.3l-.5-4c0-.3.2-.6.5-.6Z" class="st4"></path>
      <path d="M64.4,18.5h.7c.2,0,.4-.2.4-.4l.6-4.5c0-.2-.1-.5-.4-.5h-.8c-.2-.1-.5,0-.5.3l-.5,4.6c0,.3.2.5.4.5Z" class="st4"></path>
      <path d="M110.6,49.9s-10.4,2.2-14.1,2-.5.2-.5.4c0,1.5.1,5.9,1.1,6.3s12.3,0,14.5-1.6" class="st4"></path>
      <path d="M97.4,58.8l1.5,17.8c0,.4.3.7.7.7,2.3.3,9.9.9,13.2-1.4" class="st4"></path>
      <line y2="77.6" x2="105.4" y1="58.7" x1="103.6" class="st4"></line>
      <path d="M46.9,51.9s8.7,1.4,11.8,1.2.8.3.7.8l-.7,6.5s-9.7.5-12.5-1.2" class="st4"></path>
      <path d="M58.4,60.4l-1.7,17.3c0,.5-.5.9-1,.9-2.5,0-9.2-.3-11-1.2" class="st4"></path>
      <line y2="78.4" x2="51.6" y1="60.3" x1="52.9" class="st4"></line>
      <path d="M97.4,17.4l4.4,12.4c.4,1.2,1.6,2,2.9,1.9l3.3-.2" class="st4"></path>
      <path d="M57.8,16.1l-3.4,12c-.2.7-.7,1.2-1.4,1.3l-2.7.5" class="st4"></path>
      <circle r=".9" cy="14.4" cx="78.5" class="st4"></circle>
      <line y2="17.6" x2="78.5" y1="48.9" x1="78.1" class="st4"></line>
    </g>
    <g>
      <path d="M55,11.6l-1,4.1-.9,1.1s-4.8,17.9-6.3,35.8c-1.5,17.9-7.4,81.3-7.4,81.3l34.3,4.9,3.8-47.5,3.6,47.2,35.6-4.5-3.7-56.7s-1.5-43.4-9.2-60.9l-1.3-4.9h-47.4Z" class="st2"></path>
      <path d="M75.7,11.6s-.7,3.6,0,5.1c0,0-.5,26.1,2.3,32.3l-.9,52.6" class="st2"></path>
      <line y2="16.8" x2="63.8" y1="15.7" x1="54" class="st2"></line>
      <polyline points="65.9 17.1 75.7 17.6 86.5 17.4" class="st2"></polyline>
      <path d="M88.2,17.1s11.4.8,15-.9" class="st2"></path>
      <path d="M86.6,13.4h.8c.3,0,.5.2.5.5l.4,3.9c0,.3-.2.5-.4.5h-.6c-.3.2-.5,0-.6-.3l-.5-4c0-.3.2-.6.5-.6Z" class="st2"></path>
      <path d="M64.4,18.5h.7c.2,0,.4-.2.4-.4l.6-4.5c0-.2-.1-.5-.4-.5h-.8c-.2-.1-.5,0-.5.3l-.5,4.6c0,.3.2.5.4.5Z" class="st2"></path>
      <path d="M110.6,49.9s-10.4,2.2-14.1,2-.5.2-.5.4c0,1.5.1,5.9,1.1,6.3s12.3,0,14.5-1.6" class="st2"></path>
      <path d="M97.4,58.8l1.5,17.8c0,.4.3.7.7.7,2.3.3,9.9.9,13.2-1.4" class="st2"></path>
      <line y2="77.6" x2="105.4" y1="58.7" x1="103.6" class="st2"></line>
      <path d="M46.9,51.9s8.7,1.4,11.8,1.2.8.3.7.8l-.7,6.5s-9.7.5-12.5-1.2" class="st2"></path>
      <path d="M58.4,60.4l-1.7,17.3c0,.5-.5.9-1,.9-2.5,0-9.2-.3-11-1.2" class="st2"></path>
      <line y2="78.4" x2="51.6" y1="60.3" x1="52.9" class="st2"></line>
      <path d="M97.4,17.4l4.4,12.4c.4,1.2,1.6,2,2.9,1.9l3.3-.2" class="st2"></path>
      <path d="M57.8,16.1l-3.4,12c-.2.7-.7,1.2-1.4,1.3l-2.7.5" class="st2"></path>
      <circle r=".9" cy="14.4" cx="78.5" class="st2"></circle>
      <line y2="17.6" x2="78.5" y1="48.9" x1="78.1" class="st2"></line>
    </g>
  </g>
  <path d="M102.4,11.6l1.3,4.9c7.7,17.6,9.2,60.9,9.2,60.9l3.7,56.7-35.6,4.5-3.6-47.2-3.8,47.5-34.3-4.9s5.9-63.4,7.4-81.3c1.5-17.9,6.3-35.8,6.3-35.8l.9-1.1,1-4.1h47.4M102.4,9.6h-47.4c-.9,0-1.7.6-1.9,1.5l-.9,3.7-.6.8c-.2.2-.3.4-.3.7,0,.2-4.9,18.3-6.3,36.2-1.5,17.7-7.4,80.6-7.4,81.3,0,1.1.7,2,1.7,2.2l34.3,4.9c0,0,.2,0,.3,0,.5,0,.9-.2,1.2-.4.4-.3.7-.9.7-1.4l1.7-21.8,1.6,21.5c0,.5.3,1.1.7,1.4.4.3.8.5,1.3.5s.2,0,.3,0l35.6-4.5c1-.1,1.8-1.1,1.7-2.1l-3.7-56.6c0-2.2-1.7-43.8-9.3-61.5l-1.2-4.7c-.2-.9-1-1.5-1.9-1.5h0Z"></path>
</svg>