<svg viewBox="0 0 150.1 150.1" version="1.1" xmlns="http://www.w3.org/2000/svg" id="ICONS">
  
  <defs>
    <style>
      .st0, .st1, .st2, .st3, .st4, .st5, .st6 {
        fill: none;
      }

      .st1, .st2, .st6 {
        stroke: #221f20;
      }

      .st1, .st3, .st6 {
        stroke-linecap: round;
      }

      .st1, .st7, .st4, .st5 {
        stroke-miterlimit: 10;
      }

      .st1, .st6 {
        stroke-width: .8px;
      }

      .st2 {
        stroke-width: .7px;
      }

      .st3 {
        stroke-width: 2px;
      }

      .st3, .st7, .st4, .st5 {
        stroke: #000201;
      }

      .st3, .st6 {
        stroke-linejoin: round;
      }

      .st8 {
        fill: #221f20;
      }

      .st7 {
        fill: #fff;
      }

      .st7, .st5 {
        stroke-width: 1.1px;
      }

      .st4 {
        stroke-width: 1.1px;
      }

      .st6 {
        stroke-dasharray: 0 0 0 0 0 3;
      }
    </style>
  </defs>
  <rect height="149.6" width="149.6" y=".2" x=".2" class="st0"></rect>
  <rect transform="translate(150.1 0) rotate(90)" height="129.6" width="129.6" y="10.2" x="10.2" class="st0"></rect>
  <g>
    <g>
      <line y2="27.2" x2="47.1" y1="27.2" x1="44.7" class="st1"></line>
      <line y2="27.2" x2="42.3" y1="27.2" x1="39.8" class="st1"></line>
    </g>
    <g>
      <line y2="23.6" x2="43.5" y1="26.1" x1="43.5" class="st1"></line>
      <line y2="28.4" x2="43.5" y1="30.8" x1="43.5" class="st1"></line>
    </g>
  </g>
  <g>
    <g>
      <path d="M66.5,47.6c6.3,17.4,11.4,52.6,11.4,52.6.8,8.4-2,19.9-2,19.9,2.4,3.3-.8,5.9-.8,5.9l-2.3,8.6c-6.7.9-8.4-.9-8.4-.9l-.8-7.3c-3.5-.6-.8-5.9-.8-5.9l-8.8-62c-2.7-38.4,3.7-45.7,3.7-45.7,0,0,27.9-6.5,37.1-2.5,0,0,2.4,2.6,1.6,18.9,0,0-.1,50.5.3,60.1,0,0,0,30.8-1.7,39.1,0,0,1.6,3.5-.8,4.3l-1.5,7.7s-5,1.7-9.2-.7l-.5-7s-3-2.6-.5-4.7c0,0-2.9-20.4-4.8-27.9" class="st4"></path>
      <path d="M55,18.9s31.3-6,41.5-3.7" class="st5"></path>
      <path d="M62.8,14.9s-1.4,15.1-.2,21.8" class="st7"></path>
      <path d="M65.4,14.9s-1.4,15.1-.2,21.8" class="st7"></path>
      <path d="M63.4,128.5s3.9,2.2,11.6-.4" class="st5"></path>
      <path d="M83.2,135s5.6,3.4,11.4,0" class="st5"></path>
      <path d="M88.1,18.9s.3,16.1,3.2,20.2" class="st5"></path>
    </g>
    <g>
      <path d="M66.5,47.6c6.3,17.4,11.4,52.6,11.4,52.6.8,8.4-2,19.9-2,19.9,2.4,3.3-.8,5.9-.8,5.9l-2.3,8.6c-6.7.9-8.4-.9-8.4-.9l-.8-7.3c-3.5-.6-.8-5.9-.8-5.9l-8.8-62c-2.7-38.4,3.7-45.7,3.7-45.7,0,0,27.9-6.5,37.1-2.5,0,0,2.4,2.6,1.6,18.9,0,0-.1,50.5.3,60.1,0,0,0,30.8-1.7,39.1,0,0,1.6,3.5-.8,4.3l-1.5,7.7s-5,1.7-9.2-.7l-.5-7s-3-2.6-.5-4.7c0,0-2.9-20.4-4.8-27.9" class="st2"></path>
      <path d="M55,18.9s31.3-6,41.5-3.7" class="st2"></path>
      <path d="M62.8,14.9s-1.4,15.1-.2,21.8" class="st2"></path>
      <path d="M65.4,14.9s-1.4,15.1-.2,21.8" class="st2"></path>
      <path d="M63.4,128.5s3.9,2.2,11.6-.4" class="st2"></path>
      <path d="M83.2,135s5.6,3.4,11.4,0" class="st2"></path>
      <path d="M88.1,18.9s.3,16.1,3.2,20.2" class="st2"></path>
    </g>
  </g>
  <g>
    <path d="M65.7,47.6c6.3,17.4,11.4,52.6,11.4,52.6.8,8.4-2,19.9-2,19.9,2.4,3.3-.8,5.9-.8,5.9l-2.3,8.6c-6.7.9-8.4-.9-8.4-.9l-.8-7.3c-3.5-.6-.8-5.9-.8-5.9l-8.8-62c-2.7-38.4,3.7-45.7,3.7-45.7,0,0,27.9-6.5,37.1-2.5,0,0,2.4,2.6,1.6,18.9,0,0-.1,50.5.3,60.1,0,0,0,30.8-1.7,39.1,0,0,1.6,3.5-.8,4.3l-1.5,7.7s-5,1.7-9.2-.7l-.5-7s-3-2.6-.5-4.7c0,0-2.9-20.4-4.8-27.9" class="st3"></path>
    <path d="M65.7,47.6c6.3,17.4,11.4,52.6,11.4,52.6.8,8.4-2,19.9-2,19.9,2.4,3.3-.8,5.9-.8,5.9l-2.3,8.6c-6.7.9-8.4-.9-8.4-.9l-.8-7.3c-3.5-.6-.8-5.9-.8-5.9l-8.8-62c-2.7-38.4,3.7-45.7,3.7-45.7,0,0,27.9-6.5,37.1-2.5,0,0,2.4,2.6,1.6,18.9,0,0-.1,50.5.3,60.1,0,0,0,30.8-1.7,39.1,0,0,1.6,3.5-.8,4.3l-1.5,7.7s-5,1.7-9.2-.7l-.5-7s-3-2.6-.5-4.7c0,0-2.9-20.4-4.8-27.9" class="st2"></path>
  </g>
  <path d="M91.6,5.1c.6,0,8.7-.1,9.8,2.8,0,0,1.1,8.8,1,14.5s0,.5,0,.7" class="st1"></path>
  <path d="M55.5,110l1.8,10.1s-3.2,5.7,1.9,9.7l.9,5.4" class="st6"></path>
  <circle r=".4" cy="24.2" cx="102.5" class="st8"></circle>
</svg>