<svg viewBox="0 0 150.1 150.1" version="1.1" xmlns="http://www.w3.org/2000/svg" id="ICONS">
  
  <defs>
    <style>
      .st0, .st1, .st2, .st3, .st4, .st5, .st6, .st7 {
        fill: none;
      }

      .st1, .st2, .st3, .st4, .st5, .st7 {
        stroke-linecap: round;
      }

      .st1, .st2, .st3, .st4, .st6, .st7 {
        stroke: #221f20;
      }

      .st1, .st3, .st6, .st7 {
        stroke-width: .8px;
      }

      .st1, .st6 {
        stroke-miterlimit: 10;
      }

      .st2 {
        stroke-width: 2px;
      }

      .st2, .st3, .st4, .st5, .st7 {
        stroke-linejoin: round;
      }

      .st4, .st5 {
        stroke-width: .7px;
      }

      .st8 {
        fill: #221f20;
      }

      .st5 {
        stroke: #fff;
      }

      .st7 {
        stroke-dasharray: 0 0 0 0 0 3;
      }
    </style>
  </defs>
  <rect height="149.6" width="149.6" y=".2" x=".2" class="st0"></rect>
  <rect transform="translate(150.1 0) rotate(90)" height="129.6" width="129.6" y="10.2" x="10.2" class="st0"></rect>
  <g>
    <g>
      <line y2="20.1" x2="47.6" y1="20.1" x1="45.1" class="st1"></line>
      <line y2="20.1" x2="42.7" y1="20.1" x1="40.3" class="st1"></line>
    </g>
    <g>
      <line y2="16.5" x2="43.9" y1="19" x1="43.9" class="st1"></line>
      <line y2="21.3" x2="43.9" y1="23.7" x1="43.9" class="st1"></line>
    </g>
  </g>
  <g>
    <g>
      <g>
        <path d="M74.7,95.8s0,0,0,0,0,0,0,0h0Z" class="st4"></path>
        <path d="M137,66.8c-.2-1.8-1.1-3.5-2.4-4.8-2.3-2.2-6.4-6-8.5-7,0,0,0-2.2-2.9-3.5,0,0,0-4.7-.6-5.3,0,0-11.5-4.3-20.5,2.2,0,0-4.4,3.4-3.3,6.8,0,0-1.6.5-3.5,1.6l.4-9c7.7-1.6,12.1-4.1,12.1-4.1l-6.4-16.1c-.2-.4-.5-.9-.9-1.3-1.2-1.4-2.7-2.6-4.4-3.2-4.2-1.7-8.5-4.2-10.5-5.5,0,0,0,0,0,0h0c-.8-.5-1.2-.8-1.2-.8-1.9-2-9.6-1.8-9.6-1.8h0s-7.7-.2-9.6,1.8c0,0-5.9,3.9-11.8,6.2-1.7.7-3.3,1.8-4.4,3.2-.3.4-.7.9-.9,1.3l-6.4,16.1s4.5,2.5,12.1,4.1l.3,6.1c-1.1-1.2-2-3-2.2-3.3h0s-1.6-1.4-7.8-.6c0,0-6.1,0-8.8-1.6.2.2.5.5.8.9h0c.6.5,1.2,1,1.2,1,0,0,2.1,1.8,4.2,4,1,1,2,2,2.8,3,.8,1,1.5,1.9,1.9,2.6h-.2c0-.1-9.9-10.5-9.9-10.5h0c-.3-.3-.7-.6-.8-.9-.2-.2-.5-.3-.8-.3s-.8.2-1,.5l-2.8,3.6h0s0,0,0,0h0s-4.9,1.1-9,4.2c0,0-3.3,2.4-4.7,14.8,0,0-3.2,32.5-3.2,38.8,0,0-2.1,8,.7,12.7,0,0-3.6,3.9-.4,3.6v7.3c0,0,5.2,3.1,9.7-.2,0,0,.6-6.1.2-7.2h0s0,0,0,0c0,0,0,0,0,0,0,0,2.2-.9,2.2-3.8s0-7.2-.6-10.4c0,0,.4-1,.5-1.6,0,0,.3,1.5,1.5,2.1l-.2,6.3s.4,2.3,5.1,3.9l6,2.1s3.1.4,5.1.3c0,0,5.7,0,7.1.4,0,0,.3-3,.7-7.1h0,0s0,0,0,0c.2-1.9.3-4.1.5-6.4,3.3-.1,5,.7,5.1.8h0c0,.2,0,.4,0,.4.2,3.6,1.4,3.7,1.4,3.7l.2,5.9c.9-1.2,6.4-3.5,6.4-3.5v-3.1s0,0,0,0h0s0,0,0,0h1.2s1.5,5.6,1.5,5.6c7.4,1.9,7.3-1.4,7.3-1.4l-1.5-5.6h0s0,0,0,0h0c1.2-.6,1.1-1.2,1.1-1.2.4-3-3.5-12.1-3.5-12.1.1-1.4-.2-3.6-.6-6,1.4,0,2.8.1,4,.1,2.7,0,5.9-.2,8.8-.4,0,.5,0,1.1,0,1.6,0,0-2.9,15.4-1.6,20.5v3.7c0,.6.4,1.1,1,1.2.8.2,2.1.4,3.5.1.4,0,.8-.4,1-.8.4-.8,1.1-2.2,1.8-3.8,0,0,0,0,0,0h0c1-2.3,2.2-4.9,2.6-6.1,0,0-1.1,3.5,1.2,4.1,0,0-.2,1.7-.5,3.2-.2.7.2,1.4.8,1.6,3.5,1.5,15,5.4,33,2.2,0,0,0,.5,0,1.2h0s0,0,0,0c0,1-.2,2.4-.3,3.8-.2,1.3.7,2.5,1.9,2.8,1.1.3,2.6.5,4.5.5,1.3,0,2.5-1,2.7-2.3.2-.9.3-2.1.1-3.2,0,0,1,0,1.2-3.9,0,0,2.3-42.4.8-55Z" class="st4"></path>
        <path d="M41.5,54.3s0,0,0,0c0,0,0,0,0,0h0Z" class="st5"></path>
      </g>
      <g>
        <path d="M74.7,95.8s0,0,0,0,0,0,0,0h0Z" class="st3"></path>
        <path d="M137,66.8c-.2-1.8-1.1-3.5-2.4-4.8-2.3-2.2-6.4-6-8.5-7,0,0,0-2.2-2.9-3.5,0,0,0-4.7-.6-5.3,0,0-11.5-4.3-20.5,2.2,0,0-4.4,3.4-3.3,6.8,0,0-1.6.5-3.5,1.6l.4-9c7.7-1.6,12.1-4.1,12.1-4.1l-6.4-16.1c-.2-.4-.5-.9-.9-1.3-1.2-1.4-2.7-2.6-4.4-3.2-4.2-1.7-8.5-4.2-10.5-5.5,0,0,0,0,0,0h0c-.8-.5-1.2-.8-1.2-.8-1.9-2-9.6-1.8-9.6-1.8h0s-7.7-.2-9.6,1.8c0,0-5.9,3.9-11.8,6.2-1.7.7-3.3,1.8-4.4,3.2-.3.4-.7.9-.9,1.3l-6.4,16.1s4.5,2.5,12.1,4.1l.3,6.1c-1.1-1.2-2-3-2.2-3.3h0s-1.6-1.4-7.8-.6c0,0-6.1,0-8.8-1.6.2.2.5.5.8.9h0c.6.5,1.2,1,1.2,1,0,0,2.1,1.8,4.2,4,1,1,2,2,2.8,3,.8,1,1.5,1.9,1.9,2.6h-.2c0-.1-9.9-10.5-9.9-10.5h0c-.3-.3-.7-.6-.8-.9-.2-.2-.5-.3-.8-.3s-.8.2-1,.5l-2.8,3.6h0s0,0,0,0h0s-4.9,1.1-9,4.2c0,0-3.3,2.4-4.7,14.8,0,0-3.2,32.5-3.2,38.8,0,0-2.1,8,.7,12.7,0,0-3.6,3.9-.4,3.6v7.3c0,0,5.2,3.1,9.7-.2,0,0,.6-6.1.2-7.2h0s0,0,0,0c0,0,0,0,0,0,0,0,2.2-.9,2.2-3.8s0-7.2-.6-10.4c0,0,.4-1,.5-1.6,0,0,.3,1.5,1.5,2.1l-.2,6.3s.4,2.3,5.1,3.9l6,2.1s3.1.4,5.1.3c0,0,5.7,0,7.1.4,0,0,.3-3,.7-7.1h0,0s0,0,0,0c.2-1.9.3-4.1.5-6.4,3.3-.1,5,.7,5.1.8h0c0,.2,0,.4,0,.4.2,3.6,1.4,3.7,1.4,3.7l.2,5.9c.9-1.2,6.4-3.5,6.4-3.5v-3.1s0,0,0,0h0s0,0,0,0h1.2s1.5,5.6,1.5,5.6c7.4,1.9,7.3-1.4,7.3-1.4l-1.5-5.6h0s0,0,0,0h0c1.2-.6,1.1-1.2,1.1-1.2.4-3-3.5-12.1-3.5-12.1.1-1.4-.2-3.6-.6-6,1.4,0,2.8.1,4,.1,2.7,0,5.9-.2,8.8-.4,0,.5,0,1.1,0,1.6,0,0-2.9,15.4-1.6,20.5v3.7c0,.6.4,1.1,1,1.2.8.2,2.1.4,3.5.1.4,0,.8-.4,1-.8.4-.8,1.1-2.2,1.8-3.8,0,0,0,0,0,0h0c1-2.3,2.2-4.9,2.6-6.1,0,0-1.1,3.5,1.2,4.1,0,0-.2,1.7-.5,3.2-.2.7.2,1.4.8,1.6,3.5,1.5,15,5.4,33,2.2,0,0,0,.5,0,1.2h0s0,0,0,0c0,1-.2,2.4-.3,3.8-.2,1.3.7,2.5,1.9,2.8,1.1.3,2.6.5,4.5.5,1.3,0,2.5-1,2.7-2.3.2-.9.3-2.1.1-3.2,0,0,1,0,1.2-3.9,0,0,2.3-42.4.8-55Z" class="st3"></path>
        <path d="M41.5,54.3s0,0,0,0c0,0,0,0,0,0h0Z" class="st3"></path>
      </g>
    </g>
    <g>
      <g>
        <g>
          <g>
            <path d="M54,53.8l-.2-6c-7.7-1.6-12.1-4.1-12.1-4.1l6.4-16.1c.2-.4.5-.9.9-1.3,1.2-1.4,2.7-2.6,4.4-3.2,5.8-2.3,11.8-6.2,11.8-6.2" class="st6"></path>
            <path d="M84.3,16.8s5.9,3.9,11.8,6.2c1.7.7,3.3,1.8,4.4,3.2.3.4.6.9.9,1.3l6.4,16.1s-4.5,2.5-12.1,4.1l-.4,8.7" class="st6"></path>
            <path d="M85.5,17.5s.8,1.5-2.6,6.1c-1.2,1.7-2.9,3-4.8,3.7s-2.2.7-3.4.7" class="st6"></path>
            <path d="M95.6,47.8s-.1-8.4,3.7-16.6" class="st6"></path>
          </g>
          <g>
            <path d="M63.9,17.6s-.8,1.4,2.6,6c1.2,1.7,2.9,3,4.8,3.7,1,.4,2.2.7,3.4.7" class="st6"></path>
            <path d="M53.8,47.8s.1-8.4-3.7-16.6" class="st6"></path>
          </g>
        </g>
        <path d="M74.7,26.1c8,0,9.6-9.3,9.6-9.3-1.9-2-9.6-1.8-9.6-1.8h0s-7.7-.2-9.6,1.8c0,0,1.6,9.3,9.6,9.3" class="st6"></path>
      </g>
      <g>
        <path d="M98.8,55.2s-10.1,3.3-9.9,10.2-.2,2-.4,3c-1.4,4.9-5,18.6-5,28.6,0,0-2.9,15.4-1.6,20.5v3.7c0,.6.4,1.1,1,1.2.8.2,2.1.4,3.5.1s.8-.4,1-.8c.9-1.9,3.7-7.8,4.3-10,0,0-1.1,3.5,1.2,4.1,0,0-.2,1.7-.5,3.2-.2.7.2,1.4.8,1.6,3.5,1.5,15,5.4,33,2.2,0,0-.1,2.6-.4,5-.2,1.3.7,2.5,1.9,2.8,1.1.3,2.6.5,4.5.5s2.5-1,2.7-2.3c.2-.9.3-2.1.1-3.2,0,0,1,0,1.2-3.9,0,0,2.3-42.4.8-55-.2-1.8-1.1-3.5-2.4-4.8-2.3-2.2-6.4-6-8.5-7,0,0,0-2.2-2.9-3.5,0,0,0-4.7-.6-5.3,0,0-11.5-4.3-20.5,2.2,0,0-4.4,3.4-3.3,6.8Z" class="st6"></path>
        <path d="M112.3,47.8s14.7-1.7-2.9,7l-3.9,2.2c-1,.6-2.1.8-3.2.7-1.4-.1-3-.7-3.4-2.5" class="st6"></path>
        <path d="M104.4,48.7s-4.6,3-3.3,5.6" class="st6"></path>
        <path d="M105.8,56.8s.7,2.7,17.2-2.4c0,0,1.5-.4,3.1.6" class="st6"></path>
        <path d="M133.6,61.1s-10.8.3-12,16.2c-.2,3.1.2,6.2,1.2,9.1,1.2,3.6,3,9.7,3,15.6l.4,21" class="st6"></path>
        <path d="M90.5,68.6s1.5,13,3.4,14.7c0,0-2.4,22.2-2.2,28.5" class="st6"></path>
        <path d="M92.7,96.4s4.4,2.7,17.4,2c0,0,2.4,8.1,7.1,11.7,0,0,.9,6.3.4,8.2,0,0-18.4-.1-24.7-2.4" class="st6"></path>
        <path d="M100.7,57.4s-3.2,10.9-3,14.1l.3,7.2" class="st6"></path>
        <path d="M109.8,56.5s-3.5,12.5-3.4,15.7l.3,7.2" class="st6"></path>
        <path d="M81.9,117.6s3.7,1.2,7.3.4" class="st6"></path>
        <path d="M126.1,124.2s2.9,2.2,8.9,1.5" class="st6"></path>
      </g>
      <g>
        <g>
          <path d="M51.8,50.5l.9,2.5v2.5c.4.7.6,1.5.6,2.3v.7s.5,3.1.5,3.1c0,.3,0,.6.2,1,.1.7.2,1.4.3,2l.3,6.8,1.1,15.6c.6,5.7.5,14.1.5,14.1.1,2.8.6,10.1.8,11.8,0,.2,0,.4,0,.4.2,3.6,1.4,3.7,1.4,3.7l.2,5.9c.9-1.2,6.4-3.5,6.4-3.5v-3.1s1.3,0,1.3,0l1.5,5.7c7.4,1.9,7.3-1.4,7.3-1.4l-1.5-5.6h0s0,0,0,0c1.2-.6,1.1-1.2,1.1-1.2.4-3-3.5-12.1-3.5-12.1.4-4.2-2.9-16.4-2.9-16.4,1.2-10.9-2.5-23.8-2.5-23.8-2.2-4.3-10.4-6.6-10.4-6.6-1.7-.4-3.5-3.9-3.7-4.3Z" class="st6"></path>
          <path d="M35.2,48.4l.8.9h0c.6.5,1.2,1,1.2,1,0,0,2.1,1.8,4.2,4,3.6-.7,6.3-.6,8.2-.3,2,.3,3,.8,3,.8v-1.8s-.9-2.5-.9-2.5h0s-1.6-1.4-7.8-.6c0,0-6.1,0-8.8-1.6Z" class="st3"></path>
          <path d="M35.2,48.4c.2.2.5.5.8.9l-.8-.9Z" class="st6"></path>
          <path d="M13.9,126.5v7.3c0,0,5.2,3.1,9.7-.2,0,0,.6-6.1.2-7.2,0,0,2.2-.9,2.2-3.8,0-2.8,0-7.2-.6-10.4,0,0,.4-1,.5-1.6,0,0,.3,1.5,1.5,2.1l-.2,6.3s.4,2.3,5.1,3.9l6,2.1s3.1.4,5.1.3c0,0,5.7,0,7.1.4,0,0,.3-3,.7-7.1.2-1.9.3-4.1.5-6.4.2-3.1.3-6.3.3-9.1,0,0-.1-28.2-4-38.7l-2-4.5-15.6-7.5h0s0,0,0,0c0,0-4.9,1.1-9,4.2,0,0-3.3,2.4-4.7,14.8,0,0-3.2,32.5-3.2,38.8,0,0-2.1,8,.7,12.7,0,0-3.6,3.9-.4,3.6Z" class="st6"></path>
          <path d="M26.1,110.6s5.5-28.7,2.5-45.9" class="st6"></path>
          <path d="M65,116.3s1.8-17.2-1.3-24.9c0,0,3.1-14.1,2.8-16.5" class="st6"></path>
          <path d="M44.3,57.3c.8,1,1.5,1.9,1.9,2.6l2,4.5c3.9,10.5,4,38.7,4,38.7,0,2.8-.1,6-.3,9.1,3.3-.1,5,.7,5.1.8h0c-.1-1.7-.6-9-.8-11.8,0,0,.2-8.4-.5-14.1l-1.1-15.6-.3-6.8c0-.7-.1-1.4-.3-2,0-.3-.1-.6-.2-1l-.4-3.1v-.7c0-.8-.3-1.6-.7-2.3v-.8s-1-.5-3-.8c-1.9-.3-4.6-.4-8.2.3,1,1,2,2,2.8,3Z" class="st6"></path>
          <path d="M41.5,54.3h0s0,0,0,0c0,0,0,0,0,0Z" class="st6"></path>
          <path d="M27.8,113s9.1,5.4,23.6,5.6" class="st6"></path>
          <path d="M58.4,117s4.7-.3,6.7-1.5" class="st6"></path>
          <path d="M66.2,116.3s6.4.3,7.4-1.3" class="st6"></path>
          <path d="M23.9,126.4s-6.1,1.8-10,0" class="st6"></path>
          <path d="M42.6,93.9s-9.4,4.9-13.2,4.7" class="st6"></path>
          <path d="M57,93.3s4,4.2,6.1,4.8" class="st6"></path>
        </g>
        <path d="M30.6,52.5h0s0,0,0,0l15.6,7.5-10.1-10.6h0c-.3-.3-.7-.6-.8-.9-.2-.2-.5-.3-.8-.3s-.8.2-1,.5l-2.8,3.7Z" class="st3"></path>
      </g>
    </g>
  </g>
  <path d="M35.2,48.3c-.2-.2.5.7.3.5,0,0-.1-.1-.2-.2,0,0-.1-.1-.1-.2-.1,0-.2-.2-.4-.2s-.3,0-.4,0c-.3,0-.6,0-.8.3s-.1.1-.2.2l-2.8,3.6h0s0,0,0,0h0s-1.6.3-3.7,1.2c-.9.4-2,.9-3,1.4-.8.4-1.6,1-2.4,1.5,0,0-.4.3-1,1.2,0,0-.1.2-.2.3-.3.4-.6,1-.9,1.8-1,2.2-2,5.8-2.7,11.6,0,0-1,10.3-1.9,20.4,0,.6,0,1.1-.1,1.7-.1,1.6-.3,3.2-.4,4.8,0,0,0,.2,0,.3,0,1-.2,1.9-.2,2.8,0,0,0,.2,0,.2-.1,1.4-.2,2.7-.3,3.9,0,0,0,.1,0,.2,0,.7,0,1.4-.1,2,0,0,0,.1,0,.2,0,.6,0,1.1,0,1.6,0,.3,0,.5,0,.7,0,0-.7,2.5-.7,5.6,0,2.4.2,5.1,1.5,7.1,0,0-.5.6-1,1.2-.2.2-.3.5-.4.7-.1.2-.2.5-.3.7,0,.1,0,.2,0,.3s0,.2,0,.3c.1.3.5.5,1.3.4v7.3c0,0,5.2,3.1,9.7-.2,0,0,.5-5.3.3-6.9,0,0,0,0,0,0,0,0,0-.2,0-.2,0,0,0,0,0,0h0s0,0,0,0c0,0,0,0,0,0,0,0,0,0,0,0,0,0,.6-.2,1.1-.8.1-.1.3-.3.4-.5.4-.6.7-1.4.7-2.4h0c0-1.8,0-4.2-.2-6.5,0-1.3-.2-2.6-.4-3.8,0,0,0-.1,0-.2,0,0,.1-.2.2-.6,0,0,0-.2,0-.3,0-.2.1-.4.2-.6,0,0,0-.1,0-.2,0,0,.3,1.5,1.5,2.1l-.2,6.3s0,.2.2.6c0,.1.2.3.3.5.2.3.5.6.9.9.5.4,1.2.9,2.1,1.3.5.2,1,.4,1.6.6l6,2.1s.2,0,.5,0c.7,0,2.1.2,3.4.3.4,0,.8,0,1.2,0,0,0,5.7,0,7.1.4,0,0,0,0,0,0,0,0,0-.1,0-.2,0,0,0,0,0,0,0,0,0-.2,0-.4,0,0,0-.2,0-.3,0-.3,0-.5,0-.9,0-.5,0-1,.2-1.6,0-1,.2-2.2.3-3.5,0,0,0-.1,0-.2h0,0,0,0s0,0,0,0c0,0,0,0,0,0,0,0,0,0,0,0,0-1,.2-2,.2-3.1,0-1.1.2-2.2.2-3.3,2.5,0,4,.3,4.7.6.2,0,.4.2.4.2h0c0,.2,0,.4,0,.4,0,.7.1,1.2.2,1.7,0,.2,0,.3,0,.4.4,1.5,1,1.6,1,1.6l.2,5.9c0,0,.1-.2.2-.2.2-.2.4-.3.7-.5.8-.6,2.1-1.2,3.1-1.7,1.3-.6,2.3-1,2.3-1v-3.1h0,0s0,0,0,0h1.2s1.2,4.4,1.2,4.4l.3,1.2c2.3.6,3.9.7,5,.5,2.4-.3,2.4-1.9,2.4-1.9l-1.5-5.6h0s0,0,0,0h0c.4-.2.7-.4.9-.6.1-.1.2-.2.2-.3s0-.2,0-.2c0,0,0,0,0,0,0-.2,0-.4,0-.6,0-.2,0-.5,0-.7,0-.5-.2-1.1-.3-1.8-.5-2.1-1.4-4.6-2.1-6.4-.6-1.5-1-2.5-1-2.5,0-.2,0-.3,0-.5,0,0,0-.1,0-.2,0-.1,0-.3,0-.4,0,0,0-.1,0-.2,0-.2,0-.4,0-.6,0,0,0,0,0,0,0-.2,0-.5,0-.7,0,0,0,0,0-.1,0-.2,0-.4,0-.6,0,0,0,0,0-.1-.1-.8-.2-1.6-.4-2.5,0,0,0,0,0,0,1.4,0,2.8.1,4,.1,2.7,0,5.9-.2,8.8-.4,0,.5,0,1.1,0,1.6,0,0,0,.2-.1.7,0,.2,0,.5-.1.8,0,.2,0,.3,0,.5,0,.3-.1.7-.2,1.1-.1.6-.2,1.3-.3,2.1,0,.5-.1,1-.2,1.5-.1.8-.2,1.6-.3,2.5,0,.6-.1,1.1-.2,1.7,0,.3,0,.6,0,.9,0,.6-.1,1.2-.1,1.7,0,.3,0,.6,0,.8,0,.6,0,1.1,0,1.6,0,.3,0,.5,0,.8,0,.8,0,1.5,0,2.1,0,.6.1,1.2.3,1.7v3.7c0,.6.4,1.1,1,1.2.8.2,2.1.4,3.5.1.4,0,.8-.4,1-.8.4-.8,1.1-2.2,1.8-3.8,0,0,0,0,0,0h0s0,0,0,0h0c.4-.9.8-1.8,1.2-2.6,0,0,0,0,0,0,.1-.3.2-.5.3-.8,0,0,0-.1,0-.2,0-.2.1-.4.2-.5,0,0,0-.2.1-.3,0-.2.1-.3.2-.4,0,0,0-.2,0-.2,0-.1.1-.3.2-.4,0,0,0-.1,0-.2,0-.2.1-.3.2-.5,0,0-.1.3-.2.8,0,0,0,.2,0,.3,0,.2,0,.5,0,.7,0,.6.1,1.2.5,1.7.2.3.5.5.9.6,0,0,0,.9-.3,2.1,0,.2,0,.4-.1.6,0,.2,0,.4-.1.6,0,.2,0,.3,0,.5s0,.3.1.5c.1.3.4.5.7.7.9.4,2.3.9,4.1,1.4s4.2,1,7,1.4c5.6.8,12.9.9,21.9-.7h0s0,0,0,0c0,0,0,0,0,0,0,0,0,.1,0,.2,0,0,0,0,0,0,0,0,0,.2,0,.3,0,0,0,0,0,0,0,.1,0,.3,0,.4,0,0,0,0,0,0h0s0,0,0,0h0,0s0,0,0,0c0,.2,0,.5,0,.8,0,0,0,0,0,0,0,.3,0,.5,0,.8,0,0,0,0,0,0,0,.3,0,.6,0,.9,0,0,0,0,0,0,0,.3,0,.7-.1,1,0,.2,0,.3,0,.5,0,.8.4,1.5,1.1,1.9.1,0,.3.2.4.2.1,0,.3.1.4.2.3,0,.6.1.9.2.3,0,.7.1,1.1.2.8,0,1.6.1,2.6.1.2,0,.3,0,.5,0,.3,0,.6-.2.9-.3.3-.2.5-.4.7-.6.3-.4.5-.8.6-1.3.2-.9.3-2.1.1-3.2,0,0,.3,0,.6-.7,0,0,0-.2.1-.3.2-.6.4-1.5.5-2.9,0,0,1.3-23.8,1.3-41.1,0-2.2,0-4.2,0-6.1,0-.6,0-1.2,0-1.8,0-.6,0-1.2,0-1.7,0-.3,0-.5,0-.8,0-1.1-.1-2-.2-2.9,0-.2,0-.4,0-.6,0-.2,0-.5-.1-.7-.3-1.6-1.1-3-2.3-4.1-1.9-1.8-4.9-4.7-7.1-6.2-.5-.4-1-.6-1.4-.8,0,0,0-2.2-2.9-3.5,0,0,0,0,0-.2,0-.3,0-1,0-1.8,0-.2,0-.3,0-.5,0-.3,0-.6,0-.9,0-.2,0-.3,0-.4,0-.7-.2-1.3-.4-1.5,0,0-4.5-1.7-10.1-1.3-3.3.2-7,1.1-10.4,3.5,0,0-.3.2-.7.6-.3.3-.7.7-1.1,1.2-.3.4-.6.8-.8,1.2-.3.6-.6,1.2-.7,1.8,0,.3,0,.5,0,.8,0,.4,0,.9.2,1.3,0,0,0,0,0,0,0,0,0,0,0,0-.1,0-.5.2-1,.4t0,0c-.3.1-.7.3-1.1.5,0,0,0,0,0,0-.4.2-.9.4-1.4.7l.4-9c7.7-1.6,12.1-4.1,12.1-4.1h0s0,0,0,0l-4.2-10.7-2.1-5.4c0-.1-.1-.2-.2-.3-.2-.3-.4-.7-.7-1-.9-1.1-2-2-3.2-2.6-.4-.2-.8-.4-1.3-.6-.5-.2-.9-.4-1.4-.6-.1,0-.3-.1-.4-.2-.4-.2-.8-.4-1.2-.5,0,0-.1,0-.2-.1-.4-.2-.9-.4-1.3-.7-.1,0-.2-.1-.4-.2-.3-.2-.7-.4-1-.5,0,0-.2-.1-.3-.2-.4-.2-.8-.4-1.2-.6,0,0-.2,0-.2-.1-.3-.2-.6-.4-.9-.5,0,0-.1,0-.2-.1-.7-.4-1.3-.8-1.8-1.1,0,0,0,0,0,0,0,0,0,0,0,0,0,0,0,0,0,0h0s0,0,0,0c0,0,0,0,0,0-.8-.5-1.2-.8-1.2-.8-1.9-2-9.6-1.8-9.6-1.8h0s-7.7-.2-9.6,1.8c0,0-5.2,3.4-10.7,5.8-.4.2-.7.3-1.1.5-.4.2-.9.4-1.3.6-1,.6-1.9,1.3-2.7,2.1-.2.2-.3.3-.5.5,0,.1-.2.2-.3.4-.2.3-.4.6-.6.9l-6.4,16.1h0,0s4.5,2.5,12.1,4.1v.4s.3,5.7.3,5.7c0,0,0,0,0,0-.3-.3-.5-.6-.8-1,0,0,0,0,0,0-.2-.3-.5-.7-.7-1,0,0,0,0,0,0-.2-.3-.4-.6-.5-.8,0,0,0,0,0,0,0-.1-.1-.2-.1-.3,0,0,0,0,0,0,0,0,0-.1,0-.2h0s-.2-.2-.8-.4c-.1,0-.2,0-.3,0-1.1-.3-3.1-.5-6.6,0,0,0-6.1,0-8.8-1.6,0,0,0,0,0,0h0c0,.1.2.2.3.4.1.1.3.3.5.5h0" class="st2"></path>
  <path d="M107.7,28.1l5,13.1s10.2-1,13.5,1.6" class="st1"></path>
  <path d="M31.9,44.6l-3.4,5.2s-12.4.7-14.6,15.3" class="st1"></path>
  <path d="M140.5,128.4s2,9.2-6,9.5" class="st7"></path>
  <path d="M9.6,132.3s-2.5,8.6,6.9,9" class="st7"></path>
  <circle r=".4" cy="43.7" cx="127.1" class="st8"></circle>
  <circle r=".4" cy="43.5" cx="32.7" class="st8"></circle>
</svg>