<svg viewBox="0 0 150.1 150.1" version="1.1" xmlns="http://www.w3.org/2000/svg" id="ICONS">
  
  <defs>
    <style>
      .st0, .st1, .st2, .st3, .st4, .st5 {
        fill: none;
      }

      .st1, .st2, .st3, .st4, .st5 {
        stroke: #221f20;
      }

      .st1, .st3, .st4, .st5 {
        stroke-width: .8px;
      }

      .st1, .st3, .st5 {
        stroke-linecap: round;
      }

      .st1, .st6, .st4 {
        stroke-miterlimit: 10;
      }

      .st2 {
        stroke-width: .7px;
      }

      .st3, .st5 {
        stroke-linejoin: round;
      }

      .st7 {
        fill: #221f20;
      }

      .st6 {
        fill: #fff;
        stroke: #000201;
        stroke-width: 1.1px;
      }

      .st5 {
        stroke-dasharray: 0 0 0 0 0 3;
      }
    </style>
  </defs>
  <g>
    <g>
      <line y2="20.1" x2="36.1" y1="20.1" x1="33.7" class="st1"></line>
      <line y2="20.1" x2="31.3" y1="20.1" x1="28.8" class="st1"></line>
    </g>
    <g>
      <line y2="16.5" x2="32.5" y1="19" x1="32.5" class="st1"></line>
      <line y2="21.3" x2="32.5" y1="23.7" x1="32.5" class="st1"></line>
    </g>
  </g>
  <rect height="149.6" width="149.6" y=".2" x=".2" class="st0"></rect>
  <rect transform="translate(150.1 0) rotate(90)" height="129.6" width="129.6" y="10.2" x="10.2" class="st0"></rect>
  <g>
    <g>
      <g>
        <path d="M62.9,12.1l-1.4,3.8v3.9c-.6,1.1-.9,2.2-1,3.5v1s-.7,4.7-.7,4.7c0,.5-.1,1-.3,1.5-.2,1-.3,2.1-.4,3.1l-.5,10.4-1.8,23.8c-1,8.7-.8,21.6-.8,21.6-.2,4.3-1,15.4-1.2,18.1,0,.4,0,.6,0,.6-.4,5.6-2.1,5.6-2.1,5.6l-.3,9c-1.3-1.8-9.7-5.3-9.7-5.3v-4.7c0,0-1.9,0-1.9,0l-2.3,8.7c-11.2,3-11.2-2.1-11.2-2.1l2.3-8.6h0s0,0,0,0c-1.8-.9-1.6-1.8-1.6-1.8-.6-4.5,5.3-18.4,5.3-18.4-.5-6.4,4.4-25.1,4.4-25.1-1.8-16.7,3.8-36.4,3.8-36.4,3.3-6.6,15.8-10.1,15.8-10.1,2.5-.6,5.3-6,5.6-6.6Z" class="st4"></path>
        <path d="M88.2,8.9l-1.2,1.3h0c-.9.8-1.8,1.6-1.8,1.6,0,0-3.1,2.8-6.5,6.1-5.5-1-9.6-.9-12.5-.5-3.1.5-4.6,1.2-4.6,1.2v-2.7l1.4-3.8h0c0,0,2.4-2.2,11.9-.9,0,0,9.2,0,13.4-2.4Z" class="st3"></path>
        <path d="M88.2,8.9c-.2.3-.7.8-1.2,1.3l1.2-1.3Z" class="st6"></path>
        <path d="M120.6,128.3v11.2c0,0-7.9,4.8-14.8-.4,0,0-.8-9.3-.4-11,0,0-3.4-1.4-3.4-5.8s.1-11.1.9-16c0,0-.7-1.5-.8-2.5,0,0-.5,2.2-2.2,3.2l.2,9.7s-.7,3.5-7.8,5.9l-9.2,3.2s-4.8.7-7.8.5c0,0-8.6,0-10.8.6,0,0-.5-4.6-1-10.9-.2-3-.5-6.3-.7-9.8-.3-4.7-.5-9.6-.5-13.9,0,0,.2-43.2,6.1-59.2l3-6.9,23.7-11.4h0s0,0,0,0c0,0,7.5,1.6,13.8,6.4,0,0,5.1,3.7,7.2,22.6,0,0,4.8,49.7,4.9,59.4,0,0,3.2,12.2-1.1,19.4,0,0,5.4,6,.6,5.5Z" class="st4"></path>
        <path d="M102.1,103.9s-8.4-43.8-3.8-70.2" class="st4"></path>
        <path d="M42.9,112.7s-2.8-26.3,2-38.1c0,0-4.7-21.6-4.2-25.3" class="st4"></path>
        <path d="M74.3,22.4c-1.3,1.5-2.3,2.9-2.9,4l-3,6.9c-5.9,16-6.1,59.2-6.1,59.2,0,4.3.2,9.1.5,13.9-5.1-.2-7.6,1-7.8,1.2h0c.2-2.6,1-13.8,1.2-18.1,0,0-.2-12.9.8-21.6l1.8-23.8.5-10.4c0-1,.2-2.1.4-3.1.1-.5.2-1,.3-1.5l.7-4.7v-1c0-1.2.4-2.4,1-3.5v-1.2s1.5-.8,4.6-1.2c2.9-.4,7-.6,12.5.5-1.5,1.5-3,3.1-4.3,4.6Z" class="st4"></path>
        <path d="M78.7,17.9h0s0,0,0,0c0,0,0,0,0,0Z" class="st6"></path>
        <path d="M99.6,107.5s-13.8,8.2-36,8.6" class="st4"></path>
        <path d="M52.9,113.7s-7.1-.4-10.2-2.4" class="st6"></path>
        <path d="M41,112.6s-9.7.4-11.3-2" class="st4"></path>
        <path d="M105.4,128.1s9.3,2.7,15.2.1" class="st4"></path>
        <path d="M77,78.4s14.3,7.5,20.1,7.2" class="st4"></path>
        <path d="M55,77.5s-6,6.5-9.3,7.4" class="st6"></path>
      </g>
      <path d="M95.3,15.1h0s0,0,0,0l-23.7,11.4,15.4-16.2h0c.5-.5,1-1,1.2-1.3.4-.3.8-.4,1.2-.4s1.2.3,1.6.8l4.3,5.7Z" class="st3"></path>
    </g>
    <g>
      <g>
        <path d="M62.9,12.1l-1.4,3.8v3.9c-.6,1.1-.9,2.2-1,3.5v1s-.7,4.7-.7,4.7c0,.5-.1,1-.3,1.5-.2,1-.3,2.1-.4,3.1l-.5,10.4-1.8,23.8c-1,8.7-.8,21.6-.8,21.6-.2,4.3-1,15.4-1.2,18.1,0,.4,0,.6,0,.6-.4,5.6-2.1,5.6-2.1,5.6l-.3,9c-1.3-1.8-9.7-5.3-9.7-5.3v-4.7c0,0-1.9,0-1.9,0l-2.3,8.7c-11.2,3-11.2-2.1-11.2-2.1l2.3-8.6h0s0,0,0,0c-1.8-.9-1.6-1.8-1.6-1.8-.6-4.5,5.3-18.4,5.3-18.4-.5-6.4,4.4-25.1,4.4-25.1-1.8-16.7,3.8-36.4,3.8-36.4,3.3-6.6,15.8-10.1,15.8-10.1,2.5-.6,5.3-6,5.6-6.6Z" class="st2"></path>
        <path d="M88.2,8.9l-1.2,1.3h0c-.9.8-1.8,1.6-1.8,1.6,0,0-3.1,2.8-6.5,6.1-5.5-1-9.6-.9-12.5-.5-3.1.5-4.6,1.2-4.6,1.2v-2.7l1.4-3.8h0c0,0,2.4-2.2,11.9-.9,0,0,9.2,0,13.4-2.4Z" class="st2"></path>
        <path d="M88.2,8.9c-.2.3-.7.8-1.2,1.3l1.2-1.3Z" class="st2"></path>
        <path d="M120.6,128.3v11.2c0,0-7.9,4.8-14.8-.4,0,0-.8-9.3-.4-11,0,0-3.4-1.4-3.4-5.8s.1-11.1.9-16c0,0-.7-1.5-.8-2.5,0,0-.5,2.2-2.2,3.2l.2,9.7s-.7,3.5-7.8,5.9l-9.2,3.2s-4.8.7-7.8.5c0,0-8.6,0-10.8.6,0,0-.5-4.6-1-10.9-.2-3-.5-6.3-.7-9.8-.3-4.7-.5-9.6-.5-13.9,0,0,.2-43.2,6.1-59.2l3-6.9,23.7-11.4h0s0,0,0,0c0,0,7.5,1.6,13.8,6.4,0,0,5.1,3.7,7.2,22.6,0,0,4.8,49.7,4.9,59.4,0,0,3.2,12.2-1.1,19.4,0,0,5.4,6,.6,5.5Z" class="st2"></path>
        <path d="M102.1,103.9s-8.4-43.8-3.8-70.2" class="st2"></path>
        <path d="M42.9,112.7s-2.8-26.3,2-38.1c0,0-4.7-21.6-4.2-25.3" class="st2"></path>
        <path d="M74.3,22.4c-1.3,1.5-2.3,2.9-2.9,4l-3,6.9c-5.9,16-6.1,59.2-6.1,59.2,0,4.3.2,9.1.5,13.9-5.1-.2-7.6,1-7.8,1.2h0c.2-2.6,1-13.8,1.2-18.1,0,0-.2-12.9.8-21.6l1.8-23.8.5-10.4c0-1,.2-2.1.4-3.1.1-.5.2-1,.3-1.5l.7-4.7v-1c0-1.2.4-2.4,1-3.5v-1.2s1.5-.8,4.6-1.2c2.9-.4,7-.6,12.5.5-1.5,1.5-3,3.1-4.3,4.6Z" class="st2"></path>
        <path d="M78.7,17.9h0s0,0,0,0c0,0,0,0,0,0Z" class="st2"></path>
        <path d="M99.6,107.5s-13.8,8.2-36,8.6" class="st2"></path>
        <path d="M52.9,113.7s-7.1-.4-10.2-2.4" class="st2"></path>
        <path d="M41,112.6s-9.7.4-11.3-2" class="st2"></path>
        <path d="M105.4,128.1s9.3,2.7,15.2.1" class="st2"></path>
        <path d="M77,78.4s14.3,7.5,20.1,7.2" class="st2"></path>
        <path d="M55,77.5s-6,6.5-9.3,7.4" class="st2"></path>
      </g>
      <path d="M95.3,15.1h0s0,0,0,0l-23.7,11.4,15.4-16.2h0c.5-.5,1-1,1.2-1.3.4-.3.8-.4,1.2-.4s1.2.3,1.6.8l4.3,5.7Z" class="st2"></path>
    </g>
  </g>
  <path d="M88.7,8.6c0,0,.2,0,.3,0,.6,0,1.2.3,1.6.8l4.2,5.6h0s0,0,0,0h0s7.5,1.6,13.8,6.4c0,0,5.1,3.7,7.2,22.6,0,0,4.8,49.7,4.9,59.4,0,0,3.2,12.2-1.1,19.4,0,0,5,5.5,1.1,5.5s-.3,0-.5,0v11.2c0,0-3.4,2-7.6,2s-4.8-.6-7.2-2.4c0,0-.8-9.3-.4-11,0,0,0,0,0,0h0s0,0,0,0c0,0-3.4-1.4-3.4-5.8s.1-11.1.9-16c0,0-.7-1.5-.8-2.5,0,0-.5,2.2-2.2,3.2l.2,9.7s-.7,3.5-7.8,5.9l-9.2,3.2s-3.7.5-6.6.5-.8,0-1.1,0c0,0-.2,0-.6,0-2,0-8.4,0-10.3.6,0,0-.5-4.5-1-10.8,0,0,0,0,0,0h0s0,0,0,0c-.2-3-.5-6.3-.7-9.8-.3,0-.7,0-1,0-4.4,0-6.6,1.1-6.9,1.2h0c0,.4,0,.6,0,.6-.4,5.6-2.1,5.6-2.1,5.6l-.3,9c-1.3-1.8-9.7-5.3-9.7-5.3v-4.7h0,0s0,0,0,0h-1.9c0,0-2.3,8.6-2.3,8.6-2.6.7-4.5.9-6,.9-5.2,0-5.1-3-5.1-3l2.3-8.6h0s0,0,0,0h0c-1.8-.9-1.6-1.8-1.6-1.8-.6-4.5,5.3-18.4,5.3-18.4-.5-6.4,4.4-25.1,4.4-25.1-1.8-16.7,3.8-36.4,3.8-36.4,3.3-6.6,15.8-10.1,15.8-10.1,2.5-.6,5.3-6,5.6-6.6h0c0,0,1.4-1.3,6.2-1.3,1.5,0,3.4.1,5.6.4,0,0,.9,0,2.2,0,3.1,0,8.6-.3,11.2-2.4.3-.2.6-.3.9-.3M88.7,6.6c-.4,0-1.3,0-2.2.7-1.6,1.2-5.3,2-10,2s-1.7,0-2,0c-2.1-.3-4.1-.4-5.8-.4-5.2,0-7.1,1.3-7.6,1.7-.2.2-.4.4-.5.7h0c-1.6,3.2-3.5,5.3-4.3,5.5,0,0,0,0,0,0-.5.2-13.4,3.9-17.1,11.1,0,.1-.1.2-.1.4-.2.8-5.6,20-3.9,36.8-.7,2.6-4.6,18.3-4.4,24.9-1.3,3.1-5.7,14.2-5.2,18.9,0,.6.2,1.6,1.3,2.6l-1.9,7.2c0,.2,0,.3,0,.5,0,.3,0,1.8,1.4,3.1,1.3,1.3,3.2,1.9,5.8,1.9s4-.3,6.6-1c.7-.2,1.2-.7,1.4-1.4l.8-3.1c.2.2.4.4.7.5,3.7,1.6,8.2,3.8,8.9,4.7.4.5,1,.8,1.6.8s.4,0,.6,0c.8-.3,1.4-1,1.4-1.9l.2-7.9c.9-.9,1.7-2.6,2-5.9.8-.2,2.2-.5,4.1-.6.2,2.6.4,5.3.6,7.9,0,0,0,0,0,.1.5,6.2,1,10.8,1,10.8,0,.6.4,1.1.9,1.4.3.2.7.3,1.1.3s.4,0,.6,0c1-.3,4.9-.5,9.7-.5h.5c.4,0,.8,0,1.2,0,3,0,6.8-.5,6.9-.5.1,0,.3,0,.4,0l9.2-3.2c3.5-1.2,5.7-2.7,7-4,0,.6,0,1.2,0,1.8,0,3.7,1.9,5.8,3.3,6.8-.1,2.8.3,7.8.5,10.1,0,.6.3,1.1.8,1.4,2.5,1.8,5.3,2.8,8.4,2.8,4.7,0,8.4-2.2,8.6-2.3.6-.4.9-1,1-1.7v-9.4c1.2-.4,1.6-1.1,1.9-1.6.8-1.8-.4-4.1-1.9-6,3.5-7.3,1.2-17.7.7-19.4-.2-10.2-4.7-57.3-4.9-59.3-2.2-19.3-7.5-23.6-8-24.1-5.6-4.2-12-6.1-13.9-6.6l-3.7-4.9c-.7-1-1.9-1.6-3.2-1.6h-.1s-.2,0-.2,0h0Z" class="st7"></path>
  <path d="M101.3,11.6s17.8,2.2,20.8,24" class="st1"></path>
  <circle r=".4" cy="37.1" cx="122.2" class="st7"></circle>
  <path d="M27.3,92.2s-5.6,13.9-4.6,18.3l-2.2,7.5" class="st5"></path>
</svg>