<svg viewBox="0 0 150.1 150.1" version="1.1" xmlns="http://www.w3.org/2000/svg" id="ICONS">
  
  <defs>
    <style>
      .st0, .st1, .st2, .st3, .st4, .st5, .st6, .st7 {
        fill: none;
      }

      .st1 {
        stroke-miterlimit: 10;
      }

      .st1, .st2, .st3, .st4, .st5, .st7 {
        stroke: #221f20;
      }

      .st1, .st3, .st5, .st6, .st8, .st9, .st7 {
        stroke-linecap: round;
      }

      .st1, .st4, .st5, .st7 {
        stroke-width: .8px;
      }

      .st2 {
        stroke-width: .7px;
      }

      .st3 {
        stroke-width: 2px;
      }

      .st3, .st4, .st5, .st6, .st8, .st9, .st7 {
        stroke-linejoin: round;
      }

      .st10 {
        fill: #221f20;
      }

      .st6, .st8, .st9 {
        stroke: #000;
      }

      .st6, .st9 {
        stroke-width: .7px;
      }

      .st8 {
        stroke-width: .7px;
      }

      .st8, .st9 {
        fill: #fff;
      }

      .st7 {
        stroke-dasharray: 0 0 0 0 0 3;
      }
    </style>
  </defs>
  <g>
    <rect height="149.6" width="149.6" y=".2" x=".2" class="st0"></rect>
    <g>
      <g>
        <line y2="31.1" x2="110.5" y1="31.1" x1="108" class="st1"></line>
        <line y2="31.1" x2="105.7" y1="31.1" x1="103.2" class="st1"></line>
      </g>
      <g>
        <line y2="27.5" x2="106.8" y1="29.9" x1="106.8" class="st1"></line>
        <line y2="32.3" x2="106.8" y1="34.7" x1="106.8" class="st1"></line>
      </g>
    </g>
    <path d="M110,62.1l12.8,5.4s5.4,7.3,9.6,17.4" class="st1"></path>
    <circle r=".4" cy="86.5" cx="133.2" class="st10"></circle>
    <path d="M20.1,74.5s-.5,8.5.5,12.3c0,0-1.2,6.7.1,9.2" class="st7"></path>
  </g>
  <g>
    <g>
      <path d="M55.1,14.5c2.6,0,5,.1,7.2.4l-12.9-.2c1.8-.1,3.7-.2,5.7-.2Z" class="st9"></path>
      <path d="M86.1,63.8v-9.5l5.7-1.3,8.5-19.7-18.6-8-18.1-7.8h0s-1.2-2.6-1.2-2.6l-12.9-.2h0,0s-1.4,3.2-1.4,3.2l-17.3,6.9-19,7.6,8.2,19.9,5.8,1.5h0s.3,36.2.3,36.2l29.6.4h5.3" class="st6"></path>
    </g>
    <g>
      <path d="M50.9,18.1c1.2-.1,2.7-.2,4.5-.2,2.1,0,3.8.2,5.1.4" class="st5"></path>
      <line y2="90.4" x2="55.4" y1="29.4" x1="55.9" class="st5"></line>
      <ellipse transform="translate(0 0) rotate(-.1)" ry=".9" rx="1" cy="44.5" cx="42.6" class="st10"></ellipse>
      <ellipse transform="translate(23.3 90.9) rotate(-89.6)" ry="1" rx=".9" cy="33.7" cx="57.4" class="st10"></ellipse>
      <ellipse transform="translate(13.6 100.6) rotate(-89.6)" ry="1" rx=".9" cy="43.5" cx="57.4" class="st10"></ellipse>
      <ellipse transform="translate(3.4 110.6) rotate(-89.6)" ry="1" rx=".9" cy="53.6" cx="57.4" class="st10"></ellipse>
      <ellipse transform="translate(-6.5 120.6) rotate(-89.6)" ry="1" rx=".9" cy="63.6" cx="57.5" class="st10"></ellipse>
      <ellipse transform="translate(-15.6 129.6) rotate(-89.6)" ry="1" rx=".9" cy="72.7" cx="57.5" class="st10"></ellipse>
      <ellipse transform="translate(-25.7 139.6) rotate(-89.6)" ry="1" rx=".9" cy="82.8" cx="57.5" class="st10"></ellipse>
      <ellipse transform="translate(0 .1) rotate(-.1)" ry=".9" rx="1" cy="44.4" cx="69.2" class="st10"></ellipse>
      <g>
        <path d="M49.2,14.7c1.8-.1,3.7-.2,5.7-.2,2.6,0,5,.1,7.2.4" class="st5"></path>
        <polygon points="49.2 15 55.7 27.6 51.3 31 46.7 20.2 49.2 15" class="st5"></polygon>
        <polygon points="62.1 15.2 55.8 27.5 60.4 31 64.6 20.4 62.1 15.2" class="st5"></polygon>
        <line y2="29.4" x2="55.7" y1="28.6" x1="54.7" class="st5"></line>
        <path d="M50.2,40.6c-2.9-.2-6.2-.4-9.3-.5-2.1,0-4.1,0-6,0v3.8c0,0,1.8,2.1,1.8,2.1l12,.3,1.5-1.9-.2-3.9" class="st5"></path>
        <path d="M50,44.5c0,2.6-.2,4.8-.1,6.2,0,2.8.2,4.4-.8,5.5-.5.5-1.1.7-1.6.9-1.9.2-7.1.9-10.5-.3-.6-.2-1.1-.4-1.6-1-1-1.2-.8-2.7-.6-5.6,0-1.3.1-3.7.1-6.3" class="st5"></path>
        <path d="M61.7,40.6c2.9-.2,6.2-.4,9.3-.5,2.1,0,4.1,0,6,0v3.8c0,0-1.8,2.1-1.8,2.1l-12,.4-1.5-1.9.2-3.9" class="st5"></path>
        <path d="M61.9,44.6c0,2.6.2,4.8.2,6.1,0,2.8-.2,4.4.8,5.5.5.5,1.1.7,1.6.9,1.9.2,7.1.9,10.5-.3.6-.2,1.1-.4,1.6-1,1-1.2.8-2.7.6-5.6,0-1.3-.1-3.7-.2-6.3" class="st5"></path>
        <path d="M30.5,24.8c1.7,4.5,1.5,6.9,1.6,9.6.2,3.5.4,8-1.9,12.9-1.4,3.1-3.4,5.2-4.7,6.4l.3,36.3,29.6.4" class="st5"></path>
        <polyline points="47.8 17.9 11.4 32.5 19.7 52.4 25.5 53.8" class="st5"></polyline>
        <path d="M81.5,25.2c-1.8,4.5-1.6,6.9-1.8,9.5-.3,3.5-.6,8,1.6,12.9,1.4,3.1,3.3,5.2,4.6,6.5" class="st5"></path>
        <polyline points="63.3 17.5 100.1 33.3 91.6 53 85.8 54.3" class="st5"></polyline>
      </g>
    </g>
    <g>
      <path d="M70.8,129.7s0,0,0-.1c0,0,0,0-.1,0v.2Z" class="st8"></path>
      <path d="M70.8,129.7s0,0,0-.1c0,0,0,0-.1,0v.2Z" class="st2"></path>
    </g>
    <g>
      <path d="M51.8,117.4c-.5.8-1,1.9-1.3,3.3-.2.6-.2,1.2-.3,1.7" class="st4"></path>
      <path d="M51.7,117.6c.7-6.5,2.3-11.4,3.5-14.7,1.3-3.3,1.6-3.1,4.5-9.6,2.6-6,4-9,5.2-12.5,2-5.7,2.5-7.4,4.4-9.4l16-7c.4,1,.8,2.1,1.4,3.2,1,2.2,2.1,4.1,3.2,5.7l3.9-3.7c-1.2-1.4-2.6-3.2-3.9-5.4-.9-1.5-1.6-2.8-2.1-4.1" class="st4"></path>
      <path d="M69.4,71.3c-.3,2.2-.6,5.7-.7,9.9-.3,7,.2,9.1.8,22.5.4,8.3.3,10.7.8,18.2.2,3.4.5,6.2.6,8.1" class="st4"></path>
      <path d="M69.5,109.1c-.7,1.2-2.2,4.2-3,5.4-1.5,2.3-2.1,3.3-3.2,4.8-.6.8-1.1,1.4-1.4,1.8h-.2c-1.5,0-3.6-.5-5.9-1.4-1.7-.7-3.1-1.6-4.2-2.3" class="st4"></path>
      <path d="M61.8,121.2c-.2,1-.5,2.2-1.2,3.5-.3.6-.6,1.1-.9,1.6" class="st4"></path>
      <path d="M50,122.2c1.2.8,2.8,1.7,4.6,2.4,2.1.8,3.8,1.3,4.5,1.4.3,0,.6.1.8.2" class="st4"></path>
      <path d="M137.2,117.9c-.7-6.6-2.3-11.6-3.6-14.9-1.3-3.3-1.6-3.1-4.5-9.7-2.7-6.1-4-9.1-5.3-12.7-2-5.8-2.6-7.5-4.5-9.5l-16.3-7.1" class="st4"></path>
      <path d="M119.3,71c.3,2.2.6,5.7.8,10,.3,7.1-.2,9.2-.8,22.9-.4,8.4-.3,10.9-.8,18.5-.2,3.5-.5,6.3-.6,8.3" class="st4"></path>
      <path d="M118.9,109c.8,1.2,2.3,4.2,3,5.4,1.5,2.3,2.1,3.4,3.3,4.9.6.8,1.1,1.4,1.5,1.8h.2c1.6,0,3.7-.5,6-1.4,1.7-.7,3.2-1.6,4.2-2.4" class="st4"></path>
      <path d="M136.9,117.3c.5.8,1,2,1.4,3.3.2.6.2,1.2.3,1.7" class="st4"></path>
      <path d="M126.7,121.2c.2,1,.5,2.2,1.2,3.5.3.6.6,1.1.9,1.6" class="st4"></path>
      <path d="M138.7,122.1c-1.3.8-2.8,1.7-4.7,2.5-2.1.9-3.8,1.3-4.6,1.4-.3,0-.6.1-.8.2" class="st4"></path>
      <line y2="64.5" x2="85.5" y1="60.3" x1="87.8" class="st4"></line>
      <g>
        <path d="M100.8,60c-.5,1.3-1.2,2.7-2,4.2-1.2,2.2-2.5,4-3.7,5.5l4,3.5c1-1.7,2.1-3.6,3-5.8.5-1.1.9-2.2,1.3-3.3" class="st4"></path>
        <line y2="64.4" x2="103.2" y1="60.2" x1="100.8" class="st4"></line>
        <path d="M117.8,130.4c-3.8,1.6-5.9,4-11.6,5.3-3.5.8-7,.9-9.7,1h-1.7c-2.7,0-6.4-.1-9.9-.8-5.7-1.1-10.2-4-14.2-6" class="st4"></path>
      </g>
      <path d="M70.7,129.9c2.4,1,6.4,2.6,10.4,3.5,8.8,2.1,15.9,1.2,18.5,1,7.2-.5,13.8-2.5,18-4.2" class="st4"></path>
      <polyline points="95.7 70.1 94.7 71.4 94.1 71.4 93.2 70" class="st4"></polyline>
      <path d="M88,60.2c1,.2,2.4.5,4.2.6,1.6,0,2.8,0,4.9-.2,1.1,0,1.8-.2,3.5-.5" class="st4"></path>
      <path d="M89.5,63.5c1.2.3,2.7.6,4.6.6,2.1,0,3.9-.4,5.2-.7" class="st4"></path>
      <line y2="134.9" x2="93.8" y1="71.4" x1="93.9" class="st4"></line>
      <line y2="68.3" x2="96.2" y1="70" x1="93.4" class="st4"></line>
      <path d="M101.5,84.1c2.7,0,5.9-.1,8.9,0,2,0,3.9.1,5.7.3v3.6c-.1,0-2,1.9-2,1.9l-11.4-.2-1.4-1.9.3-3.7" class="st4"></path>
      <path d="M101.5,87.9c0,2.5,0,4.6-.1,5.8-.2,2.7-.4,4.2.5,5.3.4.5,1,.7,1.5.9,1.7.3,6.7,1.1,10,.2.6-.2,1.1-.4,1.6-.9,1-1.1.9-2.6.8-5.3,0-1.3,0-3.5.1-6" class="st4"></path>
      <ellipse transform="translate(16.5 173.3) rotate(-89.6)" ry="1" rx=".9" cy="78.3" cx="95.5" class="st10"></ellipse>
      <ellipse transform="translate(7 182.7) rotate(-89.6)" ry="1" rx=".9" cy="87.8" cx="95.5" class="st10"></ellipse>
      <ellipse transform="translate(-2.8 192.5) rotate(-89.6)" ry="1" rx=".9" cy="97.7" cx="95.5" class="st10"></ellipse>
      <ellipse transform="translate(-12.5 202.2) rotate(-89.6)" ry="1" rx=".9" cy="107.4" cx="95.6" class="st10"></ellipse>
      <ellipse transform="translate(-21.4 211) rotate(-89.6)" ry="1" rx=".9" cy="116.2" cx="95.6" class="st10"></ellipse>
      <ellipse transform="translate(-31.2 220.7) rotate(-89.6)" ry="1" rx=".9" cy="126.1" cx="95.6" class="st10"></ellipse>
      <ellipse transform="translate(20 195.7) rotate(-89.6)" ry=".9" rx=".9" cy="87.8" cx="108.6" class="st10"></ellipse>
    </g>
  </g>
  <path d="M85.3,63.7l.4-10,5.8-1.4,8.5-19.7-36.8-15.8-1.2-2.3c-2.2-.2-4.6-.7-7.2-.7-2,0-3.9.3-5.7.4l-1.4,2.9L11.4,31.9l8.2,19.9,5.8,1.5h0c0,0,.3,36.2.3,36.2l35.2.5" class="st3"></path>
  <path d="M85.5,63.9l2.5-4.6c1,.2,2.4.8,4.2.9,1.6,0,2.8,0,4.9-.2,1.1,0,1.8-.2,3.5-.5l2.4,3.7,16.3,7.1c1.9,2,2.5,3.8,4.5,9.5,1.2,3.6,2.6,6.6,5.3,12.7,2.9,6.6,3.2,6.4,4.5,9.7,1.3,3.3,2.9,8.3,3.6,14.9l-.2-.6c.5.8,1,2,1.4,3.3.2.6.2,1.2.3,1.7v-.2c-1.2.8-2.7,1.7-4.6,2.5-2.1.9-3.8,1.3-4.6,1.4-.3,0-.6.1-.8.2h.2c-.3-.3-.6-.9-.9-1.5-.7-1.3-1-2.6-1.2-3.5h.2s-.2-.1-.2-.1c-.3-.4-.9-1-1.5-1.8-1.1-1.5-1.8-2.6-3.3-4.9-.8-1.2-2.3-4.2-3-5.4-.4,8.4,0,5.8-.5,13.4-.2,3.5-.5,6.3-.6,8.3v-.2c-3.8,1.6-5.9,4-11.6,5.3-3.5.8-7,.9-9.7,1h-1.7c-2.7,0-6.4-.1-9.9-.8-5.7-1.1-10.2-4-14.2-6v.2c0-1.9-1-17.5-1.2-21-.7,1.2-2.2,4.2-3,5.4-1.5,2.3-2.1,3.3-3.2,4.8-.6.8-1.1,1.4-1.4,1.8h-.2c0,.1.2.1.2.1-.2,1-.5,2.2-1.2,3.5-.3.6-.6,1.1-.9,1.6h.2c-.2-.2-.5-.2-.8-.3-.7-.2-2.4-.6-4.5-1.4-1.8-.7-3.4-1.6-4.6-2.4v.2c.1-.5.2-1.1.4-1.7.3-1.4.9-2.5,1.3-3.3v.2c.7-6.5,2.2-11.4,3.5-14.7,1.3-3.3,1.6-3.1,4.5-9.6,2.6-6,0,.8,1.2-2.8" class="st3"></path>
</svg>