<svg viewBox="0 0 150.1 150.1" version="1.1" xmlns="http://www.w3.org/2000/svg" id="ICONS">
  
  <defs>
    <style>
      .st0, .st1, .st2, .st3 {
        fill: none;
      }

      .st1, .st2, .st4 {
        stroke-miterlimit: 10;
      }

      .st1, .st2, .st4, .st3 {
        stroke: #221f20;
      }

      .st1, .st2, .st3 {
        stroke-width: .8px;
      }

      .st1, .st3 {
        stroke-linecap: round;
      }

      .st5, .st4 {
        fill: #221f20;
      }

      .st4 {
        stroke-width: 1.1px;
      }

      .st3 {
        stroke-dasharray: 0 0 0 0 0 3;
        stroke-linejoin: round;
      }
    </style>
  </defs>
  <g>
    <rect height="149.6" width="149.6" y=".2" x=".2" class="st0"></rect>
    <rect transform="translate(150.1 0) rotate(90)" height="129.6" width="129.6" y="10.2" x="10.2" class="st0"></rect>
  </g>
  <g>
    <g>
      <path d="M87.7,12.6c11.4,0,27.1,3.6,27.1,3.6,0,0,1.1,1.3,2.2,5.7.2,0,.3,0,.3,0h-.3c1.4,5.8,2.8,17,1.3,37.6l-8.4,58.8s2.5,5.1-.8,5.6l-.2,1.9v.2s-.5,4.8-.5,4.8c0,0-1,1.1-4.6,1.1s-2.1,0-3.4-.3l-1.6-6v-.2s-.6-1.9-.6-1.9c0,0-3-2.5-.7-5.6,0,0-2.7-10.9-2-18.9-1.7,7.1-4.6,26.4-4.6,26.4,2.4,2-.5,4.4-.5,4.4l-.5,6.6c-1.7,1-3.5,1.3-5,1.3s-3.8-.5-3.8-.5l-1.5-7.4c-2.3-.7-.7-4.1-.7-4.1-.5-2.2-.8-6-1.1-10.4-3,.7-5.9,1-8.5,1.3l-7.8.7c-1.7.2-3,.3-3.9.3-2.6,0-2.6-.6-2.6-.6l-.9-3.4c-2.6,1.5-6.4,2-10.2,2-7.6,0-15.4-2.1-14.7-3.2.2-1.8,1.3-17.6,1.3-17.6.6-9.8,2-27.9,3.5-36.5,1.6-5,1.9-6,1.8-9.8,0-.6.2-1.2.5-1.6,6.2-7.7,21.6-8.4,31.7-8.4,1.9,0,3.6,0,5,0,1.9.1,3.3.4,4.4.8,0-4.7,0-7.7,0-7.7-.3-6.4,0-10.6.3-13.3h0c.5-3.8,1.3-4.7,1.3-4.7,2.1-.9,5.1-1.2,8.6-1.2M87.7,10.6v2s0-2,0-2c-4.1,0-7.2.4-9.4,1.4-.3.1-.5.3-.7.5-.5.5-1.3,1.9-1.8,5.7h0c-.5,3.5-.6,8.1-.3,13.7,0,.3,0,2.2,0,5.2-.7-.1-1.5-.2-2.3-.2,0,0,0,0-.1,0h-1.3c-1.1,0-2.4,0-3.8,0-11.1,0-26.7.9-33.3,9.1-.7.8-1,1.9-1,3,.1,3.4-.1,4.1-1.7,9,0,0,0,.2,0,.3-1.5,8.8-2.9,26.8-3.5,36.8,0,.7-1,14.7-1.2,17.3-.1.5,0,1.1.2,1.6,1.4,2.8,11.6,4,16.5,4s6.5-.4,8.8-1.2l.3,1.1c0,.4.3.8.6,1.1.7.7,1.9,1.1,4,1.1s2.5,0,4.1-.3l7.8-.7s0,0,0,0h.8c1.7-.3,3.6-.6,5.5-.9.2,3.5.5,6,.8,7.8-.3.9-.7,2.7,0,4.2.3.6.6,1.1,1.1,1.4l1.3,6.4c.1.7.6,1.3,1.3,1.5.2,0,2,.7,4.4.7s4.3-.5,6-1.5c.6-.3.9-.9,1-1.6l.4-5.9c.6-.7,1.5-2,1.5-3.6,0-.7-.2-1.5-.8-2.4.3-1.8.9-5.9,1.6-10.4.3,1.4.5,2.5.6,3.1-1.5,2.8-.4,5.5,1.1,7l.4,1.4v.2s1.7,6,1.7,6c.2.8.9,1.4,1.7,1.5,1.3.2,2.5.3,3.7.3,4.2,0,5.8-1.4,6.1-1.8.3-.3.5-.7.5-1.1l.5-4.8v-.2s0-.7,0-.7c.6-.4,1.1-.9,1.4-1.5,1-2,.1-4.6-.4-5.9l8.4-58.2s0,0,0-.1c1.4-19.7.3-31-1.1-37.1,0-.1,0-.2,0-.3,0-.7-.1-1.3-.6-1.7-1.1-4-2.2-5.4-2.4-5.7-.3-.3-.6-.5-1.1-.6-.7-.1-16.1-3.7-27.5-3.7h0Z" class="st5"></path>
      <g>
        <path d="M77.9,115.5c.2,4.4.6,8.2,1.1,10.4,0,0-1.5,3.4.7,4.1l1.5,7.4s4.8,1.6,8.8-.7l.5-6.6s2.9-2.5.5-4.4c0,0,2.8-19.3,4.6-26.4" class="st2"></path>
        <path d="M106.5,49.2c-6.1,16.5-10.9,49.9-10.9,49.9-.8,8,2,18.9,2,18.9-2.3,3.1.7,5.6.7,5.6l2.2,8.1c6.5.9,8-.8,8-.8l.7-6.9c3.3-.5.8-5.6.8-5.6l8.4-58.8c2.6-36.4-3.5-43.4-3.5-43.4,0,0-26.8-6.2-35.7-2.4,0,0-2.3,2.5-1.6,17.9,0,0,0,3,0,7.7" class="st2"></path>
        <path d="M117.5,22s-30.1-5.7-39.9-3.5" class="st2"></path>
        <path d="M110,18.2s1.4,14.3.2,20.7" class="st4"></path>
        <path d="M107.5,18.2s1.4,14.3.2,20.7" class="st4"></path>
        <path d="M109.4,125.9s-3.8,2.1-11.2-.4" class="st2"></path>
        <path d="M90.4,132s-5.4,3.2-11,0" class="st2"></path>
        <path d="M85.6,22s-.3,15.3-3,19.2" class="st2"></path>
        <g>
          <path d="M35.9,48.7c.2,3.7-.2,4.8-1.8,9.8-1.4,8.6-2.9,26.8-3.5,36.5,0,0-1.1,15.9-1.3,17.6-1.1,1.6,17.2,5.6,24.9,1.2l.9,3.4s0,1,6.5.3l7.8-.7c5.3-.7,11.7-1.3,17.2-4.7-.2-10.6-.4-36.4-1.9-46.8-.4-3.1-3.3-18.5-3.6-22.6,0,0,0-3.5-8-4-9,0-29.4-.7-36.7,8.4-.4.5-.6,1.1-.5,1.6Z" class="st2"></path>
          <path d="M35.6,53.4c3.5-6.6,39.1-12.6,46.1-5.6" class="st2"></path>
          <path d="M48.7,76.9c-.9,7.9,3.9,31.3,6.7,40.3" class="st2"></path>
          <path d="M45.3,44.4c-1.1,2.2-1,21.3-1.2,24.4" class="st2"></path>
          <path d="M48.7,44.4c-1.1,2.2-1,21.3-1.2,24.4" class="st2"></path>
          <path d="M77,50.7s2.8,19,5.9,22.8" class="st2"></path>
        </g>
      </g>
    </g>
    <path d="M26.2,105.3l-.8,9.5s1.6,2.9,6.9,3.9" class="st1"></path>
    <path d="M113.5,9.8l7.5,2.3s2.6,3.5,3.6,10.7" class="st3"></path>
    <g>
      <g>
        <line y2="38.3" x2="36.6" y1="38.3" x1="34.1" class="st1"></line>
        <line y2="38.3" x2="31.7" y1="38.3" x1="29.3" class="st1"></line>
      </g>
      <g>
        <line y2="34.7" x2="32.9" y1="37.1" x1="32.9" class="st1"></line>
        <line y2="39.5" x2="32.9" y1="41.9" x1="32.9" class="st1"></line>
      </g>
    </g>
    <g>
      <g>
        <line y2="121" x2="124.7" y1="121" x1="122.2" class="st1"></line>
        <line y2="121" x2="119.8" y1="121" x1="117.4" class="st1"></line>
      </g>
      <g>
        <line y2="117.4" x2="121" y1="119.9" x1="121" class="st1"></line>
        <line y2="122.2" x2="121" y1="124.6" x1="121" class="st1"></line>
      </g>
    </g>
    <path d="M73.4,23.2v11.2c.1,0-9.4-1-13.6.4" class="st1"></path>
  </g>
</svg>