<svg viewBox="0 0 150.1 150.1" version="1.1" xmlns="http://www.w3.org/2000/svg" id="ICONS">
  
  <defs>
    <style>
      .st0, .st1, .st2, .st3, .st4 {
        fill: none;
      }

      .st1, .st2, .st3, .st4 {
        stroke: #221f20;
      }

      .st1, .st5, .st3 {
        stroke-miterlimit: 10;
      }

      .st1, .st3, .st4 {
        stroke-width: .8px;
      }

      .st1, .st4 {
        stroke-linecap: round;
      }

      .st2 {
        stroke-width: .7px;
      }

      .st6 {
        fill: #221f20;
      }

      .st5 {
        fill: #fff;
        stroke: #000201;
        stroke-width: 1.1px;
      }

      .st4 {
        stroke-dasharray: 0 0 0 0 0 3;
        stroke-linejoin: round;
      }
    </style>
  </defs>
  <g>
    <g>
      <path d="M78.8,21.9s-7.5,3.6-16.4,1.5c0,0-7.8-2.1-4.1-5.9h0c.2-.3.5-.5.9-.8.8-.6,1.8-1.2,3.2-1.9,4.1-2,9.2-2.7,9.2-2.7,0,0,8.1-1.3,13.5.7,0,0,0,0,.1,0h0c.2,0,.5.3.8.5h0c1.6,1.2,3.8,4.2-7.3,8.6Z" class="st3"></path>
      <path d="M63.5,13.4c-10.2,4.9,0,7.6,0,7.6,7.8,1.9,14.5-1.3,14.5-1.3,12.8-5.1,5.6-8.1,5.6-8.1-4.7-1.7-11.9-.6-11.9-.6,0,0-4.5.6-8.1,2.4Z" class="st3"></path>
      <path d="M58.3,17.5h0" class="st5"></path>
      <path d="M35.6,37.1c3.2-10.7,9.1-13.4,9.1-13.4,3-2.1,13.1-6,13.5-6.1-3.7,3.8,4.1,5.9,4.1,5.9,8.9,2.1,16.4-1.5,16.4-1.5,11.1-4.4,8.9-7.4,7.3-8.6.5.2,17.4,6.2,19.4,8.2,0,0,2.7,2.4,4.9,6.9-11.4,7.8-14.4,18.5-14.4,18.5-1.9,7,.8,19.8.8,19.8.8,0,1.5,0,2.2-.2-4.1,24.5-1.7,66.9-1.7,66.9-25.9,16.4-54.5-6-54.5-6,1-9.4,2.3-63.6,2.4-69.5,0,0,0-.2,0-.2,0-.2,0-.3,0-.3" class="st3"></path>
      <path d="M116.6,61.8s-1,3.5-17.7,4.8c-.7,0-1.5.1-2.2.2,0,0-2.8-12.8-.8-19.8,0,0,3-10.7,14.4-18.5,1.7,3.4,3.2,8.1,3,13.8,0,0,1.2,15.5,3.3,19.6Z" class="st3"></path>
      <path d="M86,13.4h0" class="st5"></path>
      <path d="M45.1,57.6s0,0,0,.3c0,0,0,.1,0,.2l-.3,5.7c-6.6-.9-11.4-4.5-11.4-4.5l.3-8.3c0-5.7.8-10.3,1.9-14,.3.4,1.8,2.5,3.5,5.3,1.2,1.9,2.4,4.1,3.5,6.4,1.9,4.7,2.5,8.8,2.5,8.8Z" class="st3"></path>
    </g>
    <g>
      <path d="M78.8,21.9s-7.5,3.6-16.4,1.5c0,0-7.8-2.1-4.1-5.9h0c.2-.3.5-.5.9-.8.8-.6,1.8-1.2,3.2-1.9,4.1-2,9.2-2.7,9.2-2.7,0,0,8.1-1.3,13.5.7,0,0,0,0,.1,0h0c.2,0,.5.3.8.5h0c1.6,1.2,3.8,4.2-7.3,8.6Z" class="st2"></path>
      <path d="M63.5,13.4c-10.2,4.9,0,7.6,0,7.6,7.8,1.9,14.5-1.3,14.5-1.3,12.8-5.1,5.6-8.1,5.6-8.1-4.7-1.7-11.9-.6-11.9-.6,0,0-4.5.6-8.1,2.4Z" class="st2"></path>
      <path d="M58.3,17.5h0" class="st2"></path>
      <path d="M35.6,37.1c3.2-10.7,9.1-13.4,9.1-13.4,3-2.1,13.1-6,13.5-6.1-3.7,3.8,4.1,5.9,4.1,5.9,8.9,2.1,16.4-1.5,16.4-1.5,11.1-4.4,8.9-7.4,7.3-8.6.5.2,17.4,6.2,19.4,8.2,0,0,2.7,2.4,4.9,6.9-11.4,7.8-14.4,18.5-14.4,18.5-1.9,7,.8,19.8.8,19.8.8,0,1.5,0,2.2-.2-4.1,24.5-1.7,66.9-1.7,66.9-25.9,16.4-54.5-6-54.5-6,1-9.4,2.3-63.6,2.4-69.5,0,0,0-.2,0-.2,0-.2,0-.3,0-.3" class="st2"></path>
      <path d="M116.6,61.8s-1,3.5-17.7,4.8c-.7,0-1.5.1-2.2.2,0,0-2.8-12.8-.8-19.8,0,0,3-10.7,14.4-18.5,1.7,3.4,3.2,8.1,3,13.8,0,0,1.2,15.5,3.3,19.6Z" class="st2"></path>
      <path d="M86,13.4h0" class="st2"></path>
      <path d="M45.1,57.6s0,0,0,.3c0,0,0,.1,0,.2l-.3,5.7c-6.6-.9-11.4-4.5-11.4-4.5l.3-8.3c0-5.7.8-10.3,1.9-14,.3.4,1.8,2.5,3.5,5.3,1.2,1.9,2.4,4.1,3.5,6.4,1.9,4.7,2.5,8.8,2.5,8.8Z" class="st2"></path>
    </g>
  </g>
  <path d="M77,10.6c2.2,0,4.6.2,6.7,1,0,0,1.1.5,1.7,1.3h0c.2,0,.5.3.8.5h0c.5.2,17.4,6.2,19.4,8.2,0,0,2.7,2.4,4.9,6.9,1.7,3.4,3.2,8.1,3,13.8,0,0,1.2,15.5,3.3,19.6,0,0-1,3.5-17.7,4.8-4.1,24.5-1.7,66.9-1.7,66.9-6.9,4.4-14.1,6-20.8,6-18.3,0-33.7-12-33.7-12,1-9.4,2-57.9,2.1-63.8-6.6-.9-11.4-4.5-11.4-4.5l.3-8.3c0-5.7.8-10.3,1.9-14,3.2-10.7,9.1-13.4,9.1-13.4,3-2.1,13.1-6,13.5-6.1h0c.2-.3.5-.5.9-.8h0c.4-1,1.7-2.1,4.3-3.4,3.6-1.7,8.1-2.4,8.1-2.4,0,0,2.3-.4,5.2-.4M77,8.6c-3,0-5.4.4-5.5.4-.2,0-4.8.7-8.7,2.5-2.6,1.3-4.3,2.5-5.1,3.9-.1.1-.3.2-.4.4-2.4.9-10.4,4.1-13.4,6.1-1.2.6-6.9,4-10,14.6-1.2,4.2-1.9,9.1-2,14.5l-.3,8.2c0,.7.3,1.3.8,1.7.2.1,4.4,3.3,10.5,4.5-.9,44-1.6,57.9-2,61.9,0,.7.2,1.4.8,1.8.6.5,16.1,12.4,34.9,12.4s15.3-2.1,21.9-6.3c.6-.4,1-1.1.9-1.8,0-.4-2.2-40.7,1.5-64.9,14.4-1.3,17.4-4.4,17.9-6.1.1-.5,0-1-.1-1.5-1.4-2.7-2.6-12.8-3-18.7.1-5.2-1-10.1-3.3-14.6-2.3-4.6-5-7.2-5.3-7.5-2.4-2.3-17.7-7.7-19.9-8.5-.2-.1-.3-.2-.5-.3-.9-1-2-1.5-2.2-1.6,0,0,0,0,0,0-1.9-.7-4.4-1.1-7.3-1.1h0Z" class="st6"></path>
  <g>
    <g>
      <line y2="21.4" x2="36.1" y1="21.4" x1="33.7" class="st1"></line>
      <line y2="21.4" x2="31.3" y1="21.4" x1="28.8" class="st1"></line>
    </g>
    <g>
      <line y2="17.8" x2="32.5" y1="20.3" x1="32.5" class="st1"></line>
      <line y2="22.6" x2="32.5" y1="25" x1="32.5" class="st1"></line>
    </g>
  </g>
  <rect height="149.6" width="149.6" y=".2" x=".2" class="st0"></rect>
  <rect transform="translate(150.1 0) rotate(90)" height="129.6" width="129.6" y="10.2" x="10.2" class="st0"></rect>
  <g>
    <path d="M121.6,67.7s-9.1,5.1-17.3,4.3c0,0-1.7,12.4-.8,17.7" class="st1"></path>
    <circle r=".4" cy="91" cx="103.7" class="st6"></circle>
  </g>
  <path d="M39.5,114.6l-1.2,14.8s2.9,3.7,8.8,6.1" class="st4"></path>
</svg>