<svg viewBox="0 0 150.1 150.1" version="1.1" xmlns="http://www.w3.org/2000/svg" id="ICONS">
  
  <defs>
    <style>
      .st0, .st1, .st2, .st3, .st4, .st5, .st6 {
        fill: none;
      }

      .st1, .st7, .st5, .st8 {
        stroke-miterlimit: 10;
      }

      .st1, .st2, .st3, .st4, .st5, .st8, .st6 {
        stroke: #221f20;
      }

      .st1, .st4, .st5, .st6 {
        stroke-width: .8px;
      }

      .st1, .st6 {
        stroke-linecap: round;
      }

      .st7 {
        fill: #000201;
        stroke: #9b9b9b;
      }

      .st3 {
        stroke-width: .7px;
      }

      .st9, .st8 {
        fill: #221f20;
      }

      .st8 {
        stroke-width: .5px;
      }

      .st6 {
        stroke-dasharray: 0 0 0 0 0 3;
        stroke-linejoin: round;
      }
    </style>
  </defs>
  <circle r=".4" cy="67.7" cx="113.4" class="st7"></circle>
  <path d="M113.6,71.2c2.4,7.6,3.7,12,5.5,15,.7,1.1,2.3,3.9,1.3,5.9-.2.3-.6,1-2.8,2.2-1.3.7-3.3,1.7-5.9,2.4" class="st1"></path>
  <path d="M34.6,82.2s-1.5,1.7,0,3,9.1,4.4,9.1,4.4c0,0-.4,2.5-.6,2.6s-.4,2,.7,2.7,3.9,4.4,17,3c13.2-1.3,16.1-.7,16.1-.7,0,0,5.5,4.8,22,1.4l-.8-5s20.2-2.1,16.4-6.7-7.3-22.2-9.7-24.1-3.3-8.9-13.1-12.6c-9.9-3.7-10.7-4.4-10.7-4.4,0,0-8.1-.6-18.1,1.5,0,0-2.7,2.1-7.6,3.3s-8.1,6.4-10.4,10.8c-2.3,4.4-10.2,21-10.2,21Z" class="st3"></path>
  <path d="M78.1,45.6c1.8,0,2.9,0,2.9,0,0,0,.9.7,10.7,4.4,9.9,3.7,10.7,10.7,13.1,12.6,2.4,1.9,5.9,19.4,9.7,24.1,3.8,4.7-16.4,6.7-16.4,6.7l.8,5c-4.3.9-7.9,1.2-10.8,1.2-8.2,0-11.2-2.6-11.2-2.6,0,0-.6-.1-2.7-.1s-6.4.2-13.4.9c-2,.2-3.8.3-5.3.3-8.6,0-10.8-2.7-11.7-3.3-1.1-.7-.9-2.7-.7-2.7.2,0,.6-2.6.6-2.6,0,0-7.6-3.1-9.1-4.4-1.5-1.3,0-3,0-3,0,0,7.9-16.6,10.2-21,2.3-4.4,5.6-9.7,10.4-10.8,4.9-1.1,7.6-3.3,7.6-3.3,6.4-1.3,12-1.6,15.2-1.6M78.1,43.6c-3.6,0-9.2.3-15.6,1.6-.3,0-.6.2-.8.4,0,0-2.5,1.9-6.8,2.9-5.6,1.3-9.1,6.7-11.8,11.8-2.2,4.1-9.2,18.9-10.2,20.8-.4.5-1,1.6-.9,3,0,1,.5,1.9,1.4,2.6,1.3,1.1,5.6,3,8.2,4.1,0,.1,0,.2,0,.3-.2.3-.3.7-.4,1.2-.2,1.3.2,3.2,1.7,4.2,0,0,.2.1.3.2,1.3,1,4.3,3.5,12.5,3.5s3.6-.1,5.5-.3c7-.7,11.1-.9,13.2-.9s1.6,0,1.9,0c1.3.9,4.9,2.7,11.9,2.7s7.2-.4,11.2-1.3c1-.2,1.7-1.2,1.6-2.3l-.5-3c1.5-.2,3.7-.5,6-1,8-1.7,9.8-3.6,10.4-5,.3-.7.6-2.1-.7-3.7-1.8-2.2-3.7-8.4-5.3-13.4-2-6.4-3.2-9.8-4.7-11-.4-.3-.9-1.2-1.5-2.1-1.8-3.1-4.5-7.9-12.2-10.7-7.6-2.9-9.7-3.9-10.2-4.2-.3-.4-.6-.4-1.1-.4,0,0-1.2,0-3.1,0h0Z" class="st9"></path>
  <path d="M82.8,46.8s.6-1.9-7.1-1.2c-5,.5-11.4-1.2-13.3,1.8,0,0-.8,1.4-.3,2.3.5.9,2.1.9,5.7.8,4.9-.2,7.4-.3,8.1-.4,1.6-.4,4.2-1.2,6.9-3.2Z" class="st2"></path>
  <path d="M62.1,47.6s-2.1,1-1.9,2.1-1.7,2.6,5.3,2.6,10.2.1,13.1-1.3c2.8-1.4,6.6-3.1,6.6-3.1l-2.6-1.3s-3.3,3.6-8.5,3.8-11.3.2-11.9-.4,0-2.4,0-2.4Z" class="st5"></path>
  <path d="M44.6,60.9s.6,1.3,1.8,2.4,1.2,1.9.7,3.9-3.3,7.6-2.4,13.2c.8,5.6-1.6,11.8-1.6,11.8" class="st5"></path>
  <path d="M34.5,82s-1.8,1.7-.3,2.9,9.4,5,9.4,5l.3-1.7s-9.9-4.4-9.4-6.2Z" class="st5"></path>
  <path d="M113.7,85.7s-3.5-3.2-15.3,6.7c0,0-1.3.4.6.8s13.7-8.9,16.1-5.1c0,0,1.2-.3-1.4-2.4Z" class="st4"></path>
  <path d="M89.8,72.2s7.6,16.2,7.9,20.4" class="st5"></path>
  <path d="M104.6,62.4c-.6-.1-1.6-.3-2.7-.5-1.3-.2-1.9-.3-2.3-.3-1.6,0-2.6,1.3-4.3,3.1-4.6,5.1-5.3,7-5.4,7.3-2.1,3.9-.9,8.3-.8,9.3.2,1.8.3,1.8,1,5.1.5,2.7.6,4.3.8,5.7.3,2.6.8,3.8.6,7.8" class="st5"></path>
  <path d="M69.7,94.6c-4.7.7-8.6.9-11.6,1-6.8.1-9.7-.6-11.5-2.6-.3-.3-.5-.6-.6-.8,1.3,0,2.3-.5,3.6-.4,7.3.1,14.3,1.6,20.3,3Z" class="st8"></path>
  <path d="M43.8,90.6c.5-.1,1.3-.4,2.2-.6,3-.6,6.2-.8,13.1.2,8.5,1.2,12.7,1.8,16.8,3.9,1.6.8,3.2,1.8,5.9,2.5,3.7,1,6.7.9,8.4.9,2,0,4.8-.4,8.1-1.3,0,0,1.4,2.3.2,2.5-3.4.6-5.3,1-8.7,1-4.6,0-7.7-.8-9.7-1.6-1.4-.6-2.1-.9-3.3-1.5-5.2-2.4-7-1.7-18.8-4.3-.2,0-3.3-.7-7.2-1-1.6-.1-3.3-.2-5.3.4-1.1.3-2,.8-2.6,1.1.1-.2.2-.4.8-2.3Z" class="st5"></path>
  <path d="M80.9,47.6s9.4,3.6,13.2,5.7,6.1,8.4,6.1,8.4" class="st4"></path>
  <path d="M35.6,65c1.5,0,11.2-19.6,15.4-18.7" class="st6"></path>
  <g>
    <g>
      <line y2="39.8" x2="60.9" y1="39.8" x1="58.5" class="st1"></line>
      <line y2="39.8" x2="56.1" y1="39.8" x1="53.6" class="st1"></line>
    </g>
    <g>
      <line y2="36.2" x2="57.3" y1="38.6" x1="57.3" class="st1"></line>
      <line y2="41" x2="57.3" y1="43.4" x1="57.3" class="st1"></line>
    </g>
  </g>
  <rect height="149.6" width="149.6" y=".2" x=".2" class="st0"></rect>
</svg>