<svg viewBox="0 0 150.1 150.1" version="1.1" xmlns="http://www.w3.org/2000/svg" id="ICONS">
  
  <defs>
    <style>
      .st0, .st1, .st2, .st3, .st4, .st5 {
        fill: none;
      }

      .st1, .st2, .st5 {
        stroke: #221f20;
      }

      .st1, .st3, .st5 {
        stroke-linecap: round;
      }

      .st1, .st6, .st4 {
        stroke-miterlimit: 10;
      }

      .st1, .st5 {
        stroke-width: .8px;
      }

      .st2 {
        stroke-width: .7px;
      }

      .st3 {
        stroke-width: 2px;
      }

      .st3, .st6, .st4 {
        stroke: #000201;
      }

      .st3, .st5 {
        stroke-linejoin: round;
      }

      .st7 {
        fill: #221f20;
      }

      .st6 {
        fill: #fff;
      }

      .st6, .st4 {
        stroke-width: 1.1px;
      }

      .st8 {
        fill: #000201;
      }

      .st5 {
        stroke-dasharray: 0 0 0 0 0 3;
      }
    </style>
  </defs>
  <rect height="149.6" width="149.6" y=".2" x=".2" class="st0"></rect>
  <rect transform="translate(150.1 0) rotate(90)" height="129.6" width="129.6" y="10.2" x="10.2" class="st0"></rect>
  <g>
    <g>
      <line y2="19" x2="41.5" y1="19" x1="39" class="st1"></line>
      <line y2="19" x2="36.6" y1="19" x1="34.2" class="st1"></line>
    </g>
    <g>
      <line y2="15.4" x2="37.8" y1="17.9" x1="37.8" class="st1"></line>
      <line y2="20.2" x2="37.8" y1="22.6" x1="37.8" class="st1"></line>
    </g>
  </g>
  <g>
    <g>
      <path d="M46.3,29.7c-7.9,12.4-2.5,37.5-2.5,37.5,0,0-.5,28.1-.8,39.4-.4,11.4,2.9,13.4,2.9,13.4-.3,3,.4,4.9,1.3,6.1,1.1,1.6,2.6,2,2.6,2-.9,3.9-1.9,6-2.5,7-.4.6-1.1,1-1.8,1-4.6,0-7.2-.9-8.6-1.7-1-.6-1.5-1.7-1.5-2.9l.5-7c-1-.1-.3-1.9-.3-1.9,4.9-23.8,3.4-81.9,3.4-81.9.2-17.3,14.8-22.2,14.8-22.2,1.4-.6,4.7-3.6,4.7-3.6h0s0,0,0,0" class="st4"></path>
      <path d="M89.1,16.2c-6.7,7.1-18.6,8.3-18.8,8.4-3.1.5-5.5.3-7.2-.1-2.2-.6-4.2-2-5.3-4-.8-1.4-.9-2.6-.6-3.6.2-.5.4-.9.5-1,0,0,0,0,0,0,0,0,0,0,0,0t0,0s0,0,0-.1h0s.5-.6.5-.6h0s0,0,0,0c4.1-4.3,16.6-5.2,16.6-5.2,9.6-.2,13.4,1,14.7,2.5,0,0,0,0,0,0,1.6,1.8-.6,3.9-.6,3.9Z" class="st4"></path>
      <path d="M57.2,16.9c.1-.4.3-.7.5-1,0,.1-.3.5-.5,1Z" class="st6"></path>
      <path d="M58.3,15.1l-.5.6c.1-.2.3-.4.5-.6Z" class="st6"></path>
      <path d="M94.2,16c-.8,4.9-8.5,8.5-8.5,8.5-10.9,5.5-19.2,4.7-22.4,4.3-.9-.1-2.4-.5-3.3-1-5.4-2.9-3.8-8.6-2.8-11-.3,1-.2,2.2.6,3.6,1.1,2,3.1,3.5,5.3,4,1.7.4,4.1.7,7.2.1.2-.1,12.2-1.3,18.8-8.4,0,0,2.2-2.1.6-3.9,1,.8,4.5,3.7,4.5,3.7Z" class="st4"></path>
      <polygon points="57.7 15.8 57.7 15.8 57.7 15.8 57.7 15.8" class="st6"></polygon>
      <path d="M98.4,120.3v7.1c-21.8,8-48.7.8-48.7.8,0,0-1.4-.4-2.6-2-.9-1.2-1.6-3.1-1.3-6.1,30.9,9.7,52.6.2,52.6.2Z" class="st4"></path>
      <path d="M35.8,124.7s9.3,2.5,11.4,1.5" class="st6"></path>
      <path d="M114.3,132.6s-10.2,1-14.8-2.1" class="st4"></path>
      <path d="M57.7,15.8h0s0,0,0,0c0,0,0,0,0,0,0,0,0,0,0,0-.2.3-.4.7-.5,1-1,2.4-2.6,8.1,2.8,11,.8.4,2.3.9,3.3,1,3.3.4,11.5,1.2,22.4-4.3,0,0,7.7-3.7,8.5-8.5l13.9,6.8c-10.7.9-13.2,11.4-13.2,11.4-4.8,15.2,4.2,32.8,4.2,32.8,6.9,28.2-.6,53.3-.6,53.3,0,0-21.7,9.6-52.6-.2,0,0-3.3-2-2.9-13.4.4-11.4.8-39.4.8-39.4,0,0-5.3-25.1,2.5-37.5" class="st4"></path>
      <path d="M121.2,94.5l-5.2,35.3s0,2.5-1.7,2.9c0,0-.7,8.9-4.6,9.3,0,0-4.7.3-8.8-1.8-1.3-.7-2.1-2.1-1.9-3.5l.5-6s-1.4-1-1.1-3.1v-7.1s7.5-25.1.6-53.3c0,0-8.9-17.6-4.2-32.8,0,0,2.5-10.5,13.2-11.4,0,0,12.2,1.9,12.9,47.6l.6,15.2c.1,3,0,6-.5,8.9Z" class="st4"></path>
    </g>
    <g>
      <path d="M46.3,29.7c-7.9,12.4-2.5,37.5-2.5,37.5,0,0-.5,28.1-.8,39.4-.4,11.4,2.9,13.4,2.9,13.4-.3,3,.4,4.9,1.3,6.1,1.1,1.6,2.6,2,2.6,2-.9,3.9-1.9,6-2.5,7-.4.6-1.1,1-1.8,1-4.6,0-7.2-.9-8.6-1.7-1-.6-1.5-1.7-1.5-2.9l.5-7c-1-.1-.3-1.9-.3-1.9,4.9-23.8,3.4-81.9,3.4-81.9.2-17.3,14.8-22.2,14.8-22.2,1.4-.6,4.7-3.6,4.7-3.6h0s0,0,0,0" class="st2"></path>
      <path d="M89.1,16.2c-6.7,7.1-18.6,8.3-18.8,8.4-3.1.5-5.5.3-7.2-.1-2.2-.6-4.2-2-5.3-4-.8-1.4-.9-2.6-.6-3.6.2-.5.4-.9.5-1,0,0,0,0,0,0,0,0,0,0,0,0t0,0s0,0,0-.1h0s.5-.6.5-.6h0s0,0,0,0c4.1-4.3,16.6-5.2,16.6-5.2,9.6-.2,13.4,1,14.7,2.5,0,0,0,0,0,0,1.6,1.8-.6,3.9-.6,3.9Z" class="st2"></path>
      <path d="M57.2,16.9c.1-.4.3-.7.5-1,0,.1-.3.5-.5,1Z" class="st2"></path>
      <path d="M58.3,15.1l-.5.6c.1-.2.3-.4.5-.6Z" class="st2"></path>
      <path d="M94.2,16c-.8,4.9-8.5,8.5-8.5,8.5-10.9,5.5-19.2,4.7-22.4,4.3-.9-.1-2.4-.5-3.3-1-5.4-2.9-3.8-8.6-2.8-11-.3,1-.2,2.2.6,3.6,1.1,2,3.1,3.5,5.3,4,1.7.4,4.1.7,7.2.1.2-.1,12.2-1.3,18.8-8.4,0,0,2.2-2.1.6-3.9,1,.8,4.5,3.7,4.5,3.7Z" class="st2"></path>
      <polygon points="57.7 15.8 57.7 15.8 57.7 15.8 57.7 15.8" class="st2"></polygon>
      <path d="M98.4,120.3v7.1c-21.8,8-48.7.8-48.7.8,0,0-1.4-.4-2.6-2-.9-1.2-1.6-3.1-1.3-6.1,30.9,9.7,52.6.2,52.6.2Z" class="st2"></path>
      <path d="M35.8,124.7s9.3,2.5,11.4,1.5" class="st2"></path>
      <path d="M114.3,132.6s-10.2,1-14.8-2.1" class="st2"></path>
      <path d="M57.7,15.8h0s0,0,0,0c0,0,0,0,0,0,0,0,0,0,0,0-.2.3-.4.7-.5,1-1,2.4-2.6,8.1,2.8,11,.8.4,2.3.9,3.3,1,3.3.4,11.5,1.2,22.4-4.3,0,0,7.7-3.7,8.5-8.5l13.9,6.8c-10.7.9-13.2,11.4-13.2,11.4-4.8,15.2,4.2,32.8,4.2,32.8,6.9,28.2-.6,53.3-.6,53.3,0,0-21.7,9.6-52.6-.2,0,0-3.3-2-2.9-13.4.4-11.4.8-39.4.8-39.4,0,0-5.3-25.1,2.5-37.5" class="st2"></path>
      <path d="M121.2,94.5l-5.2,35.3s0,2.5-1.7,2.9c0,0-.7,8.9-4.6,9.3,0,0-4.7.3-8.8-1.8-1.3-.7-2.1-2.1-1.9-3.5l.5-6s-1.4-1-1.1-3.1v-7.1s7.5-25.1.6-53.3c0,0-8.9-17.6-4.2-32.8,0,0,2.5-10.5,13.2-11.4,0,0,12.2,1.9,12.9,47.6l.6,15.2c.1,3,0,6-.5,8.9Z" class="st2"></path>
    </g>
  </g>
  <path d="M77.2,9.7c8,0,11.4,1.2,12.6,2.5,0,0,0,0,0,0,1,.8,4.5,3.7,4.5,3.7l13.9,6.8s12.2,1.9,12.9,47.6l.6,15.2c.1,3,0,6-.5,8.9l-5.2,35.3s0,2.5-1.7,2.9c0,0-.7,8.9-4.6,9.3,0,0-.2,0-.5,0-1.3,0-5-.2-8.2-1.8-1.3-.7-2.1-2.1-1.9-3.5l.5-6h0s0,0,0,0h0s-1.4-1.1-1.1-3.1c-7.8,2.9-16.3,3.8-23.9,3.8-13.7,0-24.8-3-24.8-3-.9,3.9-1.9,6-2.5,7-.4.6-1.1,1-1.8,1-.2,0-.4,0-.6,0-4.2,0-6.6-.9-8-1.7-1-.6-1.5-1.7-1.5-2.9l.5-7c-1-.1-.3-1.9-.3-1.9,4.9-23.8,3.4-81.9,3.4-81.9.2-17.3,14.8-22.2,14.8-22.2,1.4-.6,4.7-3.6,4.7-3.6,4.1-4.3,16.6-5.2,16.6-5.2.7,0,1.4,0,2.1,0M77.2,7.7c-.7,0-1.4,0-2.2,0,0,0,0,0,0,0-1.4,0-13.4,1.1-17.9,5.8-1.4,1.3-3.3,2.9-4,3.2-1.4.5-15.8,6.3-16,24,0,0,0,0,0,0,0,.6,1.4,57.9-3.3,81.3-.2.7-.5,2,.1,3.2,0,0,0,0,0,.1l-.4,6c-.1,1.9.8,3.7,2.4,4.7,2.2,1.3,5.3,2,9.1,2s.4,0,.7,0c1.4,0,2.7-.8,3.5-2,.8-1.3,1.6-3.2,2.2-5.7,3.8.9,12.8,2.6,23.3,2.6s15.7-1,22.3-3.1c.2.5.4.9.7,1.2l-.4,5.1c-.2,2.3,1,4.5,3,5.5,3.6,1.8,7.6,2,9.1,2s.7,0,.7,0c0,0,0,0,.1,0,2.5-.3,4.3-2.4,5.5-6.2.4-1.4.6-2.8.8-3.7,1.3-1,1.8-2.8,1.8-4l5.1-35.1c.5-3.1.6-6.2.5-9.3l-.6-15.2c-.7-43.2-11.7-48.7-14.2-49.4l-13.5-6.6c-.7-.6-3.3-2.7-4.3-3.5-2-2-6.5-3-14-3h0Z" class="st8"></path>
  <path d="M57.9,15.5s0,0,0,.1h0s0,0,0,0c0,0,0,0,0,0" class="st3"></path>
  <circle r=".4" cy="35.5" cx="125" class="st7"></circle>
  <path d="M100,11.8l14.2,6.6s7.2,6.3,9.7,14.4" class="st1"></path>
  <path d="M32.2,108.1l-2.2,14.9s-.5,2.8,1.8,3.4l-.8,10.2" class="st5"></path>
</svg>