<svg viewBox="0 0 150.1 150.1" version="1.1" xmlns="http://www.w3.org/2000/svg" id="ICONS">
  
  <defs>
    <style>
      .st0, .st1, .st2, .st3, .st4, .st5, .st6, .st7 {
        fill: none;
      }

      .st1, .st2 {
        stroke-width: .7px;
      }

      .st1, .st2, .st4, .st7 {
        stroke-linecap: round;
      }

      .st1, .st2, .st5 {
        stroke-miterlimit: 10;
      }

      .st1, .st3, .st4, .st5, .st7 {
        stroke: #221f20;
      }

      .st2 {
        stroke: #000;
      }

      .st4 {
        stroke-dasharray: 0 0 0 0 0 3;
      }

      .st4, .st7 {
        stroke-linejoin: round;
      }

      .st8 {
        fill: #221f20;
      }

      .st9 {
        fill: #000201;
      }

      .st6 {
        stroke: #fff;
        stroke-width: 1.3px;
      }
    </style>
  </defs>
  <g>
    <g>
      <path d="M137.4,54.6c0,4.5-6.2,8.7-16.3,11.8-11.4-3.5-27.8-5.7-46-5.7s-6.2,0-9.2.2c5.3-1.1,9.3-5.9,9.3-11.7s-4.6-11.2-10.6-11.8c3.4-.2,6.9-.2,10.4-.2,34.4,0,62.3,7.8,62.3,17.4Z" class="st7"></path>
      <path d="M75.2,49.2c0,5.7-4,10.5-9.3,11.7h0c-1.2,0-2.4.1-3.7.2-13,.8-24.5,2.7-33.1,5.3-10.1-3.1-16.3-7.2-16.3-11.8,0-8.3,20.6-15.2,48.2-17,1.2,0,2.4-.1,3.7-.2,5.9.6,10.6,5.7,10.6,11.8Z" class="st7"></path>
      <path d="M137.4,78.5h0c0,3.4-1.9,25.7-47.8,30.4v-23.5c22.5-2.3,34.4-8.8,40.7-15.3h0c6.2-6.3,7-12.6,7-14.7v23.1Z" class="st7"></path>
      <path d="M137.4,54.6v.8c0,2.1-.9,8.4-7,14.7h0c-6.3,6.5-18.2,13-40.7,15.3v9.7c-4.7.3-9.6.5-14.6.5-34.4,0-62.3-7.8-62.3-17.4v-23.5c0,4.5,6.2,8.7,16.3,11.8,11.4,3.5,27.8,5.7,46,5.7s34.6-2.2,46-5.7c10.1-3.1,16.3-7.2,16.3-11.8Z" class="st7"></path>
      <g>
        <path d="M83.6,84.3c-.2.2-.3.3-.5.5-.1.1-.2.3-.4.5,0,0-.4.4-.8.8-.2.2-.5.4-.7.6,0,0,0,0,0,0-.3,0-.4.1-.6.3-.2.1-.5.2-.9.4-.2,0-.7.2-1.3.3h0s-.2,0-.2,0h-.2s0,0-.1,0v-1.1c0-.2,0-.4-.2-.7-.2-.4-.6-.5-.9-.6-.7-.3-1.9-.7-3.6-1.3h0c0,0-.3-.2-.5,0-.3.1-.4.4-.4.4,0,.3.1.6.1.6l1.4,1.5c.1.1.2.3.3.5,0,0,0,.2.1.3,0,.2.1.5.1.7,0,0,0,0,0,0-.3.2-.5.5-.6.9,0,0,0,.2,0,.2v2.2c0,0,0,.2,0,.3.2.6.6,1.1,1,1.3.2.1.3.2,1.4.3.8.1,1.2.2,1.4.2.2,0,.3,0,.4,0,.7.2,1.8.5,2.5,1.4.6.8.7,1.7.7,2.3,0,.6,0,1.5-.7,2.3-.7,1-1.8,1.3-2.5,1.4-.2,0-.2,0-.4,0-.2,0-.6,0-1.5.2-1.1.2-1.3.2-1.4.3-.4.3-.8.7-1,1.4,0,0,0,.2,0,.3v2.2c0,0,0,.2,0,.2.2.4.4.7.6.9,0,0,0,0,0,0,0,.2,0,.5-.1.7,0,.1,0,.2-.1.3,0,.2-.2.3-.3.5l-1.4,1.5s-.2.3-.1.6c0,0,.1.3.4.4.2,0,.4,0,.5,0h0c.3-.1,2.1-.7,3.6-1.3.2,0,.6-.2.9-.6.1-.2.2-.4.2-.7h0c0-.4,0-.8,0-1.1,0,0,0,0,.1,0h0s0,0,.1,0c.7,0,1.3.3,1.5.4.4.2.7.3.9.4.2.1.4.2.6.3,0,0,0,0,0,0,.2.2.5.4.7.6.4.4.8.8.8.8.2.2.3.3.4.5.2.2.3.3.5.5.2.1.4.3.8.5.3.1.6.2.9.2h2.5c.9,0,1.7-.3,2.4-.9s.2-.2.3-.3c.6-.8.8-1.6.8-2v-20.1h0v-1.3c0-.4-.2-1.2-.8-2,0,0,0,0,0,0-.7-.8-1.7-1.1-2.7-1.1h-2.4c-.3,0-.6,0-.9.2-.4.2-.6.4-.8.5ZM87.4,86.3c.6,0,1.1.5,1.1,1.1v20.1c0,.3-.1.6-.3.8-.2.2-.5.3-.8.3h-.1c-.3,0-.6-.1-.8-.3-.2-.2-.3-.5-.3-.8v-20.1c0-.3.1-.6.3-.8.2-.2.5-.3.8-.3h.1Z" class="st7"></path>
        <path d="M54.9,82.6s0,0,0,0c0,0,0,0,0,0s0,0,0,0c-.4,0-.6.4-.6.8v28c0,.4.3.7.6.8,0,0,0,0,0,0,0,0,0,0,0,0,0,0,0,0,.1,0h1.2s1,0,1,0c2.1,0,4.2,0,6.3,0,.3,0,.7,0,1.2-.3.3-.1.9-.4,1.4-1,.2-.3.3-.4.4-.6,0-.2.2-.4.5-.7.6-.8,1.1-1.3,1.8-1.8.3-.3.5-.4.6-.5.3-.2.4-.3.6-.6h0c.2-.3.5-.7.6-1.3,0-.2,0-.4,0-.6,0-.2,0-.5,0-1,0-.5,0-.8.2-1.1.4-1.1,1.2-1.7,1.5-1.9.7-.4,1.3-.5,1.6-.5.3,0,.5,0,.7,0,.2,0,.4,0,.7,0h0c.5,0,.8-.1,1.3-.3.3-.1,1-.5,1.4-1.4.1-.3.2-.6.2-1,0-.4,0-.7-.2-1-.4-.9-1.1-1.3-1.4-1.4-.4-.2-.8-.3-1.3-.3h0c-.3,0-.5,0-.7,0,0,0-.2,0-.3,0s-.2,0-.4,0c-.3,0-.9-.1-1.6-.5-.3-.2-1.1-.8-1.5-1.9-.1-.4-.1-.6-.2-1.1,0-.5,0-.8,0-1,0-.2,0-.4,0-.6,0-.6-.4-1-.6-1.3h0c-.2-.3-.3-.4-.6-.6-.2-.1-.3-.3-.6-.5-.6-.6-1.2-1.1-1.8-1.9-.3-.4-.4-.6-.5-.7-.1-.2-.2-.3-.4-.6-.5-.6-1.1-.8-1.4-1-.5-.2-.9-.3-1.2-.3-2.1,0-4.1,0-6.2,0h-1.1s-1,0-1,0c0,0-.1,0-.2,0h0s0,0,0,0ZM63.7,85.6c.6,0,1.2.5,1.2,1.2v21.3c0,.3-.1.6-.3.8-.2.2-.5.3-.8.3h-.1c-.3,0-.6-.1-.8-.3-.2-.2-.3-.5-.3-.8v-21.3c0-.7.5-1.2,1.2-1.2h.1ZM58.2,85.6c.3,0,.6.1.8.3.2.2.3.5.3.8v21.2c0,.3-.2.6-.4.8-.2.2-.5.3-.8.3h-.1c-.6,0-1.2-.5-1.2-1.2v-21.2c0-.3.1-.6.3-.8.2-.2.5-.3.8-.3h.1Z" class="st7"></path>
      </g>
    </g>
    <g>
      <path d="M137.4,54.6c0,4.5-6.2,8.7-16.3,11.8-11.4-3.5-27.8-5.7-46-5.7s-6.2,0-9.2.2c5.3-1.1,9.3-5.9,9.3-11.7s-4.6-11.2-10.6-11.8c3.4-.2,6.9-.2,10.4-.2,34.4,0,62.3,7.8,62.3,17.4Z" class="st6"></path>
      <path d="M75.2,49.2c0,5.7-4,10.5-9.3,11.7h0c-1.2,0-2.4.1-3.7.2-13,.8-24.5,2.7-33.1,5.3-10.1-3.1-16.3-7.2-16.3-11.8,0-8.3,20.6-15.2,48.2-17,1.2,0,2.4-.1,3.7-.2,5.9.6,10.6,5.7,10.6,11.8Z" class="st6"></path>
      <path d="M137.4,78.5h0c0,3.4-1.9,25.7-47.8,30.4v-23.5c22.5-2.3,34.4-8.8,40.7-15.3h0c6.2-6.3,7-12.6,7-14.7v23.1Z" class="st6"></path>
      <path d="M137.4,54.6v.8c0,2.1-.9,8.4-7,14.7h0c-6.3,6.5-18.2,13-40.7,15.3v9.7c-4.7.3-9.6.5-14.6.5-34.4,0-62.3-7.8-62.3-17.4v-23.5c0,4.5,6.2,8.7,16.3,11.8,11.4,3.5,27.8,5.7,46,5.7s34.6-2.2,46-5.7c10.1-3.1,16.3-7.2,16.3-11.8Z" class="st6"></path>
      <g>
        <path d="M83.6,84.3c-.2.2-.3.3-.5.5-.1.1-.2.3-.4.5,0,0-.4.4-.8.8-.2.2-.5.4-.7.6,0,0,0,0,0,0-.3,0-.4.1-.6.3-.2.1-.5.2-.9.4-.2,0-.7.2-1.3.3h0s-.2,0-.2,0h-.2s0,0-.1,0v-1.1c0-.2,0-.4-.2-.7-.2-.4-.6-.5-.9-.6-.7-.3-1.9-.7-3.6-1.3h0c0,0-.3-.2-.5,0-.3.1-.4.4-.4.4,0,.3.1.6.1.6l1.4,1.5c.1.1.2.3.3.5,0,0,0,.2.1.3,0,.2.1.5.1.7,0,0,0,0,0,0-.3.2-.5.5-.6.9,0,0,0,.2,0,.2v2.2c0,0,0,.2,0,.3.2.6.6,1.1,1,1.3.2.1.3.2,1.4.3.8.1,1.2.2,1.4.2.2,0,.3,0,.4,0,.7.2,1.8.5,2.5,1.4.6.8.7,1.7.7,2.3,0,.6,0,1.5-.7,2.3-.7,1-1.8,1.3-2.5,1.4-.2,0-.2,0-.4,0-.2,0-.6,0-1.5.2-1.1.2-1.3.2-1.4.3-.4.3-.8.7-1,1.4,0,0,0,.2,0,.3v2.2c0,0,0,.2,0,.2.2.4.4.7.6.9,0,0,0,0,0,0,0,.2,0,.5-.1.7,0,.1,0,.2-.1.3,0,.2-.2.3-.3.5l-1.4,1.5s-.2.3-.1.6c0,0,.1.3.4.4.2,0,.4,0,.5,0h0c.3-.1,2.1-.7,3.6-1.3.2,0,.6-.2.9-.6.1-.2.2-.4.2-.7h0c0-.4,0-.8,0-1.1,0,0,0,0,.1,0h0s0,0,.1,0c.7,0,1.3.3,1.5.4.4.2.7.3.9.4.2.1.4.2.6.3,0,0,0,0,0,0,.2.2.5.4.7.6.4.4.8.8.8.8.2.2.3.3.4.5.2.2.3.3.5.5.2.1.4.3.8.5.3.1.6.2.9.2h2.5c.9,0,1.7-.3,2.4-.9s.2-.2.3-.3c.6-.8.8-1.6.8-2v-20.1h0v-1.3c0-.4-.2-1.2-.8-2,0,0,0,0,0,0-.7-.8-1.7-1.1-2.7-1.1h-2.4c-.3,0-.6,0-.9.2-.4.2-.6.4-.8.5ZM87.4,86.3c.6,0,1.1.5,1.1,1.1v20.1c0,.3-.1.6-.3.8-.2.2-.5.3-.8.3h-.1c-.3,0-.6-.1-.8-.3-.2-.2-.3-.5-.3-.8v-20.1c0-.3.1-.6.3-.8.2-.2.5-.3.8-.3h.1Z" class="st6"></path>
        <path d="M54.9,82.6s0,0,0,0c0,0,0,0,0,0s0,0,0,0c-.4,0-.6.4-.6.8v28c0,.4.3.7.6.8,0,0,0,0,0,0,0,0,0,0,0,0,0,0,0,0,.1,0h1.2s1,0,1,0c2.1,0,4.2,0,6.3,0,.3,0,.7,0,1.2-.3.3-.1.9-.4,1.4-1,.2-.3.3-.4.4-.6,0-.2.2-.4.5-.7.6-.8,1.1-1.3,1.8-1.8.3-.3.5-.4.6-.5.3-.2.4-.3.6-.6h0c.2-.3.5-.7.6-1.3,0-.2,0-.4,0-.6,0-.2,0-.5,0-1,0-.5,0-.8.2-1.1.4-1.1,1.2-1.7,1.5-1.9.7-.4,1.3-.5,1.6-.5.3,0,.5,0,.7,0,.2,0,.4,0,.7,0h0c.5,0,.8-.1,1.3-.3.3-.1,1-.5,1.4-1.4.1-.3.2-.6.2-1,0-.4,0-.7-.2-1-.4-.9-1.1-1.3-1.4-1.4-.4-.2-.8-.3-1.3-.3h0c-.3,0-.5,0-.7,0,0,0-.2,0-.3,0s-.2,0-.4,0c-.3,0-.9-.1-1.6-.5-.3-.2-1.1-.8-1.5-1.9-.1-.4-.1-.6-.2-1.1,0-.5,0-.8,0-1,0-.2,0-.4,0-.6,0-.6-.4-1-.6-1.3h0c-.2-.3-.3-.4-.6-.6-.2-.1-.3-.3-.6-.5-.6-.6-1.2-1.1-1.8-1.9-.3-.4-.4-.6-.5-.7-.1-.2-.2-.3-.4-.6-.5-.6-1.1-.8-1.4-1-.5-.2-.9-.3-1.2-.3-2.1,0-4.1,0-6.2,0h-1.1s-1,0-1,0c0,0-.1,0-.2,0h0s0,0,0,0ZM63.7,85.6c.6,0,1.2.5,1.2,1.2v21.3c0,.3-.1.6-.3.8-.2.2-.5.3-.8.3h-.1c-.3,0-.6-.1-.8-.3-.2-.2-.3-.5-.3-.8v-21.3c0-.7.5-1.2,1.2-1.2h.1ZM58.2,85.6c.3,0,.6.1.8.3.2.2.3.5.3.8v21.2c0,.3-.2.6-.4.8-.2.2-.5.3-.8.3h-.1c-.6,0-1.2-.5-1.2-1.2v-21.2c0-.3.1-.6.3-.8.2-.2.5-.3.8-.3h.1Z" class="st6"></path>
      </g>
    </g>
  </g>
  <g>
    <g>
      <path d="M53.2,94.5c-23.6-2.5-40.5-8.9-40.5-16.3v-23.5c0,4.5,6.2,8.7,16.3,11.8,11.4,3.5,27.8,5.7,46,5.7s34.6-2.2,46-5.7c10.1-3.1,16.3-7.2,16.3-11.8v.8c0,2.1-.9,8.4-7,14.7h0c-6.3,6.5-18.2,13-40.7,15.3v9.7" class="st5"></path>
      <path d="M137.4,78.5h0c0,3.4-1.9,25.7-47.8,30.4v-23.5c22.5-2.3,34.4-8.8,40.7-15.3h0c6.2-6.3,7-12.6,7-14.7v23.1Z" class="st5"></path>
    </g>
    <g>
      <path d="M53.2,94.5c-23.6-2.5-40.5-8.9-40.5-16.3v-23.5c0,4.5,6.2,8.7,16.3,11.8,11.4,3.5,27.8,5.7,46,5.7s34.6-2.2,46-5.7c10.1-3.1,16.3-7.2,16.3-11.8v.8c0,2.1-.9,8.4-7,14.7h0c-6.3,6.5-18.2,13-40.7,15.3v9.7" class="st3"></path>
      <path d="M137.4,54.6c0,4.5-6.2,8.7-16.3,11.8-11.4-3.5-27.8-5.7-46-5.7s-6.2,0-9.2.2c5.3-1.1,9.3-5.9,9.3-11.7s-4.6-11.2-10.6-11.8c3.4-.2,6.9-.2,10.4-.2,34.4,0,62.3,7.8,62.3,17.4Z" class="st3"></path>
      <path d="M75.2,49.2c0,5.7-4,10.5-9.3,11.7h0c-1.2,0-2.4.1-3.7.2-13,.8-24.5,2.7-33.1,5.3-10.1-3.1-16.3-7.2-16.3-11.8,0-8.3,20.6-15.2,48.2-17,1.2,0,2.4-.1,3.7-.2,5.9.6,10.6,5.7,10.6,11.8Z" class="st3"></path>
      <path d="M137.4,78.5h0c0,3.4-1.9,25.7-47.8,30.4v-23.5c22.5-2.3,34.4-8.8,40.7-15.3h0c6.2-6.3,7-12.6,7-14.7v23.1Z" class="st3"></path>
    </g>
  </g>
  <g>
    <path d="M55.1,82.6s0,0,0,0h1s1.1,0,1.1,0c2.1,0,4.2,0,6.2,0,.3,0,.7,0,1.2.3.3.1.9.4,1.4,1,.2.3.3.4.4.6,0,.2.2.4.5.7.6.8,1.1,1.3,1.8,1.9.3.2.5.4.6.5.3.2.4.3.6.6h0c.2.3.5.7.6,1.3,0,.2,0,.4,0,.6,0,.2,0,.5,0,1,0,.5,0,.8.2,1.1.4,1.1,1.2,1.7,1.5,1.9.7.4,1.3.5,1.6.5.2,0,.3,0,.4,0s.2,0,.3,0c0,0,.2,0,.3,0s.3,0,.4,0h0c.5,0,.8.1,1.3.3.3.1,1,.5,1.4,1.4.1.3.2.6.2,1,0,.3,0,.7-.2,1-.4.9-1.1,1.3-1.4,1.4-.4.2-.8.3-1.3.3h0c-.2,0-.3,0-.4,0s-.2,0-.3,0c0,0-.2,0-.3,0s-.3,0-.4,0c-.3,0-.9.1-1.6.5-.3.2-1.1.8-1.5,1.9-.1.4-.1.6-.2,1.1,0,.5,0,.8,0,1,0,.2,0,.4,0,.6,0,.6-.4,1-.6,1.3h0c-.2.3-.3.4-.6.6-.2.1-.3.3-.6.5-.6.6-1.2,1.1-1.8,1.8-.3.4-.4.6-.5.7-.1.2-.2.3-.4.6-.5.6-1.1.8-1.4,1-.5.2-.9.3-1.2.3-2.1,0-4.2,0-6.3,0h-1s-1.2,0-1.2,0c0,0,0,0-.1,0,0,0,0,0,0,0,0,0,0,0,0,0-.4,0-.6-.4-.6-.8v-28c0-.4.3-.7.6-.8,0,0,0,0,0,0,0,0,0,0,0,0s0,0,0,0c0,0,0,0,0,0h0s0,0,.1,0M63.6,109.2h.1c.3,0,.6-.1.8-.3.2-.2.3-.5.3-.8v-21.3c0-.6-.5-1.2-1.1-1.2h-.1c-.6,0-1.2.5-1.2,1.2v21.3c0,.3.1.6.3.8.2.2.5.3.8.3M58.1,109.2h.1c.3,0,.6-.1.8-.3.2-.2.3-.5.3-.8v-21.2c0-.3,0-.6-.3-.8-.2-.2-.5-.3-.8-.3h-.1c-.3,0-.6.1-.8.3-.2.2-.3.5-.3.8v21.2c0,.6.5,1.2,1.1,1.2M55.1,81.6s0,0-.1,0c0,0-.2,0-.2,0-.1,0-.3,0-.3,0-.8.2-1.3.9-1.3,1.7v28c0,.8.5,1.5,1.2,1.7h0s0,0,0,0c0,0,.2,0,.2,0,0,0,.2,0,.3,0h2.2s0,0,0,0c2.1,0,4.2,0,6.3,0h.1c.3,0,.8-.1,1.5-.4.5-.2,1.1-.6,1.7-1.2.3-.3.4-.5.5-.7h0c0-.2.2-.4.4-.7.5-.7,1.1-1.2,1.6-1.7.3-.2.4-.4.6-.5.3-.2.5-.4.7-.7h0c.2-.3.7-.9.8-1.8,0-.3,0-.6,0-.8h0c0-.3,0-.5,0-.8,0-.5,0-.7.1-.9.3-.8,1-1.3,1-1.3.5-.3.9-.4,1.2-.4.1,0,.2,0,.3,0s.1,0,.2,0c.1,0,.2,0,.3,0,.2,0,.4,0,.6,0h0s0,0,0,0h0c.5,0,1-.1,1.5-.4.3-.2,1.4-.7,1.9-1.9.2-.4.3-.8.3-1.3h0s0,0,0,0c0-.5-.1-.9-.3-1.3-.5-1.2-1.6-1.7-1.9-1.9-.6-.3-1.1-.4-1.5-.4h0c-.2,0-.4,0-.6,0s-.2,0-.3,0h0s0,0,0,0c0,0,0,0,0,0,0,0,0,0,0,0,0,0-.2,0-.3,0-.3,0-.7,0-1.2-.4-.1,0-.8-.5-1.1-1.3,0-.2,0-.4-.1-.9,0-.4,0-.6,0-.9,0-.3,0-.5,0-.8h0s0,0,0,0c-.1-.8-.5-1.4-.8-1.7h0s0,0,0,0c-.3-.4-.5-.5-.8-.8h0c-.1-.2-.3-.3-.5-.5-.6-.5-1.1-1-1.6-1.7-.2-.3-.3-.5-.4-.6-.1-.3-.3-.5-.6-.8-.6-.7-1.4-1.1-1.7-1.2-.5-.2-1-.3-1.5-.4h0s0,0,0,0c-1,0-2.1,0-3.1,0-1,0-2.1,0-3.1,0h0s-1,0-1,0h-.9s0,0-.1,0h0ZM63.6,108.2s0,0-.1,0c0,0,0,0,0-.1v-21.3c0-.1,0-.2.2-.2h.1c0,0,0,0,.1,0,0,0,0,0,0,.1v21.3s0,0,0,.1c0,0,0,0-.1,0h-.1ZM58.1,108.2c0,0-.2,0-.2-.2v-21.2s0,0,0-.1c0,0,0,0,.1,0h.1s0,0,.1,0c0,0,0,0,0,.1v21.2c0,0,0,.1,0,.1,0,0,0,0-.1,0h-.1Z" class="st8"></path>
    <path d="M87.7,83.6c1,0,2,.4,2.7,1.1,0,0,0,0,0,0,.6.8.8,1.6.8,2v1.3h0v20.1c0,.4-.2,1.3-.8,2,0,.1-.2.2-.3.3-.6.6-1.5.9-2.4.9h-2.5c-.3,0-.6,0-.9-.2-.4-.2-.6-.4-.8-.5-.2-.2-.3-.3-.5-.5-.1-.1-.2-.3-.4-.5,0,0-.4-.4-.8-.8-.2-.2-.5-.4-.7-.6,0,0,0,0,0,0-.3,0-.4-.2-.6-.3-.2-.1-.5-.3-.9-.4-.2,0-.8-.3-1.5-.4,0,0,0,0-.1,0h0s0,0-.1,0c0,.3,0,.6,0,.9h0c0,.4,0,.6-.2.8-.2.4-.6.5-.9.6-1.6.6-3.3,1.2-3.6,1.3h0s-.2,0-.3,0-.1,0-.2,0c-.3,0-.4-.4-.4-.4,0-.3.1-.6.1-.6l1.4-1.5c.1-.1.2-.3.3-.5,0-.1,0-.2.1-.3,0-.2.1-.5.1-.7,0,0,0,0,0,0-.3-.2-.5-.5-.6-.9,0,0,0-.2,0-.2v-2.2c0,0,0-.2,0-.3.2-.6.6-1.1,1-1.4.2-.1.3-.2,1.4-.3.9-.1,1.3-.2,1.5-.2.2,0,.3,0,.4,0,.7-.2,1.8-.5,2.5-1.4.6-.8.7-1.7.7-2.3,0-.6,0-1.5-.7-2.3-.7-1-1.8-1.3-2.5-1.4-.2,0-.2,0-.4,0-.2,0-.6,0-1.4-.2-1.1-.2-1.3-.2-1.4-.3-.4-.3-.8-.7-1-1.3,0,0,0-.2,0-.3v-2.2c0,0,0-.2,0-.2.2-.4.4-.7.6-.9,0,0,0,0,0,0,0-.2,0-.5-.1-.7,0-.1,0-.2-.1-.3,0-.2-.2-.3-.3-.5l-1.4-1.5s-.2-.3-.1-.6c0,0,0-.3.4-.4,0,0,.1,0,.2,0,.1,0,.3,0,.3,0h0c1.7.6,2.9,1,3.6,1.3.3.1.7.3.9.6.1.2.2.5.2.7v1.1s0,0,.1,0h.2s.2,0,.2,0h0c.6-.1,1.1-.3,1.3-.3.4-.2.7-.3.9-.4.2-.1.4-.2.6-.3,0,0,0,0,0,0,.2-.2.5-.4.7-.6.4-.4.8-.8.8-.8.2-.2.3-.3.4-.5.2-.2.3-.3.5-.5.2-.1.4-.3.8-.5.3-.1.6-.2.9-.2h2.4M87.3,108.6h.1c.3,0,.6-.1.8-.3.2-.2.3-.5.3-.8v-20.1c0-.6-.5-1.1-1.1-1.1h-.1c-.3,0-.6.1-.8.3-.2.2-.3.5-.3.8v20.1c0,.3.1.6.3.8.2.2.5.3.8.3M87.7,82.6h-2.4c-.4,0-.8.1-1.2.3-.4.2-.7.4-.9.6h0c0,0,0,0,0,0h0c-.3.2-.4.4-.6.6,0,0-.1.1-.2.2,0,0-.1.1-.2.2h0c0,.1,0,.1,0,.1-.1.1-.4.4-.6.6-.2.2-.4.3-.5.5-.2,0-.4.2-.5.3-.2,0-.4.2-.7.3,0,0-.3,0-.5.1,0-.4-.1-.7-.3-1.1-.4-.7-1-.9-1.4-1.1-.7-.3-1.9-.7-3.6-1.3h0s-.3-.2-.7-.2-.4,0-.5,0c-.4.2-.8.5-1,1h0s0,.1,0,.1c-.1.5,0,1.1.3,1.5h0s0,0,0,0l1.4,1.5c0,0,0,.1.1.2,0,0,0,.1,0,.2,0,0,0,0,0,.1-.2.3-.4.6-.5.9,0,.2-.1.4-.1.6v2.1c0,.2,0,.4,0,.7.3.9.8,1.5,1.5,1.9.3.2.6.3,1.8.5.6.1,1,.2,1.3.2h.2c.2,0,.2,0,.3,0,.7.2,1.4.4,1.9,1.1.4.5.5,1.2.5,1.6,0,.5,0,1.1-.5,1.7-.5.7-1.4.9-1.9,1.1-.1,0-.1,0-.3,0h-.3c-.2,0-.6.1-1.2.2-1.2.2-1.4.3-1.8.5-.6.4-1.1,1-1.5,1.9,0,.2-.1.4-.1.6v2.2c0,.2.1.4.1.5h0c0,0,0,.1,0,.1.1.3.3.7.5.9,0,0,0,0,0,0,0,0,0,.2,0,.3,0,0,0,0-.1.1l-1.4,1.5h0c0,0,0,.1,0,.1-.3.4-.4,1-.2,1.4,0,.3.4.9,1,1.1.2,0,.3,0,.5,0,.3,0,.6,0,.7-.2.4-.1,2.1-.7,3.6-1.3.3-.1,1-.4,1.4-1.1.2-.3.3-.6.3-1,.2,0,.4.1.5.1.3.1.5.2.7.3h0c.1.1.3.2.5.3.2.2.4.3.6.5.2.2.4.4.5.6,0,0,.1.2.2.2h.1c0,.2.2.3.2.4h0c.2.3.3.5.6.7.1.1.5.4,1,.6.4.2.8.2,1.2.3h0s0,0,0,0h2.5c1.2,0,2.3-.4,3.1-1.1.1-.1.2-.2.3-.4.9-1,1-2.2,1-2.6v-19.1h0v-1s0-1.3,0-1.3h0s0,0,0,0c0-.4-.2-1.6-1-2.6h0s0,0,0,0c-.8-.9-2.1-1.5-3.4-1.5h0ZM87.3,107.6s0,0,0,0c0,0,0,0,0,0v-20.1s0,0,0-.1c0,0,0,0,0,0h.1s0,0,0,.1v20.1s0,0,0,.1c0,0,0,0,0,0,0,0,0,0,0,0h-.1Z" class="st8"></path>
  </g>
  <path d="M75.2,36.8c34.4,0,62.3,7.8,62.3,17.4v23.9s0,0,0,0c0,3.3-1.8,25.2-46.3,30.2,0,.4-.3.9-.7,1.4,0,.1-.2.2-.3.3-.6.6-1.5.9-2.4.9h-2.5c-.3,0-.6,0-.9-.2-.4-.2-.6-.4-.8-.5-.2-.2-.3-.3-.5-.5-.1-.1-.2-.3-.4-.5,0,0-.4-.4-.8-.8-.2-.2-.5-.4-.7-.6,0,0,0,0,0,0-.3,0-.4-.2-.6-.3-.2-.1-.5-.3-.9-.4-.2,0-.8-.3-1.5-.4,0,0,0,0-.1,0h0s0,0-.1,0c0,.3,0,.6,0,.9h0c0,.4,0,.6-.2.8-.2.4-.6.5-.9.6-1.6.6-3.3,1.2-3.6,1.3h0s-.2,0-.3,0-.1,0-.2,0c-.3,0-.4-.4-.4-.4,0-.3.1-.6.1-.6l1.4-1.5c.1-.1.2-.3.3-.5,0-.1,0-.2.1-.3,0-.2.1-.5.1-.7,0,0,0,0,0,0-.3-.2-.5-.5-.6-.9,0,0,0-.2,0-.2v-2.2c0,0,0-.2,0-.3.2-.6.6-1.1,1-1.4.2-.1.3-.2,1.4-.3.9-.1,1.3-.2,1.5-.2.2,0,.3,0,.4,0,.7-.2,1.8-.5,2.5-1.4.6-.8.7-1.7.7-2.3,0-.6,0-1.5-.7-2.3,0,0-.1-.2-.2-.3h-4.3c.2,0,.4,0,.6.1.3.1,1,.5,1.4,1.4.1.3.2.6.2,1,0,.3,0,.7-.2,1-.4.9-1.1,1.3-1.4,1.4-.4.2-.8.3-1.3.3h0c-.2,0-.3,0-.4,0s-.2,0-.3,0c0,0-.2,0-.3,0s-.3,0-.4,0c-.3,0-.9.1-1.6.5-.3.2-1.1.8-1.5,1.9-.1.4-.1.6-.2,1.1,0,.5,0,.8,0,1,0,.2,0,.4,0,.6,0,.6-.4,1-.6,1.3h0c-.2.3-.3.4-.6.6-.2.1-.3.3-.6.5-.6.6-1.2,1.1-1.8,1.8-.3.4-.4.6-.5.7-.1.2-.2.3-.4.6-.5.6-1.1.8-1.4,1-.5.2-.9.3-1.2.3-2.1,0-4.2,0-6.3,0h-1s-1.2,0-1.2,0c0,0,0,0-.1,0,0,0,0,0,0,0,0,0,0,0,0,0-.4,0-.6-.4-.6-.8v-16.9h-.9c-23.6-2.5-40.5-8.9-40.5-16.4v-23.5c0-8.3,20.6-15.2,48.2-17,1.2,0,2.4-.1,3.7-.2,3.4-.2,6.9-.2,10.4-.2M75.2,71.7c18.2,0,34.6-2.2,46-5.7-11.4-3.5-27.8-5.7-46-5.7s-6.2,0-9.2.2h0c-1.2,0-2.4.1-3.7.2-13,.8-24.5,2.7-33.1,5.3,11.4,3.5,27.8,5.7,46,5.7M58.2,108.9h.1c.3,0,.6-.1.8-.3.2-.2.3-.5.3-.8v-13.5s-2.4,0-2.4,0v13.5c0,.6.5,1.2,1.1,1.2M63.7,108.9h.1c.3,0,.6-.1.8-.3.2-.2.3-.5.3-.8v-13.4s-2.4,0-2.4,0v13.4c0,.3.1.6.3.8.2.2.5.3.8.3M87.4,108.3h.1c.3,0,.6-.1.8-.3.2-.2.3-.5.3-.8v-12.5s-2.3,0-2.3,0v12.5c0,.3.1.6.3.8.2.2.5.3.8.3M75.2,34.8c-3.6,0-7.1,0-10.5.2-1.2,0-2.5.1-3.7.2-13.7.9-26.1,3.1-35,6.2-9.9,3.4-15.1,7.9-15.1,12.8v23.5c0,10.1,21.2,16,41.4,18.2v15.1c0,1.2.8,2.3,1.9,2.7h0s0,0,0,0c.1,0,.3,0,.4,0,.1,0,.3,0,.5,0h3.2c1.8,0,3.5,0,5.3,0h.3c.3,0,1-.1,1.7-.5.6-.2,1.3-.7,2.1-1.4.4-.4.5-.7.7-.9h0s0,0,0,0h0c0-.2.1-.3.3-.5.4-.6.9-1,1.5-1.5.3-.2.4-.4.5-.5h0s0,0,0,0c.1,0,.2-.2.3-.3h0s-.1.2-.1.2h0c-.4.8-.6,1.6-.4,2.3.2.7.8,1.5,1.7,1.8.2,0,.5.1.8.1.5,0,.8-.1,1.1-.2.5-.2,2.1-.7,3.6-1.3.4-.1,1.3-.5,1.9-1.5,0,0,0-.1.1-.2,0,0,0,0,0,0h0c.2.1.3.2.5.3.1.1.3.2.4.3.2.2.4.4.5.5,0,0,.1.1.2.2h.1c0,.2.2.3.2.4h0s0,0,0,0h0c.2.3.4.5.7.7.3.3.7.5,1.2.8.5.2,1,.3,1.5.4h0s0,0,0,0h2.5c1.4,0,2.8-.5,3.7-1.4.1-.1.3-.3.4-.4.2-.3.4-.6.6-.9,18.6-2.3,32-7.7,39.8-16.2,6.5-7,7-13.9,7-15.8h0c0,0,0-23.2,0-23.2v-.8c0-12.6-33.1-19.4-64.3-19.4h0ZM66,62.5h0c3-.1,6.1-.2,9.1-.2,13.9,0,27.3,1.3,38,3.7-10.8,2.4-24.2,3.7-38,3.7s-27.3-1.3-38.1-3.7c7.4-1.6,16-2.8,25.3-3.3,1.2,0,2.4-.1,3.6-.2h0ZM71.6,107.5h0c.1-.2.3-.5.5-.9,0,0,0,0,0,.1l-.6.7h0Z" class="st8"></path>
  <rect height="149.6" width="149.6" y=".2" x=".2" class="st0"></rect>
  <rect transform="translate(150.1 0) rotate(90)" height="129.6" width="129.6" y="10.2" x="10.2" class="st0"></rect>
  <circle r=".4" cy="38.9" cx="126.6" class="st9"></circle>
  <g>
    <g>
      <line y2="122.1" x2="103.6" y1="122.1" x1="101.1" class="st2"></line>
      <line y2="122.1" x2="98.7" y1="122.1" x1="96.3" class="st2"></line>
    </g>
    <g>
      <line y2="118.5" x2="99.9" y1="120.9" x1="99.9" class="st2"></line>
      <line y2="123.3" x2="99.9" y1="125.7" x1="99.9" class="st2"></line>
    </g>
  </g>
  <path d="M128.2,39.5c.1,0,14.5,5.4,14.6,11.9v18.7" class="st1"></path>
  <path d="M7,74.3v12.1s4.7,8.1,26.6,12.6" class="st4"></path>
</svg>