<svg viewBox="0 0 150.1 150.1" version="1.1" xmlns="http://www.w3.org/2000/svg" id="ICONS">
  
  <defs>
    <style>
      .st0, .st1, .st2, .st3 {
        fill: none;
      }

      .st1, .st2 {
        stroke-miterlimit: 10;
      }

      .st1, .st2, .st3 {
        stroke: #221f20;
        stroke-width: .8px;
      }

      .st1, .st3 {
        stroke-linecap: round;
      }

      .st4 {
        fill: #221f20;
      }

      .st3 {
        stroke-dasharray: 0 0 0 0 0 3;
        stroke-linejoin: round;
      }
    </style>
  </defs>
  <g>
    <g>
      <line y2="13.6" x2="36" y1="13.6" x1="33.6" class="st1"></line>
      <line y2="13.6" x2="31.2" y1="13.6" x1="28.7" class="st1"></line>
    </g>
    <g>
      <line y2="10" x2="32.4" y1="12.5" x1="32.4" class="st1"></line>
      <line y2="14.8" x2="32.4" y1="17.2" x1="32.4" class="st1"></line>
    </g>
  </g>
  <path d="M16.3,56c-1.6.3-3,.9-4.1,1.9-1.4,1.2-2.3,3-2.3,4.9s.9,3.6,2.3,4.8c1.4,1.2,3.4,2,5.6,2s4.2-.8,5.6-2c1.4-1.2,2.3-3,2.3-4.8s-.8-3.5-2.2-4.7" class="st2"></path>
  <path d="M86.4,125.2c.3-.6.8-1.7,1.8-2.8,1.5,1.3,2.4,3.1,2.4,5.1,0,3.8-3.3,6.9-7.4,6.9s-7.4-3.1-7.4-6.9,3.2-6.8,7.2-6.9c0,.6-.2,2.7-1.2,4.5-.4.6-.2,1.5.5,1.9.4.3,1,.4,1.6.4,1.2,0,2.2-.7,2.3-1.5,0-.2.1-.4.2-.6Z" class="st2"></path>
  <line y2="108.3" x2="79.2" y1="57.8" x1="25.7" class="st2"></line>
  <path d="M140.3,128.5c0,.3,0,.6,0,.9,0,0,0,2.1-1.2,4.2.6-1.4,1.1-3.1,1.2-5.2Z" class="st2"></path>
  <ellipse ry="4.5" rx="6.6" cy="35.5" cx="22.2" class="st2"></ellipse>
  <ellipse ry="1.2" rx="1.7" cy="35.5" cx="22.2" class="st2"></ellipse>
  <ellipse ry="6.9" rx="8" cy="37.8" cx="22.3" class="st2"></ellipse>
  <path d="M23.3,44.7v2.4c0,1.6,2.5,4.3,2.5,4.3,3.9,4.6,0,6.4,0,6.4-3.3,0-4.8,1.4-5.4,2.1s-.3.5-.3.7c-.2.7-1.1,1.3-2.2,1.3s-2.2-.7-2.2-1.5l2.3-16.8" class="st2"></path>
  <path d="M25.1,50.6h4s2.7,3.1,0,4.9h-1.6" class="st2"></path>
  <path d="M29.4,55.3s2.6.4,4,1.6c0,0,3.1,1.5,3.8-6.2s-.2-1.5-.8-2l-7.5-7" class="st2"></path>
  <ellipse transform="translate(-20.6 171.2) rotate(-79.2)" ry="6.4" rx="4.5" cy="98" cx="93.2" class="st2"></ellipse>
  <ellipse transform="translate(-20.6 171.2) rotate(-79.2)" ry="1.9" rx="1.3" cy="98" cx="93.2" class="st2"></ellipse>
  <ellipse ry="6.9" rx="8" cy="100.4" cx="92.2" class="st2"></ellipse>
  <path d="M97.5,105.5l4.5,4.2c.4.4.7.9.6,1.4-1.2,4.6-2.2,6.8-2.6,7.9-.2.7-1.3.5-1.9,0-.9-.8-1.3-1-1.3-1l-1.2-.8" class="st2"></path>
  <path d="M97.6,117.1c-4.7.3-7.7,2.9-9.5,5.2-.9,1.2-1.5,2.3-1.8,2.8,0,.2-.2.4-.2.6-.1.9-1.1,1.5-2.3,1.5s-1.2-.2-1.6-.4c-.6-.4-.8-1.2-.5-1.9,1-1.8,1.2-3.9,1.2-4.5,0,0,0-.1,0-.1v-2.8c0-1.6-2.3-4.3-2.3-4.3-3.8-4.6.1-6.4.1-6.4,4.5,0,5.3-2.1,5.3-2.1" class="st2"></path>
  <path d="M91.8,107.2s0,5.8,6.6,6.3" class="st2"></path>
  <path d="M17.2,48.9s-11-7.8-3.8-34.6c0,0,0,0,0,0,0-.2.9-1.8,2.2-1.9.8,0,1.7.4,2.7,2,0,0,5.6,10.2,8.4,12,0,0,4.8,3.8,7.4,5.3,0,0,3.5,2.6,4.7,3.9l36.5,33.5,26.1,24s3.3,3,4.5,5.4c0,0,4.9,7.2,8,9.2,0,0,10.8,6.4,13.1,8.4,0,0,11.8,8.2,11.1,15.7,0,0-.1,2.6-1.6,4.9-.8,1.2-1.9,2.3-3.7,2.9,0,0,0,0,0,0,0,0-.2,0-.3,0,0,0,0,0,0,0,0,0-.1,0-.1,0-.5.1-1.1.2-1.8.2,0,0-11.9,1.5-22.2-4.6,0,0-12.5-7.2-17.8-15.4" class="st2"></path>
  <path d="M20.5,12.1s5.6,10.2,8.4,12c0,0,4.8,3.8,7.3,5.3,0,0,3.5,2.6,4.7,3.9l36.5,33.5,26.1,24s3.3,3,4.5,5.4c0,0,4.9,7.2,8,9.2,0,0,10.8,6.4,13.1,8.4,0,0,10.9,7.5,11.1,14.7-.1,2.1-.6,3.8-1.2,5.2-1.8,4-5,5.4-6.3,5.8,1.7-.6,2.9-1.7,3.7-2.9,1.5-2.3,1.6-4.9,1.6-4.9.7-7.5-11.1-15.7-11.1-15.7-2.3-2-13.1-8.4-13.1-8.4-3.1-2-8-9.2-8-9.2-1.2-2.3-4.5-5.4-4.5-5.4l-26.1-24-36.5-33.5c-1.2-1.3-4.7-3.9-4.7-3.9-2.5-1.5-7.4-5.3-7.4-5.3-2.7-1.9-8.4-12-8.4-12-1-1.6-1.9-2-2.7-2-1.3.1-2.1,1.8-2.2,1.9,0-.2,1-3.7,4.3-4.2,0,0,.1,0,.2,0,0,0,0,0,0,0,.7,0,1.6.4,2.6,2Z" class="st2"></path>
  <path d="M140.3,128.4s0,0,0,0" class="st2"></path>
  <rect height="149.6" width="149.6" y=".2" x=".2" class="st0"></rect>
  <path d="M73.1,118.7s-12.7,20.8,11.6,21.3" class="st3"></path>
  <path d="M103,82.5l10,10.1s2.4,7.2,5.7,8.9" class="st1"></path>
  <circle r=".4" cy="102.3" cx="120.1"></circle>
  <path d="M17.7,10.1c.7,0,1.6.5,2.5,2,0,0,5.6,10.2,8.4,12,0,0,4.8,3.8,7.3,5.3,0,0,3.5,2.6,4.7,3.9l36.5,33.5,26.1,24s3.3,3,4.5,5.4c0,0,4.9,7.2,8,9.2,0,0,10.8,6.4,13.1,8.4,0,0,10.9,7.5,11.1,14.7,0,.3,0,.6,0,.9,0,0,0,2.1-1.2,4.2-1.8,4-5,5.4-6.3,5.8,0,0,0,0,0,0,0,0-.2,0-.3,0,0,0,0,0,0,0,0,0-.1,0-.1,0-.5.1-1.1.2-1.8.2,0,0-1.3.2-3.4.2-4.3,0-11.9-.7-18.8-4.7,0,0-12.5-7.2-17.8-15.4-.9.8-1.7,1.6-2.3,2.4,1.5,1.3,2.4,3.1,2.4,5.1,0,3.8-3.3,6.9-7.4,6.9s-7.4-3.1-7.4-6.9,3.2-6.8,7.2-6.9c0,0,0-.1,0-.1v-2.8c0-1.6-2.3-4.3-2.3-4.3-1.6-2-1.8-3.4-1.5-4.4L25.8,57.5c-.2.2-.4.2-.4.2-.8,0-1.6.1-2.2.3,1.4,1.2,2.2,2.9,2.2,4.7s-.9,3.6-2.3,4.8c-1.4,1.2-3.4,2-5.6,2s-4.2-.8-5.6-2c-1.4-1.2-2.3-3-2.3-4.8s.9-3.6,2.3-4.9c1.1-.9,2.5-1.6,4.1-1.9l1-7.1s-11-7.8-3.8-34.6c0,0,0,0,0,0,0-.2,1-3.7,4.3-4.2,0,0,.1,0,.2,0,0,0,0,0,0,0s0,0,0,0c0,0,0,0,.1,0M17.7,9.3s0,0-.1,0h-.1c0,0-.1,0-.2,0-3.5.5-4.7,4-4.9,4.6h0c0,0,0,.2,0,.2-6.5,24.4,1.8,33.3,3.8,35l-.8,6.2c-1.5.3-2.8,1-3.9,1.9-1.7,1.4-2.6,3.4-2.6,5.4s.9,4,2.6,5.4c1.6,1.4,3.8,2.2,6.1,2.2s4.5-.8,6.1-2.2c1.7-1.4,2.6-3.4,2.6-5.4s-.5-3-1.4-4.2c.2,0,.5,0,.7,0h.2s0,0,0,0l52.2,50.6c-.2,1.4.4,2.9,1.8,4.6.9,1,2.2,2.9,2.2,3.9v2.3c-4.1.4-7.3,3.7-7.3,7.6s3.7,7.6,8.2,7.6,8.2-3.4,8.2-7.6-.8-3.7-2.1-5.1c.4-.4.8-.8,1.2-1.2,5.6,7.9,17.1,14.6,17.6,14.9,7.1,4.2,15.1,4.8,19.2,4.8s3.2-.1,3.4-.2c.6,0,1.3-.1,1.9-.3,0,0,0,0,.2,0h0c0,0,.2,0,.3-.1h0s0,0,0,0h0c1.4-.5,4.8-2,6.8-6.2,1.1-2.2,1.2-4.4,1.3-4.5,0-.3,0-.6,0-1-.3-7.4-10.6-14.8-11.4-15.3-2.4-2-12.8-8.2-13.2-8.4-2.8-1.8-7.4-8.4-7.8-8.9-1.3-2.4-4.5-5.4-4.6-5.5l-26.1-24-36.4-33.4c-1.3-1.4-4.7-3.8-4.8-4h0s0,0,0,0c-2.4-1.4-7.2-5.2-7.3-5.2h0s0,0,0,0c-2.1-1.4-6.6-9-8.2-11.8-1-1.6-2-2.3-3.1-2.3h0Z" class="st4"></path>
</svg>