<svg viewBox="0 0 150.1 150.1" version="1.1" xmlns="http://www.w3.org/2000/svg" id="ICONS">
  
  <defs>
    <style>
      .st0, .st1, .st2, .st3, .st4, .st5, .st6, .st7 {
        fill: none;
      }

      .st1, .st2, .st3, .st4, .st5, .st6 {
        stroke-miterlimit: 10;
      }

      .st1, .st2, .st4, .st7 {
        stroke: #000;
      }

      .st1, .st2, .st6, .st7 {
        stroke-linecap: round;
      }

      .st1, .st6 {
        stroke-width: 1px;
      }

      .st2 {
        stroke-width: .7px;
      }

      .st3 {
        stroke: #020202;
      }

      .st3, .st4, .st5 {
        stroke-width: .9px;
      }

      .st8 {
        fill: #9b9b9b;
      }

      .st5 {
        stroke: #221f20;
      }

      .st6 {
        stroke: #070707;
      }

      .st7 {
        stroke-dasharray: 0 0 0 0 0 3;
        stroke-linejoin: round;
      }
    </style>
  </defs>
  <g>
    <g>
      <g>
        <line y2="21.4" x2="56.9" y1="21.4" x1="54.4" class="st2"></line>
        <line y2="21.4" x2="52" y1="21.4" x1="49.6" class="st2"></line>
      </g>
      <g>
        <line y2="17.8" x2="53.2" y1="20.3" x1="53.2" class="st2"></line>
        <line y2="22.6" x2="53.2" y1="25" x1="53.2" class="st2"></line>
      </g>
    </g>
    <g>
      <g>
        <line y2="132.7" x2="80.2" y1="132.7" x1="77.8" class="st2"></line>
        <line y2="132.7" x2="75.4" y1="132.7" x1="72.9" class="st2"></line>
      </g>
      <g>
        <line y2="129.1" x2="76.6" y1="131.5" x1="76.6" class="st2"></line>
        <line y2="133.8" x2="76.6" y1="136.3" x1="76.6" class="st2"></line>
      </g>
    </g>
    <rect height="149.6" width="149.6" y=".2" x=".2" class="st0"></rect>
    <rect transform="translate(150.1 0) rotate(90)" height="129.6" width="129.6" y="10.2" x="10.2" class="st0"></rect>
    <path d="M102.4,63.8l-6,7s16.9-.4,25.7,2.2" class="st2"></path>
    <circle r=".4" cy="73.5" cx="123.4"></circle>
    <path d="M8.9,73s-6.7,8.1,1,14.7" class="st7"></path>
    <polyline points="68.5 30.3 71.5 27.4 77.9 30.2 75 33.4" class="st4"></polyline>
    <path d="M82.5,27.1v1.9c-1.4.4-6.3,1.8-7.8,2.2h0c-.6-.4-1-1-1.1-1.7s-.2-1.1,1.4-1.3c1.8-.3,5.8-.8,7.5-1.1Z" class="st4"></path>
    <path d="M37.4,99.7c-4.4-.1-20.9-12.2-25.3-16.7-.8-.9-1.8-2.3-1.4-3.8" class="st4"></path>
    <path d="M82.7,75.7c11.1-13.1,19.2-22.6,19.7-23,4-2.9-42.9-29.5-44.1-25.8-4.5,4.7-44.8,46.3-47.7,52.1l5.8,4.8" class="st4"></path>
    <path d="M52.4,109.6c3-6.2-32.9-23-36.1-25.9,5.1,4.5,35.1,27.6,37.1,25.6.6-.2,2.9-2.7,2.9-2.7" class="st4"></path>
    <path d="M55.8,29.4c3.4,1.8,40.7,16.8,43.4,27.1" class="st4"></path>
    <path d="M14.2,74.6c8.2,6.8,36.3,14.7,38.6,24.9" class="st3"></path>
    <path d="M26.5,60.1c3.9,1.8,22.9,11.5,34.6,19.9" class="st5"></path>
    <path d="M42.8,43.3c5.6-.3,29.5,15,39.6,21.4,2,1.5,3.8,2.9,3.6,7.3" class="st4"></path>
    <path d="M49.6,36c3.6-.8-3.7,5.1-3.6,5.6,0,0-1.5-.2-1.5-.2"></path>
    <path d="M52.1,36.7l-5,5.3,1.6.7,5-5.3s-1.4-.7-1.6-.7Z"></path>
    <polygon points="50.1 43.2 54.9 37.9 56.6 38.5 51.7 44 50.1 43.2"></polygon>
    <polygon points="53.1 44.7 57.9 39.4 59.6 40.1 54.6 45.6 53.1 44.7"></polygon>
    <path d="M60.9,41l-4.9,5.4,1.5,1,4.9-5.4s-1.3-1-1.6-1Z"></path>
    <polygon points="59.1 48.2 63.9 42.9 65.6 43.5 60.7 49 59.1 48.2"></polygon>
    <path d="M66.9,44.4l-4.9,5.4,1.5,1,4.9-5.4s-1.3-1-1.6-1Z"></path>
    <path d="M73.9,48.1c-1.1,1.1-4.2,4.5-5.3,5.7,0,0,1.6,1.1,1.6,1.1l5.5-5.9-1.8-.9Z"></path>
    <path d="M70.3,46.1c-1.1,1.1-4.2,4.5-5.3,5.7,0,0,1.6,1.1,1.6,1.1l5.5-5.9-1.8-.9Z"></path>
    <polygon points="77.2 50 71.7 55.7 73.3 56.9 79 50.9 77.2 50"></polygon>
    <polygon points="80.2 51.9 74.7 57.7 76.4 58.8 81.7 53 80.2 51.9"></polygon>
    <path d="M124.6,46.5c-3.6,5.7-16.2-5.2-26.1-10.3,3.3,2.6,23.4,5.2,26.1,10.3Z" class="st4"></path>
    <path d="M80.3,25.7c2.4-5.2,13.3,1.9,18.6,3.4,0,0,17.7,6.4,19.7,6.9,8.2,1.3,14.4,2.5,5.7,10.9-2.7-5.1-7.7-.3-25.1-10.1-4.7-2.7-19-10.3-16.2-4.2-1.2-.9-1.6-1.5-2-2.1s-.6-1.1-.8-1.7v-.4c-.4-.9-.3-1.8,0-2.7Z" class="st4"></path>
    <path d="M90.7,32.4c-4.1,3.6-11.3-.9-6.6-1.7,0,0,1.3-.5,6.6,1.7Z" class="st4"></path>
    <path d="M139.5,87c0,3.1-4.3,5.8-11.3,7.9-7.9-2.3-19.3-3.8-32-3.8s-4.3,0-6.4.1c3.7-.8,6.5-4,6.5-7.8s-3.2-7.6-7.3-8c2.4-.1,4.8-.2,7.3-.2,23.9,0,43.3,5.3,43.3,11.7Z" class="st1"></path>
    <path d="M96.3,83.4c0,3.9-2.8,7.1-6.5,7.8h0c-.9,0-1.7,0-2.5.1-9,.5-17,1.8-23,3.6-7-2.1-11.3-4.9-11.3-7.9,0-5.6,14.3-10.2,33.5-11.4.8,0,1.7,0,2.5-.1,4.1.4,7.3,3.8,7.3,8Z" class="st1"></path>
    <path d="M139.5,103.1h0c0,2.3-1.3,17.3-33.2,20.5v-15.8c15.6-1.5,23.9-5.9,28.3-10.3h0c4.3-4.3,4.8-8.5,4.9-9.9v15.6Z" class="st1"></path>
    <path d="M80.8,113.8c-14.5-1.2-27.9-6.4-27.9-11v-15.8c0,3,4.3,5.8,11.3,7.9,7.9,2.3,19.3,3.8,32,3.8s24.1-1.5,32-3.8c7-2.1,11.3-4.9,11.3-7.9v.5c0,1.4-.6,5.6-4.9,9.9h0c-4.4,4.3-12.7,8.7-28.3,10.3v15.5" class="st6"></path>
    <path d="M105,106.5c.7,0,1.4.3,1.8.8,0,0,0,0,0,0,.4.5.5,1.1.6,1.3v.9h0v13.5c0,.3-.1.8-.6,1.4,0,0-.1.1-.2.2-.4.4-1,.6-1.7.6h-1.7c-.2,0-.4,0-.6-.1-.3-.1-.4-.2-.5-.3-.2-.1-.2-.2-.4-.3,0,0-.2-.2-.3-.3,0,0-.3-.3-.5-.5-.2-.1-.3-.3-.5-.4,0,0,0,0,0,0-.2,0-.3-.1-.4-.2-.1,0-.3-.2-.6-.3-.2,0-.6-.2-1.1-.2,0,0,0,0,0,0h0s0,0,0,0c0,.2,0,.4,0,.6h0c0,.3,0,.4-.1.5-.2.3-.4.4-.6.4-1.1.4-2.3.8-2.5.9h0s-.1,0-.2,0,0,0-.1,0c-.2,0-.3-.3-.3-.3,0-.2,0-.4,0-.4l.9-1c0,0,.2-.2.2-.3,0,0,0-.1,0-.2,0-.2,0-.3,0-.5,0,0,0,0,0,0-.2-.2-.3-.4-.4-.6,0,0,0-.1,0-.2v-1.5c0,0,0-.1,0-.2.2-.4.4-.7.7-.9.1,0,.2-.1,1-.2.6,0,.9-.1,1-.2.1,0,.2,0,.3,0,.5-.1,1.2-.3,1.7-1,.4-.5.5-1.1.5-1.5,0-.4,0-1-.5-1.5-.5-.7-1.3-.9-1.7-1-.1,0-.2,0-.3,0-.1,0-.4,0-1-.2-.8-.1-.9-.2-1-.2-.3-.2-.5-.5-.7-.9,0,0,0-.1,0-.2v-1.5c0,0,0-.1,0-.2.1-.3.2-.5.4-.6,0,0,0,0,0,0,0-.2,0-.3,0-.5,0,0,0-.1,0-.2,0-.1-.1-.2-.2-.3l-.9-1s-.2-.2,0-.4c0,0,0-.2.3-.3,0,0,0,0,.1,0,.1,0,.2,0,.2,0h0c1.2.4,2,.7,2.5.9.2,0,.5.2.6.4,0,.2.1.3.1.4v.7s0,0,0,0h.1s.2,0,.2,0h0c.4,0,.8-.2.9-.2.3-.1.5-.2.6-.3.1,0,.3-.1.4-.2,0,0,0,0,0,0,.2-.1.3-.3.5-.4.3-.3.5-.5.5-.5.1-.1.2-.2.3-.3.1-.1.2-.2.4-.4.1,0,.3-.2.6-.3.2,0,.4-.1.6-.1h1.7M104.7,123.3h0c.2,0,.4,0,.5-.2.1-.1.2-.3.2-.5v-13.5c0-.4-.3-.7-.8-.8h0c-.2,0-.4,0-.5.2-.1.1-.2.3-.2.5v13.5c0,.2,0,.4.2.5.1.1.3.2.5.2M105,105.5h-1.7c-.3,0-.7,0-1,.2-.3.1-.6.3-.7.4h0s0,0,0,0c-.2.2-.3.3-.5.5,0,0,0,0-.1.1h-.1c0,.2,0,.2,0,.2,0,0-.3.3-.5.5-.1,0-.2.2-.3.3-.1,0-.3.1-.4.2-.1,0-.2.1-.5.2,0,0,0,0,0,0,0-.2-.1-.3-.2-.5-.3-.5-.9-.7-1.1-.8-.5-.2-1.3-.5-2.5-.9h0c-.2,0-.4-.1-.6-.1s-.3,0-.5,0c-.4.1-.7.5-.9.9,0,0,0,0,0,0-.1.4,0,.9.3,1.3,0,0,0,0,0,0l.9,1s0,0,0,0c-.1.2-.2.4-.3.6,0,0,0,0,0,0,0,.1,0,.3,0,.5v1.4c0,.2,0,.4,0,.6.2.6.6,1.1,1.1,1.4.3.2.5.2,1.3.3.4,0,.7.1.9.1h.1c0,0,.1,0,.2,0,.5.1.9.2,1.2.6.2.3.3.7.3.9,0,.4,0,.7-.3.9-.3.4-.7.5-1.2.6,0,0-.1,0-.2,0h-.2c-.2,0-.4,0-.9.2-.8.1-1,.2-1.3.3-.5.3-.9.8-1.1,1.4,0,.2,0,.3,0,.5v1.5c0,.2,0,.3.1.4,0,0,0,0,0,.1,0,.2.2.4.3.6,0,0,0,0,0,0l-1,1s0,0,0,.1c-.3.4-.3.8-.2,1.3,0,.3.4.8.9.9.1,0,.3,0,.4,0,.3,0,.5,0,.6-.1.3-.1,1.5-.5,2.5-.9.2,0,.8-.3,1.1-.8,0-.1.2-.3.2-.5,0,0,0,0,0,0,.2,0,.3.1.4.2h0c0,0,.2.1.4.2.1,0,.2.2.3.3.1.1.3.3.4.4,0,0,0,0,.1.1h0c0,.2.1.2.2.3h0c.1.2.2.3.5.5.2.1.4.3.8.5.3.1.6.2.9.2,0,0,0,0,0,0h1.7c.9,0,1.7-.3,2.3-.8,0,0,.2-.2.3-.3.7-.8.8-1.6.8-2v-13.4s0,0,0-.1v-.9s0,0,0,0c0-.3-.1-1.2-.8-1.9-.6-.7-1.6-1.1-2.6-1.1h0Z" class="st8"></path>
    <path d="M105,106.5c.7,0,1.4.3,1.8.8,0,0,0,0,0,0,.4.5.5,1.1.6,1.3v.9h0v13.5c0,.3-.1.8-.6,1.4,0,0-.1.1-.2.2-.4.4-1,.6-1.7.6h-1.7c-.2,0-.4,0-.6-.1-.3-.1-.4-.2-.5-.3-.2-.1-.2-.2-.4-.3,0,0-.2-.2-.3-.3,0,0-.3-.3-.5-.5-.2-.1-.3-.3-.5-.4,0,0,0,0,0,0-.2,0-.3-.1-.4-.2-.1,0-.3-.2-.6-.3-.2,0-.6-.2-1.1-.2,0,0,0,0,0,0h0s0,0,0,0c0,.2,0,.4,0,.6h0c0,.3,0,.4-.1.5-.2.3-.4.4-.6.4-1.1.4-2.3.8-2.5.9h0s-.1,0-.2,0,0,0-.1,0c-.2,0-.3-.3-.3-.3,0-.2,0-.4,0-.4l.9-1c0,0,.2-.2.2-.3,0,0,0-.1,0-.2,0-.2,0-.3,0-.5,0,0,0,0,0,0-.2-.2-.3-.4-.4-.6,0,0,0-.1,0-.2v-1.5c0,0,0-.1,0-.2.2-.4.4-.7.7-.9.1,0,.2-.1,1-.2.6,0,.9-.1,1-.2.1,0,.2,0,.3,0,.5-.1,1.2-.3,1.7-1,.4-.5.5-1.1.5-1.5,0-.4,0-1-.5-1.5-.5-.7-1.3-.9-1.7-1-.1,0-.2,0-.3,0-.1,0-.4,0-1-.2-.8-.1-.9-.2-1-.2-.3-.2-.5-.5-.7-.9,0,0,0-.1,0-.2v-1.5c0,0,0-.1,0-.2.1-.3.2-.5.4-.6,0,0,0,0,0,0,0-.2,0-.3,0-.5,0,0,0-.1,0-.2,0-.1-.1-.2-.2-.3l-.9-1s-.2-.2,0-.4c0,0,0-.2.3-.3,0,0,0,0,.1,0,.1,0,.2,0,.2,0h0c1.2.4,2,.7,2.5.9.2,0,.5.2.6.4,0,.2.1.3.1.4v.7s0,0,0,0h.1s.2,0,.2,0h0c.4,0,.8-.2.9-.2.3-.1.5-.2.6-.3.1,0,.3-.1.4-.2,0,0,0,0,0,0,.2-.1.3-.3.5-.4.3-.3.5-.5.5-.5.1-.1.2-.2.3-.3.1-.1.2-.2.4-.4.1,0,.3-.2.6-.3.2,0,.4-.1.6-.1h1.7M104.7,123.3h0c.2,0,.4,0,.5-.2.1-.1.2-.3.2-.5v-13.5c0-.4-.3-.7-.8-.8h0c-.2,0-.4,0-.5.2-.1.1-.2.3-.2.5v13.5c0,.2,0,.4.2.5.1.1.3.2.5.2M105,105.5h-1.7c-.3,0-.7,0-1,.2-.3.1-.6.3-.7.4h0s0,0,0,0c-.2.2-.3.3-.5.5,0,0,0,0-.1.1h-.1c0,.2,0,.2,0,.2,0,0-.3.3-.5.5-.1,0-.2.2-.3.3-.1,0-.3.1-.4.2-.1,0-.2.1-.5.2,0,0,0,0,0,0,0-.2-.1-.3-.2-.5-.3-.5-.9-.7-1.1-.8-.5-.2-1.3-.5-2.5-.9h0c-.2,0-.4-.1-.6-.1s-.3,0-.5,0c-.4.1-.7.5-.9.9,0,0,0,0,0,0-.1.4,0,.9.3,1.3,0,0,0,0,0,0l.9,1s0,0,0,0c-.1.2-.2.4-.3.6,0,0,0,0,0,0,0,.1,0,.3,0,.5v1.4c0,.2,0,.4,0,.6.2.6.6,1.1,1.1,1.4.3.2.5.2,1.3.3.4,0,.7.1.9.1h.1c0,0,.1,0,.2,0,.5.1.9.2,1.2.6.2.3.3.7.3.9,0,.4,0,.7-.3.9-.3.4-.7.5-1.2.6,0,0-.1,0-.2,0h-.2c-.2,0-.4,0-.9.2-.8.1-1,.2-1.3.3-.5.3-.9.8-1.1,1.4,0,.2,0,.3,0,.5v1.5c0,.2,0,.3.1.4,0,0,0,0,0,.1,0,.2.2.4.3.6,0,0,0,0,0,0l-1,1s0,0,0,.1c-.3.4-.3.8-.2,1.3,0,.3.4.8.9.9.1,0,.3,0,.4,0,.3,0,.5,0,.6-.1.3-.1,1.5-.5,2.5-.9.2,0,.8-.3,1.1-.8,0-.1.2-.3.2-.5,0,0,0,0,0,0,.2,0,.3.1.4.2h0c0,0,.2.1.4.2.1,0,.2.2.3.3.1.1.3.3.4.4,0,0,0,0,.1.1h0c0,.2.1.2.2.3h0c.1.2.2.3.5.5.2.1.4.3.8.5.3.1.6.2.9.2,0,0,0,0,0,0h1.7c.9,0,1.7-.3,2.3-.8,0,0,.2-.2.3-.3.7-.8.8-1.6.8-2v-13.4s0,0,0-.1v-.9s0,0,0,0c0-.3-.1-1.2-.8-1.9-.6-.7-1.6-1.1-2.6-1.1h0Z"></path>
    <path d="M82.3,105.8s0,0,0,0h.7s.7,0,.7,0c1.4,0,2.9,0,4.3,0,.2,0,.5,0,.9.2.2,0,.6.3,1,.7.2.2.2.3.3.4,0,.1.2.3.3.5.4.5.8.9,1.2,1.3.2.2.3.3.4.4.2.1.3.2.4.4h0c.1.2.4.5.4.9,0,.2,0,.3,0,.4,0,.2,0,.4,0,.7,0,.3,0,.5.1.7.2.8.9,1.2,1,1.3.5.3.9.3,1.1.4.1,0,.2,0,.3,0s.1,0,.2,0c0,0,.1,0,.2,0s.2,0,.3,0h0c.3,0,.6,0,.9.2.2,0,.7.3,1,.9,0,.2.1.4.1.7,0,.2,0,.5-.1.7-.3.6-.8.9-1,.9-.3.1-.6.2-.9.2h0c-.1,0-.2,0-.3,0s-.1,0-.2,0c0,0-.1,0-.2,0s-.2,0-.3,0c-.2,0-.7,0-1.1.4-.2.1-.8.5-1,1.3,0,.2,0,.4-.1.8,0,.3,0,.5,0,.7,0,.1,0,.3,0,.4,0,.4-.3.7-.4.9h0c-.1.2-.2.3-.4.4-.1,0-.2.2-.4.4-.4.4-.8.7-1.2,1.2-.2.2-.3.4-.3.5,0,.1-.1.2-.3.4-.4.4-.8.6-1,.7-.3.1-.7.2-.8.2-1.5,0-2.9,0-4.3,0h-.7s-.9,0-.9,0c0,0,0,0,0,0,0,0,0,0,0,0,0,0,0,0,0,0-.2,0-.4-.3-.4-.5v-18.8c0-.3.2-.5.5-.5,0,0,0,0,0,0,0,0,0,0,0,0s0,0,0,0c0,0,0,0,0,0h0s0,0,0,0M88.2,123.7h0c.2,0,.4,0,.6-.2.2-.1.2-.3.2-.6v-14.3c0-.4-.3-.8-.8-.8h0c-.4,0-.8.3-.8.8v14.3c0,.2,0,.4.2.6.2.1.4.2.6.2M84.4,123.7h0c.2,0,.4,0,.6-.2.1-.1.2-.3.2-.6v-14.3c0-.2,0-.4-.2-.6-.2-.1-.4-.2-.6-.2h0c-.2,0-.4,0-.6.2-.2.1-.2.3-.2.6v14.3c0,.4.4.8.8.8M82.3,104.9s0,0,0,0c0,0,0,0-.1,0-.1,0-.2,0-.3,0-.7.2-1.1.8-1.1,1.5v18.8c0,.7.4,1.2,1.1,1.5,0,0,0,0,0,0,0,0,.1,0,.2,0,0,0,.1,0,.2,0h.9s0,0,0,0h.6c1.5,0,2.9,0,4.3,0s0,0,.1,0c.2,0,.6,0,1.1-.3.3-.1.8-.4,1.3-.9.2-.2.3-.4.4-.6,0,0,0,0,0,0,0,0,.1-.2.2-.4.3-.4.6-.7,1.1-1.1.2-.2.3-.3.4-.3.2-.2.4-.3.6-.5,0,0,0,0,0,0,.2-.3.5-.7.6-1.3,0-.3,0-.5,0-.6h0c0-.2,0-.3,0-.5,0-.3,0-.4,0-.6.2-.4.6-.7.6-.7.3-.2.6-.2.7-.2,0,0,.1,0,.2,0s0,0,.1,0c0,0,.2,0,.2,0,.1,0,.2,0,.4,0,0,0,0,0,0,0h0c.3,0,.7,0,1.1-.3.3-.1,1-.5,1.4-1.4.1-.3.2-.6.2-1,0,0,0,0,0,0,0-.4,0-.7-.2-1-.4-.9-1.2-1.3-1.5-1.4-.4-.2-.8-.3-1.1-.3,0,0,0,0,0,0-.2,0-.3,0-.4,0s-.2,0-.2,0c0,0,0,0,0,0h0c0,0-.1,0-.2,0-.2,0-.5,0-.7-.2,0,0-.5-.3-.6-.7,0-.1,0-.2,0-.5,0-.2,0-.4,0-.5,0-.2,0-.4,0-.6,0,0,0,0,0,0,0-.6-.4-1.1-.6-1.3,0,0,0,0,0,0-.2-.3-.4-.4-.6-.6h0c0-.1-.2-.2-.3-.3-.4-.3-.7-.7-1.1-1.1-.1-.2-.2-.3-.3-.4-.1-.2-.2-.3-.4-.6-.5-.5-1-.7-1.3-.9-.4-.1-.7-.2-1.1-.3,0,0,0,0,0,0-.7,0-1.4,0-2.2,0-.7,0-1.4,0-2.2,0h-.7s0,0,0,0h-.7s0,0,0,0h0Z"></path>
  </g>
  <path d="M83.7,23.6c4.4,0,11.3,4.2,15.3,5.3h0s17.7,6.4,19.7,6.9c8.2,1.3,14.4,2.5,5.7,10.9,0,0,0,0,0,0-.7.9-1.7,1.2-2.8,1.2-4.3,0-11.5-5.1-18.3-9.2-1.3-.6-2.6-1.3-4-2.1-3.4-1.9-11.9-6.5-15.2-6.5s-1.4.3-1.4,1.1c.2-.3.7-.5,1.4-.6,0,0,.1,0,.5,0,.8,0,2.5.2,6.1,1.8-1.2,1-2.5,1.4-3.9,1.4s-3.1-.6-3.8-1.2c0,0,0,0,0,0-1.2-.9-1.6-1.5-2-2.1-.2-.3-.4-.6-.5-.9-.9.2-1.9.5-2.8.8l-2.7,3c13.5,7.1,29.8,17.6,27.4,19.4-.2.1-1.3,1.5-3.2,3.6,0,0,0,0,0,.1h0c-3.6,4.2-9.9,11.5-16.5,19.4,1.2-.1,2.4-.2,3.7-.3.8,0,1.7,0,2.5-.1,2.4-.1,4.8-.2,7.3-.2,23.9,0,43.3,5.3,43.3,11.7v16.1s0,0,0,0c0,2.2-1.3,16.9-32.2,20.3,0,.3-.2.6-.5,1,0,0-.1.1-.2.2-.4.4-1,.6-1.7.6h-1.7c-.2,0-.4,0-.6-.1-.3-.1-.4-.2-.5-.3-.2-.1-.2-.2-.4-.3,0,0-.2-.2-.3-.3,0,0-.3-.3-.5-.5-.2-.1-.3-.3-.5-.4,0,0,0,0,0,0-.2,0-.3-.1-.4-.2-.1,0-.3-.2-.6-.3-.2,0-.6-.2-1.1-.2,0,0,0,0,0,0h0s0,0,0,0c0,.2,0,.4,0,.6h0c0,.3,0,.4-.1.5-.2.3-.4.4-.6.4-1.1.4-2.3.8-2.5.9h0s-.1,0-.2,0,0,0-.1,0c-.2,0-.3-.3-.3-.3,0-.2,0-.4,0-.4l.9-1c0,0,.2-.2.2-.3,0,0,0-.1,0-.2,0-.2,0-.3,0-.5,0,0,0,0,0,0-.2-.2-.3-.4-.4-.6,0,0,0-.1,0-.2v-1.5c0,0,0-.1,0-.2.2-.4.4-.7.7-.9.1,0,.2-.1,1-.2.6,0,.9-.1,1-.2.1,0,.2,0,.3,0,.5-.1,1.2-.3,1.7-1,.4-.5.5-1.1.5-1.5,0-.4,0-.9-.4-1.3-.8,0-1.6,0-2.4,0,.2.1.4.3.5.6,0,.2.1.4.1.7,0,.2,0,.5-.1.7-.3.6-.8.9-1,.9-.3.1-.6.2-.9.2h0c-.1,0-.2,0-.3,0s-.1,0-.2,0c0,0-.1,0-.2,0s-.2,0-.3,0c-.2,0-.7,0-1.1.4-.2.1-.8.5-1,1.3,0,.2,0,.4-.1.8,0,.3,0,.5,0,.7,0,.1,0,.3,0,.4,0,.4-.3.7-.4.9h0c-.1.2-.2.3-.4.4-.1,0-.2.2-.4.4-.4.4-.8.7-1.2,1.2-.2.2-.3.4-.3.5,0,.1-.1.2-.3.4-.4.4-.8.6-1,.7-.3.1-.7.2-.8.2-1.5,0-2.9,0-4.3,0h-.7s-.9,0-.9,0c0,0,0,0,0,0,0,0,0,0,0,0,0,0,0,0,0,0-.2,0-.4-.3-.4-.5v-11.3c-11.6-1.1-20.9-3.5-25.6-6.6-.7.7-2.1,2.2-2.5,2.3,0,0-.2.1-.4.1s-.3,0-.5,0c0,0,0,.2,0,.2l-.7-.5c-2.8-1.2-8.8-5.2-15.1-9.7-5-.9-20.5-12.3-24.7-16.6-.8-.9-1.8-2.3-1.4-3.8,1.1-2.3,7.9-10,16.1-18.9h-.2c0-.1.1,0,.2,0,6.6-7.2,14.1-15.1,20.2-21.4l2.6-2.8s0,0,0,0c2.5-2.6,4.7-4.9,6.3-6.5h0s0,0,.1,0c1.1-1.1,1.9-2,2.4-2.5,0-.2.3-.4.8-.4,1.5,0,5.1,1.4,9.6,3.5l2.9-2.8,2.4,1.1c.2,0,.5-.2,1-.2,1.1-.2,3.3-.5,5.1-.7,0-.6,0-1.2.3-1.8.6-1.4,1.8-1.9,3.4-1.9M83.7,21.6h0c-3.1,0-4.5,1.6-5.2,3-.1.3-.2.6-.3.9-1.4.2-2.7.4-3.5.5-.2,0-.4,0-.6,0l-1.8-.8c-.3-.1-.5-.2-.8-.2-.5,0-1,.2-1.4.6l-1.9,1.8c-6.8-3.1-8.6-3.1-9.2-3.1-1.3,0-2,.6-2.4,1.2-.4.4-.9,1-1.6,1.7h-.1c-.3.3-.6.6-.8.9,0,0,0,.1,0,.2-1.5,1.5-3.4,3.5-5.5,5.8-.1,0-.3.2-.4.3l-2.6,2.8c-7.6,8-14.2,15-19.6,20.8-.4.2-.8.5-1.1.9,0,.2-.2.3-.2.5-12.7,13.8-15.1,17.3-15.8,18.6,0,.1,0,.2-.1.4-.5,1.9.2,3.9,1.9,5.7,4,4.1,19.1,15.5,25.3,17.1,7.2,5.2,12.3,8.4,15,9.6l.5.4c.3.2.8.4,1.2.4s.3,0,.5,0c0,0,.2,0,.3,0,.5,0,.9-.2,1.2-.3.3-.2.9-.5,1.9-1.5,4.9,2.7,13.2,4.8,23.2,5.9v9.5c0,1.1.7,2.1,1.7,2.4,0,0,0,0,0,0,.1,0,.3,0,.4,0,.1,0,.2,0,.4,0h.9s0,0,.1,0h.6c1.4,0,2.9,0,4.3,0s.2,0,.2,0c.3,0,.8,0,1.3-.3.4-.2,1.1-.5,1.6-1.1.3-.3.5-.5.6-.8,0,0,0,0,0,0,0,0,0-.1.2-.3,0,0,.1-.2.2-.2,0,0,0,0,0,.1.2.6.7,1.3,1.6,1.6.2,0,.5.1.8.1.4,0,.7,0,.9-.2.4-.1,1.5-.5,2.5-.9.3,0,.9-.3,1.4-.9,0,0,0,0,0,0,.1.1.3.3.4.3,0,0,0,0,.1.1h0c0,.1,0,.2.1.2,0,0,0,0,0,0h0c.1.2.3.4.6.6.2.2.6.4,1,.6.4.2.8.3,1.3.3,0,0,0,0,.1,0h1.7c1.1,0,2.2-.4,3-1.1.1-.1.2-.2.3-.4.1-.1.2-.3.3-.4,31.1-3.8,32.8-19.1,32.8-22.1v-15.6s0-.5,0-.5c0-9-22.8-13.7-45.3-13.7s-5,0-7.4.2c-.5,0-1,0-1.5,0,4.7-5.6,9.7-11.5,13-15.3,0,0,.1,0,.1,0,.3-.2.5-.5.7-.8,1.9-2.2,2.4-2.8,2.6-3,.6-.5,1-1.3.9-2.2,0-1.4-1-3.4-10.1-9.5-4.6-3.1-10.6-6.6-16.3-9.8l.6-.7h0s.7-.2.7-.2c.4.6,1,1.3,2.2,2.2,0,0,0,0,0,0,1.2,1,3.1,1.6,5,1.6s2.9-.4,4.1-1.1c2,.9,4.4,2.2,7.3,3.8,1.3.8,2.7,1.4,4,2.1,1.2.7,2.4,1.5,3.6,2.3,5.9,3.7,11.5,7.2,15.6,7.2s3.5-.9,4.2-1.8c0,0,0,0,0,0,4-3.8,5.4-6.6,4.6-9.1-1.1-3.5-6.1-4.3-11.3-5.2-1.2-.3-8.7-2.9-19.2-6.8-.1,0-.2,0-.3-.1h0c-1.3-.4-3.1-1.2-5-2-3.6-1.6-7.6-3.4-10.8-3.4h0Z"></path>
</svg>